<svg width="79" height="58" viewBox="0 0 79 58" fill="none" xmlns="http://www.w3.org/2000/svg">
<g clip-path="url(#clip0)">
<path fill-rule="evenodd" clip-rule="evenodd" d="M0 0H79V58H0V0Z" fill="white"/>
<path fill-rule="evenodd" clip-rule="evenodd" d="M-0.481934 0H86.2254V29H-0.481934V0Z" fill="#DF0000"/>
<path fill-rule="evenodd" clip-rule="evenodd" d="M19.5091 4.8574C17.228 5.34928 15.185 6.61364 13.7231 8.4382C12.2612 10.2628 11.4695 12.5364 11.4808 14.8775C11.4921 17.2185 12.3057 19.4844 13.7852 21.2947C15.2646 23.1049 17.3197 24.3494 19.6055 24.8191C18.296 25.1992 16.9247 25.3163 15.57 25.1636C14.2154 25.0108 12.9042 24.5912 11.7115 23.9289C10.5188 23.2666 9.4682 22.3745 8.61988 21.3039C7.77156 20.2332 7.14223 19.0051 6.76798 17.6899C6.02467 15.0462 6.35483 12.2147 7.68627 9.81453C9.01772 7.41436 11.2421 5.64079 13.8732 4.88157C15.8 4.32574 17.5823 4.31365 19.5212 4.8574H19.5091Z" fill="white"/>
<path fill-rule="evenodd" clip-rule="evenodd" d="M17.9435 13.2915L18.5336 15.104L16.9681 13.9924L15.4266 15.1282L15.9926 13.2915L14.4512 12.1678L16.366 12.1436L16.9681 10.3311L17.5702 12.1436H19.473L17.9435 13.2915ZM20.051 19.5749L20.6532 21.3994L19.0876 20.2878L17.5341 21.4115L18.1121 19.5869L16.5707 18.4511L18.4855 18.439L19.0756 16.6144L19.6777 18.4269H21.6045L20.051 19.5749ZM27.096 19.5265L27.6861 21.3632L26.1205 20.2394L24.5791 21.3632L25.1451 19.5386L23.6036 18.4149L25.5184 18.3907L26.1205 16.5782L26.7227 18.3907H28.6254L27.096 19.5265ZM29.1914 13.2915L29.7815 15.1161L28.216 14.0044L26.6745 15.1282L27.2525 13.3036L25.699 12.1678L27.6259 12.1557L28.2039 10.3311L28.806 12.1436H30.7329L29.1914 13.2915ZM23.6157 9.14694L24.2178 10.9836L22.6522 9.85986L21.0987 10.9957L21.6768 9.15902L20.1353 8.02319L22.0381 8.01111L22.6402 6.18652L23.2423 7.99902H25.1692L23.6157 9.14694Z" fill="white"/>
</g>
<defs>
<clipPath id="clip0">
<rect width="79" height="58" rx="15" fill="white"/>
</clipPath>
</defs>
</svg>
