<svg width="68" height="69" fill="none" xmlns="http://www.w3.org/2000/svg"><circle cx="36" cy="32" r="32" fill="url(#paint0_linear)"/><path d="M39.316 28.61h-6.968a1.074 1.074 0 000 2.148h5.894v21.484H16.758V30.758h5.922a1.074 1.074 0 000-2.149h-6.996c-.594 0-1.075.481-1.075 1.075v23.632c0 .594.481 1.075 1.075 1.075h23.632c.594 0 1.075-.481 1.075-1.075V29.684c0-.594-.481-1.075-1.075-1.075z" fill="#455CF3"/><path d="M19.336 34.41v4.727c0 .593.481 1.074 1.074 1.074h4.727c.593 0 1.074-.481 1.074-1.074V34.41c0-.593-.481-1.074-1.074-1.074H20.41c-.593 0-1.074.48-1.074 1.074zm2.148 1.074h2.578v2.578h-2.578v-2.578zm8.379 0h4.727a1.074 1.074 0 000-2.148h-4.727a1.074 1.074 0 000 2.148zm0 4.726h4.727a1.074 1.074 0 000-2.148h-4.727a1.074 1.074 0 000 2.149zm0 9.454h4.727c.593 0 1.074-.481 1.074-1.074v-4.727a1.074 1.074 0 00-2.148 0v3.653h-3.653a1.074 1.074 0 000 2.148zm0-4.726c.283 0 .56-.115.76-.315.2-.2.314-.477.314-.76 0-.282-.114-.56-.314-.76a1.086 1.086 0 00-.76-.314c-.282 0-.56.115-.76.315-.199.2-.314.477-.314.76 0 .282.115.559.315.759.2.2.477.315.76.315zm-4.726 2.578H20.41a1.074 1.074 0 000 2.148h4.727a1.074 1.074 0 000-2.148zm0-4.726H20.41a1.074 1.074 0 000 2.148h4.727a1.074 1.074 0 000-2.149z" fill="#455CF3"/><path d="M53.926 42.574a1.074 1.074 0 000-2.148h-8.38v-3.867h4.083a1.074 1.074 0 000-2.149h-4.082v-3.867h8.379a1.074 1.074 0 000-2.148h-8.443a5.814 5.814 0 00-4.877-4.878v-8.443a1.074 1.074 0 00-2.149 0v8.38H34.59V19.37a1.074 1.074 0 00-2.149 0v4.082h-3.867v-8.379a1.074 1.074 0 00-2.148 0v8.38h-3.867V19.37a1.074 1.074 0 00-2.149 0v4.082h-3.867v-8.379a1.074 1.074 0 00-2.148 0v8.443a5.814 5.814 0 00-4.878 4.878H1.074a1.074 1.074 0 000 2.148h8.38v3.867H5.37a1.074 1.074 0 000 2.149h4.082v3.867H1.074a1.074 1.074 0 000 2.148h8.38v3.867H5.37a1.074 1.074 0 000 2.149h4.082v3.867H1.074a1.074 1.074 0 000 2.148h8.443a5.814 5.814 0 004.878 4.878v8.443a1.074 1.074 0 002.148 0v-8.38h3.867v4.083a1.074 1.074 0 002.149 0v-4.082h3.867v8.379a1.074 1.074 0 002.148 0v-8.38h3.867v4.083a1.074 1.074 0 002.149 0v-4.082h3.867v8.379a1.074 1.074 0 002.148 0v-8.443a5.814 5.814 0 004.878-4.877h8.443a1.074 1.074 0 000-2.149h-8.38V48.59h4.083a1.074 1.074 0 000-2.149h-4.082v-3.867h8.379zM43.398 53.746a3.656 3.656 0 01-3.652 3.652H15.254a3.656 3.656 0 01-3.652-3.652V29.254a3.656 3.656 0 013.652-3.652h24.492a3.656 3.656 0 013.652 3.652v24.492z" fill="#455CF3"/><path d="M27.514 30.758c.283 0 .56-.115.76-.315.2-.2.314-.477.314-.76 0-.282-.115-.56-.315-.759a1.08 1.08 0 00-.759-.315 1.078 1.078 0 00-.76 1.834c.2.2.476.315.76.315z" fill="#455CF3"/><defs><linearGradient id="paint0_linear" x1="61" y1="12.5" x2="15.5" y2="55.5" gradientUnits="userSpaceOnUse"><stop offset=".25" stop-color="#EDEDFF"/><stop offset="1" stop-color="#fff" stop-opacity="0"/></linearGradient></defs></svg>