<svg width="69" height="69" fill="none" xmlns="http://www.w3.org/2000/svg"><circle cx="37" cy="32" r="32" fill="url(#paint0_linear)"/><path d="M45.002 40.426c-.283 0-.56.115-.76.314-.2.2-.315.476-.315.76 0 .282.115.56.315.76.2.2.477.314.76.314.283 0 .56-.115.76-.315.199-.2.314-.477.314-.759 0-.284-.115-.56-.315-.76-.2-.2-.477-.314-.76-.314z" fill="#455CF3"/><path d="M46.076 48.614v-2.28a1.074 1.074 0 00-2.148 0v2.279a4.519 4.519 0 00-3.439 4.381c0 .438.064.861.18 1.261L28.348 61.37a4.498 4.498 0 00-6.51 0L9.514 54.254a4.519 4.519 0 00-3.257-5.642V34.387a4.519 4.519 0 003.438-4.381c0-.438-.064-.86-.18-1.26l12.322-7.115a4.498 4.498 0 006.51 0l12.323 7.114a4.519 4.519 0 003.258 5.643v2.278a1.074 1.074 0 102.148 0v-2.28a4.519 4.519 0 003.436-4.38 4.517 4.517 0 00-4.511-4.512 4.498 4.498 0 00-3.254 1.392L29.423 19.77A4.517 4.517 0 0025.092 14a4.517 4.517 0 00-4.331 5.77L8.438 26.886a4.497 4.497 0 00-3.255-1.392 4.517 4.517 0 00-4.511 4.512 4.519 4.519 0 003.437 4.381v14.226a4.519 4.519 0 00-3.437 4.381 4.517 4.517 0 004.511 4.512 4.498 4.498 0 003.255-1.392l12.323 7.115A4.517 4.517 0 0025.092 69a4.517 4.517 0 004.331-5.77l12.324-7.116A4.498 4.498 0 0045 57.506a4.517 4.517 0 004.511-4.512 4.519 4.519 0 00-3.436-4.38zm-1.075-20.971a2.366 2.366 0 012.363 2.363A2.366 2.366 0 0145 32.369a2.366 2.366 0 01-2.363-2.363A2.366 2.366 0 0145 27.643zM25.092 16.148a2.366 2.366 0 012.363 2.364 2.366 2.366 0 01-2.363 2.363 2.366 2.366 0 01-2.363-2.363 2.366 2.366 0 012.363-2.364zM2.82 30.006a2.366 2.366 0 012.363-2.363 2.366 2.366 0 012.363 2.363 2.366 2.366 0 01-2.359 2.363H5.18a2.366 2.366 0 01-2.359-2.363zm2.363 25.352a2.366 2.366 0 01-2.363-2.363 2.366 2.366 0 012.363-2.364 2.366 2.366 0 012.363 2.364 2.366 2.366 0 01-2.363 2.363zm19.909 11.494a2.366 2.366 0 01-2.363-2.363 2.348 2.348 0 01.317-1.181 2.364 2.364 0 012.046-1.182 2.366 2.366 0 012.363 2.363 2.366 2.366 0 01-2.363 2.363zm19.909-11.494a2.366 2.366 0 01-2.363-2.363A2.366 2.366 0 0145 50.63a2.366 2.366 0 012.363 2.364A2.366 2.366 0 0145 55.358z" fill="#455CF3"/><path d="M25.092 27.966a6.667 6.667 0 00-6.66 6.66v1.079a3.844 3.844 0 00-3.652 3.835v5.183c0 5.686 4.626 10.312 10.312 10.312 5.686 0 10.312-4.626 10.312-10.312V39.54a3.844 3.844 0 00-3.652-3.835v-1.08a6.667 6.667 0 00-6.66-6.66zm-4.511 6.66a4.517 4.517 0 014.511-4.512 4.517 4.517 0 014.512 4.512V35.7H20.58v-1.074zm12.675 4.914v5.183c0 4.501-3.662 8.163-8.164 8.163s-8.164-3.662-8.164-8.163V39.54c0-.933.76-1.692 1.692-1.692h12.944c.933 0 1.692.759 1.692 1.692z" fill="#455CF3"/><path d="M25.092 40.426a3.441 3.441 0 00-3.437 3.437c0 1.52.992 2.813 2.363 3.265v2.106a1.074 1.074 0 002.149 0v-2.107a3.443 3.443 0 002.362-3.264 3.441 3.441 0 00-3.437-3.437zm0 4.726a1.29 1.29 0 01-1.289-1.289c0-.71.578-1.289 1.289-1.289a1.29 1.29 0 010 2.578z" fill="#455CF3"/><defs><linearGradient id="paint0_linear" x1="62" y1="12.5" x2="16.5" y2="55.5" gradientUnits="userSpaceOnUse"><stop offset=".25" stop-color="#EDEDFF"/><stop offset="1" stop-color="#fff" stop-opacity="0"/></linearGradient></defs></svg>