<svg width="68" height="69" fill="none" xmlns="http://www.w3.org/2000/svg"><circle cx="36" cy="32" r="32" fill="url(#paint0_linear)"/><g clip-path="url(#clip0)" fill="#455CF3"><path d="M32.233 29.66c.283 0 .559-.116.76-.316.2-.2.315-.477.315-.759 0-.284-.115-.56-.315-.76-.2-.2-.477-.314-.76-.314-.283 0-.56.115-.76.315a1.08 1.08 0 000 1.519c.2.2.477.314.76.314z"/><path d="M50.059 59.11a4.949 4.949 0 00-4.823 3.867h-5.705v-7.31h.552c5.5 0 9.976-4.474 9.976-9.975a9.915 9.915 0 00-2.876-7.007 9.923 9.923 0 00-4.468-2.617h5.41c.593 0 1.074-.48 1.074-1.074V22.901a4.52 4.52 0 003.438-4.382 4.517 4.517 0 00-4.512-4.512 4.517 4.517 0 00-4.512 4.512 4.519 4.519 0 003.438 4.382V33.92h-6.604a11.222 11.222 0 00-3.985-4.724 1.074 1.074 0 00-1.195 1.786 9.044 9.044 0 013.882 5.989c.086.511.526.889 1.045.896 4.255.059 7.716 3.57 7.716 7.825 0 4.316-3.511 7.828-7.827 7.828H12.492a5.408 5.408 0 01-5.402-5.403 5.391 5.391 0 013.715-5.132c.502-.165.81-.67.725-1.192a7.294 7.294 0 01-.092-1.157c0-3.973 3.232-7.206 7.206-7.206.953 0 1.88.183 2.753.545a1.074 1.074 0 001.311-.406 9.06 9.06 0 015.802-3.932 1.074 1.074 0 00-.416-2.108 11.22 11.22 0 00-6.69 4.167 9.316 9.316 0 00-2.76-.415 9.322 9.322 0 00-6.505 2.639H7.95V23.774a4.95 4.95 0 003.867-4.823 4.947 4.947 0 00-4.941-4.941 4.947 4.947 0 00-4.941 4.941A4.949 4.949 0 005.8 23.774v11.22c0 .593.48 1.074 1.074 1.074h3.608a9.297 9.297 0 00-1.172 5.2 7.533 7.533 0 00-4.37 6.85c0 4.163 3.388 7.55 7.551 7.55h2.977v7.31H9.764A4.95 4.95 0 004.94 59.11 4.947 4.947 0 000 64.052a4.947 4.947 0 004.941 4.94 4.949 4.949 0 004.823-3.866h6.779c.593 0 1.074-.481 1.074-1.075v-8.383h8.809V60.1a4.519 4.519 0 00-3.438 4.381 4.517 4.517 0 004.512 4.512 4.517 4.517 0 004.512-4.512 4.519 4.519 0 00-3.438-4.381v-4.432h8.809v8.384c0 .593.48 1.074 1.074 1.074h6.78a4.95 4.95 0 004.822 3.867A4.947 4.947 0 0055 64.052a4.947 4.947 0 00-4.941-4.942zm-4.297-40.59a2.366 2.366 0 012.363-2.363 2.366 2.366 0 012.363 2.363 2.366 2.366 0 01-2.363 2.363 2.366 2.366 0 01-2.363-2.363zm-41.68.432a2.796 2.796 0 012.793-2.793 2.796 2.796 0 012.793 2.793 2.796 2.796 0 01-2.793 2.793 2.796 2.796 0 01-2.793-2.793zm.86 47.894a2.796 2.796 0 01-2.794-2.793 2.796 2.796 0 012.793-2.793 2.796 2.796 0 012.793 2.793 2.796 2.796 0 01-2.793 2.793zm24.921-2.364a2.366 2.366 0 01-2.363 2.364 2.366 2.366 0 01-2.363-2.364 2.366 2.366 0 012.363-2.363 2.366 2.366 0 012.363 2.363zm20.196 2.364a2.796 2.796 0 01-2.793-2.793 2.796 2.796 0 012.793-2.793 2.796 2.796 0 012.793 2.793 2.796 2.796 0 01-2.793 2.793z"/></g><defs><linearGradient id="paint0_linear" x1="61" y1="12.5" x2="15.5" y2="55.5" gradientUnits="userSpaceOnUse"><stop offset=".25" stop-color="#EDEDFF"/><stop offset="1" stop-color="#fff" stop-opacity="0"/></linearGradient><clipPath id="clip0"><path fill="#fff" transform="translate(0 14)" d="M0 0h55v55H0z"/></clipPath></defs></svg>