<svg width="68" height="69" fill="none" xmlns="http://www.w3.org/2000/svg"><circle cx="36" cy="32" r="32" fill="url(#paint0_linear)"/><g clip-path="url(#clip0)" fill="#455CF3"><path d="M26.381 28.18h-8.987a1.074 1.074 0 100 2.148h8.987a1.074 1.074 0 100-2.148zm5.599 2.149c.282 0 .56-.115.76-.315.2-.2.314-.477.314-.76a1.077 1.077 0 00-1.834-.76c-.2.2-.314.477-.314.76 0 .283.115.56.314.76.2.2.477.315.76.315zm5.626 0a1.078 1.078 0 00.76-1.834 1.076 1.076 0 00-1.834.76c0 .282.115.56.315.759.2.2.477.315.76.315zM16.32 19.801c0 .594.48 1.074 1.074 1.074h8.987a1.074 1.074 0 100-2.148h-8.987c-.593 0-1.074.481-1.074 1.074zm15.66 1.075c.282 0 .56-.115.76-.315.2-.2.314-.477.314-.76a1.078 1.078 0 00-1.834-.76c-.2.201-.314.477-.314.76 0 .283.115.56.314.76.2.2.477.315.76.315zm6.386-.315a1.078 1.078 0 000-1.519 1.076 1.076 0 00-1.519 0c-.2.2-.315.476-.315.76 0 .282.115.56.315.76a1.078 1.078 0 001.519-.001zM11.388 62.126H5.373a1.074 1.074 0 100 2.148h6.015a1.074 1.074 0 100-2.148zm4.726 0c-.282 0-.56.114-.76.314-.199.2-.314.477-.314.76 0 .282.115.56.315.76.2.199.477.314.76.314.282 0 .559-.115.759-.315.2-.2.315-.477.315-.76 0-.282-.115-.559-.315-.759-.2-.2-.477-.314-.76-.314zm4.726 0c-.282 0-.56.114-.76.314-.2.2-.314.477-.314.76 0 .282.115.56.315.76.2.199.477.314.76.314.282 0 .559-.115.759-.315.2-.2.314-.477.314-.76 0-.282-.115-.559-.314-.759-.2-.2-.477-.314-.76-.314zM5.373 54.82h6.015a1.074 1.074 0 100-2.148H5.373a1.074 1.074 0 100 2.149zm10.741 0c.283 0 .56-.114.76-.314.2-.2.315-.477.315-.76 0-.282-.115-.56-.315-.759-.2-.2-.477-.315-.76-.315-.282 0-.56.115-.76.315-.199.2-.314.477-.314.76 0 .282.115.56.315.76.2.199.477.314.76.314zm4.726 0c.283 0 .56-.114.76-.314.2-.2.314-.477.314-.76 0-.282-.115-.56-.314-.759-.2-.2-.477-.315-.76-.315-.282 0-.56.115-.76.315-.2.2-.314.477-.314.76 0 .282.115.56.315.76.2.199.477.314.76.314zm19.335 7.306H34.16a1.074 1.074 0 100 2.148h6.015a1.074 1.074 0 000-2.148zm4.727 0c-.283 0-.56.114-.76.314-.2.2-.315.477-.315.76 0 .282.116.56.315.76.2.199.477.314.76.314.282 0 .56-.115.76-.315.199-.2.314-.477.314-.76 0-.282-.115-.559-.315-.759-.2-.2-.477-.314-.76-.314zm4.726 0c-.282 0-.56.114-.76.314-.199.2-.314.477-.314.76 0 .282.115.56.315.76.2.199.477.314.76.314.282 0 .559-.115.759-.315.2-.2.315-.477.315-.76a1.08 1.08 0 00-.315-.759c-.2-.2-.477-.314-.76-.314z"/><path d="M55 51.169a3.226 3.226 0 00-3.223-3.223H42.86V41.5c0-.593-.48-1.074-1.074-1.074h-10.85a3.668 3.668 0 00-2.416-2.417v-2.954h11.87a3.226 3.226 0 003.222-3.223v-5.156a3.21 3.21 0 00-.823-2.148 3.21 3.21 0 00.823-2.148v-5.156A3.226 3.226 0 0040.391 14h-8.057a1.074 1.074 0 100 2.148h8.056c.593 0 1.075.482 1.075 1.075v5.156c0 .592-.482 1.074-1.075 1.074H14.61a1.075 1.075 0 01-1.074-1.074v-5.156c0-.593.482-1.075 1.074-1.075h8.057a1.074 1.074 0 100-2.148H14.61a3.226 3.226 0 00-3.222 3.223v5.156c0 .824.312 1.577.823 2.148a3.21 3.21 0 00-.823 2.148v5.156a3.226 3.226 0 003.222 3.223h11.762v2.954a3.668 3.668 0 00-2.416 2.417h-10.85c-.593 0-1.074.48-1.074 1.074v6.446H3.224A3.226 3.226 0 000 51.17v5.156c0 .825.312 1.578.823 2.148A3.21 3.21 0 000 60.622v5.157A3.226 3.226 0 003.224 69h19.765a3.226 3.226 0 003.222-3.222V60.62a3.21 3.21 0 00-.823-2.148 3.21 3.21 0 00.823-2.148v-5.156a3.226 3.226 0 00-3.222-3.223H14.18v-5.372h9.776a3.659 3.659 0 003.49 2.578 3.659 3.659 0 003.491-2.578h9.776v5.372h-8.701a3.226 3.226 0 00-3.223 3.223v5.156c0 .825.312 1.578.823 2.148a3.21 3.21 0 00-.823 2.148v5.157A3.226 3.226 0 0032.012 69h19.765a3.226 3.226 0 003.222-3.222V60.62a3.21 3.21 0 00-.823-2.148A3.21 3.21 0 0055 56.325v-5.156zM13.535 31.832v-5.156c0-.592.482-1.074 1.074-1.074h25.78c.593 0 1.075.482 1.075 1.074v5.156c0 .593-.482 1.074-1.075 1.074H14.61a1.075 1.075 0 01-1.074-1.074zm10.527 33.946c0 .592-.482 1.074-1.074 1.074H3.224a1.075 1.075 0 01-1.074-1.074V60.62c0-.592.482-1.074 1.074-1.074h19.765c.592 0 1.074.482 1.074 1.075v5.156zm0-14.61v5.157c0 .592-.482 1.074-1.074 1.074H3.224a1.075 1.075 0 01-1.074-1.074v-5.156c0-.592.482-1.074 1.074-1.074h19.765c.592 0 1.074.482 1.074 1.074zm3.384-8.164a1.505 1.505 0 010-3.008 1.505 1.505 0 010 3.008zm3.49 8.165c0-.592.482-1.074 1.075-1.074h19.765c.592 0 1.074.482 1.074 1.074v5.156c0 .592-.482 1.074-1.074 1.074H32.012a1.075 1.075 0 01-1.074-1.074v-5.156zM52.85 65.778c0 .592-.482 1.074-1.074 1.074H32.012a1.075 1.075 0 01-1.074-1.074V60.62c0-.592.482-1.074 1.074-1.074h19.765c.592 0 1.074.482 1.074 1.075v5.156z"/><path d="M34.16 54.82h6.015a1.074 1.074 0 000-2.148H34.16a1.074 1.074 0 100 2.149zm10.742 0c.282 0 .56-.114.76-.314.199-.2.314-.477.314-.76 0-.282-.115-.56-.315-.759-.2-.2-.477-.315-.76-.315-.282 0-.559.115-.759.315-.2.2-.315.477-.315.76 0 .282.116.56.315.76.2.199.477.314.76.314zm4.726 0c.283 0 .56-.114.76-.314.2-.2.315-.477.315-.76 0-.282-.115-.56-.315-.759-.2-.2-.477-.315-.76-.315-.282 0-.56.115-.76.315-.199.2-.314.477-.314.76 0 .282.115.56.315.76.2.199.477.314.76.314zM27.5 16.148c.283 0 .56-.114.76-.314.2-.2.315-.477.315-.76 0-.282-.115-.56-.315-.76-.2-.2-.477-.314-.76-.314-.282 0-.56.115-.759.315-.2.2-.315.477-.315.76 0 .282.115.559.315.759.2.2.477.314.76.314z"/></g><defs><linearGradient id="paint0_linear" x1="61" y1="12.5" x2="15.5" y2="55.5" gradientUnits="userSpaceOnUse"><stop offset=".25" stop-color="#EDEDFF"/><stop offset="1" stop-color="#fff" stop-opacity="0"/></linearGradient><clipPath id="clip0"><path fill="#fff" transform="translate(0 14)" d="M0 0h55v55H0z"/></clipPath></defs></svg>