<svg width="32" height="30" viewBox="0 0 32 30" fill="none" xmlns="http://www.w3.org/2000/svg">
<path d="M30.9534 23.6731C31.6479 22.2084 31.9997 20.6375 31.9997 18.9986C31.9997 13.1481 27.3558 8.35602 21.5408 8.07465C20.2303 3.35413 15.9256 0.0615234 11.0002 0.0615234C4.93493 0.0615234 0.000481641 4.96797 0.000481641 10.9988C0.000481641 12.6377 0.352348 14.2086 1.04683 15.6733L0.0186687 20.8147C-0.112203 21.4692 0.465158 22.0477 1.11977 21.9182L6.32458 20.8892C7.62843 21.5076 9.0154 21.8533 10.4601 21.9222C12.2818 28.4815 19.5985 31.7715 25.6755 28.889C31.3758 30.0159 30.9313 29.9358 31.0622 29.9358C31.6546 29.9358 32.0972 29.393 31.9815 28.8145L30.9534 23.6731ZM6.88082 19.0732C6.69326 18.9773 6.47877 18.9474 6.27227 18.9883L2.13237 19.8068L2.94791 15.7288C2.98935 15.5216 2.9596 15.3064 2.86329 15.1182C2.20787 13.836 1.87544 12.45 1.87544 10.9988C1.87544 6.00182 5.96878 1.93648 11.0002 1.93648C14.9323 1.93648 18.395 4.49329 19.6051 8.1499C13.8736 8.88269 9.55688 14.0543 10.1107 20.0178C8.98102 19.9092 7.8988 19.5936 6.88082 19.0732ZM29.0524 23.7286L29.8679 27.8066L25.728 26.9881C25.5214 26.9473 25.307 26.9771 25.1195 27.073C23.8372 27.7284 22.4513 28.0609 21.0001 28.0609C16.0031 28.0609 11.9378 23.9955 11.9378 18.9986C11.9378 14.0016 16.0031 9.93629 21.0001 9.93629C26.0315 9.93629 30.1248 14.0016 30.1248 18.9986C30.1248 20.4499 29.7925 21.8358 29.137 23.118C29.0407 23.3062 29.0109 23.5213 29.0524 23.7286Z" fill="white"/>
</svg>
