<svg width="58" height="12" viewBox="0 0 58 12" fill="none" xmlns="http://www.w3.org/2000/svg">
<g clip-path="url(#clip0)">
<path d="M12.0553 7.45113C11.2537 10.666 7.99732 12.6216 4.78163 11.8203C1.56764 11.0189 -0.38904 7.76313 0.412911 4.549C1.21411 1.33413 4.47031 -0.622059 7.68486 0.179316C10.9002 0.980691 12.8567 4.23682 12.0551 7.45113H12.0553Z" fill="#A1A5B2"/>
<path d="M8.88006 5.14502C8.99953 4.34664 8.3915 3.91745 7.5601 3.63114L7.8298 2.54964L7.17132 2.38558L6.90875 3.43858C6.73337 3.3955 6.55756 3.35412 6.38137 3.31445L6.64581 2.25452L5.98752 2.09045L5.71783 3.17158C5.57454 3.13895 5.43388 3.1067 5.29735 3.07277L5.2981 3.06939L4.39 2.8427L4.21483 3.54583C4.21483 3.54583 4.70339 3.65777 4.69307 3.6647C4.95976 3.73127 5.00796 3.9077 4.9999 4.04758L4.6927 5.27964C4.71108 5.28433 4.7349 5.29127 4.76115 5.30158L4.69157 5.28433L4.26096 7.01027C4.22833 7.09127 4.14562 7.21277 3.95901 7.16664C3.96577 7.1762 3.48058 7.0472 3.48058 7.0472L3.15369 7.80095L4.01059 8.0147C4.17 8.05445 4.32623 8.09627 4.48002 8.13564L4.20751 9.22952L4.86524 9.39358L5.13493 8.31114C5.3146 8.36008 5.48902 8.40489 5.65969 8.44745L5.39075 9.52464L6.04904 9.6887L6.32173 8.59689C7.44458 8.80933 8.28891 8.72364 8.64431 7.70852C8.9307 6.89102 8.63006 6.41945 8.03929 6.11177C8.46952 6.01239 8.7936 5.72945 8.88006 5.14502ZM7.37537 7.25402C7.17188 8.07152 5.7951 7.62977 5.34874 7.51877L5.71033 6.06958C6.15669 6.18114 7.58805 6.40164 7.37537 7.25402ZM7.57905 5.13339C7.39338 5.87683 6.24746 5.49902 5.87574 5.40639L6.20358 4.09202C6.5753 4.18464 7.77241 4.35752 7.57905 5.1332V5.13339Z" fill="white"/>
<path d="M17.8205 3.63003C18.3072 3.63003 18.7276 3.71722 19.0808 3.88841C19.436 4.06128 19.729 4.29416 19.964 4.58703C20.1958 4.8814 20.3683 5.22547 20.4797 5.61978C20.5904 6.0154 20.6459 6.44028 20.6459 6.89515C20.6459 7.59453 20.5178 8.25453 20.2592 8.87703C20.0003 9.50047 19.6496 10.0414 19.2033 10.5027C18.7573 10.9633 18.2306 11.3263 17.6234 11.5947C17.017 11.8632 16.3578 11.9974 15.65 11.9974C15.5585 11.9974 15.3976 11.9948 15.1702 11.9901C14.9429 11.9854 14.6817 11.962 14.3891 11.9226C14.0746 11.8777 13.7627 11.8165 13.4546 11.7392C13.1321 11.6614 12.8188 11.5495 12.52 11.4055L15.1479 0.365843L17.5016 0.00134277L16.5607 3.91878C16.7564 3.83036 16.9595 3.75934 17.1676 3.70653C17.3813 3.65461 17.6004 3.62892 17.8203 3.63003H17.8205ZM15.8462 10.1307C16.2006 10.1307 16.5345 10.0435 16.8484 9.87247C17.164 9.7 17.4409 9.4648 17.6622 9.18134C17.8934 8.88579 18.0754 8.55484 18.201 8.20128C18.3328 7.83581 18.3997 7.45014 18.3987 7.06165C18.3987 6.57565 18.3175 6.19728 18.1556 5.92297C17.9938 5.65016 17.6943 5.51291 17.2591 5.51291C17.1166 5.51291 16.9332 5.54009 16.7055 5.58865C16.4771 5.64022 16.2727 5.74728 16.0894 5.90834L15.0874 10.0686C15.1477 10.0793 15.2012 10.0894 15.2468 10.099C15.2914 10.1093 15.3405 10.1166 15.3899 10.1217C15.4418 10.1275 15.5013 10.1305 15.5731 10.1305L15.846 10.1307H15.8462ZM23.0868 11.7863H20.8387L22.7372 3.79934H25.0007L23.0868 11.7863ZM24.1808 2.82622C23.8741 2.82876 23.5751 2.73018 23.3301 2.54572C23.0755 2.35972 22.9493 2.07341 22.9493 1.68753C22.9493 1.47528 22.9925 1.27616 23.0782 1.08828C23.161 0.906285 23.2772 0.741386 23.4206 0.602093C23.5644 0.464866 23.7314 0.354216 23.9139 0.27528C24.1038 0.194157 24.3083 0.152929 24.5148 0.154155C24.8284 0.154155 25.1112 0.24753 25.3647 0.434655C25.6172 0.622718 25.7442 0.90903 25.7442 1.29284C25.7454 1.50001 25.7012 1.70494 25.6147 1.89322C25.5327 2.07539 25.4169 2.24036 25.2734 2.37941C25.1299 2.51681 24.9629 2.6272 24.7802 2.70528C24.5922 2.78741 24.3931 2.82622 24.1808 2.82622ZM26.9709 1.80941L29.3256 1.44472L28.7474 3.79897H31.2691L30.8137 5.65109H28.3072L27.6395 8.44484C27.578 8.67753 27.5431 8.89503 27.5334 9.09734C27.5221 9.3004 27.548 9.47478 27.6088 9.62159C27.6691 9.76878 27.7775 9.88222 27.9351 9.96228C28.0921 10.0438 28.3166 10.0849 28.611 10.0849C28.8535 10.0849 29.09 10.0618 29.3181 10.0161C29.5524 9.96966 29.783 9.90637 30.0082 9.82672L30.1763 11.5583C29.8536 11.6751 29.5239 11.7712 29.189 11.8461C28.834 11.9278 28.4137 11.967 27.928 11.967C27.2295 11.967 26.6881 11.8633 26.3023 11.6571C25.9171 11.4493 25.6448 11.1651 25.4818 10.8055C25.3211 10.4473 25.2492 10.0343 25.2693 9.56872C25.2899 9.10222 25.3604 8.61172 25.4818 8.09553L26.9709 1.80941ZM31.1703 8.59709C31.1703 7.90897 31.2817 7.2604 31.5041 6.6529C31.7263 6.04503 32.0465 5.51347 32.4617 5.05747C32.8756 4.60372 33.38 4.24391 33.9737 3.97991C34.5641 3.71741 35.2258 3.58503 35.9546 3.58503C36.4111 3.58503 36.8186 3.62816 37.1774 3.71459C37.5375 3.80178 37.8631 3.91447 38.1577 4.05584L37.3826 5.81834C37.176 5.73532 36.9656 5.66186 36.7522 5.59822C36.5347 5.53128 36.2693 5.49903 35.9552 5.49903C35.2046 5.49903 34.6116 5.75778 34.1701 6.27303C33.7301 6.78884 33.5086 7.48315 33.5086 8.35428C33.5086 8.87047 33.6202 9.28765 33.8438 9.60697C34.0662 9.92628 34.4771 10.0853 35.0737 10.0853C35.368 10.0853 35.6523 10.0545 35.9244 9.99453C36.1986 9.93378 36.4407 9.85728 36.654 9.7669L36.822 11.5737C36.5144 11.6916 36.1999 11.7908 35.8803 11.8707C35.5352 11.955 35.1251 11.9985 34.6493 11.9985C34.0214 11.9985 33.4895 11.9068 33.0547 11.7257C32.6196 11.5422 32.2601 11.2982 31.9767 10.9892C31.692 10.6795 31.4878 10.3176 31.3614 9.90265C31.235 9.48772 31.1701 9.0514 31.1701 8.59709H31.1703ZM41.1572 11.998C40.6206 11.998 40.1543 11.9162 39.759 11.7544C39.3648 11.5928 39.0384 11.3655 38.78 11.0712C38.5212 10.7783 38.3278 10.4312 38.1952 10.0313C38.0626 9.63153 37.9989 9.18884 37.9989 8.70378C37.9989 8.09553 38.0964 7.48728 38.2941 6.88034C38.4908 6.27284 38.7824 5.72647 39.168 5.24103C39.5512 4.75484 40.0238 4.35734 40.5797 4.04741C41.1354 3.73953 41.7744 3.58466 42.4925 3.58466C43.0193 3.58466 43.4827 3.66659 43.8837 3.82841C44.2826 3.98984 44.6112 4.21878 44.871 4.51165C45.1279 4.80603 45.3233 5.15159 45.4542 5.55228C45.5866 5.95109 45.6519 6.3949 45.6519 6.88034C45.6519 7.48672 45.5555 8.09534 45.3644 8.70359C45.1729 9.30922 44.8888 9.85672 44.5137 10.3431C44.1393 10.8287 43.6714 11.2258 43.109 11.5345C42.5476 11.8433 41.8963 11.998 41.1572 11.998ZM42.2806 5.49922C41.9473 5.49922 41.6527 5.59578 41.4004 5.78684C41.1472 5.98015 40.9347 6.22334 40.7633 6.51622C40.59 6.81059 40.4617 7.13159 40.3749 7.48053C40.2886 7.83022 40.2464 8.16115 40.2464 8.47484C40.2464 8.98165 40.3284 9.37672 40.4889 9.66059C40.6517 9.94297 40.9447 10.0853 41.37 10.0853C41.7044 10.0853 41.9977 9.98909 42.2513 9.79615C42.503 9.60434 42.7161 9.36115 42.8886 9.06734C43.0608 8.77484 43.1904 8.45272 43.2772 8.10303C43.3621 7.75447 43.4055 7.42203 43.4055 7.10853C43.4055 6.60303 43.3241 6.20741 43.1617 5.92372C43 5.64115 42.7057 5.49903 42.2806 5.49903V5.49922ZM48.1018 11.7863H45.852L47.7506 3.79934H50.015L48.1018 11.7863ZM49.1941 2.82622C48.8877 2.82881 48.589 2.73021 48.3443 2.54572C48.0908 2.35972 47.9636 2.07341 47.9636 1.68753C47.9636 1.47528 48.0075 1.27616 48.093 1.08828C48.1753 0.906067 48.2914 0.741095 48.4351 0.602093C48.5791 0.464816 48.7463 0.354164 48.9289 0.27528C49.1181 0.194142 49.3219 0.152907 49.5278 0.154155C49.8423 0.154155 50.126 0.24753 50.379 0.434655C50.632 0.622718 50.7596 0.90903 50.7596 1.29284C50.7596 1.50584 50.7142 1.70572 50.6292 1.89322C50.5443 2.08072 50.4301 2.24216 50.2886 2.37941C50.1449 2.51649 49.9779 2.62684 49.7954 2.70528C49.6069 2.78741 49.4077 2.82622 49.1941 2.82622ZM51.6352 4.16253C51.8059 4.11266 51.9964 4.05266 52.2035 3.98741C52.4338 3.91599 52.6675 3.85567 52.9036 3.80665C53.1604 3.75041 53.4501 3.70447 53.7688 3.66903C54.0872 3.63284 54.4505 3.61522 54.8537 3.61522C56.0394 3.61522 56.8567 3.96041 57.308 4.64872C57.7588 5.33703 57.8368 6.27884 57.5443 7.47303L56.5101 11.7855H54.2472L55.2496 7.56359C55.3106 7.30015 55.3584 7.04515 55.3941 6.79615C55.4301 6.5494 55.4278 6.33172 55.3862 6.14365C55.3494 5.96336 55.2502 5.80181 55.106 5.68747C54.9576 5.5714 54.7335 5.51309 54.4297 5.51309C54.1288 5.51428 53.8288 5.54518 53.534 5.60534L52.0604 11.785H49.7967L51.6352 4.16253Z" fill="#A1A5B2"/>
</g>
<defs>
<clipPath id="clip0">
<rect width="57.4857" height="12" fill="white" transform="translate(0.232422)"/>
</clipPath>
</defs>
</svg>
