<svg width="55" height="55" viewBox="0 0 55 55" fill="none" xmlns="http://www.w3.org/2000/svg">
<g clip-path="url(#clip0)">
<path d="M32.2324 15.6592C32.5149 15.6592 32.791 15.5442 32.9919 15.3444C33.1917 15.1446 33.3066 14.8675 33.3066 14.585C33.3066 14.3014 33.1917 14.0253 32.9919 13.8255C32.7921 13.6257 32.5149 13.5107 32.2324 13.5107C31.9488 13.5107 31.6728 13.6257 31.4719 13.8255C31.2721 14.0253 31.1582 14.3024 31.1582 14.585C31.1582 14.8675 31.2721 15.1446 31.4719 15.3444C31.6728 15.5442 31.9488 15.6592 32.2324 15.6592Z" fill="url(#paint0_linear)"/>
<path d="M50.0586 45.1102C47.7028 45.1102 45.7281 46.7677 45.2362 48.9774H39.5312V41.6679H40.0831C45.5836 41.6679 50.0586 37.1929 50.0586 31.6924C50.0586 29.0523 49.0372 26.5637 47.1827 24.6852C45.9297 23.4161 44.3934 22.5245 42.7151 22.0683H48.125C48.7183 22.0683 49.1992 21.5874 49.1992 20.9941V8.90046C51.1699 8.41717 52.6367 6.63654 52.6367 4.51904C52.6367 2.03126 50.6128 0.00732422 48.125 0.00732422C45.6372 0.00732422 43.6133 2.03126 43.6133 4.51904C43.6133 6.63665 45.0801 8.41717 47.0508 8.90046V19.9198H40.4474C39.595 18.022 38.2182 16.3711 36.4616 15.1959C35.9684 14.866 35.3012 14.9984 34.9714 15.4914C34.6415 15.9845 34.7739 16.6517 35.2669 16.9816C37.3257 18.3588 38.7406 20.5419 39.149 22.9707C39.2351 23.4824 39.6747 23.8595 40.1936 23.8667C44.4485 23.9256 47.9102 27.4361 47.9102 31.6924C47.9102 36.0083 44.399 39.5195 40.0831 39.5195H12.492C9.51328 39.5194 7.08984 37.096 7.08984 34.1172C7.08984 31.7776 8.5829 29.7152 10.8052 28.9851C11.3071 28.8202 11.6147 28.3149 11.5304 27.7934C11.4688 27.4113 11.4375 27.0219 11.4375 26.636C11.4375 22.6626 14.6702 19.43 18.6436 19.43C19.597 19.43 20.5235 19.6134 21.3974 19.9751C21.8754 20.173 22.4264 20.002 22.7084 19.5686C24.0312 17.5367 26.1459 16.1038 28.5102 15.6373C29.0922 15.5225 29.471 14.9574 29.3561 14.3754C29.2412 13.7934 28.6767 13.4148 28.0943 13.5295C25.4445 14.0523 23.0489 15.5532 21.4039 17.6958C20.5135 17.4205 19.5884 17.2815 18.6437 17.2815C16.1184 17.2815 13.8241 18.2877 12.1394 19.9198H7.94922V9.77369C10.1589 9.2817 11.8164 7.30696 11.8164 4.95131C11.8164 2.22666 9.59965 0.00990234 6.875 0.00990234C4.15035 0.00990234 1.93359 2.22666 1.93359 4.95131C1.93359 7.30707 3.59111 9.2817 5.80078 9.77369V20.994C5.80078 21.5873 6.28171 22.0682 6.875 22.0682H10.4828C9.72318 23.42 9.28909 24.9782 9.28909 26.636C9.28909 26.8466 9.29629 27.0578 9.31058 27.2689C6.66477 28.4938 4.94141 31.1455 4.94141 34.1172C4.94141 38.2806 8.32863 41.6678 12.492 41.6678H15.4688V48.9773H9.76379C9.2718 46.7676 7.29706 45.1101 4.94141 45.1101C2.21676 45.1101 0 47.3269 0 50.0515C0 52.7762 2.21676 54.9929 4.94141 54.9929C7.29717 54.9929 9.2719 53.3354 9.76379 51.1257H16.543C17.1363 51.1257 17.6172 50.6448 17.6172 50.0515V41.6678H26.4258V46.0998C24.4551 46.5831 22.9883 48.3637 22.9883 50.4812C22.9883 52.969 25.0122 54.9929 27.5 54.9929C29.9878 54.9929 32.0117 52.969 32.0117 50.4812C32.0117 48.3636 30.5449 46.5831 28.5742 46.0998V41.6678H37.3828V50.0515C37.3828 50.6448 37.8637 51.1257 38.457 51.1257H45.2362C45.7282 53.3354 47.7029 54.9929 50.0586 54.9929C52.7832 54.9929 55 52.7762 55 50.0515C55 47.3269 52.7832 45.1102 50.0586 45.1102ZM45.7617 4.51894C45.7617 3.2158 46.8219 2.15565 48.125 2.15565C49.4281 2.15565 50.4883 3.2158 50.4883 4.51894C50.4883 5.82207 49.4281 6.88222 48.125 6.88222C46.8219 6.88222 45.7617 5.82207 45.7617 4.51894ZM4.08203 4.95131C4.08203 3.41131 5.335 2.15834 6.875 2.15834C8.415 2.15834 9.66797 3.41131 9.66797 4.95131C9.66797 6.49131 8.415 7.74428 6.875 7.74428C5.335 7.74428 4.08203 6.49131 4.08203 4.95131ZM4.94141 52.8446C3.40141 52.8446 2.14844 51.5916 2.14844 50.0516C2.14844 48.5116 3.40141 47.2587 4.94141 47.2587C6.48141 47.2587 7.73438 48.5116 7.73438 50.0516C7.73438 51.5916 6.48141 52.8446 4.94141 52.8446ZM29.8633 50.4813C29.8633 51.7845 28.8031 52.8446 27.5 52.8446C26.1969 52.8446 25.1367 51.7845 25.1367 50.4813C25.1367 49.1782 26.1969 48.118 27.5 48.118C28.8031 48.118 29.8633 49.1782 29.8633 50.4813ZM50.0586 52.8446C48.5186 52.8446 47.2656 51.5916 47.2656 50.0516C47.2656 48.5116 48.5186 47.2587 50.0586 47.2587C51.5986 47.2587 52.8516 48.5116 52.8516 50.0516C52.8516 51.5916 51.5986 52.8446 50.0586 52.8446Z" fill="url(#paint1_linear)"/>
</g>
<defs>
<linearGradient id="paint0_linear" x1="31.1582" y1="13.5107" x2="33.3842" y2="13.6308" gradientUnits="userSpaceOnUse">
<stop stop-color="#683CF9"/>
<stop offset="1" stop-color="#009EE7"/>
</linearGradient>
<linearGradient id="paint1_linear" x1="0" y1="0.00732422" x2="56.9845" y2="3.08105" gradientUnits="userSpaceOnUse">
<stop stop-color="#683CF9"/>
<stop offset="1" stop-color="#009EE7"/>
</linearGradient>
<clipPath id="clip0">
<rect width="55" height="55" fill="white"/>
</clipPath>
</defs>
</svg>
