<svg width="450" height="338" viewBox="0 0 450 338" fill="none" xmlns="http://www.w3.org/2000/svg">
<g opacity="0.4">
<path opacity="0.4" d="M398.515 124.729L398.248 124.551L370.596 108.584L398.515 92.439L398.783 92.6174L426.435 108.584L398.515 124.729ZM372.647 108.673L398.604 123.659L424.561 108.673L398.604 93.6878L372.647 108.673Z" fill="white"/>
<path opacity="0.4" d="M344.728 124.729L344.46 124.551L316.809 108.584L344.728 92.439L344.996 92.6174L372.647 108.584L344.728 124.729ZM318.771 108.673L344.728 123.659L370.685 108.673L344.728 93.6878L318.771 108.673Z" fill="white"/>
<path opacity="0.4" d="M371.667 140.25L371.399 140.071L343.747 124.105L371.667 107.959L371.934 108.138L399.586 124.105L371.667 140.25ZM345.709 124.194L371.667 139.179L397.624 124.194L371.667 109.208L345.709 124.194Z" fill="white"/>
<path opacity="0.4" d="M398.515 155.86L398.248 155.682L370.596 139.715L398.515 123.57L426.435 139.715L398.515 155.86ZM372.647 139.715L398.604 154.7L424.561 139.715L398.604 124.729L372.647 139.715Z" fill="white"/>
<path opacity="0.4" d="M290.852 124.729L290.584 124.551L262.932 108.584L290.852 92.439L291.119 92.6174L318.771 108.584L290.852 124.729ZM264.984 108.673L290.941 123.659L316.898 108.673L290.941 93.6878L264.984 108.673Z" fill="white"/>
<path opacity="0.4" d="M317.79 140.25L289.871 124.194L317.79 108.049L318.058 108.227L345.71 124.194L317.79 140.25ZM291.833 124.194L317.79 139.179L343.747 124.194L317.79 109.208L291.833 124.194Z" fill="white"/>
<path opacity="0.4" d="M344.728 155.86L344.46 155.682L316.809 139.715L344.728 123.57L344.996 123.748L372.647 139.715L344.728 155.86ZM318.771 139.715L344.728 154.7L370.685 139.715L344.728 124.729L318.771 139.715Z" fill="white"/>
<path opacity="0.4" d="M371.667 171.381L371.399 171.202L343.747 155.235L371.667 139.09L371.934 139.269L399.586 155.235L371.667 171.381ZM345.709 155.235L371.667 170.221L397.624 155.235L371.667 140.25L345.709 155.235Z" fill="white"/>
<path opacity="0.4" d="M398.515 186.901L398.248 186.723L370.596 170.756L398.515 154.611L426.435 170.756L398.515 186.901ZM372.647 170.756L398.604 185.741L424.561 170.756L398.604 155.77L372.647 170.756Z" fill="white"/>
<path opacity="0.4" d="M237.064 124.729L236.797 124.551L209.145 108.584L237.064 92.439L237.332 92.6174L264.984 108.584L237.064 124.729ZM211.107 108.673L237.064 123.659L263.022 108.673L237.064 93.6878L211.107 108.673Z" fill="white"/>
<path opacity="0.4" d="M263.913 140.25L263.646 140.071L235.994 124.105L263.913 107.959L264.181 108.138L291.833 124.105L263.913 140.25ZM238.045 124.194L264.002 139.179L289.959 124.194L264.002 109.208L238.045 124.194Z" fill="white"/>
<path opacity="0.4" d="M290.852 155.86L290.584 155.682L262.932 139.715L290.852 123.57L318.771 139.715L290.852 155.86ZM264.984 139.715L290.941 154.7L316.898 139.715L290.941 124.729L264.984 139.715Z" fill="white"/>
<path opacity="0.4" d="M317.79 171.381L317.522 171.202L289.871 155.235L317.79 139.09L318.058 139.269L345.71 155.235L317.79 171.381ZM291.833 155.235L317.79 170.221L343.747 155.235L317.79 140.25L291.833 155.235Z" fill="white"/>
<path opacity="0.4" d="M344.728 186.901L316.809 170.756L344.728 154.611L344.996 154.789L372.647 170.756L344.728 186.901ZM318.771 170.756L344.728 185.741L370.685 170.756L344.728 155.77L318.771 170.756Z" fill="white"/>
<path opacity="0.4" d="M371.667 202.422L371.399 202.244L343.747 186.277L371.667 170.132L371.934 170.31L399.586 186.277L371.667 202.422ZM345.709 186.366L371.667 201.352L397.624 186.366L371.667 171.381L345.709 186.366Z" fill="white"/>
<path opacity="0.4" d="M398.515 218.032L398.248 217.854L370.596 201.887L398.515 185.742L398.783 185.92L426.435 201.887L398.515 218.032ZM372.647 201.887L398.604 216.872L424.561 201.887L398.604 186.901L372.647 201.887Z" fill="white"/>
<path opacity="0.4" d="M183.188 124.729L182.92 124.551L155.269 108.584L183.188 92.439L211.107 108.584L183.188 124.729ZM157.231 108.673L183.188 123.659L209.145 108.673L183.188 93.6878L157.231 108.673Z" fill="white"/>
<path opacity="0.4" d="M210.126 140.25L182.207 124.105L210.126 107.959L210.394 108.138L238.045 124.105L210.126 140.25ZM184.169 124.194L210.126 139.179L236.083 124.194L210.126 109.208L184.169 124.194Z" fill="white"/>
<path opacity="0.4" d="M237.064 155.86L236.797 155.682L209.145 139.715L237.064 123.57L237.332 123.748L264.984 139.715L237.064 155.86ZM211.107 139.715L237.064 154.7L263.022 139.715L237.064 124.729L211.107 139.715Z" fill="white"/>
<path opacity="0.4" d="M263.913 171.381L263.646 171.202L235.994 155.235L263.913 139.09L264.181 139.269L291.833 155.235L263.913 171.381ZM238.045 155.235L264.002 170.221L289.959 155.235L264.002 140.25L238.045 155.235Z" fill="white"/>
<path opacity="0.4" d="M290.852 186.901L290.584 186.723L262.932 170.756L290.852 154.611L291.119 154.789L318.771 170.756L290.852 186.901ZM264.984 170.756L290.941 185.741L316.898 170.756L290.941 155.77L264.984 170.756Z" fill="white"/>
<path opacity="0.4" d="M317.79 202.422L317.522 202.244L289.871 186.277L317.79 170.132L345.71 186.277L317.79 202.422ZM291.833 186.366L317.79 201.352L343.747 186.366L317.79 171.381L291.833 186.366Z" fill="white"/>
<path opacity="0.4" d="M344.728 218.032L316.809 201.887L344.728 185.742L344.996 185.92L372.647 201.887L344.728 218.032ZM318.771 201.887L344.728 216.872L370.685 201.887L344.728 186.901L318.771 201.887Z" fill="white"/>
<path opacity="0.4" d="M371.667 233.552L371.399 233.374L343.747 217.407L371.667 201.262L371.934 201.441L399.586 217.407L371.667 233.552ZM345.709 217.407L371.667 232.393L397.624 217.407L371.667 202.422L345.709 217.407Z" fill="white"/>
<path opacity="0.4" d="M398.515 249.073L370.596 232.928L398.515 216.783L426.435 232.928L398.515 249.073ZM372.647 232.928L398.604 247.914L424.561 232.928L398.604 217.943L372.647 232.928Z" fill="white"/>
<path opacity="0.4" d="M129.4 124.729L129.133 124.551L101.481 108.584L129.4 92.439L129.668 92.6174L157.32 108.584L129.4 124.729ZM103.443 108.673L129.4 123.659L155.357 108.673L129.4 93.6878L103.443 108.673Z" fill="white"/>
<path opacity="0.4" d="M156.25 140.25L155.982 140.071L128.33 124.105L156.25 107.959L156.517 108.138L184.169 124.105L156.25 140.25ZM130.382 124.194L156.339 139.179L182.296 124.194L156.339 109.208L130.382 124.194Z" fill="white"/>
<path opacity="0.4" d="M183.188 155.86L155.269 139.715L183.188 123.57L211.107 139.715L183.188 155.86ZM157.231 139.715L183.188 154.7L209.145 139.715L183.188 124.729L157.231 139.715Z" fill="white"/>
<path opacity="0.4" d="M210.126 171.381L209.858 171.202L182.207 155.235L210.126 139.09L210.394 139.269L238.045 155.235L210.126 171.381ZM184.169 155.235L210.126 170.221L236.083 155.235L210.126 140.25L184.169 155.235Z" fill="white"/>
<path opacity="0.4" d="M237.064 186.901L209.145 170.756L237.064 154.611L237.332 154.789L264.984 170.756L237.064 186.901ZM211.107 170.756L237.064 185.741L263.022 170.756L237.064 155.77L211.107 170.756Z" fill="white"/>
<path opacity="0.4" d="M263.913 202.422L263.646 202.244L235.994 186.277L263.913 170.132L264.181 170.31L291.833 186.277L263.913 202.422ZM238.045 186.366L264.002 201.352L289.959 186.366L264.002 171.381L238.045 186.366Z" fill="white"/>
<path opacity="0.4" d="M290.852 218.032L290.584 217.854L262.932 201.887L290.852 185.742L291.119 185.92L318.771 201.887L290.852 218.032ZM264.984 201.887L290.941 216.872L316.898 201.887L290.941 186.901L264.984 201.887Z" fill="white"/>
<path opacity="0.4" d="M317.79 233.552L317.522 233.374L289.871 217.407L317.79 201.262L345.71 217.407L317.79 233.552ZM291.833 217.407L317.79 232.393L343.747 217.407L317.79 202.422L291.833 217.407Z" fill="white"/>
<path opacity="0.4" d="M344.728 249.073L344.46 248.895L316.809 232.928L344.728 216.783L344.996 216.962L372.647 232.928L344.728 249.073ZM318.771 232.928L344.728 247.914L370.685 232.928L344.728 217.943L318.771 232.928Z" fill="white"/>
<path opacity="0.4" d="M371.667 264.594L343.747 248.449L371.667 232.304L399.586 248.449L371.667 264.594ZM345.709 248.538L371.667 263.524L397.624 248.538L371.667 233.552L345.709 248.538Z" fill="white"/>
<path opacity="0.4" d="M398.515 280.115L398.248 279.937L370.596 263.97L398.515 247.825L398.783 248.003L426.435 263.97L398.515 280.115ZM372.647 264.059L398.604 279.045L424.561 264.059L398.604 249.073L372.647 264.059Z" fill="white"/>
<path opacity="0.4" d="M129.4 155.86L129.133 155.682L101.481 139.715L129.4 123.57L129.668 123.748L157.32 139.715L129.4 155.86ZM103.443 139.715L129.4 154.7L155.357 139.715L129.4 124.729L103.443 139.715Z" fill="white"/>
<path opacity="0.4" d="M156.249 171.381L128.419 155.235L156.338 139.09L184.258 155.235L156.249 171.381ZM130.381 155.235L156.338 170.221L182.295 155.235L156.338 140.25L130.381 155.235Z" fill="white"/>
<path opacity="0.4" d="M183.188 186.901L182.92 186.723L155.269 170.756L183.188 154.611L183.456 154.789L211.107 170.756L183.188 186.901ZM157.231 170.756L183.188 185.741L209.145 170.756L183.188 155.77L157.231 170.756Z" fill="white"/>
<path opacity="0.4" d="M210.126 202.422L209.858 202.244L182.207 186.277L210.126 170.132L238.045 186.277L210.126 202.422ZM184.169 186.366L210.126 201.352L236.083 186.366L210.126 171.381L184.169 186.366Z" fill="white"/>
<path opacity="0.4" d="M237.064 218.032L209.145 201.887L237.064 185.742L237.332 185.92L264.984 201.887L237.064 218.032ZM211.107 201.887L237.064 216.872L263.022 201.887L237.064 186.901L211.107 201.887Z" fill="white"/>
<path opacity="0.4" d="M263.913 233.552L263.646 233.374L235.994 217.407L263.913 201.262L264.181 201.441L291.833 217.407L263.913 233.552ZM238.045 217.407L264.002 232.393L289.959 217.407L264.002 202.422L238.045 217.407Z" fill="white"/>
<path opacity="0.4" d="M290.852 249.073L290.584 248.895L262.932 232.928L290.852 216.783L291.119 216.962L318.771 232.928L290.852 249.073ZM264.984 232.928L290.941 247.914L316.898 232.928L290.941 217.943L264.984 232.928Z" fill="white"/>
<path opacity="0.4" d="M317.79 264.594L317.522 264.416L289.871 248.449L317.79 232.304L318.058 232.482L345.71 248.449L317.79 264.594ZM291.833 248.538L317.79 263.524L343.747 248.538L317.79 233.552L291.833 248.538Z" fill="white"/>
<path opacity="0.4" d="M344.728 280.115L344.46 279.937L316.809 263.97L344.728 247.825L372.647 263.97L344.728 280.115ZM318.771 264.059L344.728 279.045L370.685 264.059L344.728 249.073L318.771 264.059Z" fill="white"/>
<path opacity="0.4" d="M371.667 295.725L343.747 279.58L371.667 263.435L371.934 263.613L399.586 279.58L371.667 295.725ZM345.709 279.58L371.667 294.565L397.624 279.58L371.667 264.594L345.709 279.58Z" fill="white"/>
<path opacity="0.4" d="M398.515 311.245L398.248 311.067L370.596 295.1L398.515 278.955L398.783 279.133L426.435 295.1L398.515 311.245ZM372.647 295.1L398.604 310.086L424.561 295.1L398.604 280.115L372.647 295.1Z" fill="white"/>
<path opacity="0.4" d="M129.4 186.901L101.481 170.756L129.4 154.611L157.32 170.756L129.4 186.901ZM103.443 170.756L129.4 185.741L155.357 170.756L129.4 155.77L103.443 170.756Z" fill="white"/>
<path opacity="0.4" d="M156.249 202.422L128.419 186.366L156.338 170.221L156.606 170.4L184.258 186.366L156.249 202.422ZM130.381 186.366L156.338 201.352L182.295 186.366L156.338 171.381L130.381 186.366Z" fill="white"/>
<path opacity="0.4" d="M183.188 218.032L182.92 217.854L155.269 201.887L183.188 185.742L183.456 185.92L211.107 201.887L183.188 218.032ZM157.231 201.887L183.188 216.872L209.145 201.887L183.188 186.901L157.231 201.887Z" fill="white"/>
<path opacity="0.4" d="M210.126 233.552L209.858 233.374L182.207 217.407L210.126 201.262L238.045 217.407L210.126 233.552ZM184.169 217.407L210.126 232.393L236.083 217.407L210.126 202.422L184.169 217.407Z" fill="white"/>
<path opacity="0.4" d="M237.064 249.073L236.797 248.895L209.145 232.928L237.064 216.783L237.332 216.962L264.984 232.928L237.064 249.073ZM211.107 232.928L237.064 247.914L263.022 232.928L237.064 217.943L211.107 232.928Z" fill="white"/>
<path opacity="0.4" d="M264.002 264.594L236.083 248.449L264.002 232.304L264.27 232.482L291.922 248.449L264.002 264.594ZM238.045 248.538L264.002 263.434L289.96 248.449L264.002 233.463L238.045 248.538Z" fill="white"/>
<path opacity="0.4" d="M290.852 280.115L290.584 279.937L262.932 263.97L290.852 247.825L291.119 248.003L318.771 263.97L290.852 280.115ZM264.984 264.059L290.941 279.045L316.898 264.059L290.941 249.073L264.984 264.059Z" fill="white"/>
<path opacity="0.4" d="M317.79 295.725L317.522 295.546L289.871 279.58L317.79 263.435L318.058 263.613L345.71 279.58L317.79 295.725ZM291.833 279.58L317.79 294.565L343.747 279.58L317.79 264.594L291.833 279.58Z" fill="white"/>
<path opacity="0.4" d="M344.728 311.245L316.809 295.1L344.728 278.955L372.647 295.1L344.728 311.245ZM318.771 295.1L344.728 310.086L370.685 295.1L344.728 280.115L318.771 295.1Z" fill="white"/>
<path opacity="0.4" d="M129.4 218.032L101.481 201.887L129.4 185.742L157.32 201.887L129.4 218.032ZM103.443 201.887L129.4 216.872L155.357 201.887L129.4 186.901L103.443 201.887Z" fill="white"/>
<path opacity="0.4" d="M156.249 233.552L128.419 217.407L156.338 201.262L156.606 201.441L184.258 217.407L156.249 233.552ZM130.381 217.407L156.338 232.393L182.295 217.407L156.338 202.422L130.381 217.407Z" fill="white"/>
<path opacity="0.4" d="M183.188 249.073L182.92 248.895L155.269 232.928L183.188 216.783L183.456 216.962L211.107 232.928L183.188 249.073ZM157.231 232.928L183.188 247.914L209.145 232.928L183.188 217.943L157.231 232.928Z" fill="white"/>
<path opacity="0.4" d="M210.126 264.594L209.858 264.416L182.207 248.449L210.126 232.304L210.394 232.482L238.045 248.449L210.126 264.594ZM184.169 248.538L210.126 263.524L236.083 248.538L210.126 233.552L184.169 248.538Z" fill="white"/>
<path opacity="0.4" d="M237.064 280.115L236.797 279.937L209.145 263.97L237.064 247.825L264.984 263.97L237.064 280.115ZM211.107 264.059L237.064 279.045L263.022 264.059L237.064 249.073L211.107 264.059Z" fill="white"/>
<path opacity="0.4" d="M264.002 295.725L263.735 295.546L236.083 279.58L264.002 263.435L264.27 263.613L291.922 279.58L264.002 295.725ZM238.045 279.58L264.002 294.565L289.96 279.58L264.002 264.594L238.045 279.58Z" fill="white"/>
<path opacity="0.4" d="M290.852 311.245L262.932 295.1L290.852 278.955L291.119 279.133L318.771 295.1L290.852 311.245ZM264.984 295.1L290.941 310.086L316.898 295.1L290.941 280.115L264.984 295.1Z" fill="white"/>
<path opacity="0.4" d="M129.4 249.073L129.133 248.895L101.481 232.928L129.4 216.783L157.32 232.928L129.4 249.073ZM103.443 232.928L129.4 247.914L155.357 232.928L129.4 217.943L103.443 232.928Z" fill="white"/>
<path opacity="0.4" d="M156.249 264.594L128.419 248.538L156.338 232.393L156.606 232.571L184.258 248.538L156.249 264.594ZM130.381 248.538L156.338 263.524L182.295 248.538L156.338 233.553L130.381 248.538Z" fill="white"/>
<path opacity="0.4" d="M183.188 280.115L182.92 279.937L155.269 263.97L183.188 247.825L183.456 248.003L211.107 263.97L183.188 280.115ZM157.231 264.059L183.188 279.045L209.145 264.059L183.188 249.073L157.231 264.059Z" fill="white"/>
<path opacity="0.4" d="M210.126 295.725L209.858 295.546L182.207 279.58L210.126 263.435L210.394 263.613L238.045 279.58L210.126 295.725ZM184.169 279.58L210.126 294.565L236.083 279.58L210.126 264.594L184.169 279.58Z" fill="white"/>
<path opacity="0.4" d="M237.064 311.245L236.797 311.067L209.145 295.1L237.064 278.955L237.332 279.133L264.984 295.1L237.064 311.245ZM211.107 295.1L237.064 310.086L263.022 295.1L237.064 280.115L211.107 295.1Z" fill="white"/>
<path opacity="0.4" d="M129.4 280.115L129.133 279.937L101.481 263.97L129.4 247.825L157.32 263.97L129.4 280.115ZM103.443 264.059L129.4 279.045L155.357 264.059L129.4 249.073L103.443 264.059Z" fill="white"/>
<path opacity="0.4" d="M156.249 295.725L156.071 295.546L128.419 279.58L156.338 263.435L156.606 263.613L184.258 279.58L156.249 295.725ZM130.381 279.58L156.338 294.565L182.295 279.58L156.338 264.594L130.381 279.58Z" fill="white"/>
<path opacity="0.4" d="M183.188 311.245L155.269 295.1L183.188 278.955L183.456 279.133L211.107 295.1L183.188 311.245ZM157.32 295.1L183.277 310.086L209.234 295.1L183.277 280.115L157.32 295.1Z" fill="white"/>
<path opacity="0.4" d="M129.4 311.245L129.133 311.067L101.481 295.1L129.4 278.955L129.668 279.133L157.32 295.1L129.4 311.245ZM103.443 295.1L129.4 310.086L155.357 295.1L129.4 280.115L103.443 295.1Z" fill="white"/>
</g>
<path d="M368.545 53.5483C368.099 53.8159 367.653 54.1727 367.207 54.5295C367.028 48.3747 362.568 45.8771 357.038 49.0883C352.578 51.6751 348.742 57.2055 347.404 62.6466C346.334 62.4682 344.996 62.825 343.569 63.6278C339.555 65.947 336.344 71.5666 336.344 76.205C336.344 80.8433 339.555 82.7165 343.569 80.3973L368.545 66.0362C371.488 64.3414 373.897 60.149 373.897 56.7595C373.897 53.1915 371.488 51.7643 368.545 53.5483Z" fill="white"/>
<path d="M378.624 88.5143C378.446 88.5143 378.267 88.5143 378.089 88.3359C377.464 87.9791 377.286 87.2656 377.554 86.7304C378.802 84.322 380.586 82.3596 382.549 81.2C383.797 80.4864 384.957 80.1296 386.027 80.2188C387.633 80.308 389.595 79.1484 391.29 77.0076C392.271 75.848 393.342 74.8668 394.501 74.2424C395.75 73.5288 396.91 73.172 397.98 73.2612C399.586 73.3504 401.548 72.1908 403.243 70.05C404.224 68.8904 405.295 67.9093 406.454 67.2849C407.703 66.5713 408.863 66.2145 409.933 66.3037C411.539 66.3929 413.501 65.2333 415.196 63.0925C416.177 61.9329 417.247 60.9517 418.407 60.3273C420.191 59.2569 421.975 59.0785 423.402 59.7029C424.027 59.9705 424.294 60.6841 424.026 61.3085C423.759 61.9329 423.045 62.2005 422.421 61.9329C421.707 61.5761 420.726 61.7545 419.567 62.4681C418.675 63.0033 417.783 63.7169 417.069 64.6981C414.839 67.3741 412.163 68.8904 409.844 68.712C409.219 68.712 408.417 68.8905 407.703 69.3364C406.811 69.8716 405.919 70.5852 405.205 71.5664C402.975 74.2424 400.299 75.7588 397.98 75.5804C397.356 75.5804 396.553 75.7588 395.839 76.2048C394.947 76.74 394.055 77.4536 393.342 78.4348C391.112 81.1108 388.436 82.6272 386.117 82.4488C385.492 82.4488 384.689 82.6272 383.976 83.0732C382.46 83.9652 380.943 85.5708 379.962 87.6224C379.516 88.2467 379.07 88.5143 378.624 88.5143Z" fill="white"/>
<path d="M31.2811 318.828C31.1027 318.828 30.9243 318.828 30.7459 318.649C30.1216 318.293 29.9432 317.579 30.2108 317.044C31.4595 314.635 33.2435 312.673 35.2059 311.513C36.4547 310.8 37.6143 310.443 38.6847 310.532C40.2011 310.621 42.2527 309.462 43.9475 307.321C44.9287 306.161 45.9991 305.18 47.1587 304.556C48.4075 303.842 49.5671 303.485 50.6374 303.575C52.243 303.664 54.2054 302.504 55.9002 300.364C56.8814 299.204 57.9518 298.223 59.1114 297.598C60.3602 296.885 61.5198 296.528 62.5902 296.617C64.1958 296.706 66.1582 295.547 67.853 293.406C68.8342 292.246 69.9045 291.265 71.0641 290.641C72.8481 289.57 74.6321 289.392 76.0593 290.016C76.6837 290.284 76.9513 290.998 76.6837 291.622C76.4161 292.246 75.7025 292.514 75.0781 292.246C74.3645 291.89 73.3833 292.068 72.2237 292.782C71.3317 293.317 70.4397 294.03 69.7261 295.012C67.4962 297.688 64.8202 299.204 62.501 299.026C61.8766 299.026 61.0738 299.204 60.3602 299.65C59.4682 300.185 58.5762 300.899 57.8626 301.88C55.6326 304.556 53.0458 306.072 50.6374 305.894C50.013 305.894 49.2103 306.072 48.4967 306.518C47.6047 307.053 46.7127 307.767 45.9991 308.748C43.7691 311.424 41.0931 312.941 38.7739 312.762C38.1495 312.762 37.3467 312.941 36.6331 313.387C35.1167 314.279 33.6003 315.884 32.6191 317.936C32.1731 318.56 31.7271 318.828 31.2811 318.828Z" fill="white"/>
<path d="M220.028 318.025C220.028 319.541 218.957 321.325 217.708 322.128C216.37 322.842 215.389 322.307 215.389 320.79C215.389 319.274 216.46 317.49 217.708 316.687C218.957 315.884 220.028 316.509 220.028 318.025Z" fill="white"/>
<path d="M227.61 313.654C227.61 315.17 226.539 316.954 225.29 317.757C223.952 318.471 222.971 317.936 222.971 316.419C222.971 314.903 224.042 313.119 225.29 312.316C226.628 311.513 227.61 312.138 227.61 313.654Z" fill="white"/>
<path d="M235.28 309.194C235.28 310.71 234.21 312.494 232.961 313.297C231.623 314.011 230.642 313.476 230.642 311.959C230.642 310.443 231.712 308.659 232.961 307.856C234.21 307.142 235.28 307.767 235.28 309.194Z" fill="white"/>
<path d="M242.862 304.823C242.862 306.34 241.792 308.124 240.543 308.927C239.205 309.64 238.224 309.105 238.224 307.589C238.224 306.072 239.295 304.288 240.543 303.485C241.792 302.683 242.862 303.307 242.862 304.823Z" fill="white"/>
<path d="M172.752 117.415C172.752 118.931 171.681 120.715 170.432 121.518C169.184 122.321 168.113 121.696 168.113 120.18C168.113 118.664 169.184 116.88 170.432 116.077C171.681 115.274 172.752 115.898 172.752 117.415Z" fill="white"/>
<path d="M179.263 113.669C179.263 115.185 178.193 116.969 176.944 117.772C175.695 118.575 174.625 117.95 174.625 116.434C174.625 114.917 175.695 113.133 176.944 112.331C178.193 111.528 179.263 112.152 179.263 113.669Z" fill="white"/>
<path d="M172.752 109.922C172.752 111.439 171.681 113.223 170.432 114.026C169.184 114.828 168.113 114.204 168.113 112.688C168.113 111.171 169.184 109.387 170.432 108.584C171.681 107.871 172.752 108.406 172.752 109.922Z" fill="white"/>
<path d="M179.263 106.176C179.263 107.692 178.193 109.476 176.944 110.279C175.695 111.082 174.625 110.457 174.625 108.941C174.625 107.425 175.695 105.641 176.944 104.838C178.193 104.124 179.263 104.659 179.263 106.176Z" fill="white"/>
<path d="M382.014 162.193L377.286 164.958V159.517L382.014 156.841V162.193Z" fill="white"/>
<path d="M389.596 157.823L384.958 160.588V155.147L389.596 152.381V157.823Z" fill="white"/>
<path d="M397.267 153.451L392.54 156.127V150.686L397.267 148.01V153.451Z" fill="white"/>
<path d="M404.849 149.081L400.21 151.757V146.316L404.849 143.64V149.081Z" fill="white"/>
<path d="M155.715 152.203C154.912 152.649 154.109 153.363 153.395 154.165C153.306 149.616 150.006 147.832 145.992 150.151C144.743 150.865 143.494 151.935 142.424 153.273C140.64 150.151 136.983 149.438 132.701 151.935C126.725 155.414 121.819 163.888 121.819 170.756C121.819 171.292 121.908 171.827 121.908 172.362C121.016 172.184 120.035 172.362 118.875 172.986C116.021 174.681 113.702 178.695 113.702 181.996C113.702 185.296 116.021 186.634 118.875 185.028L155.625 163.799C158.391 162.193 160.621 158.358 160.621 155.147C160.799 151.935 158.48 150.597 155.715 152.203Z" fill="white"/>
<path opacity="0.4" d="M133.325 277.26C132.433 277.796 131.63 278.509 130.917 279.312C130.828 274.495 127.349 272.622 123.156 275.03C121.818 275.833 120.48 276.993 119.41 278.331C117.537 275.03 113.612 274.228 109.063 276.904C102.73 280.561 97.5562 289.481 97.5562 296.884C97.5562 297.509 97.6454 298.044 97.6454 298.579C96.7534 298.311 95.5938 298.49 94.4342 299.203C91.4014 300.987 88.9038 305.269 88.9038 308.748C88.9038 312.227 91.4014 313.654 94.4342 311.959L133.414 289.481C136.358 287.786 138.677 283.683 138.677 280.293C138.677 276.993 136.269 275.655 133.325 277.26Z" fill="white"/>
<path d="M44.304 135.344C42.074 135.344 40.29 133.56 40.29 131.33C40.29 129.1 42.074 127.316 44.304 127.316C46.534 127.316 48.318 129.1 48.318 131.33C48.4072 133.471 46.534 135.344 44.304 135.344ZM44.304 129.546C43.3228 129.546 42.52 130.349 42.52 131.33C42.52 132.312 43.3228 133.114 44.304 133.114C45.2852 133.114 46.088 132.312 46.088 131.33C46.088 130.26 45.2852 129.546 44.304 129.546Z" fill="white"/>
<path d="M33.1541 135.344C30.9241 135.344 29.1401 133.56 29.1401 131.33C29.1401 129.1 30.9241 127.316 33.1541 127.316C35.3841 127.316 37.1681 129.1 37.1681 131.33C37.2573 133.471 35.3841 135.344 33.1541 135.344ZM33.1541 129.546C32.1729 129.546 31.3701 130.349 31.3701 131.33C31.3701 132.312 32.1729 133.114 33.1541 133.114C34.1353 133.114 34.9381 132.312 34.9381 131.33C34.9381 130.26 34.1353 129.546 33.1541 129.546Z" fill="white"/>
<path d="M22.0041 134.185C23.6298 134.185 24.9477 132.867 24.9477 131.241C24.9477 129.615 23.6298 128.297 22.0041 128.297C20.3784 128.297 19.0605 129.615 19.0605 131.241C19.0605 132.867 20.3784 134.185 22.0041 134.185Z" fill="white"/>
<path opacity="0.4" d="M10.9436 134.185C12.5693 134.185 13.8872 132.867 13.8872 131.241C13.8872 129.615 12.5693 128.297 10.9436 128.297C9.31789 128.297 8 129.615 8 131.241C8 132.867 9.31789 134.185 10.9436 134.185Z" fill="white"/>
<path d="M250.712 116.701C250.355 116.701 250.177 116.434 250.177 116.166V83.5191C250.177 83.1623 250.444 82.9839 250.712 82.9839C250.98 82.9839 251.247 83.2515 251.247 83.5191V116.077C251.247 116.434 250.98 116.701 250.712 116.701Z" fill="#396CAA"/>
<path d="M253.478 81.4673H247.858V93.6876H253.478V81.4673Z" fill="#5793CE"/>
<path d="M252.675 94.8471C251.604 95.4715 249.82 95.4715 248.661 94.8471C247.59 94.2227 247.59 93.1523 248.661 92.5279C249.731 91.9035 251.515 91.9035 252.675 92.5279C253.834 93.1523 253.834 94.2227 252.675 94.8471Z" fill="#5793CE"/>
<path d="M255.351 64.4302H246.164V83.6081H255.351V64.4302Z" fill="#5793CE"/>
<path d="M247.858 83.5191V87.6223C249.553 88.4251 251.872 88.4251 253.478 87.6223V83.5191C251.872 82.7163 249.553 82.7163 247.858 83.5191Z" fill="#396CAA"/>
<path d="M253.923 85.4813C252.139 86.5517 249.196 86.5517 247.412 85.4813C245.628 84.4109 245.628 82.8053 247.412 81.7349C249.196 80.6645 252.139 80.6645 253.923 81.7349C255.707 82.8053 255.707 84.5001 253.923 85.4813Z" fill="#5793CE"/>
<path d="M282.467 134.541C282.11 134.541 281.932 134.274 281.932 134.006V101.448C281.932 101.091 282.199 100.913 282.467 100.913C282.824 100.913 283.002 101.181 283.002 101.448V134.006C283.091 134.274 282.824 134.541 282.467 134.541Z" fill="#396CAA"/>
<path d="M285.232 99.3965H279.613V111.617H285.232V99.3965Z" fill="#5793CE"/>
<path d="M284.519 112.776C283.449 113.401 281.665 113.401 280.505 112.776C279.435 112.152 279.435 111.081 280.505 110.457C281.575 109.833 283.359 109.833 284.519 110.457C285.589 111.081 285.589 112.063 284.519 112.776Z" fill="#5793CE"/>
<path d="M287.106 82.3594H277.918V101.537H287.106V82.3594Z" fill="#5793CE"/>
<path d="M279.613 101.359V105.462C281.308 106.265 283.627 106.265 285.232 105.462V101.359C283.627 100.645 281.308 100.645 279.613 101.359Z" fill="#396CAA"/>
<path d="M285.678 103.41C283.894 104.481 280.951 104.481 279.167 103.41C277.383 102.34 277.383 100.735 279.167 99.6641C280.951 98.5937 283.894 98.5937 285.678 99.6641C287.551 100.645 287.551 102.34 285.678 103.41Z" fill="#5793CE"/>
<path d="M313.33 114.115L325.64 106.889L313.954 92.2607L310.833 97.2559L313.33 114.115Z" fill="#5793CE"/>
<path d="M224.042 33.924L243.665 22.5957C243.665 22.5957 242.952 33.8348 242.952 33.924L231.713 37.4028L224.042 33.924Z" fill="#5793CE"/>
<path d="M316.809 77.3641C315.293 76.4721 313.865 76.0261 312.527 75.7585C310.565 65.3221 303.34 54.3506 294.688 49.3554C292.101 47.839 289.603 47.0362 287.373 46.8578C286.214 34.2807 277.472 19.9196 266.768 13.7648C261.238 10.5536 256.153 10.1968 252.407 12.1592L252.229 12.2484C252.139 12.3376 252.05 12.3376 251.961 12.4268L240.365 19.2952L244.201 22.3279C240.722 23.8443 238.581 27.6799 238.581 33.3887C238.581 43.9142 245.985 56.759 255.172 62.0217L316.72 105.997C323.588 109.922 329.119 106.711 329.119 98.8611C329.119 91.0116 323.677 81.378 316.809 77.3641Z" fill="#5793CE"/>
<path d="M239.205 28.7505L265.787 13.2298C260.613 10.5538 255.975 10.2862 252.496 12.1594L252.317 12.2486C252.228 12.3378 252.139 12.3378 252.05 12.427L240.454 19.2954L244.289 22.3282C241.881 23.3985 240.097 25.6285 239.205 28.7505Z" fill="#5793CE"/>
<path d="M288.265 74.4206L307.621 63.0031C304.321 57.2943 299.682 52.2099 294.687 49.2664C293.974 48.9096 293.349 48.5528 292.725 48.2852L268.017 62.7355L288.265 74.4206Z" fill="#5793CE"/>
<path d="M245.896 20.5443L254.548 25.5395L270.336 16.2627C269.177 15.3707 268.017 14.5679 266.768 13.8543C264.895 12.7839 263.022 11.9812 261.238 11.5352L245.896 20.5443Z" fill="#D4ECFF"/>
<path d="M305.48 59.7026L290.049 68.801L295.401 74.7774L309.405 66.4818C308.335 64.1626 306.997 61.8434 305.48 59.7026Z" fill="#D4ECFF"/>
<path d="M304.589 84.5001C303.072 83.6081 301.645 83.1621 300.307 82.8945C298.345 72.4581 291.119 61.4866 282.467 56.4914C279.88 54.975 277.383 54.1722 275.153 53.9938C273.993 41.4167 265.252 27.0556 254.548 20.9008C243.13 14.3 233.853 19.652 233.853 32.8535C233.853 33.2995 233.853 33.7455 233.853 34.1915C225.469 30.2668 218.957 34.7267 218.957 44.6279C218.957 55.1534 226.361 67.9982 235.548 73.2609L304.589 113.133C311.457 117.058 316.987 113.847 316.987 105.997C316.987 98.1476 311.457 88.5141 304.589 84.5001Z" fill="#D4ECFF"/>
<path d="M233.943 34.2809C233.943 33.8349 233.943 33.3889 233.943 32.9429C233.943 32.9429 233.943 32.9429 233.943 32.8537C229.304 31.0697 225.379 31.8725 222.882 34.7269C225.558 32.4969 229.483 32.2293 233.943 34.2809Z" fill="white"/>
<path d="M305.659 83.5192C304.143 82.6272 302.715 82.1812 301.377 81.9136C299.415 71.4772 292.19 60.5057 283.537 55.5105C280.951 53.9941 278.453 53.1913 276.223 53.0129C275.064 40.4358 266.322 26.1639 255.618 20.0091C248.482 15.9059 242.238 16.4411 238.492 20.6335C242.327 17.4223 248.125 17.2439 254.637 20.9903C265.252 27.1451 274.082 41.417 275.242 54.0833C277.472 54.2617 279.969 55.0645 282.556 56.5809C291.209 61.5761 298.434 72.6368 300.396 82.984C301.734 83.1624 303.161 83.6976 304.678 84.5896C311.546 88.5144 317.076 98.1479 317.076 106.087C317.076 108.941 316.363 111.171 315.114 112.687C316.987 111.26 318.147 108.673 318.147 105.105C318.058 97.1667 312.527 87.5332 305.659 83.5192Z" fill="white"/>
<path d="M232.515 37.4922L237.689 39.9006L237.421 34.1918C237.421 33.835 237.421 33.389 237.421 33.0322C237.421 27.9479 238.938 24.2015 241.792 22.5959C244.557 20.9903 248.571 21.5255 252.942 24.0231C262.397 29.4643 270.693 42.8442 271.852 54.4401L272.12 57.3837L275.063 57.6513C276.847 57.8297 278.81 58.4541 280.861 59.7029C288.443 64.0737 295.223 74.1532 297.007 83.7868L297.453 86.1952L299.861 86.552C300.842 86.7304 301.823 87.0872 302.894 87.7116C308.692 91.1011 313.598 99.5751 313.598 106.265C313.598 108.763 312.884 110.636 311.724 111.349C310.476 112.063 308.602 111.706 306.372 110.457L237.332 70.5852C229.304 65.9469 222.525 54.1725 222.525 44.8958C222.525 41.2386 223.595 38.4734 225.468 37.3138C226.271 36.7786 227.163 36.6002 228.234 36.6002C229.482 36.3326 230.91 36.6894 232.515 37.4922Z" fill="url(#paint0_radial)"/>
<path d="M266.946 80.7537L268.73 79.7726L266.946 78.4346V80.7537Z" fill="#5793CE"/>
<path d="M261.505 56.1347L263.289 55.2427V56.1347H261.505Z" fill="#5793CE"/>
<path d="M272.12 74.9559L273.993 74.0639L270.425 70.6743L272.12 74.9559Z" fill="#5793CE"/>
<path d="M268.285 79.7724L259.632 74.688C259.186 74.4205 258.83 73.7961 258.83 73.2609V63.2705L268.998 69.2469V79.2372C268.998 79.7724 268.641 80.04 268.285 79.7724Z" fill="#5793CE"/>
<path d="M263.2 55.2426L253.923 61.2189C253.567 61.4865 253.834 62.3785 254.459 62.7353L264.003 68.3549L273.547 73.9745C274.172 74.3313 274.439 73.7961 274.083 73.0825L264.806 56.1346C264.36 55.421 263.646 54.975 263.2 55.2426Z" fill="#5793CE"/>
<path d="M266.411 80.6645L257.759 75.5801C257.313 75.3125 256.956 74.6881 256.956 74.153V64.1626L267.125 70.139V80.1293C267.214 80.6645 266.857 80.9321 266.411 80.6645Z" fill="#D4ECFF"/>
<path d="M261.416 56.1346L252.139 62.111C251.783 62.3786 252.05 63.2706 252.674 63.6274L262.219 69.247L271.763 74.8665C272.388 75.2233 272.655 74.6881 272.298 73.9745L263.022 57.0266C262.486 56.313 261.773 55.867 261.416 56.1346Z" fill="#D4ECFF"/>
<path d="M249.82 91.5472C249.82 92.0824 249.463 92.35 248.928 92.0824C248.482 91.8148 248.036 91.1012 248.036 90.566C248.036 90.0308 248.393 89.7632 248.928 90.0308C249.463 90.2984 249.82 91.012 249.82 91.5472Z" fill="#D4ECFF"/>
<path d="M281.664 109.744C281.664 110.279 281.308 110.547 280.772 110.279C280.326 110.012 279.88 109.298 279.88 108.763C279.88 108.228 280.237 107.96 280.772 108.228C281.308 108.495 281.664 109.12 281.664 109.744Z" fill="#D4ECFF"/>
<path d="M206.379 303.307L107.279 246.13C104.514 244.524 104.87 241.67 108.082 239.797L175.516 200.906C178.728 199.033 183.634 198.854 186.488 200.46L285.589 257.637C288.354 259.242 287.997 262.097 284.786 263.97L217.351 302.861C214.14 304.734 209.234 304.912 206.379 303.307Z" fill="#7DC3EA"/>
<path d="M211.196 294.565C209.234 294.565 207.272 294.119 205.844 293.316L106.744 236.14C105.138 235.248 104.246 233.91 104.246 232.393C104.246 230.698 105.406 229.004 107.546 227.844L174.981 188.953C178.549 186.901 183.901 186.634 187.112 188.507L286.213 245.595C287.819 246.487 288.711 247.825 288.711 249.341C288.711 251.036 287.551 252.731 285.41 253.89L217.975 292.87C216.013 294.03 213.516 294.565 211.196 294.565ZM181.76 189.488C179.798 189.488 177.747 189.934 176.141 190.915L108.706 229.806C107.368 230.52 106.654 231.501 106.654 232.393C106.654 233.196 107.368 233.82 107.992 234.088L207.093 291.265C209.502 292.692 213.962 292.424 216.905 290.819L284.34 251.928C285.678 251.214 286.392 250.233 286.392 249.341C286.392 248.538 285.678 247.914 285.054 247.646L185.953 190.469C184.882 189.845 183.366 189.488 181.76 189.488Z" fill="white"/>
<path d="M310.118 137.485L211.107 80.308C209.947 79.6836 208.788 79.5052 207.717 79.862L207.539 79.9512L203.971 81.2892L207.182 82.8948C207.182 82.984 207.182 82.984 207.093 83.0732L189.61 162.639C188.807 166.296 190.413 170.578 193.178 172.184L289.87 228.112L289.513 232.215L293.438 230.698C294.776 230.074 295.846 228.736 296.203 226.684L313.686 147.118C314.578 143.461 312.973 139.18 310.118 137.485Z" fill="#173D7A"/>
<path d="M310.118 137.485L211.107 80.308C209.947 79.6836 208.788 79.5052 207.717 79.862L207.539 79.9512L203.971 81.2892L207.182 82.8948C207.182 82.984 207.182 82.984 207.093 83.0732L195.14 137.663L243.575 175.395L313.33 141.41C312.616 139.804 311.546 138.288 310.118 137.485Z" fill="#396CAA"/>
<path d="M306.461 148.813L314.043 145.602C314.222 142.658 312.973 139.626 311.01 138.02L299.058 143.015L306.461 148.813Z" fill="#274F89"/>
<path d="M286.124 231.858L187.023 174.681C184.258 173.076 182.563 168.794 183.455 165.137L200.938 85.5708C201.741 81.9136 204.684 80.2188 207.45 81.8244L306.55 139.001C309.316 140.607 311.01 144.889 310.118 148.546L292.635 228.112C291.832 231.769 288.889 233.464 286.124 231.858Z" fill="url(#paint1_radial)"/>
<path d="M307.532 138.555L208.431 81.3784C207.093 80.5757 205.666 80.5756 204.506 81.2C205.398 81.0216 206.469 81.1109 207.45 81.7352L306.551 138.912C309.316 140.518 311.011 144.799 310.119 148.457L292.636 228.023C292.19 229.896 291.208 231.234 289.96 231.947C291.654 231.59 292.992 230.074 293.528 227.666L311.011 148.1C311.903 144.443 310.297 140.161 307.532 138.555Z" fill="white"/>
<path d="M283.983 226.328L190.859 172.54C188.272 171.024 186.845 167.099 187.558 163.799L203.703 90.4768C204.417 87.0872 207.093 85.5708 209.68 87.0872L302.804 140.875C305.391 142.391 306.818 146.316 306.104 149.616L289.959 222.938C289.246 226.328 286.57 227.844 283.983 226.328Z" fill="white"/>
<path d="M283.983 226.328L190.859 172.54C188.272 171.024 186.845 167.099 187.558 163.799L203.703 90.4768C204.417 87.0872 207.093 85.5708 209.68 87.0872L302.804 140.875C305.391 142.391 306.818 146.316 306.104 149.616L289.959 222.938C289.246 226.328 286.57 227.844 283.983 226.328Z" fill="url(#paint2_radial)"/>
<path d="M284.786 226.06L191.661 172.273C189.075 170.756 187.647 166.832 188.361 163.531L204.506 90.2091C204.863 88.5143 205.755 87.2655 206.825 86.6411C205.309 86.9979 204.149 88.4251 203.703 90.4767L187.558 163.799C186.845 167.188 188.272 171.113 190.859 172.54L283.983 226.328C285.232 227.041 286.57 227.041 287.64 226.417C286.748 226.684 285.767 226.595 284.786 226.06Z" fill="#5793CE"/>
<path d="M287.462 234.356L273.903 232.572L186.488 182.085C183.723 180.479 178.817 180.658 175.516 182.531L113.612 218.3L105.405 217.229V221.868C105.316 222.938 105.941 224.009 107.279 224.722L206.379 281.899C209.144 283.505 214.05 283.326 217.351 281.453L284.786 242.562C286.57 241.492 287.551 240.154 287.462 238.905V234.356V234.356Z" fill="#173D7A"/>
<path d="M221.811 202.422L215.567 198.854H147.329L113.701 218.3L105.495 217.23V221.868C105.405 222.938 106.03 224.009 107.368 224.722L206.469 281.899C207.985 282.791 210.037 283.059 212.088 282.97L221.811 202.422Z" fill="#396CAA"/>
<path d="M109.063 217.675L105.405 217.229V221.868C105.316 222.938 105.941 224.009 107.279 224.722L109.063 225.703V217.675Z" fill="#5793CE"/>
<path d="M207.45 282.345C210.126 283.326 213.872 283.148 216.726 281.81V271.462H207.45V282.345Z" fill="#274F89"/>
<path d="M206.379 277.26L107.279 220.084C104.514 218.478 104.87 215.624 108.082 213.75L175.516 174.859C178.728 172.986 183.634 172.808 186.488 174.413L285.589 231.59C288.354 233.196 287.997 236.05 284.786 237.923L217.351 276.814C214.14 278.688 209.234 278.866 206.379 277.26Z" fill="url(#paint3_radial)"/>
<path d="M284.786 236.139L217.351 275.03C214.14 276.904 209.234 277.082 206.379 275.476L107.279 218.299C106.387 217.764 105.762 217.14 105.495 216.426C105.049 217.764 105.584 219.102 107.279 219.994L206.379 277.171C209.145 278.777 214.051 278.598 217.351 276.725L284.786 237.834C286.927 236.585 287.819 234.891 287.283 233.463C287.016 234.445 286.213 235.337 284.786 236.139Z" fill="white"/>
<path d="M149.47 201.085L145.01 198.498C144.654 198.319 144.654 197.963 145.1 197.695L150.362 194.662C150.808 194.395 151.433 194.395 151.789 194.573L156.249 197.16C156.606 197.338 156.606 197.695 156.16 197.963L150.897 200.995C150.451 201.263 149.827 201.352 149.47 201.085Z" fill="#5793CE"/>
<path d="M156.428 205.098L151.968 202.512C151.611 202.333 151.611 201.976 152.057 201.709L157.32 198.676C157.766 198.408 158.39 198.408 158.747 198.587L163.207 201.174C163.564 201.352 163.564 201.709 163.118 201.976L157.855 205.009C157.409 205.277 156.785 205.366 156.428 205.098Z" fill="#5793CE"/>
<path d="M163.296 209.112L158.836 206.526C158.479 206.347 158.479 205.99 158.925 205.723L164.188 202.69C164.634 202.422 165.258 202.423 165.615 202.601L170.075 205.188C170.432 205.366 170.432 205.723 169.986 205.99L164.723 209.023C164.277 209.291 163.653 209.291 163.296 209.112Z" fill="#5793CE"/>
<path d="M172.93 205.812L168.47 203.225C168.113 203.047 168.113 202.69 168.559 202.422L173.019 199.836C173.465 199.568 174.089 199.568 174.446 199.746L178.906 202.333C179.263 202.512 179.263 202.868 178.817 203.136L174.357 205.723C173.911 205.99 173.287 205.99 172.93 205.812Z" fill="#5793CE"/>
<path d="M179.798 209.826L175.338 207.239C174.981 207.061 174.981 206.704 175.427 206.437L179.887 203.85C180.333 203.582 180.958 203.582 181.314 203.761L185.774 206.347C186.131 206.526 186.131 206.883 185.685 207.15L181.225 209.737C180.779 210.005 180.155 210.005 179.798 209.826Z" fill="#5793CE"/>
<path d="M186.756 213.84L182.296 211.253C181.939 211.075 181.939 210.718 182.385 210.45L186.845 207.863C187.291 207.596 187.916 207.596 188.272 207.774L192.732 210.361C193.089 210.539 193.089 210.896 192.643 211.164L188.183 213.751C187.737 214.018 187.113 214.018 186.756 213.84Z" fill="#5793CE"/>
<path d="M193.713 217.765L189.253 215.178C188.897 214.999 188.897 214.643 189.343 214.375L193.803 211.788C194.249 211.521 194.873 211.521 195.23 211.699L199.69 214.286C200.047 214.464 200.047 214.821 199.601 215.089L195.141 217.675C194.695 217.943 194.07 218.032 193.713 217.765Z" fill="#5793CE"/>
<path d="M200.582 221.779L196.122 219.192C195.765 219.014 195.765 218.657 196.211 218.389L200.671 215.802C201.117 215.535 201.741 215.535 202.098 215.713L206.558 218.3C206.915 218.478 206.915 218.835 206.469 219.103L202.009 221.69C201.563 221.957 200.938 222.046 200.582 221.779Z" fill="#5793CE"/>
<path d="M207.539 225.792L203.079 223.206C202.722 223.027 202.722 222.67 203.168 222.403L207.628 219.816C208.074 219.548 208.699 219.548 209.056 219.727L213.515 222.314C213.872 222.492 213.872 222.849 213.426 223.116L208.966 225.703C208.52 225.971 207.896 225.971 207.539 225.792Z" fill="#5793CE"/>
<path d="M214.408 229.807L209.948 227.22C209.591 227.041 209.591 226.685 210.037 226.417L214.497 223.83C214.943 223.563 215.567 223.563 215.924 223.741L220.384 226.328C220.741 226.506 220.741 226.863 220.295 227.131L215.835 229.717C215.389 229.985 214.765 229.985 214.408 229.807Z" fill="#5793CE"/>
<path d="M221.365 233.821L216.905 231.234C216.549 231.056 216.549 230.699 216.995 230.431L221.455 227.844C221.901 227.577 222.525 227.577 222.882 227.755L227.342 230.342C227.698 230.52 227.698 230.877 227.252 231.145L222.792 233.732C222.346 233.999 221.722 233.999 221.365 233.821Z" fill="#5793CE"/>
<path d="M228.323 237.746L223.863 235.159C223.506 234.98 223.506 234.624 223.952 234.356L228.412 231.769C228.858 231.502 229.482 231.502 229.839 231.68L234.299 234.267C234.656 234.445 234.656 234.802 234.21 235.07L229.75 237.656C229.304 237.924 228.68 238.013 228.323 237.746Z" fill="#5793CE"/>
<path d="M235.191 241.759L230.731 239.172C230.374 238.994 230.374 238.637 230.82 238.37L235.28 235.783C235.726 235.515 236.351 235.515 236.707 235.694L241.167 238.28C241.524 238.459 241.524 238.816 241.078 239.083L236.618 241.67C236.172 241.938 235.548 242.027 235.191 241.759Z" fill="#5793CE"/>
<path d="M183.099 203.939L178.639 201.352C178.282 201.174 178.282 200.817 178.728 200.549L183.188 197.963C183.634 197.695 184.258 197.695 184.615 197.873L189.075 200.46C189.432 200.639 189.432 200.995 188.986 201.263L184.526 203.85C184.08 204.117 183.456 204.117 183.099 203.939Z" fill="#5793CE"/>
<path d="M176.052 199.835L171.592 197.249C171.235 197.07 171.235 196.713 171.681 196.446L176.141 193.859C176.587 193.591 177.211 193.591 177.568 193.77L182.028 196.357C182.385 196.535 182.385 196.892 181.939 197.159L177.479 199.746C177.033 200.014 176.409 200.103 176.052 199.835Z" fill="#5793CE"/>
<path d="M169.005 195.821L159.372 190.291C159.015 190.113 159.015 189.756 159.461 189.488L163.921 186.902C164.367 186.634 164.991 186.634 165.348 186.812L174.982 192.343C175.338 192.521 175.338 192.878 174.892 193.145L170.432 195.732C170.076 196 169.362 196 169.005 195.821Z" fill="#5793CE"/>
<path d="M174 190.827L166.15 186.277C165.794 186.099 165.794 185.742 166.24 185.475L170.7 182.888C171.146 182.62 171.77 182.62 172.127 182.799L179.976 187.348C180.333 187.526 180.333 187.883 179.887 188.151L175.427 190.737C174.981 191.005 174.357 191.094 174 190.827Z" fill="#5793CE"/>
<path d="M190.056 207.953L185.596 205.366C185.239 205.187 185.239 204.831 185.685 204.563L190.145 201.976C190.591 201.709 191.216 201.709 191.573 201.887L196.033 204.474C196.389 204.652 196.389 205.009 195.943 205.277L191.483 207.863C191.037 208.131 190.413 208.131 190.056 207.953Z" fill="#5793CE"/>
<path d="M196.924 211.877L192.464 209.291C192.108 209.112 192.108 208.755 192.554 208.488L197.014 205.901C197.46 205.633 198.084 205.633 198.441 205.812L202.901 208.399C203.258 208.577 203.258 208.934 202.812 209.201L198.352 211.788C197.906 212.056 197.281 212.145 196.924 211.877Z" fill="#5793CE"/>
<path d="M203.882 215.892L199.422 213.305C199.065 213.126 199.065 212.77 199.511 212.502L203.971 209.915C204.417 209.648 205.041 209.648 205.398 209.826L209.858 212.413C210.215 212.591 210.215 212.948 209.769 213.216L205.309 215.802C204.863 216.07 204.239 216.159 203.882 215.892Z" fill="#5793CE"/>
<path d="M210.751 219.906L206.291 217.319C205.934 217.141 205.934 216.784 206.38 216.516L210.84 213.929C211.286 213.662 211.91 213.662 212.267 213.84L216.727 216.427C217.084 216.605 217.084 216.962 216.638 217.23L212.178 219.817C211.821 220.084 211.197 220.084 210.751 219.906Z" fill="#5793CE"/>
<path d="M217.708 223.919L213.248 221.333C212.891 221.154 212.891 220.797 213.337 220.53L217.797 217.943C218.243 217.675 218.868 217.675 219.224 217.854L223.684 220.441C224.041 220.619 224.041 220.976 223.595 221.243L219.135 223.83C218.689 224.098 218.065 224.098 217.708 223.919Z" fill="#5793CE"/>
<path d="M224.666 227.934L220.206 225.347C219.849 225.168 219.849 224.812 220.295 224.544L224.755 221.957C225.201 221.69 225.825 221.69 226.182 221.868L230.642 224.455C230.999 224.633 230.999 224.99 230.553 225.258L226.093 227.844C225.647 228.112 225.022 228.112 224.666 227.934Z" fill="#5793CE"/>
<path d="M231.534 231.858L227.074 229.272C226.717 229.093 226.717 228.736 227.163 228.469L231.623 225.882C232.069 225.614 232.693 225.614 233.05 225.793L237.51 228.38C237.867 228.558 237.867 228.915 237.421 229.182L232.961 231.769C232.515 232.037 231.891 232.126 231.534 231.858Z" fill="#5793CE"/>
<path d="M238.491 235.872L234.031 233.285C233.675 233.107 233.675 232.75 234.121 232.482L238.581 229.896C239.027 229.628 239.651 229.628 240.008 229.806L244.468 232.393C244.825 232.572 244.824 232.928 244.378 233.196L239.919 235.783C239.473 236.05 238.848 236.14 238.491 235.872Z" fill="#5793CE"/>
<path d="M245.36 239.886L240.9 237.299C240.543 237.121 240.543 236.764 240.989 236.497L245.449 233.91C245.895 233.642 246.52 233.642 246.876 233.821L251.336 236.407C251.693 236.586 251.693 236.943 251.247 237.21L246.787 239.797C246.43 240.065 245.806 240.065 245.36 239.886Z" fill="#5793CE"/>
<path d="M257.669 247.022L247.857 241.402C247.501 241.224 247.501 240.867 247.947 240.6L252.407 238.013C252.853 237.745 253.477 237.745 253.834 237.924L263.646 243.543C264.003 243.722 264.003 244.078 263.557 244.346L259.097 246.933C258.74 247.2 258.026 247.2 257.669 247.022Z" fill="#5793CE"/>
<path d="M271.228 239.173L262.932 234.445C262.575 234.267 262.575 233.91 263.021 233.642L267.481 231.055C267.927 230.788 268.552 230.788 268.909 230.966L277.204 235.694C277.561 235.872 277.561 236.229 277.115 236.497L272.655 239.083C272.209 239.351 271.585 239.44 271.228 239.173Z" fill="#5793CE"/>
<path d="M202.187 207.15L197.727 204.563C197.37 204.385 197.37 204.028 197.816 203.76L202.276 201.173C202.722 200.906 203.347 200.906 203.703 201.084L208.163 203.671C208.52 203.849 208.52 204.206 208.074 204.474L203.614 207.061C203.168 207.328 202.544 207.328 202.187 207.15Z" fill="#5793CE"/>
<path d="M195.051 203.047L190.591 200.46C190.235 200.282 190.235 199.925 190.681 199.657L195.141 197.07C195.587 196.803 196.211 196.803 196.568 196.981L201.028 199.568C201.385 199.746 201.385 200.103 200.939 200.371L196.479 202.958C196.033 203.225 195.408 203.225 195.051 203.047Z" fill="#5793CE"/>
<path d="M188.004 198.944L183.544 196.357C183.188 196.179 183.188 195.822 183.634 195.554L188.094 192.967C188.54 192.7 189.164 192.7 189.521 192.878L193.981 195.465C194.338 195.643 194.338 196 193.892 196.268L189.432 198.855C188.986 199.122 188.361 199.122 188.004 198.944Z" fill="#5793CE"/>
<path d="M180.869 194.84L176.409 192.254C176.052 192.075 176.052 191.718 176.498 191.451L180.958 188.864C181.404 188.596 182.028 188.596 182.385 188.775L186.845 191.362C187.202 191.54 187.202 191.897 186.756 192.164L182.296 194.751C181.85 195.019 181.226 195.019 180.869 194.84Z" fill="#5793CE"/>
<path d="M209.056 211.164L204.596 208.577C204.239 208.399 204.239 208.042 204.685 207.774L209.145 205.188C209.591 204.92 210.215 204.92 210.572 205.098L215.032 207.685C215.389 207.864 215.389 208.22 214.943 208.488L210.483 211.075C210.037 211.342 209.413 211.342 209.056 211.164Z" fill="#5793CE"/>
<path d="M216.013 215.089L211.553 212.502C211.196 212.324 211.196 211.967 211.642 211.699L216.102 209.112C216.548 208.845 217.173 208.845 217.53 209.023L221.99 211.61C222.346 211.788 222.346 212.145 221.9 212.413L217.44 215C216.994 215.267 216.37 215.356 216.013 215.089Z" fill="#5793CE"/>
<path d="M222.881 219.102L218.421 216.516C218.065 216.337 218.065 215.981 218.511 215.713L222.971 213.126C223.417 212.859 224.041 212.859 224.398 213.037L228.858 215.624C229.215 215.802 229.215 216.159 228.769 216.427L224.309 219.013C223.863 219.281 223.238 219.37 222.881 219.102Z" fill="#5793CE"/>
<path d="M229.839 223.117L225.379 220.53C225.022 220.351 225.022 219.995 225.468 219.727L229.928 217.14C230.374 216.873 230.999 216.873 231.355 217.051L235.815 219.638C236.172 219.816 236.172 220.173 235.726 220.441L231.266 223.027C230.82 223.295 230.196 223.295 229.839 223.117Z" fill="#5793CE"/>
<path d="M236.796 227.131L232.336 224.544C231.98 224.366 231.98 224.009 232.426 223.741L236.886 221.154C237.332 220.887 237.956 220.887 238.313 221.065L242.773 223.652C243.13 223.83 243.13 224.187 242.684 224.455L238.224 227.042C237.778 227.309 237.153 227.309 236.796 227.131Z" fill="#5793CE"/>
<path d="M243.665 231.145L239.205 228.558C238.848 228.379 238.848 228.023 239.294 227.755L243.754 225.168C244.2 224.901 244.825 224.901 245.181 225.079L249.641 227.666C249.998 227.844 249.998 228.201 249.552 228.469L245.092 231.055C244.646 231.323 244.022 231.323 243.665 231.145Z" fill="#5793CE"/>
<path d="M250.623 235.069L246.163 232.483C245.806 232.304 245.806 231.947 246.252 231.68L250.712 229.093C251.158 228.825 251.782 228.825 252.139 229.004L256.599 231.591C256.956 231.769 256.956 232.126 256.51 232.393L252.05 234.98C251.604 235.248 250.979 235.337 250.623 235.069Z" fill="#5793CE"/>
<path d="M257.491 239.083L253.031 236.497C252.674 236.318 252.674 235.961 253.12 235.694L257.58 233.107C258.026 232.839 258.65 232.839 259.007 233.018L263.467 235.605C263.824 235.783 263.824 236.14 263.378 236.407L258.918 238.994C258.472 239.262 257.848 239.351 257.491 239.083Z" fill="#5793CE"/>
<path d="M264.448 243.097L259.988 240.51C259.632 240.332 259.632 239.975 260.078 239.708L264.538 237.121C264.984 236.853 265.608 236.853 265.965 237.032L270.425 239.618C270.781 239.797 270.781 240.154 270.335 240.421L265.876 243.008C265.43 243.276 264.805 243.276 264.448 243.097Z" fill="#5793CE"/>
<path d="M198.53 197.249L194.07 194.662C193.713 194.484 193.713 194.127 194.159 193.859L198.619 191.273C199.065 191.005 199.689 191.005 200.046 191.183L204.506 193.77C204.863 193.949 204.863 194.305 204.417 194.573L199.957 197.16C199.511 197.427 198.887 197.427 198.53 197.249Z" fill="#5793CE"/>
<path d="M191.572 193.235L187.112 190.648C186.756 190.47 186.756 190.113 187.202 189.845L191.662 187.258C192.108 186.991 192.732 186.991 193.089 187.169L197.549 189.756C197.905 189.934 197.905 190.291 197.459 190.559L193 193.146C192.643 193.413 192.018 193.502 191.572 193.235Z" fill="#5793CE"/>
<path d="M184.704 189.31L180.244 186.723C179.887 186.545 179.887 186.188 180.333 185.92L184.793 183.334C185.239 183.066 185.864 183.066 186.221 183.244L190.681 185.831C191.037 186.01 191.037 186.366 190.591 186.634L186.131 189.221C185.685 189.488 185.061 189.488 184.704 189.31Z" fill="#5793CE"/>
<path d="M177.836 185.296L173.376 182.709C173.019 182.531 173.019 182.174 173.465 181.906L177.925 179.319C178.371 179.052 178.995 179.052 179.352 179.23L183.812 181.817C184.169 181.995 184.169 182.352 183.723 182.62L179.263 185.207C178.817 185.474 178.192 185.563 177.836 185.296Z" fill="#5793CE"/>
<path d="M184.882 181.193L180.422 178.606C180.066 178.428 180.066 178.071 180.512 177.803L181.939 176.911C182.385 176.644 183.009 176.644 183.366 176.822L187.826 179.409C188.183 179.587 188.183 179.944 187.737 180.212L186.31 181.104C185.953 181.371 185.239 181.461 184.882 181.193Z" fill="#5793CE"/>
<path d="M193.892 186.456L189.432 183.869C189.075 183.69 189.075 183.334 189.521 183.066L190.948 182.174C191.394 181.906 192.018 181.906 192.375 182.085L196.835 184.672C197.192 184.85 197.192 185.207 196.746 185.474L195.319 186.366C194.873 186.634 194.248 186.634 193.892 186.456Z" fill="#5793CE"/>
<path d="M200.76 190.38L196.3 187.794C195.943 187.615 195.943 187.258 196.389 186.991L197.816 186.099C198.262 185.831 198.887 185.831 199.243 186.01L203.703 188.596C204.06 188.775 204.06 189.132 203.614 189.399L202.187 190.291C201.741 190.559 201.117 190.559 200.76 190.38Z" fill="#5793CE"/>
<path d="M207.628 194.305L203.169 191.718C202.812 191.54 202.812 191.183 203.258 190.916L204.685 190.024C205.131 189.756 205.755 189.756 206.112 189.934L210.572 192.521C210.929 192.7 210.929 193.056 210.483 193.324L209.056 194.216C208.61 194.484 207.985 194.573 207.628 194.305Z" fill="#5793CE"/>
<path d="M214.497 198.319L210.037 195.733C209.68 195.554 209.68 195.197 210.126 194.93L211.553 194.038C211.999 193.77 212.623 193.77 212.98 193.949L217.44 196.535C217.797 196.714 217.797 197.071 217.351 197.338L215.924 198.23C215.478 198.498 214.853 198.498 214.497 198.319Z" fill="#5793CE"/>
<path d="M252.763 220.441L248.303 217.854C247.946 217.676 247.946 217.319 248.392 217.051L249.82 216.159C250.266 215.892 250.89 215.892 251.247 216.07L255.707 218.657C256.064 218.835 256.064 219.192 255.618 219.46L254.19 220.352C253.744 220.619 253.12 220.619 252.763 220.441Z" fill="#5793CE"/>
<path d="M259.632 224.366L255.172 221.779C254.815 221.601 254.815 221.244 255.261 220.976L256.688 220.084C257.134 219.817 257.759 219.817 258.116 219.995L262.575 222.582C262.932 222.76 262.932 223.117 262.486 223.385L261.059 224.277C260.613 224.544 259.989 224.544 259.632 224.366Z" fill="#5793CE"/>
<path d="M266.5 228.29L262.04 225.703C261.683 225.525 261.683 225.168 262.129 224.9L263.556 224.008C264.002 223.741 264.627 223.741 264.984 223.919L269.444 226.506C269.8 226.684 269.8 227.041 269.354 227.309L267.927 228.201C267.481 228.468 266.857 228.558 266.5 228.29Z" fill="#5793CE"/>
<path d="M273.368 232.304L268.908 229.717C268.551 229.539 268.551 229.182 268.997 228.915L270.425 228.023C270.871 227.755 271.495 227.755 271.852 227.933L276.312 230.52C276.669 230.699 276.669 231.055 276.223 231.323L274.795 232.215C274.349 232.483 273.725 232.483 273.368 232.304Z" fill="#5793CE"/>
<path d="M205.399 201.263L200.939 198.676C200.582 198.497 200.582 198.141 201.028 197.873L205.488 195.286C205.934 195.019 206.558 195.019 206.915 195.197L211.375 197.784C211.732 197.962 211.732 198.319 211.286 198.587L206.826 201.173C206.38 201.441 205.755 201.441 205.399 201.263Z" fill="#5793CE"/>
<path d="M212.356 205.277L207.896 202.69C207.539 202.512 207.539 202.155 207.985 201.887L212.445 199.3C212.891 199.033 213.516 199.033 213.872 199.211L218.332 201.798C218.689 201.976 218.689 202.333 218.243 202.601L213.783 205.188C213.337 205.455 212.713 205.455 212.356 205.277Z" fill="#5793CE"/>
<path d="M219.314 209.202L214.854 206.615C214.497 206.436 214.497 206.08 214.943 205.812L219.403 203.225C219.849 202.958 220.473 202.958 220.83 203.136L225.29 205.723C225.647 205.901 225.647 206.258 225.201 206.526L220.741 209.112C220.295 209.38 219.67 209.469 219.314 209.202Z" fill="#5793CE"/>
<path d="M226.182 213.215L221.722 210.629C221.365 210.45 221.365 210.093 221.811 209.826L226.271 207.239C226.717 206.971 227.341 206.971 227.698 207.15L232.158 209.737C232.515 209.915 232.515 210.272 232.069 210.539L227.609 213.126C227.163 213.394 226.539 213.483 226.182 213.215Z" fill="#5793CE"/>
<path d="M233.139 217.229L228.679 214.643C228.322 214.464 228.322 214.107 228.768 213.84L233.228 211.253C233.674 210.985 234.299 210.985 234.656 211.164L239.116 213.751C239.472 213.929 239.472 214.286 239.026 214.553L234.566 217.14C234.12 217.408 233.496 217.408 233.139 217.229Z" fill="#5793CE"/>
<path d="M240.008 221.244L235.548 218.657C235.191 218.478 235.191 218.122 235.637 217.854L240.097 215.267C240.543 215 241.167 215 241.524 215.178L245.984 217.765C246.341 217.943 246.341 218.3 245.895 218.568L241.435 221.154C240.989 221.422 240.365 221.422 240.008 221.244Z" fill="#5793CE"/>
<path d="M246.965 225.257L242.505 222.671C242.149 222.492 242.149 222.135 242.595 221.868L247.055 219.281C247.501 219.013 248.125 219.013 248.482 219.192L252.942 221.779C253.299 221.957 253.299 222.314 252.853 222.581L248.393 225.168C247.947 225.436 247.322 225.436 246.965 225.257Z" fill="#5793CE"/>
<path d="M253.923 229.182L249.463 226.595C249.106 226.417 249.106 226.06 249.552 225.793L254.012 223.206C254.458 222.938 255.083 222.938 255.439 223.117L259.899 225.703C260.256 225.882 260.256 226.239 259.81 226.506L255.35 229.093C254.904 229.36 254.28 229.45 253.923 229.182Z" fill="#5793CE"/>
<path d="M260.791 233.196L256.331 230.609C255.974 230.431 255.974 230.074 256.42 229.807L260.88 227.22C261.326 226.952 261.951 226.952 262.307 227.131L266.767 229.717C267.124 229.896 267.124 230.253 266.678 230.52L262.218 233.107C261.772 233.375 261.148 233.464 260.791 233.196Z" fill="#5793CE"/>
<path d="M165.883 201.709L152.681 194.127C152.324 193.948 152.324 193.591 152.77 193.324L157.23 190.737C157.676 190.469 158.301 190.469 158.658 190.648L171.859 198.23C172.216 198.408 172.216 198.765 171.77 199.033L167.31 201.619C166.864 201.887 166.24 201.976 165.883 201.709Z" fill="#5793CE"/>
<path d="M250.89 250.858L237.689 243.276C237.332 243.098 237.332 242.741 237.778 242.473L242.238 239.886C242.684 239.619 243.308 239.619 243.665 239.797L256.866 247.379C257.223 247.558 257.223 247.914 256.777 248.182L252.317 250.769C251.871 251.036 251.247 251.036 250.89 250.858Z" fill="#5793CE"/>
<path d="M223.238 243.722L218.778 241.135C218.422 240.957 218.422 240.6 218.868 240.332L224.13 237.299C224.576 237.032 225.201 237.032 225.558 237.21L230.018 239.797C230.374 239.975 230.374 240.332 229.928 240.6L224.666 243.633C224.22 243.9 223.595 243.9 223.238 243.722Z" fill="#5793CE"/>
<path d="M172.93 214.643L165.794 210.539C165.437 210.361 165.437 210.004 165.883 209.737L171.146 206.704C171.592 206.436 172.216 206.436 172.573 206.615L179.709 210.718C180.066 210.896 180.066 211.253 179.62 211.521L174.357 214.553C173.911 214.821 173.287 214.91 172.93 214.643Z" fill="#5793CE"/>
<path d="M216.548 239.797L209.412 235.694C209.055 235.515 209.055 235.158 209.501 234.891L214.764 231.858C215.21 231.59 215.835 231.59 216.191 231.769L223.327 235.872C223.684 236.05 223.684 236.407 223.238 236.675L217.975 239.708C217.529 239.975 216.905 240.064 216.548 239.797Z" fill="#5793CE"/>
<path d="M182.92 220.441L175.784 216.338C175.427 216.159 175.427 215.802 175.873 215.535L181.136 212.502C181.582 212.235 182.207 212.235 182.563 212.413L189.699 216.516C190.056 216.694 190.056 217.051 189.61 217.319L184.347 220.352C183.901 220.619 183.277 220.619 182.92 220.441Z" fill="#5793CE"/>
<path d="M182.563 212.413L213.694 230.431C214.051 230.699 214.051 231.055 213.694 231.234L208.342 234.356C207.985 234.623 207.361 234.623 206.915 234.356L175.784 216.337L182.563 212.413Z" fill="#5793CE"/>
<path d="M242.594 250.947L247.59 253.801C247.857 253.98 247.857 254.247 247.5 254.426L245.36 255.675C245.003 255.853 244.468 255.853 244.2 255.764L239.205 252.909C238.937 252.731 238.937 252.463 239.294 252.285L241.435 251.036C241.702 250.769 242.238 250.769 242.594 250.947Z" fill="#5793CE"/>
<path d="M235.548 246.933L240.543 249.787C240.81 249.966 240.81 250.233 240.454 250.412L238.313 251.66C237.956 251.839 237.421 251.839 237.153 251.75L232.158 248.895C231.89 248.717 231.89 248.449 232.247 248.271L234.388 247.022C234.745 246.755 235.28 246.755 235.548 246.933Z" fill="#5793CE"/>
<path d="M228.679 242.919L233.675 245.773C233.942 245.952 233.942 246.219 233.585 246.398L231.445 247.646C231.088 247.825 230.553 247.825 230.285 247.736L225.29 244.881C225.022 244.703 225.022 244.435 225.379 244.257L227.52 243.008C227.877 242.74 228.323 242.74 228.679 242.919Z" fill="#5793CE"/>
<path d="M239.384 244.703L244.379 247.557C244.646 247.736 244.646 248.003 244.29 248.182L242.149 249.43C241.792 249.609 241.257 249.609 240.989 249.52L235.994 246.665C235.726 246.487 235.726 246.219 236.083 246.041L238.224 244.792C238.581 244.525 239.116 244.525 239.384 244.703Z" fill="#5793CE"/>
<path d="M225.468 124.016L214.229 117.504L214.675 115.096L226.003 121.607L225.468 124.016Z" fill="#D4ECFF"/>
<path d="M224.219 129.635L212.98 123.213L213.515 120.715L224.754 127.227L224.219 129.635Z" fill="white"/>
<path d="M279.523 207.774L268.284 201.262L268.73 198.854L279.969 205.366L279.523 207.774Z" fill="#D4ECFF"/>
<path d="M221.811 140.963L210.572 134.452L211.018 132.043L222.257 138.555L221.811 140.963Z" fill="#D4ECFF"/>
<path d="M269.8 172.63L228.144 148.546L228.679 145.87L270.335 169.954L269.8 172.63Z" fill="#D4ECFF"/>
<path d="M254.904 177.179L225.825 160.409L226.36 157.733L255.439 174.503L254.904 177.179Z" fill="#D4ECFF"/>
<path d="M252.139 168.972L226.984 154.522L227.52 151.757L252.674 166.296L252.139 168.972Z" fill="white"/>
<path d="M246.787 145.78C246.43 146.672 245.36 146.94 244.557 146.494C243.665 146.048 243.308 144.888 243.754 143.996C244.111 143.104 245.181 142.837 245.984 143.283C246.787 143.818 247.233 144.888 246.787 145.78Z" fill="#FF2C9C"/>
<path d="M252.228 148.902C251.871 149.794 250.801 150.062 249.998 149.616C249.106 149.17 248.749 148.01 249.195 147.118C249.552 146.226 250.622 145.959 251.425 146.405C252.228 146.94 252.585 148.01 252.228 148.902Z" fill="white"/>
<path d="M257.58 152.024C257.223 152.916 256.153 153.184 255.35 152.738C254.458 152.292 254.101 151.132 254.547 150.24C254.904 149.348 255.974 149.081 256.777 149.527C257.669 150.062 258.026 151.132 257.58 152.024Z" fill="#D4ECFF"/>
<path d="M263.021 155.146C262.664 156.038 261.594 156.306 260.791 155.86C259.899 155.414 259.542 154.254 259.988 153.362C260.345 152.47 261.416 152.202 262.218 152.648C263.11 153.184 263.467 154.254 263.021 155.146Z" fill="#FF2C9C"/>
<path d="M268.641 178.517L256.063 171.292L256.599 168.526L269.176 175.841L268.641 178.517Z" fill="#FF2C9C"/>
<path d="M313.598 327.123L272.566 303.396C271.049 302.504 271.228 300.988 273.012 300.007L316.541 274.852C318.236 273.871 320.912 273.782 322.428 274.585L363.46 298.312C364.976 299.204 364.798 300.72 363.014 301.702L319.485 326.856C317.701 327.837 315.114 327.926 313.598 327.123Z" fill="#7DC3EA"/>
<path d="M316.184 319.274C315.025 319.274 313.865 319.006 313.062 318.56L272.03 294.833C270.96 294.209 270.425 293.317 270.425 292.335C270.425 291.176 271.138 290.106 272.476 289.392L316.006 264.238C318.147 262.989 321.179 262.9 323.053 263.97L364.084 287.697C365.155 288.322 365.69 289.214 365.69 290.195C365.69 291.354 364.976 292.425 363.638 293.138L320.109 318.293C318.949 319.006 317.522 319.274 316.184 319.274ZM319.841 265.665C318.86 265.665 317.879 265.932 317.076 266.289L273.547 291.443C272.922 291.8 272.744 292.157 272.744 292.335C272.744 292.425 272.833 292.603 273.19 292.781L314.222 316.509C315.381 317.133 317.522 317.044 318.86 316.241L362.39 291.087C363.014 290.73 363.192 290.373 363.192 290.195C363.192 290.106 363.103 289.927 362.746 289.749L321.715 266.022C321.269 265.754 320.555 265.665 319.841 265.665Z" fill="white"/>
<path d="M316.541 202.422C316.541 202.422 293.973 204.563 280.415 205.634L316.362 308.124L363.995 280.65L364.084 280.561C364.709 280.204 365.065 279.402 365.065 278.242V177.982C365.065 176.911 364.709 175.752 364.263 174.771L316.541 202.422Z" fill="url(#paint4_radial)"/>
<path d="M362.211 172.362L320.377 148.189C319.663 147.743 318.949 147.743 318.503 148.011L270.692 175.573L272.922 183.869L284.875 218.032L287.105 219.37L364.352 174.771C363.817 173.789 363.014 172.897 362.211 172.362Z" fill="url(#paint5_linear)"/>
<path opacity="0.5" d="M312.349 185.475L348.653 164.602L320.377 148.279C319.663 147.833 318.95 147.833 318.504 148.1L283.091 168.527L312.349 185.475Z" fill="#173D7A"/>
<path d="M314.4 307.946L272.566 283.773C270.96 282.791 269.622 280.294 269.622 278.153V177.982C269.622 175.841 270.96 174.771 272.566 175.752L314.4 199.925C316.006 200.906 317.344 203.404 317.344 205.545V305.716C317.344 307.946 316.095 308.927 314.4 307.946Z" fill="#5793CE"/>
<path d="M315.292 199.39L273.458 175.217C272.477 174.681 271.674 174.771 271.139 175.395C271.585 175.306 272.031 175.395 272.566 175.752L314.4 199.925C316.006 200.906 317.344 203.404 317.344 205.545V305.716C317.344 306.608 317.076 307.321 316.72 307.767C317.612 307.589 318.236 306.697 318.236 305.18V205.099C318.236 202.869 316.987 200.371 315.292 199.39Z" fill="white"/>
<path d="M311.813 301.969L275.242 280.829C273.814 280.026 272.655 277.796 272.655 275.923V182.888C272.655 181.015 273.814 180.123 275.242 180.925L311.813 202.066C313.241 202.868 314.4 205.098 314.4 206.972V300.007C314.4 301.88 313.241 302.772 311.813 301.969Z" fill="url(#paint6_linear)"/>
<path d="M311.813 301.969L275.242 280.829C273.814 280.026 272.655 277.796 272.655 275.923V182.888C272.655 181.015 273.814 180.123 275.242 180.925L311.813 202.066C313.241 202.868 314.4 205.098 314.4 206.972V300.007C314.4 301.88 313.241 302.772 311.813 301.969Z" fill="url(#paint7_linear)"/>
<path d="M311.813 301.969L275.242 280.829C273.814 280.026 272.655 277.796 272.655 275.923V182.888C272.655 181.015 273.814 180.123 275.242 180.925L311.813 202.066C313.241 202.868 314.4 205.098 314.4 206.972V300.007C314.4 301.88 313.241 302.772 311.813 301.969Z" fill="#173D7A"/>
<path d="M312.973 301.255L276.401 280.115C274.974 279.312 273.815 277.082 273.815 275.209V182.174C273.815 181.55 273.993 181.015 274.171 180.658C273.28 180.658 272.566 181.461 272.566 182.888V275.923C272.566 277.796 273.726 280.026 275.153 280.829L311.724 301.969C312.706 302.504 313.508 302.326 313.954 301.612C313.687 301.523 313.33 301.434 312.973 301.255Z" fill="#396CAA"/>
<path d="M311.813 259.243L298.166 251.393L276.49 263.881L314.4 285.735V264.149C314.4 262.275 313.24 260.045 311.813 259.243Z" fill="#173D7A"/>
<path d="M311.813 240.154L298.166 232.305L276.49 244.793L314.4 266.647V245.06C314.4 243.187 313.24 240.957 311.813 240.154Z" fill="#173D7A"/>
<path d="M311.813 221.065L298.166 213.216L276.49 225.704L314.4 247.558V225.971C314.4 224.098 313.24 221.957 311.813 221.065Z" fill="#173D7A"/>
<path d="M311.813 202.066L298.166 194.216L276.49 206.704L314.4 228.558V206.972C314.4 205.099 313.24 202.869 311.813 202.066Z" fill="#173D7A"/>
<path d="M311.813 202.066L281.664 184.672L276.49 187.615L314.4 209.469V206.883C314.4 205.099 313.24 202.869 311.813 202.066Z" fill="#173D7A"/>
<path d="M314.4 209.47L276.49 187.616V199.658L314.4 221.601V209.47Z" fill="#5793CE"/>
<path d="M314.4 228.558L276.49 206.704V218.746L314.4 240.6V228.558Z" fill="#5793CE"/>
<path d="M314.4 247.647L276.49 225.793V237.835L314.4 259.689V247.647Z" fill="#5793CE"/>
<path d="M314.4 266.736L276.49 244.882V256.924L314.4 278.778V266.736Z" fill="#5793CE"/>
<path d="M314.4 285.735L276.49 263.881V275.923L314.4 297.866V285.735Z" fill="#5793CE"/>
<path d="M311.011 217.229L282.467 200.727C281.664 200.281 281.04 199.033 281.04 197.962V194.751C281.04 193.681 281.664 193.145 282.467 193.681L311.011 210.183C311.813 210.629 312.438 211.877 312.438 212.948V216.159C312.527 217.229 311.813 217.765 311.011 217.229Z" fill="#173D7A"/>
<path opacity="0.3" d="M283.983 200.192C283.18 199.746 282.556 198.497 282.556 197.427V194.216C282.556 194.037 282.556 193.859 282.645 193.77C281.842 193.324 281.218 193.77 281.218 194.84V198.051C281.218 199.122 281.842 200.371 282.645 200.817L311.189 217.318C311.902 217.675 312.438 217.408 312.616 216.694L283.983 200.192Z" fill="#06033E"/>
<path d="M302.091 208.398L284.964 198.497C284.697 198.319 284.429 197.873 284.429 197.516C284.429 197.159 284.697 196.981 284.964 197.159L302.091 207.06C302.358 207.239 302.626 207.685 302.626 208.042C302.626 208.398 302.358 208.577 302.091 208.398Z" fill="white"/>
<path d="M311.011 236.229L282.467 219.727C281.664 219.281 281.04 218.033 281.04 216.962V213.751C281.04 212.681 281.664 212.145 282.467 212.681L311.011 229.183C311.813 229.629 312.438 230.877 312.438 231.948V235.159C312.527 236.229 311.813 236.675 311.011 236.229Z" fill="#173D7A"/>
<path opacity="0.3" d="M283.983 219.103C283.18 218.657 282.556 217.408 282.556 216.338V213.126C282.556 212.948 282.556 212.77 282.645 212.68C281.842 212.234 281.218 212.68 281.218 213.751V216.962C281.218 218.032 281.842 219.281 282.645 219.727L311.189 236.229C311.902 236.586 312.438 236.318 312.616 235.605L283.983 219.103Z" fill="#06033E"/>
<path d="M302.091 227.398L284.964 217.497C284.697 217.319 284.429 216.873 284.429 216.516C284.429 216.159 284.697 215.981 284.964 216.159L302.091 226.06C302.358 226.239 302.626 226.685 302.626 227.042C302.626 227.398 302.358 227.577 302.091 227.398Z" fill="white"/>
<path d="M311.011 255.318L282.467 238.816C281.664 238.37 281.04 237.121 281.04 236.051V232.839C281.04 231.769 281.664 231.234 282.467 231.769L311.011 248.271C311.813 248.717 312.438 249.966 312.438 251.036V254.247C312.527 255.318 311.813 255.764 311.011 255.318Z" fill="#173D7A"/>
<path opacity="0.3" d="M283.983 238.28C283.18 237.834 282.556 236.586 282.556 235.515V232.215C282.556 232.036 282.556 231.858 282.645 231.769C281.842 231.323 281.218 231.769 281.218 232.839V236.05C281.218 237.121 281.842 238.37 282.645 238.816L311.189 255.318C311.902 255.674 312.438 255.407 312.616 254.693L283.983 238.28Z" fill="#06033E"/>
<path d="M302.091 246.487L284.964 236.586C284.697 236.407 284.429 235.961 284.429 235.605C284.429 235.248 284.697 235.069 284.964 235.248L302.091 245.149C302.358 245.327 302.626 245.773 302.626 246.13C302.626 246.487 302.358 246.665 302.091 246.487Z" fill="#D4ECFF"/>
<path d="M311.011 274.674L282.467 258.172C281.664 257.726 281.04 256.477 281.04 255.407V252.196C281.04 251.125 281.664 250.59 282.467 251.125L311.011 267.627C311.813 268.073 312.438 269.322 312.438 270.393V273.604C312.527 274.585 311.813 275.12 311.011 274.674Z" fill="#173D7A"/>
<path opacity="0.3" d="M283.983 257.548C283.18 257.102 282.556 255.853 282.556 254.782V251.571C282.556 251.393 282.556 251.215 282.645 251.125C281.842 250.679 281.218 251.125 281.218 252.196V255.407C281.218 256.477 281.842 257.726 282.645 258.172L311.189 274.674C311.902 275.031 312.438 274.763 312.616 274.05L283.983 257.548Z" fill="#06033E"/>
<path d="M302.091 265.754L284.964 255.853C284.697 255.675 284.429 255.229 284.429 254.872C284.429 254.515 284.697 254.337 284.964 254.515L302.091 264.416C302.358 264.595 302.626 265.041 302.626 265.398C302.626 265.754 302.358 265.933 302.091 265.754Z" fill="#FF2C9C"/>
<path d="M311.011 293.584L282.467 277.082C281.664 276.636 281.04 275.388 281.04 274.317V271.106C281.04 270.036 281.664 269.5 282.467 270.036L311.011 286.538C311.813 286.984 312.438 288.232 312.438 289.303V292.514C312.527 293.495 311.813 294.03 311.011 293.584Z" fill="#173D7A"/>
<path opacity="0.3" d="M283.983 276.458C283.18 276.012 282.556 274.763 282.556 273.693V270.481C282.556 270.303 282.556 270.125 282.645 270.035C281.842 269.589 281.218 270.035 281.218 271.106V274.317C281.218 275.387 281.842 276.636 282.645 277.082L311.189 293.584C311.902 293.941 312.438 293.673 312.616 292.96L283.983 276.458Z" fill="#06033E"/>
<path d="M302.091 284.754L284.964 274.852C284.697 274.674 284.429 274.228 284.429 273.871C284.429 273.514 284.697 273.336 284.964 273.514L302.091 283.416C302.358 283.594 302.626 284.04 302.626 284.397C302.626 284.664 302.358 284.843 302.091 284.754Z" fill="#D4ECFF"/>
<path opacity="0.5" d="M276.49 187.615L279.523 189.399V201.441L276.49 199.657V187.615Z" fill="#173D7A"/>
<path opacity="0.5" d="M276.49 206.704L279.523 208.399V220.441L276.49 218.746V206.704Z" fill="#173D7A"/>
<path opacity="0.5" d="M276.49 225.793L279.523 227.488V239.53L276.49 237.835V225.793Z" fill="#173D7A"/>
<path opacity="0.5" d="M276.49 244.881L279.523 246.576V258.618L276.49 256.923V244.881Z" fill="#173D7A"/>
<path opacity="0.5" d="M276.49 263.881L279.523 265.665V277.707L276.49 275.923V263.881Z" fill="#173D7A"/>
<path d="M305.48 209.648C305.48 210.005 305.213 210.183 304.856 210.005C304.499 209.826 304.231 209.38 304.231 208.934C304.231 208.577 304.499 208.399 304.856 208.577C305.213 208.756 305.48 209.202 305.48 209.648Z" fill="#D4ECFF"/>
<path d="M308.067 211.075C308.067 211.432 307.8 211.61 307.443 211.432C307.086 211.253 306.818 210.807 306.818 210.361C306.818 210.005 307.086 209.826 307.443 210.005C307.8 210.272 308.067 210.718 308.067 211.075Z" fill="#FF2C9C"/>
<path d="M310.565 212.591C310.565 212.948 310.297 213.126 309.94 212.948C309.584 212.769 309.316 212.323 309.316 211.877C309.316 211.521 309.584 211.342 309.94 211.521C310.297 211.699 310.565 212.145 310.565 212.591Z" fill="#D4ECFF"/>
<path d="M305.48 228.647C305.48 229.004 305.213 229.182 304.856 229.004C304.499 228.826 304.231 228.38 304.231 227.934C304.231 227.577 304.499 227.398 304.856 227.577C305.213 227.844 305.48 228.29 305.48 228.647Z" fill="#FF2C9C"/>
<path d="M308.067 230.163C308.067 230.52 307.8 230.699 307.443 230.52C307.086 230.342 306.818 229.896 306.818 229.45C306.818 229.093 307.086 228.915 307.443 229.093C307.8 229.271 308.067 229.717 308.067 230.163Z" fill="#D4ECFF"/>
<path d="M310.565 231.591C310.565 231.947 310.297 232.126 309.94 231.947C309.584 231.769 309.316 231.323 309.316 230.877C309.316 230.431 309.584 230.342 309.94 230.52C310.297 230.788 310.565 231.234 310.565 231.591Z" fill="white"/>
<path d="M305.48 247.825C305.48 248.182 305.213 248.36 304.856 248.182C304.499 248.003 304.231 247.557 304.231 247.111C304.231 246.755 304.499 246.576 304.856 246.755C305.213 247.022 305.48 247.468 305.48 247.825Z" fill="white"/>
<path d="M308.067 249.342C308.067 249.698 307.8 249.877 307.443 249.698C307.086 249.52 306.818 249.074 306.818 248.628C306.818 248.182 307.086 248.093 307.443 248.271C307.8 248.45 308.067 248.985 308.067 249.342Z" fill="#FF2C9C"/>
<path d="M310.565 250.858C310.565 251.214 310.297 251.393 309.94 251.214C309.584 251.036 309.316 250.59 309.316 250.144C309.316 249.787 309.584 249.609 309.94 249.787C310.297 249.966 310.565 250.412 310.565 250.858Z" fill="white"/>
<path d="M305.48 266.824C305.48 267.181 305.213 267.36 304.856 267.181C304.499 267.003 304.231 266.557 304.231 266.111C304.231 265.754 304.499 265.576 304.856 265.754C305.213 265.932 305.48 266.378 305.48 266.824Z" fill="white"/>
<path d="M308.067 268.252C308.067 268.609 307.8 268.787 307.443 268.609C307.086 268.43 306.818 267.984 306.818 267.538C306.818 267.092 307.086 267.003 307.443 267.181C307.8 267.449 308.067 267.895 308.067 268.252Z" fill="#D4ECFF"/>
<path d="M310.565 269.768C310.565 270.125 310.297 270.304 309.94 270.125C309.584 269.947 309.316 269.501 309.316 269.055C309.316 268.698 309.584 268.52 309.94 268.698C310.297 268.876 310.565 269.322 310.565 269.768Z" fill="#D4ECFF"/>
<path d="M305.48 286.003C305.48 286.359 305.213 286.538 304.856 286.359C304.499 286.181 304.231 285.735 304.231 285.289C304.231 284.932 304.499 284.754 304.856 284.932C305.213 285.111 305.48 285.557 305.48 286.003Z" fill="white"/>
<path d="M308.067 287.429C308.067 287.786 307.8 287.965 307.443 287.786C307.086 287.608 306.818 287.162 306.818 286.716C306.818 286.359 307.086 286.181 307.443 286.359C307.8 286.627 308.067 287.073 308.067 287.429Z" fill="#FF2C9C"/>
<path d="M310.565 288.946C310.565 289.303 310.297 289.481 309.94 289.303C309.584 289.125 309.316 288.678 309.316 288.232C309.316 287.786 309.584 287.697 309.94 287.876C310.297 288.054 310.565 288.5 310.565 288.946Z" fill="#D4ECFF"/>
<path d="M323.677 294.476V209.202L323.855 209.112L359.535 188.507V273.782L359.357 273.871L323.677 294.476ZM324.39 209.558V293.228L358.821 273.336V189.667L324.39 209.558Z" fill="#173D7A"/>
<path d="M350.259 226.864L334.292 236.051C333.222 236.676 332.33 236.051 332.33 234.624V225.793C332.33 224.366 333.222 222.671 334.292 222.047L350.259 212.859C351.329 212.235 352.221 212.859 352.221 214.286V223.117C352.221 224.544 351.329 226.239 350.259 226.864Z" fill="#173D7A"/>
<path d="M350.615 212.591C350.705 212.859 350.794 213.126 350.794 213.483V222.314C350.794 223.741 349.902 225.436 348.831 226.06L332.865 235.248C332.775 235.337 332.597 235.337 332.508 235.426C332.775 236.229 333.489 236.497 334.292 236.051L350.259 226.863C351.329 226.239 352.221 224.544 352.221 223.117V214.286C352.221 213.037 351.507 212.323 350.615 212.591Z" fill="#5793CE"/>
<path d="M347.315 221.511C347.583 221.333 347.85 221.511 347.85 221.779V223.83C347.85 224.187 347.583 224.544 347.315 224.722C347.047 224.901 346.78 224.722 346.78 224.455V222.403C346.78 222.046 347.047 221.69 347.315 221.511Z" fill="white"/>
<path d="M345.085 223.028C345.353 222.849 345.62 223.028 345.62 223.295V225.079C345.62 225.436 345.353 225.793 345.085 225.971C344.817 226.15 344.55 225.971 344.55 225.704V223.92C344.55 223.652 344.728 223.206 345.085 223.028Z" fill="#D4ECFF"/>
<path d="M342.766 222.403C343.033 222.225 343.301 222.403 343.301 222.671V226.417C343.301 226.774 343.033 227.131 342.766 227.309C342.498 227.488 342.23 227.309 342.23 227.042V223.295C342.23 223.028 342.498 222.582 342.766 222.403Z" fill="#FF2C9C"/>
<path d="M340.447 221.601C340.714 221.422 340.982 221.601 340.982 221.868V227.755C340.982 228.112 340.714 228.469 340.447 228.647C340.179 228.826 339.912 228.647 339.912 228.38V222.493C339.912 222.136 340.179 221.779 340.447 221.601Z" fill="#D4ECFF"/>
<path d="M338.127 223.563C338.395 223.385 338.663 223.563 338.663 223.831V229.093C338.663 229.45 338.395 229.807 338.127 229.985C337.86 230.164 337.592 229.985 337.592 229.718V224.455C337.592 224.098 337.86 223.741 338.127 223.563Z" fill="#D4ECFF"/>
<path d="M335.898 227.309C336.165 227.131 336.433 227.309 336.433 227.577V230.431C336.433 230.788 336.165 231.145 335.898 231.323C335.63 231.501 335.362 231.323 335.362 231.055V228.201C335.362 227.844 335.541 227.398 335.898 227.309Z" fill="white"/>
<path d="M346.78 220.441C346.78 220.797 347.047 220.887 347.315 220.708C347.583 220.53 347.85 220.173 347.85 219.816C347.85 219.459 347.583 219.37 347.315 219.549C347.047 219.727 346.78 220.173 346.78 220.441Z" fill="#FF2C9C"/>
<path d="M346.78 218.568C346.78 218.924 347.047 219.014 347.315 218.835C347.583 218.657 347.85 218.3 347.85 217.943C347.85 217.586 347.583 217.497 347.315 217.676C347.047 217.854 346.78 218.211 346.78 218.568Z" fill="white"/>
<path d="M360.516 134.541L353.291 130.349L379.962 115.007C381.211 114.293 381.211 113.133 379.962 112.331L352.756 96.6315C351.507 95.9179 349.456 95.9179 348.207 96.6315L321.536 111.974L314.311 107.781L340.982 92.4391C346.244 89.4064 354.718 89.4064 359.981 92.4391L387.187 108.138C392.45 111.171 392.45 116.077 387.187 119.11L360.516 134.541Z" fill="url(#paint8_radial)"/>
<path d="M372.202 136.325C372.202 132.49 369.882 127.941 366.939 126.335L318.682 98.5047C317.344 97.7911 316.184 97.7019 315.292 98.2371L257.669 131.687L313.33 173.7L370.061 140.785C370.239 140.696 370.418 140.607 370.596 140.518C371.577 139.715 372.202 138.288 372.202 136.325Z" fill="url(#paint9_linear)"/>
<path d="M313.419 173.611L370.15 140.696C370.329 140.607 370.507 140.518 370.685 140.428C371.667 139.715 372.202 138.288 372.202 136.414C372.202 134.541 371.667 132.579 370.775 130.795L306.105 168.17L313.419 173.611Z" fill="#396CAA"/>
<path d="M309.762 173.522L261.505 145.691C258.651 143.997 256.242 139.537 256.242 135.701C256.242 131.866 258.561 130.082 261.505 131.776L309.762 159.607C312.616 161.301 315.025 165.761 315.025 169.597C315.025 173.343 312.706 175.127 309.762 173.522Z" fill="url(#paint10_radial)"/>
<path d="M310.386 159.25L262.129 131.419C260.791 130.617 259.542 130.617 258.65 131.152C259.453 130.884 260.434 131.063 261.505 131.687L309.762 159.517C312.616 161.212 315.024 165.672 315.024 169.508C315.024 171.559 314.311 173.076 313.24 173.7C314.668 173.254 315.56 171.648 315.56 169.24C315.56 165.404 313.24 160.944 310.386 159.25Z" fill="white"/>
<path d="M302.537 164.067L296.739 160.677C296.204 160.32 295.668 159.428 295.668 158.715C295.668 157.912 296.114 157.555 296.739 157.912L302.537 161.301C303.072 161.658 303.607 162.55 303.607 163.264C303.607 164.067 303.161 164.423 302.537 164.067Z" fill="#FF2C9C"/>
<path d="M309.94 124.997C311.457 124.105 311.457 122.678 309.94 121.786C308.424 120.894 305.926 120.983 304.41 121.875C302.893 122.767 302.893 124.194 304.41 125.086C305.926 125.889 308.424 125.889 309.94 124.997Z" fill="#5793CE"/>
<path d="M318.414 129.724C319.931 128.832 319.931 127.405 318.414 126.513C316.898 125.621 314.4 125.71 312.884 126.602C311.367 127.494 311.367 128.922 312.884 129.814C314.4 130.706 316.898 130.616 318.414 129.724Z" fill="white"/>
<path d="M326.799 134.452C328.315 133.56 328.315 132.133 326.799 131.241C325.283 130.349 322.785 130.438 321.269 131.33C319.752 132.222 319.752 133.649 321.269 134.541C322.785 135.344 325.283 135.344 326.799 134.452Z" fill="white"/>
<path d="M69.9939 272.89C69.1019 272.89 68.2099 272.622 67.4071 272.176C65.6231 271.106 64.5527 268.965 64.5527 266.2C64.5527 260.848 68.2099 254.515 72.8483 251.839C75.2567 250.411 77.6651 250.233 79.4491 251.303C81.233 252.374 82.3034 254.515 82.3034 257.28C82.3034 262.632 78.6463 268.965 74.0079 271.641C72.6699 272.533 71.2427 272.89 69.9939 272.89ZM76.8623 252.998C75.9703 252.998 74.9891 253.266 74.0079 253.89C70.0831 256.209 66.8719 261.74 66.8719 266.289C66.8719 268.251 67.4963 269.678 68.5667 270.303C69.6371 270.927 71.1535 270.749 72.8483 269.768C76.7731 267.448 79.9843 261.918 79.9843 257.369C79.9843 255.407 79.3599 253.979 78.2895 253.355C77.9327 253.087 77.3975 252.998 76.8623 252.998Z" fill="white"/>
<path d="M384.779 215.713C384.6 215.713 384.422 215.624 384.244 215.535C383.887 215.356 383.708 214.999 383.708 214.553V200.014C383.708 199.568 383.887 199.211 384.244 199.033L396.821 191.718C397.178 191.54 397.624 191.54 397.98 191.718C398.337 191.897 398.516 192.253 398.516 192.699V207.239C398.516 207.685 398.337 208.042 397.98 208.22L385.403 215.535C385.136 215.624 384.957 215.713 384.779 215.713ZM385.938 200.638V212.591L396.286 206.615V194.662L385.938 200.638Z" fill="white"/>
<path d="M182.652 252.017L149.827 233.107C149.024 232.661 149.113 231.858 150.095 231.323L167.399 221.333C168.291 220.797 169.719 220.708 170.521 221.243L203.347 240.154C204.15 240.6 204.06 241.402 203.079 241.938L185.774 251.928C184.882 252.463 183.455 252.463 182.652 252.017Z" fill="white"/>
<defs>
<radialGradient id="paint0_radial" cx="0" cy="0" r="1" gradientUnits="userSpaceOnUse" gradientTransform="translate(313.785 103.149) scale(98.1196)">
<stop stop-color="#173D7A"/>
<stop offset="1" stop-color="#274F89"/>
</radialGradient>
<radialGradient id="paint1_radial" cx="0" cy="0" r="1" gradientUnits="userSpaceOnUse" gradientTransform="translate(306.187 223.974) scale(160.815)">
<stop stop-color="#86B8E0"/>
<stop offset="0.1163" stop-color="#98C4E7"/>
<stop offset="0.3255" stop-color="#B2D6F2"/>
<stop offset="0.5401" stop-color="#C5E2F9"/>
<stop offset="0.7615" stop-color="#D0EAFE"/>
<stop offset="1" stop-color="#D4ECFF"/>
</radialGradient>
<radialGradient id="paint2_radial" cx="0" cy="0" r="1" gradientUnits="userSpaceOnUse" gradientTransform="translate(293.453 187.631) scale(110.661)">
<stop stop-color="#173D7A"/>
<stop offset="1" stop-color="#274F89"/>
</radialGradient>
<radialGradient id="paint3_radial" cx="0" cy="0" r="1" gradientUnits="userSpaceOnUse" gradientTransform="translate(310.566 236.353) scale(218.244)">
<stop stop-color="#86B8E0"/>
<stop offset="0.1163" stop-color="#98C4E7"/>
<stop offset="0.3255" stop-color="#B2D6F2"/>
<stop offset="0.5401" stop-color="#C5E2F9"/>
<stop offset="0.7615" stop-color="#D0EAFE"/>
<stop offset="1" stop-color="#D4ECFF"/>
</radialGradient>
<radialGradient id="paint4_radial" cx="0" cy="0" r="1" gradientUnits="userSpaceOnUse" gradientTransform="translate(300.319 225.524) scale(85.8105)">
<stop stop-color="#396CAA"/>
<stop offset="1" stop-color="#274F89"/>
</radialGradient>
<linearGradient id="paint5_linear" x1="273.327" y1="164.648" x2="353.342" y2="213.4" gradientUnits="userSpaceOnUse">
<stop stop-color="#D4ECFF"/>
<stop offset="0.2385" stop-color="#D0EAFE"/>
<stop offset="0.4599" stop-color="#C5E2F9"/>
<stop offset="0.6745" stop-color="#B2D6F2"/>
<stop offset="0.8837" stop-color="#98C4E7"/>
<stop offset="1" stop-color="#86B8E0"/>
</linearGradient>
<linearGradient id="paint6_linear" x1="271.01" y1="235.24" x2="309.085" y2="229.348" gradientUnits="userSpaceOnUse">
<stop stop-color="#3919BB"/>
<stop offset="1" stop-color="#6507FA"/>
</linearGradient>
<linearGradient id="paint7_linear" x1="271.01" y1="235.24" x2="309.085" y2="229.348" gradientUnits="userSpaceOnUse">
<stop stop-color="#3919BB"/>
<stop offset="1" stop-color="#6507FA"/>
</linearGradient>
<radialGradient id="paint8_radial" cx="0" cy="0" r="1" gradientUnits="userSpaceOnUse" gradientTransform="translate(390.199 119.279) scale(77.3897)">
<stop stop-color="#173D7A"/>
<stop offset="1" stop-color="#274F89"/>
</radialGradient>
<linearGradient id="paint9_linear" x1="269.297" y1="135.737" x2="383.78" y2="135.737" gradientUnits="userSpaceOnUse">
<stop stop-color="#D4ECFF"/>
<stop offset="0.2385" stop-color="#D0EAFE"/>
<stop offset="0.4599" stop-color="#C5E2F9"/>
<stop offset="0.6745" stop-color="#B2D6F2"/>
<stop offset="0.8837" stop-color="#98C4E7"/>
<stop offset="1" stop-color="#86B8E0"/>
</linearGradient>
<radialGradient id="paint10_radial" cx="0" cy="0" r="1" gradientUnits="userSpaceOnUse" gradientTransform="translate(310.505 164.573) scale(52.8897)">
<stop stop-color="#173D7A"/>
<stop offset="1" stop-color="#274F89"/>
</radialGradient>
</defs>
</svg>
