<svg width="445" height="323" viewBox="0 0 445 323" fill="none" xmlns="http://www.w3.org/2000/svg">
<g clip-path="url(#clip0)">
<path opacity="0.2" d="M62.8141 17.8492C59.5139 17.7551 56.1318 17.8492 53.0364 18.7986C44.6139 21.3847 40.6218 29.8469 41.9198 37.1593C43.2177 44.4716 48.557 50.8428 54.0968 56.6657C59.6367 62.4886 65.6393 68.246 68.6774 75.2065C70.1924 78.6806 70.9007 82.572 69.3612 86.042C66.9864 91.3902 59.8251 94.3774 52.9504 94.9994C46.0757 95.6213 39.1723 94.4101 32.2731 94.005C29.3783 93.8372 26.4015 93.8168 23.6746 94.5983C20.6815 95.4495 18.188 97.1886 15.895 99.0013C6.93213 106.105 -0.241461 115.807 0.92957 125.984C2.23981 137.535 13.9256 146.665 26.725 151.563C30.9628 153.2 35.4463 154.501 39.1764 156.817C49.0033 162.926 51.2102 174.384 50.2316 184.495C49.253 194.606 45.9201 204.73 47.7749 214.751C49.9573 226.409 59.6162 236.942 72.645 241.86C84.2529 246.243 98.7803 245.952 109.086 239.769C114.11 236.749 117.91 232.555 121.214 228.218C126.12 221.812 130.174 214.797 133.272 207.349C134.71 203.875 136.061 200.139 139.414 197.724C141.461 196.239 144.115 195.408 146.739 194.762C154.65 192.814 162.982 192.282 170.967 190.547C178.951 188.812 186.964 185.575 191.304 179.793C197.446 171.609 194.58 161.126 194.608 151.501C194.657 129.544 210.622 109.89 216.514 88.4849C218.438 81.4917 219.155 73.7538 214.856 67.5135C211.936 63.2784 207.011 60.2217 201.835 57.8606C190.448 52.6679 177.506 50.3559 164.776 48.1053C147.083 44.979 125.599 44.5739 111.887 34.4586C98.7475 24.7688 80.7439 17.8492 62.8141 17.8492Z" fill="#683CF9"/>
<g opacity="0.5">
<path opacity="0.5" d="M11.1945 142.953C10.3182 144.246 9.5976 146.124 10.7441 148.313C12.996 152.61 18.5646 151.726 21.2711 155.839C21.9942 156.978 22.3973 158.291 22.438 159.64C22.5404 161.968 21.8197 163.802 21.4471 165.852C20.9598 168.269 21.3396 170.781 22.5199 172.947C23.8485 175.208 25.8534 176.996 28.2522 178.058C30.3486 178.983 32.3467 179.22 34.353 179.67C36.842 180.241 39.2662 181.063 41.588 182.125C42.6916 182.588 43.7296 183.193 44.6753 183.926C45.8288 184.938 46.8756 186.065 47.7994 187.29L56.5084 198.035C57.615 199.484 58.8482 200.831 60.1935 202.062C61.6612 203.245 63.2738 204.236 64.9923 205.012C68.4685 206.743 72.1045 208.515 75.1221 208.314C78.1398 208.114 80.2362 205.204 78.8072 201.137C77.456 197.266 73.6481 194.004 71.9202 190.142C69.1973 184.053 72.7637 179.502 70.483 173.405C68.2966 167.546 62.1671 163.617 58.2527 158.265C55.4439 154.46 53.8798 150.032 51.3494 146.034C47.6643 140.305 42.1776 135.923 37.0186 133.705C32.4813 131.777 27.5129 131.09 22.6222 131.712C20.7551 131.917 18.9167 132.265 17.5901 133.382C16.1816 134.569 16.3617 136.786 15.4446 138.362C14.3923 140.175 12.386 141.202 11.1945 142.953Z" fill="#683CF9"/>
<path opacity="0.5" d="M16.6608 134.712C16.6608 134.712 60.2592 175.447 77.8411 207.164" stroke="#535461" stroke-width="2" stroke-miterlimit="10"/>
<path opacity="0.5" d="M10.9118 148.563C10.9118 148.563 28.334 145.179 40.3923 158.752" stroke="#535461" stroke-width="2" stroke-miterlimit="10"/>
<path opacity="0.5" d="M23.2938 174.142C23.2938 174.142 42.538 160.692 49.1957 168.516" stroke="#535461" stroke-width="2" stroke-miterlimit="10"/>
<path opacity="0.5" d="M36.9367 133.607C36.9367 133.607 34.91 143.902 42.2023 160.72" stroke="#535461" stroke-width="2" stroke-miterlimit="10"/>
<path opacity="0.5" d="M70.4624 173.565C70.4624 173.565 68.7591 180.317 55.067 175.353" stroke="#535461" stroke-width="2" stroke-miterlimit="10"/>
<path opacity="0.5" d="M56.5618 197.184C56.5618 197.184 64.9187 187.531 61.119 182.792" stroke="#535461" stroke-width="2" stroke-miterlimit="10"/>
</g>
<path d="M3.00136 95.7033C0.954104 98.1216 -0.962129 101.469 0.544652 104.771C3.44357 111.253 14.1753 108.082 18.0037 114.117C19.1501 115.922 19.3057 118.127 19.0396 120.096C18.5237 123.946 16.6156 127.216 15.2972 130.735C13.9788 134.254 13.295 138.509 15.1539 142.225C16.9432 145.822 20.7142 148.093 24.3665 148.997C28.0188 149.901 31.6793 149.697 35.3275 149.816C39.6616 149.985 43.965 150.619 48.1638 151.706C50.0092 152.124 51.7758 152.834 53.3966 153.809C55.2596 155 56.7664 156.747 58.2405 158.466L71.3429 173.725C73.0831 175.771 74.8601 177.817 77.0179 179.319C79.5074 181.05 82.3408 181.929 85.1291 182.776C91.1276 184.61 97.4127 186.459 103.145 185.203C108.877 183.947 113.688 178.472 112.255 172.133C110.892 166.098 104.742 161.817 102.67 155.904C99.3944 146.587 107.481 137.945 105.053 128.464C102.727 119.371 92.4174 114.682 86.685 106.985C82.5905 101.469 80.9773 94.5698 77.3987 88.7019C72.2314 80.2315 63.2235 74.6214 54.2565 72.4895C45.2895 70.3576 36.2693 71.3519 27.8592 73.4839C24.2969 74.3882 20.7347 75.5298 17.9095 77.7886C14.9082 80.1906 14.5643 83.8365 12.3778 86.7337C9.84329 90.1014 5.76106 92.4297 3.00136 95.7033Z" fill="#683CF9"/>
<path d="M15.7556 80.3171C15.7556 80.3171 85.2272 134.945 108.603 182.453" stroke="#535461" stroke-width="2" stroke-miterlimit="10"/>
<path d="M0.765686 105.115C0.765686 105.115 34.4922 94.2094 52.9871 113.159" stroke="#535461" stroke-width="2" stroke-miterlimit="10"/>
<path d="M16.2429 143.988C16.2429 143.988 56.4141 115.754 66.5685 126.765" stroke="#535461" stroke-width="2" stroke-miterlimit="10"/>
<path d="M54.1541 72.3298C54.1541 72.3298 47.2303 90.0849 55.7919 115.893" stroke="#535461" stroke-width="2" stroke-miterlimit="10"/>
<path d="M104.946 128.721C104.946 128.721 99.7014 140.477 75.5069 136.365" stroke="#535461" stroke-width="2" stroke-miterlimit="10"/>
<path d="M71.695 172.264C71.695 172.264 90.3128 153.653 84.6214 146.894" stroke="#535461" stroke-width="2" stroke-miterlimit="10"/>
<path opacity="0.1" d="M253.029 315.77C358.181 315.77 443.424 292.957 443.424 264.816C443.424 236.676 358.181 213.863 253.029 213.863C147.877 213.863 62.6339 236.676 62.6339 264.816C62.6339 292.957 147.877 315.77 253.029 315.77Z" fill="#683CF9"/>
<path d="M401.324 0.167725C401.324 0.167725 386.653 14.8293 394.936 36.5863C403.22 58.3433 380.737 94.5246 380.737 94.5246C380.737 94.5246 380.978 94.4877 381.424 94.41C411.556 89.0904 426.53 54.6524 409.775 29.0653C403.547 19.5555 398.433 8.40078 401.324 0.167725Z" fill="#683CF9"/>
<path d="M401.324 0.167725C401.324 0.167725 393.041 18.1397 401.324 32.8012C409.607 47.4628 402.745 88.6117 380.737 94.5246" stroke="#535461" stroke-width="2" stroke-miterlimit="10"/>
<path d="M427.455 59.4727C427.455 59.4727 410.712 56.8088 409.189 71.8018C407.666 86.7948 376.998 88.8735 376.998 88.8735L377.572 89.254C402.892 105.863 427.115 99.8359 423.43 77.7965C422.091 69.5798 422.202 61.3304 427.455 59.4727Z" fill="#683CF9"/>
<path opacity="0.2" d="M427.455 59.4727C427.455 59.4727 410.712 56.8088 409.189 71.8018C407.666 86.7948 376.998 88.8735 376.998 88.8735L377.572 89.254C402.892 105.863 427.115 99.8359 423.43 77.7965C422.091 69.5798 422.202 61.3304 427.455 59.4727Z" fill="#F5F5F5"/>
<path d="M427.455 59.4729C427.455 59.4729 414.459 62.3373 415.528 74.1303C416.596 85.9234 396.23 100.094 376.998 88.8615" stroke="#535461" stroke-width="2" stroke-miterlimit="10"/>
<path d="M101.012 114.494C101.012 114.494 95.5824 96.0796 102.031 82.5188C104.771 76.8503 105.597 70.4463 104.386 64.2686C103.788 61.3409 102.923 58.4741 101.802 55.7041" stroke="#535461" stroke-width="2" stroke-miterlimit="10"/>
<path d="M105.806 47.1315C105.806 49.3903 101.712 55.9333 101.712 55.9333C101.712 55.9333 97.6172 49.3862 97.6172 47.1315C97.6172 46.0463 98.0486 45.0055 98.8165 44.2381C99.5844 43.4707 100.626 43.0396 101.712 43.0396C102.798 43.0396 103.839 43.4707 104.607 44.2381C105.375 45.0055 105.806 46.0463 105.806 47.1315Z" fill="#683CF9"/>
<path d="M112.571 59.6361C111.342 61.5307 104.349 64.8043 104.349 64.8043C104.349 64.8043 104.476 57.0868 105.704 55.1923C105.984 54.7149 106.357 54.299 106.801 53.9698C107.246 53.6407 107.753 53.405 108.291 53.277C108.83 53.1491 109.388 53.1315 109.934 53.2254C110.479 53.3193 111 53.5227 111.464 53.8233C111.929 54.1239 112.327 54.5155 112.636 54.9744C112.945 55.4333 113.158 55.95 113.261 56.4933C113.364 57.0366 113.357 57.5952 113.238 58.1354C113.119 58.6756 112.892 59.1861 112.571 59.6361Z" fill="#683CF9"/>
<path d="M112.276 81.0047C110.257 82.0195 102.568 81.3197 102.568 81.3197C102.568 81.3197 106.576 74.7235 108.591 73.7087C109.073 73.4391 109.605 73.2698 110.154 73.211C110.703 73.1522 111.259 73.2051 111.787 73.3666C112.315 73.528 112.806 73.7947 113.228 74.1504C113.651 74.5062 113.997 74.9437 114.246 75.4366C114.494 75.9296 114.641 76.4678 114.676 77.0188C114.711 77.5698 114.635 78.1222 114.451 78.6428C114.267 79.1634 113.979 79.6414 113.605 80.048C113.231 80.4546 112.779 80.7814 112.276 81.0087V81.0047Z" fill="#683CF9"/>
<path d="M108.41 97.119C106.592 98.4611 98.8947 99.0667 98.8947 99.0667C98.8947 99.0667 101.728 91.8894 103.546 90.5473C103.975 90.1965 104.471 89.9365 105.004 89.7831C105.537 89.6296 106.095 89.5859 106.645 89.6546C107.195 89.7232 107.726 89.9028 108.205 90.1825C108.683 90.4622 109.1 90.8361 109.43 91.2815C109.759 91.727 109.995 92.2347 110.123 92.7739C110.25 93.3132 110.267 93.8727 110.171 94.4185C110.076 94.9643 109.871 95.4851 109.568 95.9493C109.265 96.4135 108.872 96.8114 108.41 97.119Z" fill="#683CF9"/>
<path d="M95.7624 65.2425C97.4002 66.8138 104.93 68.4465 104.93 68.4465C104.93 68.4465 103.083 60.9541 101.462 59.3828C101.083 58.9788 100.626 58.6559 100.119 58.4334C99.6119 58.211 99.0648 58.0938 98.5109 58.0888C97.957 58.0838 97.4079 58.1912 96.8967 58.4044C96.3856 58.6177 95.923 58.9324 95.5371 59.3294C95.1511 59.7265 94.8498 60.1977 94.6513 60.7145C94.4529 61.2313 94.3614 61.783 94.3825 62.3362C94.4035 62.8894 94.5367 63.4325 94.7739 63.9328C95.0111 64.433 95.3473 64.88 95.7624 65.2466V65.2425Z" fill="#683CF9"/>
<path d="M91.4754 84.1475C93.4939 85.1623 101.183 84.4626 101.183 84.4626C101.183 84.4626 97.1749 77.8663 95.1604 76.8515C94.1985 76.4171 93.1059 76.3708 92.1106 76.7222C91.1153 77.0736 90.2943 77.7956 89.8189 78.7374C89.3434 79.6793 89.2503 80.7682 89.559 81.777C89.8676 82.7858 90.5542 83.6365 91.4754 84.1516V84.1475Z" fill="#683CF9"/>
<path d="M89.8377 103.093C91.6557 104.436 99.3534 105.041 99.3534 105.041C99.3534 105.041 96.52 97.8639 94.702 96.5218C93.8273 95.9386 92.7616 95.714 91.7257 95.8947C90.6898 96.0753 89.7632 96.6474 89.1378 97.4922C88.5125 98.3371 88.2364 99.39 88.3667 100.433C88.4969 101.476 89.0237 102.428 89.8377 103.093Z" fill="#683CF9"/>
<path d="M439.1 221.581H404.26C405.066 219.971 405.486 218.196 405.488 216.396V57.8403C405.486 54.7498 404.256 51.7866 402.068 49.6021C399.881 47.4176 396.915 46.1904 393.823 46.1904H124.129C121.036 46.1904 118.068 47.4187 115.881 49.605C113.693 51.7913 112.464 54.7566 112.464 57.8485V216.396C112.466 218.196 112.886 219.971 113.692 221.581H77.6198C76.8021 221.581 76.0179 221.905 75.4397 222.483C74.8614 223.061 74.5366 223.845 74.5366 224.662V227.146C74.5366 231.719 76.3545 236.105 79.5903 239.339C82.8261 242.573 87.2148 244.389 91.7909 244.389H424.953C429.529 244.389 433.918 242.573 437.154 239.339C440.39 236.105 442.208 231.719 442.208 227.146V224.662C442.208 224.255 442.127 223.852 441.971 223.477C441.814 223.102 441.585 222.761 441.296 222.474C441.007 222.188 440.664 221.962 440.287 221.808C439.91 221.655 439.507 221.577 439.1 221.581ZM224.429 231.442L221.44 228.05H295.595L292.287 231.442H224.429Z" fill="url(#paint0_linear)"/>
<path d="M392.631 48.4287H125.292C120.032 48.4287 115.768 52.69 115.768 57.9466V216.662C115.768 221.919 120.032 226.18 125.292 226.18H392.631C397.891 226.18 402.155 221.919 402.155 216.662V57.9466C402.155 52.69 397.891 48.4287 392.631 48.4287Z" fill="#535461"/>
<path d="M395.526 74.3391H121.8V219.551H395.526V74.3391Z" fill="#F1F1F4"/>
<path d="M258.663 64.0928C259.995 64.0928 261.075 63.0137 261.075 61.6826C261.075 60.3515 259.995 59.2725 258.663 59.2725C257.331 59.2725 256.251 60.3515 256.251 61.6826C256.251 63.0137 257.331 64.0928 258.663 64.0928Z" fill="white"/>
<path d="M300.926 219.85L291.509 229.49H225.178L216.678 219.85H81.702C80.9028 219.85 80.1363 220.167 79.5711 220.732C79.006 221.297 78.6885 222.063 78.6885 222.861V225.292C78.6885 227.507 79.1253 229.699 79.9739 231.745C80.8226 233.791 82.0664 235.649 83.6343 237.214C85.2021 238.779 87.0633 240.02 89.1114 240.866C91.1594 241.712 93.3542 242.145 95.5702 242.143H421.166C425.638 242.143 429.926 240.367 433.089 237.207C436.251 234.047 438.027 229.761 438.027 225.292V222.861C438.027 222.063 437.71 221.297 437.145 220.732C436.579 220.167 435.813 219.85 435.014 219.85H300.926Z" fill="#535461"/>
<path d="M213.353 85.4036H138.518V141.766H213.353V85.4036Z" fill="white"/>
<path opacity="0.2" d="M170.782 90.2812H145.839V104.37H170.782V90.2812Z" fill="#683CF9"/>
<path d="M206.032 90.2812H176.748V93.5344H206.032V90.2812Z" fill="#E6E8EC"/>
<path d="M197.356 95.699H176.748V98.9521H197.356V95.699Z" fill="#E6E8EC"/>
<path d="M206.032 101.117H176.748V104.37H206.032V101.117Z" fill="#E6E8EC"/>
<path d="M206.032 106.539H145.839V109.792H206.032V106.539Z" fill="#E6E8EC"/>
<path d="M206.032 111.957H145.839V115.21H206.032V111.957Z" fill="#E6E8EC"/>
<path d="M206.032 117.378H145.839V120.632H206.032V117.378Z" fill="#E6E8EC"/>
<path d="M201.151 122.796H145.839V126.049H201.151V122.796Z" fill="#E6E8EC"/>
<path d="M206.032 128.214H145.839V131.467H206.032V128.214Z" fill="#E6E8EC"/>
<path d="M206.032 133.636H145.839V136.889H206.032V133.636Z" fill="#E6E8EC"/>
<path d="M295.779 85.4036H220.944V141.766H295.779V85.4036Z" fill="white"/>
<path opacity="0.2" d="M253.205 90.2812H228.261V104.37H253.205V90.2812Z" fill="#683CF9"/>
<path d="M288.458 90.2812H259.174V93.5344H288.458V90.2812Z" fill="#E6E8EC"/>
<path d="M279.782 95.699H259.174V98.9521H279.782V95.699Z" fill="#E6E8EC"/>
<path d="M288.458 101.117H259.174V104.37H288.458V101.117Z" fill="#E6E8EC"/>
<path d="M288.454 106.539H228.261V109.792H288.454V106.539Z" fill="#E6E8EC"/>
<path d="M288.454 111.957H228.261V115.21H288.454V111.957Z" fill="#E6E8EC"/>
<path d="M288.454 117.378H228.261V120.632H288.454V117.378Z" fill="#E6E8EC"/>
<path d="M283.574 122.796H228.261V126.049H283.574V122.796Z" fill="#E6E8EC"/>
<path d="M288.454 128.214H228.261V131.467H288.454V128.214Z" fill="#E6E8EC"/>
<path d="M288.454 133.636H228.261V136.889H288.454V133.636Z" fill="#E6E8EC"/>
<path d="M378.202 85.4036H303.367V141.766H378.202V85.4036Z" fill="white"/>
<path opacity="0.2" d="M335.631 90.2812H310.688V104.37H335.631V90.2812Z" fill="#683CF9"/>
<path d="M370.881 90.2812H341.597V93.5344H370.881V90.2812Z" fill="#E6E8EC"/>
<path d="M362.205 95.699H341.597V98.9521H362.205V95.699Z" fill="#E6E8EC"/>
<path d="M370.881 101.117H341.597V104.37H370.881V101.117Z" fill="#E6E8EC"/>
<path d="M370.881 106.539H310.688V109.792H370.881V106.539Z" fill="#E6E8EC"/>
<path d="M370.881 111.957H310.688V115.21H370.881V111.957Z" fill="#E6E8EC"/>
<path d="M370.881 117.378H310.688V120.632H370.881V117.378Z" fill="#E6E8EC"/>
<path d="M366 122.796H310.688V126.049H366V122.796Z" fill="#E6E8EC"/>
<path d="M370.881 128.214H310.688V131.467H370.881V128.214Z" fill="#E6E8EC"/>
<path d="M370.881 133.636H310.688V136.889H370.881V133.636Z" fill="#E6E8EC"/>
<path d="M213.353 148.809H138.518V205.171H213.353V148.809Z" fill="white"/>
<path opacity="0.2" d="M170.782 153.686H145.839V167.775H170.782V153.686Z" fill="#683CF9"/>
<path d="M206.032 153.686H176.748V156.939H206.032V153.686Z" fill="#E6E8EC"/>
<path d="M197.356 159.108H176.748V162.361H197.356V159.108Z" fill="#E6E8EC"/>
<path d="M206.032 164.526H176.748V167.779H206.032V164.526Z" fill="#E6E8EC"/>
<path d="M206.032 169.944H145.839V173.197H206.032V169.944Z" fill="#E6E8EC"/>
<path d="M206.032 175.366H145.839V178.619H206.032V175.366Z" fill="#E6E8EC"/>
<path d="M206.032 180.783H145.839V184.037H206.032V180.783Z" fill="#E6E8EC"/>
<path d="M201.151 186.205H145.839V189.458H201.151V186.205Z" fill="#E6E8EC"/>
<path d="M206.032 191.623H145.839V194.876H206.032V191.623Z" fill="#E6E8EC"/>
<path d="M206.032 197.041H145.839V200.294H206.032V197.041Z" fill="#E6E8EC"/>
<path d="M295.779 148.809H220.944V205.171H295.779V148.809Z" fill="white"/>
<path opacity="0.2" d="M253.205 153.686H228.261V167.775H253.205V153.686Z" fill="#683CF9"/>
<path d="M288.458 153.686H259.174V156.939H288.458V153.686Z" fill="#E6E8EC"/>
<path d="M279.782 159.108H259.174V162.361H279.782V159.108Z" fill="#E6E8EC"/>
<path d="M288.458 164.526H259.174V167.779H288.458V164.526Z" fill="#E6E8EC"/>
<path d="M288.454 169.944H228.261V173.197H288.454V169.944Z" fill="#E6E8EC"/>
<path d="M288.454 175.366H228.261V178.619H288.454V175.366Z" fill="#E6E8EC"/>
<path d="M288.454 180.783H228.261V184.037H288.454V180.783Z" fill="#E6E8EC"/>
<path d="M283.574 186.205H228.261V189.458H283.574V186.205Z" fill="#E6E8EC"/>
<path d="M288.454 191.623H228.261V194.876H288.454V191.623Z" fill="#E6E8EC"/>
<path d="M288.454 197.041H228.261V200.294H288.454V197.041Z" fill="#E6E8EC"/>
<path opacity="0.1" d="M378.202 148.809H303.367V205.171H378.202V148.809Z" fill="black"/>
<path d="M181.006 104.37H65.5406C64.1504 104.367 62.7732 104.638 61.488 105.168C60.2027 105.698 59.0346 106.476 58.0504 107.457C57.0662 108.438 56.2852 109.604 55.7522 110.887C55.2192 112.17 54.9446 113.546 54.944 114.935V274.825C54.9456 276.214 55.2209 277.588 55.7542 278.87C56.2874 280.152 57.0682 281.316 58.0518 282.297C59.0355 283.277 60.2028 284.054 61.487 284.584C62.7713 285.113 64.1473 285.385 65.5365 285.382H181.002C182.391 285.385 183.767 285.113 185.051 284.584C186.336 284.054 187.503 283.277 188.487 282.297C189.47 281.316 190.251 280.152 190.784 278.87C191.317 277.588 191.593 276.214 191.594 274.825V114.935C191.594 113.547 191.319 112.172 190.787 110.889C190.254 109.606 189.474 108.441 188.491 107.46C187.508 106.479 186.34 105.701 185.056 105.171C183.772 104.64 182.396 104.368 181.006 104.37Z" fill="url(#paint1_linear)"/>
<path d="M181.784 106.539H64.7629C60.2402 106.539 56.5739 110.203 56.5739 114.723V275.57C56.5739 280.09 60.2402 283.754 64.7629 283.754H181.784C186.307 283.754 189.973 280.09 189.973 275.57V114.723C189.973 110.203 186.307 106.539 181.784 106.539Z" fill="#535461"/>
<path d="M183.193 123.303H63.3504V266.993H183.193V123.303Z" fill="#F1F1F4"/>
<path d="M122.729 116.294C123.627 116.294 124.355 115.567 124.355 114.67C124.355 113.772 123.627 113.045 122.729 113.045C121.831 113.045 121.104 113.772 121.104 114.67C121.104 115.567 121.831 116.294 122.729 116.294Z" fill="white"/>
<path d="M122.729 279.961C125.424 279.961 127.61 277.777 127.61 275.083C127.61 272.389 125.424 270.205 122.729 270.205C120.033 270.205 117.848 272.389 117.848 275.083C117.848 277.777 120.033 279.961 122.729 279.961Z" fill="white"/>
<path d="M102.711 137.985H68.5298V163.732H102.711V137.985Z" fill="white"/>
<path opacity="0.2" d="M83.27 140.216H71.875V146.652H83.27V140.216Z" fill="#683CF9"/>
<path d="M99.37 140.216H85.9932V141.701H99.37V140.216Z" fill="#E6E8EC"/>
<path d="M95.4065 142.691H85.9932V144.177H95.4065V142.691Z" fill="#E6E8EC"/>
<path d="M99.37 145.167H85.9932V146.652H99.37V145.167Z" fill="#E6E8EC"/>
<path d="M99.3697 147.643H71.875V149.128H99.3697V147.643Z" fill="#E6E8EC"/>
<path d="M99.3697 150.118H71.875V151.604H99.3697V150.118Z" fill="#E6E8EC"/>
<path d="M99.3697 152.594H71.875V154.079H99.3697V152.594Z" fill="#E6E8EC"/>
<path d="M97.1423 155.069H71.875V156.555H97.1423V155.069Z" fill="#E6E8EC"/>
<path d="M99.3697 157.545H71.875V159.031H99.3697V157.545Z" fill="#E6E8EC"/>
<path d="M99.3697 160.021H71.875V161.506H99.3697V160.021Z" fill="#E6E8EC"/>
<path d="M140.364 137.985H106.183V163.732H140.364V137.985Z" fill="white"/>
<path opacity="0.2" d="M120.919 140.216H109.524V146.652H120.919V140.216Z" fill="#683CF9"/>
<path d="M137.023 140.216H123.646V141.701H137.023V140.216Z" fill="#E6E8EC"/>
<path d="M133.059 142.691H123.646V144.177H133.059V142.691Z" fill="#E6E8EC"/>
<path d="M137.023 145.167H123.646V146.652H137.023V145.167Z" fill="#E6E8EC"/>
<path d="M137.019 147.643H109.524V149.128H137.019V147.643Z" fill="#E6E8EC"/>
<path d="M137.019 150.118H109.524V151.604H137.019V150.118Z" fill="#E6E8EC"/>
<path d="M137.019 152.594H109.524V154.079H137.019V152.594Z" fill="#E6E8EC"/>
<path d="M134.791 155.069H109.524V156.555H134.791V155.069Z" fill="#E6E8EC"/>
<path d="M137.019 157.545H109.524V159.031H137.019V157.545Z" fill="#E6E8EC"/>
<path d="M137.019 160.021H109.524V161.506H137.019V160.021Z" fill="#E6E8EC"/>
<path d="M178.013 137.985H143.832V163.732H178.013V137.985Z" fill="white"/>
<path opacity="0.2" d="M158.572 140.216H147.177V146.652H158.572V140.216Z" fill="#683CF9"/>
<path d="M174.672 140.216H161.295V141.701H174.672V140.216Z" fill="#E6E8EC"/>
<path d="M170.709 142.691H161.295V144.177H170.709V142.691Z" fill="#E6E8EC"/>
<path d="M174.672 145.167H161.295V146.652H174.672V145.167Z" fill="#E6E8EC"/>
<path d="M174.672 147.643H147.177V149.128H174.672V147.643Z" fill="#E6E8EC"/>
<path d="M174.672 150.118H147.177V151.604H174.672V150.118Z" fill="#E6E8EC"/>
<path d="M174.672 152.594H147.177V154.079H174.672V152.594Z" fill="#E6E8EC"/>
<path d="M172.445 155.069H147.177V156.555H172.445V155.069Z" fill="#E6E8EC"/>
<path d="M174.672 157.545H147.177V159.031H174.672V157.545Z" fill="#E6E8EC"/>
<path d="M174.672 160.021H147.177V161.506H174.672V160.021Z" fill="#E6E8EC"/>
<path d="M102.711 166.948H68.5298V192.695H102.711V166.948Z" fill="white"/>
<path opacity="0.2" d="M83.27 169.178H71.875V175.615H83.27V169.178Z" fill="#683CF9"/>
<path d="M99.37 169.178H85.9932V170.664H99.37V169.178Z" fill="#E6E8EC"/>
<path d="M95.4065 171.654H85.9932V173.139H95.4065V171.654Z" fill="#E6E8EC"/>
<path d="M99.37 174.13H85.9932V175.615H99.37V174.13Z" fill="#E6E8EC"/>
<path d="M99.3697 176.606H71.875V178.091H99.3697V176.606Z" fill="#E6E8EC"/>
<path d="M99.3697 179.081H71.875V180.567H99.3697V179.081Z" fill="#E6E8EC"/>
<path d="M99.3697 181.557H71.875V183.042H99.3697V181.557Z" fill="#E6E8EC"/>
<path d="M97.1423 184.032H71.875V185.518H97.1423V184.032Z" fill="#E6E8EC"/>
<path d="M99.3697 186.508H71.875V187.993H99.3697V186.508Z" fill="#E6E8EC"/>
<path d="M99.3697 188.984H71.875V190.469H99.3697V188.984Z" fill="#E6E8EC"/>
<path d="M140.364 166.948H106.183V192.695H140.364V166.948Z" fill="white"/>
<path opacity="0.2" d="M120.919 169.178H109.524V175.615H120.919V169.178Z" fill="#683CF9"/>
<path d="M137.023 169.178H123.646V170.664H137.023V169.178Z" fill="#E6E8EC"/>
<path d="M133.059 171.654H123.646V173.139H133.059V171.654Z" fill="#E6E8EC"/>
<path d="M137.023 174.13H123.646V175.615H137.023V174.13Z" fill="#E6E8EC"/>
<path d="M137.019 176.606H109.524V178.091H137.019V176.606Z" fill="#E6E8EC"/>
<path d="M137.019 179.081H109.524V180.567H137.019V179.081Z" fill="#E6E8EC"/>
<path d="M137.019 181.557H109.524V183.042H137.019V181.557Z" fill="#E6E8EC"/>
<path d="M134.791 184.032H109.524V185.518H134.791V184.032Z" fill="#E6E8EC"/>
<path d="M137.019 186.508H109.524V187.993H137.019V186.508Z" fill="#E6E8EC"/>
<path d="M137.019 188.984H109.524V190.469H137.019V188.984Z" fill="#E6E8EC"/>
<path d="M178.013 166.948H143.832V192.695H178.013V166.948Z" fill="white"/>
<path opacity="0.2" d="M158.572 169.178H147.177V175.615H158.572V169.178Z" fill="#683CF9"/>
<path d="M174.672 169.178H161.295V170.664H174.672V169.178Z" fill="#E6E8EC"/>
<path d="M170.709 171.654H161.295V173.139H170.709V171.654Z" fill="#E6E8EC"/>
<path d="M174.672 174.13H161.295V175.615H174.672V174.13Z" fill="#E6E8EC"/>
<path d="M174.672 176.606H147.177V178.091H174.672V176.606Z" fill="#E6E8EC"/>
<path d="M174.672 179.081H147.177V180.567H174.672V179.081Z" fill="#E6E8EC"/>
<path d="M174.672 181.557H147.177V183.042H174.672V181.557Z" fill="#E6E8EC"/>
<path d="M172.445 184.032H147.177V185.518H172.445V184.032Z" fill="#E6E8EC"/>
<path d="M174.672 186.508H147.177V187.993H174.672V186.508Z" fill="#E6E8EC"/>
<path d="M174.672 188.984H147.177V190.469H174.672V188.984Z" fill="#E6E8EC"/>
<path d="M102.711 197.057H68.5298V222.804H102.711V197.057Z" fill="white"/>
<path opacity="0.2" d="M83.27 199.288H71.875V205.724H83.27V199.288Z" fill="#683CF9"/>
<path d="M99.37 199.288H85.9932V200.773H99.37V199.288Z" fill="#E6E8EC"/>
<path d="M95.4065 201.763H85.9932V203.248H95.4065V201.763Z" fill="#E6E8EC"/>
<path d="M99.37 204.239H85.9932V205.724H99.37V204.239Z" fill="#E6E8EC"/>
<path d="M99.3697 206.714H71.875V208.2H99.3697V206.714Z" fill="#E6E8EC"/>
<path d="M99.3697 209.19H71.875V210.675H99.3697V209.19Z" fill="#E6E8EC"/>
<path d="M99.3697 211.666H71.875V213.151H99.3697V211.666Z" fill="#E6E8EC"/>
<path d="M97.1423 214.141H71.875V215.627H97.1423V214.141Z" fill="#E6E8EC"/>
<path d="M99.3697 216.617H71.875V218.102H99.3697V216.617Z" fill="#E6E8EC"/>
<path d="M99.3697 219.093H71.875V220.578H99.3697V219.093Z" fill="#E6E8EC"/>
<path d="M140.364 197.057H106.183V222.804H140.364V197.057Z" fill="white"/>
<path opacity="0.2" d="M120.919 199.288H109.524V205.724H120.919V199.288Z" fill="#683CF9"/>
<path d="M137.023 199.288H123.646V200.773H137.023V199.288Z" fill="#E6E8EC"/>
<path d="M133.059 201.763H123.646V203.248H133.059V201.763Z" fill="#E6E8EC"/>
<path d="M137.023 204.239H123.646V205.724H137.023V204.239Z" fill="#E6E8EC"/>
<path d="M137.019 206.714H109.524V208.2H137.019V206.714Z" fill="#E6E8EC"/>
<path d="M137.019 209.19H109.524V210.675H137.019V209.19Z" fill="#E6E8EC"/>
<path d="M137.019 211.666H109.524V213.151H137.019V211.666Z" fill="#E6E8EC"/>
<path d="M134.791 214.141H109.524V215.627H134.791V214.141Z" fill="#E6E8EC"/>
<path d="M137.019 216.617H109.524V218.102H137.019V216.617Z" fill="#E6E8EC"/>
<path d="M137.019 219.093H109.524V220.578H137.019V219.093Z" fill="#E6E8EC"/>
<path d="M178.013 197.057H143.832V222.804H178.013V197.057Z" fill="white"/>
<path opacity="0.2" d="M158.572 199.288H147.177V205.724H158.572V199.288Z" fill="#683CF9"/>
<path d="M174.672 199.288H161.295V200.773H174.672V199.288Z" fill="#E6E8EC"/>
<path d="M170.709 201.763H161.295V203.248H170.709V201.763Z" fill="#E6E8EC"/>
<path d="M174.672 204.239H161.295V205.724H174.672V204.239Z" fill="#E6E8EC"/>
<path d="M174.672 206.714H147.177V208.2H174.672V206.714Z" fill="#E6E8EC"/>
<path d="M174.672 209.19H147.177V210.675H174.672V209.19Z" fill="#E6E8EC"/>
<path d="M174.672 211.666H147.177V213.151H174.672V211.666Z" fill="#E6E8EC"/>
<path d="M172.445 214.141H147.177V215.627H172.445V214.141Z" fill="#E6E8EC"/>
<path d="M174.672 216.617H147.177V218.102H174.672V216.617Z" fill="#E6E8EC"/>
<path d="M174.672 219.093H147.177V220.578H174.672V219.093Z" fill="#E6E8EC"/>
<path d="M102.711 226.02H68.5298V251.767H102.711V226.02Z" fill="white"/>
<path opacity="0.2" d="M83.27 228.25H71.875V234.687H83.27V228.25Z" fill="#683CF9"/>
<path d="M99.37 228.25H85.9932V229.736H99.37V228.25Z" fill="#E6E8EC"/>
<path d="M95.4065 230.726H85.9932V232.211H95.4065V230.726Z" fill="#E6E8EC"/>
<path d="M99.37 233.201H85.9932V234.687H99.37V233.201Z" fill="#E6E8EC"/>
<path d="M99.3697 235.677H71.875V237.163H99.3697V235.677Z" fill="#E6E8EC"/>
<path d="M99.3697 238.153H71.875V239.638H99.3697V238.153Z" fill="#E6E8EC"/>
<path d="M99.3697 240.629H71.875V242.114H99.3697V240.629Z" fill="#E6E8EC"/>
<path d="M97.1423 243.104H71.875V244.59H97.1423V243.104Z" fill="#E6E8EC"/>
<path d="M99.3697 245.58H71.875V247.065H99.3697V245.58Z" fill="#E6E8EC"/>
<path d="M99.3697 248.055H71.875V249.541H99.3697V248.055Z" fill="#E6E8EC"/>
<path d="M140.364 226.02H106.183V251.767H140.364V226.02Z" fill="white"/>
<path opacity="0.2" d="M120.919 228.25H109.524V234.687H120.919V228.25Z" fill="#683CF9"/>
<path d="M137.023 228.25H123.646V229.736H137.023V228.25Z" fill="#E6E8EC"/>
<path d="M133.059 230.726H123.646V232.211H133.059V230.726Z" fill="#E6E8EC"/>
<path d="M137.023 233.201H123.646V234.687H137.023V233.201Z" fill="#E6E8EC"/>
<path d="M137.019 235.677H109.524V237.163H137.019V235.677Z" fill="#E6E8EC"/>
<path d="M137.019 238.153H109.524V239.638H137.019V238.153Z" fill="#E6E8EC"/>
<path d="M137.019 240.629H109.524V242.114H137.019V240.629Z" fill="#E6E8EC"/>
<path d="M134.791 243.104H109.524V244.59H134.791V243.104Z" fill="#E6E8EC"/>
<path d="M137.019 245.58H109.524V247.065H137.019V245.58Z" fill="#E6E8EC"/>
<path d="M137.019 248.055H109.524V249.541H137.019V248.055Z" fill="#E6E8EC"/>
<path opacity="0.1" d="M178.013 226.02H143.832V251.767H178.013V226.02Z" fill="black"/>
<path d="M92.9947 158.564H33.7061C32.9362 158.562 32.1734 158.712 31.4614 159.005C30.7494 159.298 30.1021 159.729 29.5565 160.272C29.0109 160.815 28.5777 161.46 28.2815 162.17C27.9854 162.88 27.8321 163.642 27.8305 164.411V294.164C27.8321 294.933 27.9854 295.695 28.2815 296.405C28.5777 297.116 29.0109 297.761 29.5565 298.304C30.1021 298.847 30.7494 299.277 31.4614 299.57C32.1734 299.863 32.9362 300.013 33.7061 300.011H92.9947C93.7647 300.013 94.5275 299.863 95.2394 299.57C95.9514 299.277 96.5987 298.847 97.1443 298.304C97.6899 297.761 98.1232 297.116 98.4193 296.405C98.7155 295.695 98.8687 294.933 98.8703 294.164V164.416C98.8693 163.646 98.7164 162.884 98.4205 162.173C98.1246 161.462 97.6914 160.816 97.1458 160.273C96.6001 159.73 95.9526 159.299 95.2404 159.006C94.5281 158.712 93.765 158.562 92.9947 158.564Z" fill="url(#paint2_linear)"/>
<path d="M93.8259 159.653H32.879C30.3916 159.653 28.3751 161.668 28.3751 164.154V294.974C28.3751 297.46 30.3916 299.475 32.879 299.475H93.8259C96.3133 299.475 98.3298 297.46 98.3298 294.974V164.154C98.3298 161.668 96.3133 159.653 93.8259 159.653Z" fill="#535461"/>
<path d="M93.1749 172.656H33.526V286.462H93.1749V172.656Z" fill="#F1F1F4"/>
<path d="M56.2996 166.695C56.5981 166.695 56.8401 166.453 56.8401 166.155C56.8401 165.856 56.5981 165.615 56.2996 165.615C56.0011 165.615 55.7592 165.856 55.7592 166.155C55.7592 166.453 56.0011 166.695 56.2996 166.695Z" fill="white"/>
<path d="M70.5362 165.61H59.4237C59.1976 165.61 59.0143 165.794 59.0143 166.02V166.286C59.0143 166.512 59.1976 166.695 59.4237 166.695H70.5362C70.7624 166.695 70.9457 166.512 70.9457 166.286V166.02C70.9457 165.794 70.7624 165.61 70.5362 165.61Z" fill="white"/>
<path d="M63.08 295.678C65.1763 295.678 66.8757 293.979 66.8757 291.885C66.8757 289.79 65.1763 288.091 63.08 288.091C60.9838 288.091 59.2844 289.79 59.2844 291.885C59.2844 293.979 60.9838 295.678 63.08 295.678Z" fill="white"/>
<path opacity="0.1" d="M83.6879 179.47H43.0129V210.107H83.6879V179.47Z" fill="black"/>
<path d="M83.6879 213.937H43.0129V244.573H83.6879V213.937Z" fill="white"/>
<path opacity="0.2" d="M60.5497 216.588H46.9928V224.249H60.5497V216.588Z" fill="#683CF9"/>
<path d="M79.7081 216.588H63.7927V218.356H79.7081V216.588Z" fill="#E6E8EC"/>
<path d="M74.9953 219.534H63.7927V221.302H74.9953V219.534Z" fill="#E6E8EC"/>
<path d="M79.7081 222.477H63.7927V224.244H79.7081V222.477Z" fill="#E6E8EC"/>
<path d="M79.7121 225.423H46.9928V227.191H79.7121V225.423Z" fill="#E6E8EC"/>
<path d="M79.7121 228.369H46.9928V230.137H79.7121V228.369Z" fill="#E6E8EC"/>
<path d="M79.7121 231.315H46.9928V233.083H79.7121V231.315Z" fill="#E6E8EC"/>
<path d="M77.0588 234.261H46.9928V236.029H77.0588V234.261Z" fill="#E6E8EC"/>
<path d="M79.7121 237.208H46.9928V238.975H79.7121V237.208Z" fill="#E6E8EC"/>
<path d="M79.7121 240.154H46.9928V241.922H79.7121V240.154Z" fill="#E6E8EC"/>
<path d="M83.6879 248.473H43.0129V279.11H83.6879V248.473Z" fill="white"/>
<path opacity="0.2" d="M60.5497 251.125H46.9928V258.785H60.5497V251.125Z" fill="#683CF9"/>
<path d="M79.7081 251.125H63.7927V252.892H79.7081V251.125Z" fill="#E6E8EC"/>
<path d="M74.9953 254.071H63.7927V255.838H74.9953V254.071Z" fill="#E6E8EC"/>
<path d="M79.7081 257.017H63.7927V258.785H79.7081V257.017Z" fill="#E6E8EC"/>
<path d="M79.7121 259.963H46.9928V261.731H79.7121V259.963Z" fill="#E6E8EC"/>
<path d="M79.7121 262.909H46.9928V264.677H79.7121V262.909Z" fill="#E6E8EC"/>
<path d="M79.7121 265.855H46.9928V267.623H79.7121V265.855Z" fill="#E6E8EC"/>
<path d="M77.0588 268.802H46.9928V270.569H77.0588V268.802Z" fill="#E6E8EC"/>
<path d="M79.7121 271.744H46.9928V273.512H79.7121V271.744Z" fill="#E6E8EC"/>
<path d="M79.7121 274.69H46.9928V276.458H79.7121V274.69Z" fill="#E6E8EC"/>
<path d="M222.603 262.946C219.851 259.611 216.518 255.777 216.985 251.337C217.362 247.741 216.457 244.418 216.637 240.813C216.891 235.69 215.855 231.675 212.162 228.39C210.004 226.47 206.397 224.96 205.324 225.345C203.195 226.106 200.873 225.816 198.682 226.327C197.02 226.736 195.91 227.313 195.227 228.062C193.847 229.29 193.822 231.033 194.453 232.895C193.902 233.9 193.57 235.011 193.477 236.153C193.385 237.296 193.535 238.445 193.916 239.526C194.298 240.607 194.903 241.596 195.693 242.427C196.482 243.259 197.438 243.915 198.498 244.352C196.963 244.991 195.632 246.468 195.12 249.463C194.756 251.521 194.208 253.543 193.482 255.503C193.157 255.658 192.824 255.794 192.483 255.912C192.557 255.941 192.635 255.961 192.713 255.99C192.553 256.051 192.389 256.113 192.229 256.17C192.524 256.284 192.828 256.372 193.138 256.432C192.021 259.329 190.52 262.064 188.675 264.563C188.675 264.563 184.04 265.586 182.239 263.797C182.239 263.797 182.534 264.141 182.931 264.657C181.166 263.924 178.275 262.734 175.802 261.751C174.009 261.039 173.546 261.751 173.571 262.742C173.13 262.793 172.704 262.932 172.318 263.151C171.788 262.811 171.232 262.513 170.655 262.259C169.624 262.005 166.278 260.213 162.929 266.351C160.98 269.923 155.968 276.438 152.14 281.262C144.668 284.695 134.943 289.037 131.332 290.137H129.022C128.719 289.642 128.507 289.319 128.507 289.319L128.326 289.438L128.249 289.319C128.249 289.319 123.7 292.466 119.081 292.49C118.424 292.48 117.77 292.395 117.132 292.237C115.007 291.701 113.512 291.463 112.444 291.484C111.179 291.463 110.462 291.762 110.016 292.327C109.958 292.401 109.904 292.479 109.856 292.56C109.806 292.643 109.761 292.729 109.721 292.818C109.68 292.908 109.643 293.002 109.606 293.1C109.592 293.186 109.598 293.274 109.622 293.358C109.647 293.442 109.691 293.519 109.75 293.583C109.811 293.672 109.878 293.756 109.95 293.837L110.077 293.976C110.992 294.827 111.983 295.593 113.037 296.263C113.418 296.521 113.82 296.783 114.241 297.053L115.04 297.56L115.752 298.006L116.039 298.182L116.358 298.379L116.927 298.727L117.267 298.931L117.906 299.312L118.422 299.619C119.773 300.437 121.124 301.19 122.336 301.873L123.188 302.352L123.27 302.397L123.814 302.7L124.76 303.224L125.411 303.58L125.714 303.747L126.042 303.923L126.107 303.96L126.672 304.267C126.789 304.286 126.908 304.28 127.021 304.249C127.135 304.218 127.241 304.163 127.331 304.087C127.495 303.391 127.896 301.902 128.322 301.787C128.748 301.673 130.607 298.416 131.135 296.247H136.159C137.147 296.164 138.127 296.015 139.095 295.801C137.797 296.726 136.511 297.307 135.512 297.057C133.399 296.533 131.397 297.818 131.197 299.103L131.172 299.181C131.172 299.205 131.172 299.234 131.172 299.259C131.172 299.283 131.172 299.32 131.172 299.353C131.172 299.385 131.172 299.406 131.172 299.43C131.172 299.455 131.172 299.492 131.172 299.524C131.172 299.557 131.172 299.578 131.172 299.602C131.172 299.627 131.172 299.668 131.172 299.696C131.172 299.725 131.172 299.745 131.172 299.77C131.172 299.795 131.172 299.84 131.197 299.872C131.221 299.905 131.197 299.917 131.197 299.938C131.212 299.982 131.23 300.026 131.25 300.069V300.101C131.278 300.155 131.309 300.207 131.344 300.257L131.385 300.31L131.467 300.412L131.524 300.47L131.618 300.56L131.688 300.617L131.799 300.699L131.88 300.752L132.016 300.83L132.106 300.879L132.273 300.957L132.359 300.993C132.45 301.03 132.544 301.067 132.646 301.1C132.748 301.133 132.998 301.206 133.215 301.259L133.432 301.313L133.748 301.386L133.915 301.423L134.603 301.562L134.939 301.624L135.213 301.673L135.844 301.783L137.072 301.984L138.157 302.147L139.57 302.348L139.881 302.389L140.389 302.458L141.118 302.557L141.617 302.622L142.907 302.786L143.316 302.835L144.135 302.933C145.204 303.06 146.24 303.183 147.19 303.289L148.291 303.412L148.848 303.473L149.086 303.498L149.753 303.571L150.126 303.612L150.58 303.661L151.223 303.727H151.293L151.702 303.768C151.753 303.773 151.805 303.767 151.854 303.751C151.903 303.736 151.948 303.71 151.987 303.675C152.025 303.641 152.056 303.599 152.078 303.553C152.099 303.506 152.111 303.455 152.111 303.404C152.111 303.404 152.111 303.375 152.111 303.363C152.15 303.305 152.172 303.236 152.173 303.166C152.183 302.554 152.26 301.945 152.402 301.349C152.431 301.247 152.464 301.141 152.496 301.039L152.537 300.92C152.582 300.793 152.627 300.666 152.681 300.535C152.717 300.443 152.748 300.349 152.775 300.253L152.799 300.163C152.799 300.114 152.824 300.061 152.836 300.007C153.356 298.24 152.73 294.946 152.55 293.652C152.493 293.236 152.398 292.825 152.267 292.425C152.3 292.428 152.333 292.428 152.365 292.425C152.632 292.325 152.883 292.188 153.11 292.016C156.906 290.661 160.112 289.114 161.123 287.564C162.769 287.126 164.517 287.308 166.037 288.075C168.002 289.053 182.878 293.902 189.806 296.145C191.034 297.217 192.025 297.843 192.561 297.781C192.561 297.781 201.377 299.205 204.922 296.423C205.238 296.64 205.434 296.758 205.434 296.758C205.434 296.758 210.585 294.201 211.359 290.878C211.609 289.802 211.834 288.21 212.063 286.451C213.259 285.247 213.932 283.621 213.935 281.925C214.094 276.339 216.26 269.96 217.865 264.276C219.814 264.428 220.568 264.063 222.369 263.18L222.291 263.077L222.603 262.946ZM193.073 271.31L192.09 270.979C192.423 270.534 192.71 270.057 192.946 269.555L193.073 271.31ZM187.529 273.659L193.499 277.24L193.552 277.968C193.479 278.522 193.496 279.084 193.601 279.633C190.972 277.297 187.893 274.461 187.533 273.659H187.529ZM185.093 268.446C184.442 268.176 183.901 267.934 183.533 267.734L184.917 267.82C184.999 268.022 185.059 268.231 185.097 268.446H185.093ZM169.124 274.277C169.124 274.277 170.156 271.977 172.473 275.811C172.834 276.409 173.497 277.354 174.373 278.533L167.634 277.628C168.334 276.614 168.837 275.477 169.116 274.277H169.124Z" fill="url(#paint3_linear)"/>
<path d="M183.95 265.033C183.95 265.033 179.225 263.044 175.499 261.555C171.773 260.066 174.009 265.033 174.009 265.033C174.009 265.033 180.224 266.772 180.224 267.022C180.224 267.271 185.445 267.517 185.445 267.517L183.95 265.033Z" fill="#F7C4A7"/>
<path opacity="0.05" d="M183.95 265.033C183.95 265.033 179.225 263.044 175.499 261.555C171.773 260.066 174.009 265.033 174.009 265.033C174.009 265.033 180.224 266.772 180.224 267.022C180.224 267.271 185.445 267.517 185.445 267.517L183.95 265.033Z" fill="black"/>
<path d="M204.075 245.408C204.075 245.408 195.624 240.935 194.129 249.631C193.199 254.924 191.078 259.937 187.926 264.292C187.926 264.292 183.451 265.287 181.711 263.548C181.711 263.548 185.936 268.515 183.946 269.014C183.946 269.014 188.421 272.243 190.411 271.249C192.401 270.254 193.892 263.548 194.637 261.808C195.382 260.069 198.117 244.909 204.075 245.408Z" fill="#575988"/>
<path opacity="0.1" d="M204.075 245.408C204.075 245.408 195.624 240.935 194.129 249.631C193.199 254.924 191.078 259.937 187.926 264.292C187.926 264.292 183.451 265.287 181.711 263.548C181.711 263.548 185.936 268.515 183.946 269.014C183.946 269.014 188.421 272.243 190.411 271.249C192.401 270.254 193.892 263.548 194.637 261.808C195.382 260.069 198.117 244.909 204.075 245.408Z" fill="black"/>
<path d="M199.362 242.425C199.362 242.425 204.582 248.387 204.832 253.354C205.082 258.322 210.798 248.137 211.297 247.888C211.797 247.638 206.323 239.196 205.823 236.467C205.323 233.738 199.362 242.425 199.362 242.425Z" fill="#F7C4A7"/>
<path d="M202.965 244.974L199.673 247.953L201.225 254.226L205.45 250.253L204.955 246.28L202.965 244.974Z" fill="#F7C4A7"/>
<path d="M134.23 289.135H128.515L130.75 294.598L136.22 293.108L134.23 289.135Z" fill="#F7C4A7"/>
<path opacity="0.1" d="M129.833 288.345C129.833 288.345 123.92 292.466 118.856 291.181C113.791 289.896 112.423 290.362 111.834 292.036C111.289 293.558 125.964 301.615 128.302 302.888C128.338 302.912 128.381 302.927 128.425 302.931C128.469 302.935 128.513 302.928 128.554 302.911C128.595 302.893 128.63 302.866 128.658 302.831C128.685 302.796 128.703 302.755 128.711 302.712C128.871 302.037 129.256 300.588 129.665 300.478C130.201 300.334 132.654 295.764 132.531 293.959C132.408 292.155 129.833 288.345 129.833 288.345Z" fill="black"/>
<path d="M129.587 288.345C129.587 288.345 123.675 292.466 118.61 291.181C113.545 289.896 112.177 290.362 111.588 292.036C111.043 293.558 125.718 301.615 128.056 302.888C128.093 302.912 128.135 302.927 128.179 302.931C128.223 302.935 128.268 302.928 128.308 302.911C128.349 302.893 128.384 302.866 128.412 302.831C128.439 302.796 128.458 302.755 128.465 302.712C128.625 302.037 129.01 300.588 129.419 300.478C129.956 300.334 132.408 295.764 132.285 293.959C132.163 292.155 129.587 288.345 129.587 288.345Z" fill="#F3B5B7"/>
<path d="M178.48 278.451L161.823 276.217C161.823 276.217 134.726 289.135 131.495 289.385L132.24 295.113H137.211C139.201 295.113 158.589 290.89 161.324 286.667C162.906 286.246 164.588 286.422 166.049 287.163C168.534 288.39 192.401 296.108 192.401 296.108L178.48 278.451Z" fill="#575988"/>
<path opacity="0.1" d="M178.48 278.451L161.823 276.217C161.823 276.217 134.726 289.135 131.495 289.385L132.24 295.113H137.211C139.201 295.113 158.589 290.89 161.324 286.667C162.906 286.246 164.588 286.422 166.049 287.163C168.534 288.39 192.401 296.108 192.401 296.108L178.48 278.451Z" fill="black"/>
<path d="M148.897 286.152L146.162 289.63L148.897 291.12L152.877 288.141L148.897 286.152Z" fill="#F7C4A7"/>
<path d="M196.377 282.174C196.377 282.174 187.435 274.522 186.808 273.131C186.182 271.74 171.519 262.304 170.524 262.054C169.529 261.805 166.299 260.066 163.068 266.028C159.838 271.99 147.919 286.397 147.919 286.397C147.919 286.397 151.649 291.615 152.889 291.365C154.13 291.115 168.039 279.441 169.046 273.725C169.046 273.725 170.041 271.49 172.277 275.214C174.512 278.938 188.933 296.828 191.668 296.578C191.668 296.578 202.359 298.317 204.595 294.094C206.83 289.871 196.377 282.174 196.377 282.174Z" fill="#575988"/>
<path d="M193.867 242.065H156.644V270.099H193.867V242.065Z" fill="url(#paint4_linear)"/>
<path d="M192.344 243.207H158.163V268.954H192.344V243.207Z" fill="white"/>
<path opacity="0.2" d="M172.903 245.437H161.508V251.873H172.903V245.437Z" fill="#683CF9"/>
<path d="M189.003 245.437H175.626V246.922H189.003V245.437Z" fill="#E6E8EC"/>
<path d="M185.039 247.913H175.626V249.398H185.039V247.913Z" fill="#E6E8EC"/>
<path d="M189.003 250.388H175.626V251.873H189.003V250.388Z" fill="#E6E8EC"/>
<path d="M189.003 252.864H161.508V254.349H189.003V252.864Z" fill="#E6E8EC"/>
<path d="M189.003 255.339H161.508V256.824H189.003V255.339Z" fill="#E6E8EC"/>
<path d="M189.003 257.815H161.508V259.3H189.003V257.815Z" fill="#E6E8EC"/>
<path d="M186.775 260.291H161.508V261.776H186.775V260.291Z" fill="#E6E8EC"/>
<path d="M189.003 262.766H161.508V264.251H189.003V262.766Z" fill="#E6E8EC"/>
<path d="M189.003 265.242H161.508V266.727H189.003V265.242Z" fill="#E6E8EC"/>
<path d="M201.474 245.78C201.474 245.78 198.367 247.147 198.117 252.859C197.867 258.572 192.385 268.261 192.385 268.261L192.88 279.69C192.88 279.69 198.846 285.652 199.345 289.38C199.845 293.108 204.074 295.592 204.074 295.592C204.074 295.592 209.045 293.108 209.807 289.863C210.568 286.618 211.035 278.684 212.292 275.701C213.549 272.718 212.788 254.087 212.788 254.087L209.058 247.626L207.068 245.391L201.847 251.353C201.847 251.353 198.989 247.515 201.474 245.78Z" fill="#F3B5B7"/>
<path opacity="0.1" d="M194.142 275.963C194.142 275.963 193.396 267.018 195.632 265.033L200.107 252.348C200.107 252.348 201.725 246.263 201.475 245.764C201.225 245.265 195.632 250.609 195.632 250.609L191.902 263.777L192.897 277.69L194.142 275.963Z" fill="black"/>
<path d="M193.892 275.963C193.892 275.963 193.146 267.018 195.382 265.033L199.857 252.348C199.857 252.348 201.597 246.136 201.348 245.641C201.098 245.146 195.382 250.609 195.382 250.609L191.652 263.777L192.647 277.689L193.892 275.963Z" fill="#575988"/>
<path d="M195.632 271.989C195.632 271.989 183.193 268.016 182.456 267.022C181.719 266.027 173.755 259.57 171.02 264.039C168.284 268.507 181.211 269.767 181.211 269.767L194.387 277.718L195.632 271.989Z" fill="#F7C4A7"/>
<path opacity="0.1" d="M149.433 289.605L145.748 288.942C145.748 288.942 139.721 296.656 136.585 295.874C133.448 295.093 130.558 298.469 133.874 299.557C136.871 300.535 149.806 301.906 152.279 302.159C152.33 302.166 152.381 302.163 152.43 302.148C152.479 302.134 152.524 302.109 152.563 302.076C152.602 302.043 152.633 302.001 152.655 301.955C152.676 301.909 152.688 301.859 152.688 301.808C152.7 300.849 152.886 299.901 153.237 299.009C153.9 297.372 153.237 293.886 153.053 292.56C152.95 291.778 152.705 291.022 152.328 290.33L149.433 289.605Z" fill="black"/>
<path d="M149.376 289.847L145.691 289.184C145.691 289.184 139.672 296.902 136.515 296.116C133.358 295.33 130.488 298.71 133.805 299.799C136.802 300.777 149.737 302.147 152.21 302.401C152.26 302.408 152.312 302.404 152.361 302.39C152.41 302.375 152.455 302.351 152.494 302.317C152.532 302.284 152.564 302.243 152.585 302.197C152.607 302.151 152.618 302.1 152.619 302.049C152.631 301.091 152.817 300.142 153.168 299.25C153.831 297.614 153.168 294.127 152.983 292.801C152.881 292.02 152.635 291.264 152.259 290.571L149.376 289.847Z" fill="#F3B5B7"/>
<path opacity="0.1" d="M201.225 245.285C205.619 245.285 209.181 241.726 209.181 237.334C209.181 232.943 205.619 229.384 201.225 229.384C196.831 229.384 193.269 232.943 193.269 237.334C193.269 241.726 196.831 245.285 201.225 245.285Z" fill="black"/>
<path d="M200.48 245.285C204.873 245.285 208.435 241.726 208.435 237.334C208.435 232.943 204.873 229.384 200.48 229.384C196.086 229.384 192.524 232.943 192.524 237.334C192.524 241.726 196.086 245.285 200.48 245.285Z" fill="#F7C4A7"/>
<path d="M208.309 245.158C208.309 245.158 217.755 248.387 217.755 255.098C217.755 261.808 212.534 272.489 212.284 281.184C212.035 289.879 198.363 288.635 198.363 288.635C198.363 288.635 196.373 259.321 198.363 257.082C200.353 254.844 209.303 246.153 208.309 245.158Z" fill="#575988"/>
<path opacity="0.1" d="M206.568 259.071C206.568 259.071 203.088 274.473 194.883 271.756C194.883 271.756 190.657 277.968 193.654 280.701C193.654 280.701 200.865 282.44 205.586 277.718C210.307 272.996 213.779 271.249 214.524 265.52C215.269 259.791 215.752 251.857 213.296 252.602C210.839 253.347 206.568 259.071 206.568 259.071Z" fill="black"/>
<path d="M206.818 258.822C206.818 258.822 203.338 274.224 195.132 271.507C195.132 271.507 190.907 277.718 193.904 280.452C193.904 280.452 201.114 282.191 205.835 277.469C210.556 272.747 214.024 271.008 214.786 265.295C215.547 259.583 216.014 251.632 213.558 252.377C211.101 253.122 206.818 258.822 206.818 258.822Z" fill="#575988"/>
<path d="M153.38 298.452C153.38 298.477 153.38 298.501 153.356 298.522C153.178 298.946 153.041 299.385 152.946 299.835C153.004 299.639 153.073 299.426 153.155 299.242C153.26 298.988 153.336 298.723 153.38 298.452Z" fill="#DDDBE2"/>
<path d="M134.005 299.074C132.982 298.738 132.552 298.186 132.535 297.605C132.126 298.423 132.38 299.324 133.825 299.798C136.822 300.776 149.761 302.147 152.23 302.401C152.281 302.408 152.333 302.404 152.382 302.389C152.431 302.374 152.477 302.349 152.515 302.316C152.554 302.282 152.585 302.24 152.607 302.194C152.628 302.147 152.639 302.096 152.639 302.045C152.641 301.954 152.609 301.866 152.549 301.798C152.489 301.73 152.406 301.687 152.316 301.676C149.593 301.382 136.961 300.036 134.005 299.074Z" fill="#DDDBE2"/>
<path d="M111.927 291.598C111.991 291.415 112.072 291.238 112.169 291.07C111.9 291.342 111.7 291.673 111.583 292.036C111.039 293.558 125.714 301.611 128.052 302.888C128.089 302.911 128.131 302.925 128.175 302.929C128.218 302.932 128.262 302.925 128.303 302.908C128.343 302.89 128.379 302.864 128.406 302.829C128.434 302.795 128.453 302.755 128.461 302.712C128.475 302.655 128.469 302.595 128.446 302.541C128.422 302.487 128.381 302.442 128.33 302.413C125.734 300.997 111.387 293.104 111.927 291.598Z" fill="#DDDBE2"/>
<path d="M129.743 300.04C129.612 300.077 129.481 300.248 129.362 300.494H129.403C129.509 300.465 129.698 300.253 129.927 299.921C129.875 299.974 129.812 300.015 129.743 300.04Z" fill="#DDDBE2"/>
<path opacity="0.1" d="M199.374 244.332C198.674 245.874 198.527 247.605 198.011 249.242C197.508 250.826 196.647 252.273 195.492 253.47C194.338 254.667 192.923 255.581 191.357 256.141C193.941 257.172 196.987 255.912 198.985 253.825C200.984 251.738 202.15 248.96 203.272 246.259C206.171 248.207 205.819 252.683 206.79 256.17C207.208 257.686 207.947 259.095 208.957 260.302C209.967 261.508 211.225 262.484 212.645 263.163C214.06 263.798 215.598 264.111 217.148 264.08C218.699 264.049 220.223 263.674 221.612 262.983C218.954 259.742 215.171 255.298 215.621 250.985C215.986 247.491 213.476 244.823 213.652 241.32C213.898 236.344 212.014 233.827 208.431 230.636C206.347 228.77 209.627 226.135 206.941 226.908C205.885 227.211 204.771 226.09 203.735 226.454C201.688 227.19 199.44 226.912 197.327 227.407C186.342 229.977 200.39 242.077 199.374 244.332Z" fill="black"/>
<path d="M199.624 244.082C198.924 245.625 198.776 247.356 198.261 248.993C197.758 250.577 196.896 252.024 195.742 253.221C194.588 254.417 193.173 255.332 191.607 255.892C194.191 256.923 197.237 255.663 199.235 253.576C201.233 251.489 202.4 248.71 203.522 246.01C206.421 247.957 206.069 252.434 207.039 255.92C207.458 257.437 208.197 258.846 209.207 260.052C210.217 261.259 211.474 262.235 212.894 262.914C214.309 263.548 215.847 263.862 217.398 263.83C218.949 263.799 220.473 263.425 221.861 262.733C219.204 259.493 215.67 255.777 216.129 251.481C216.493 247.986 215.949 244.397 216.129 240.895C216.375 235.919 213.938 231.127 210.372 227.935C208.288 226.069 205.049 225.832 203.997 226.204C201.95 226.941 199.702 226.663 197.589 227.158C186.591 229.732 200.648 241.828 199.624 244.082Z" fill="#B96B6B"/>
<path d="M67.0805 319.735C81.4113 315.328 89.8706 315.692 89.8706 315.692L88.6954 309.034C89.0626 308.788 89.3957 308.495 89.6863 308.163C89.6863 308.163 88.2164 300.081 89.6863 298.06C91.1563 296.038 95.2016 277.673 95.2016 277.673V271.425C102.572 268.855 111.191 253.977 111.191 253.977L122.037 281.888C122.037 281.888 132.879 303.379 134.349 304.112C135.524 304.697 136.11 309.505 136.302 311.416L136.212 311.444C136.257 311.907 136.278 312.193 136.278 312.193L136.364 312.136V312.193C136.546 312.067 136.737 311.954 136.937 311.858C134.82 314.288 131.651 317.783 129.014 320.091C127.561 321.363 130.169 322.346 131.389 322.325C132.083 322.302 132.776 322.401 133.436 322.616C139.615 324.747 149.773 316.965 149.773 316.965L147.231 309.877C147.894 309.824 148.303 309.8 148.303 309.8C148.303 309.8 140.032 280.779 136.171 278.021C134.951 277.132 133.85 276.09 132.896 274.919C131.059 272.689 130.134 269.848 130.304 266.965L131.659 243.154C133.837 242.834 135.242 242.568 135.242 242.568C135.242 242.568 135.75 236.062 135.733 231.07C135.733 228.471 135.627 226.192 135.242 225.3C134.787 224.244 134.644 222.133 134.636 220.013C134.636 217.149 134.873 214.465 134.873 214.465C134.873 214.465 137.813 210.606 141.859 201.78C143.64 197.896 144.102 194.823 144.061 192.622C144.089 191.596 143.99 190.571 143.767 189.569C143.652 189.074 143.44 188.606 143.143 188.194C142.845 187.781 142.469 187.432 142.035 187.167C139.709 185.743 134.415 182.228 132.855 178.824C130.873 174.502 128.011 173.889 127.896 173.864L127.72 173.103C128.818 172.196 129.619 170.982 130.021 169.617C130.619 167.775 130.742 165.811 131.25 163.941C131.495 163.041 131.835 162.169 132.069 161.269C132.302 160.363 132.413 159.43 132.4 158.495C132.445 157.132 132.164 155.779 131.581 154.546C130.631 152.594 128.74 151.059 126.586 150.806C125.399 150.667 124.084 150.871 123.11 150.18C122.438 149.701 122.086 148.887 121.472 148.318C120.305 147.213 118.438 147.27 116.919 147.786C114.874 148.487 113.121 149.851 111.94 151.661C111.232 152.749 110.736 153.998 109.827 154.935C109.062 155.716 108.058 156.215 107.215 156.911C106.591 157.398 106.083 158.018 105.729 158.726C105.374 159.434 105.183 160.212 105.168 161.003C105.168 161.003 105.168 161.044 105.168 161.064C105.168 161.167 105.168 161.269 105.168 161.371C105.209 162.951 106.31 164.522 107.858 164.841C108.263 164.916 108.677 164.927 109.086 164.874C108.737 166.163 108.652 167.509 108.836 168.832C109.02 170.154 109.47 171.426 110.158 172.571C110.846 173.716 111.758 174.71 112.839 175.494C113.921 176.278 115.15 176.836 116.452 177.134C116.428 177.265 116.399 177.395 116.37 177.543H116.456C116.279 178.179 116.057 178.803 115.793 179.409H115.674L115.973 178.877L111.756 178.586C110.528 178.494 109.297 178.724 108.185 179.253C106.732 179.957 105.143 181.299 104.947 183.836C104.578 188.591 95.5701 195.752 95.5701 195.752C92.446 200.712 72.0431 201.628 72.0431 201.628C72.0431 201.628 72.1331 201.743 72.1741 201.804L71.7646 201.726L70.221 201.444C70.221 201.444 65.4427 187.302 60.8487 189.872C56.2546 192.442 68.7511 206.403 68.7511 206.403L72.3624 206.645L72.7269 206.669C72.5943 207.585 72.4042 208.491 72.1577 209.382C72.1086 209.562 72.0717 209.677 72.0635 209.706C72.0635 209.706 81.5628 208.609 89.6331 208.785H90.3619L90.8778 208.76C91.2873 213.192 97.6092 222.198 97.6092 222.198L101.511 223.017L101.806 223.078C100.549 225.677 98.9515 228.097 97.0565 230.276L95.7708 237.441L95.8731 237.417L95.7708 237.994C95.9911 237.94 96.195 237.833 96.3645 237.683C93.8464 244.361 89.6699 254.754 86.7669 258.38C82.3571 263.892 82.9058 272.702 82.9058 272.702C82.9058 272.702 78.496 295.846 78.6803 300.069C78.7016 302.107 78.1497 304.111 77.0875 305.851C76.2225 306.843 75.4623 307.922 74.8191 309.071C71.5108 314.767 66.1797 314.391 66.1797 314.391C61.5857 317.345 67.0805 319.735 67.0805 319.735ZM95.4678 207.701L95.9427 207.512L96.0533 207.467L96.5078 207.271L96.5856 207.234L96.995 207.046L97.0851 207.005L97.5191 206.788L97.6215 206.735L98.0309 206.518H98.0637L98.4732 206.281L98.5714 206.223L98.9809 205.986L99.0464 205.945L99.4026 205.728L99.4845 205.679L99.8653 205.438L99.9513 205.38L100.303 205.147L100.336 205.127L100.696 204.877L100.778 204.82L101.122 204.574L101.176 204.538L101.479 204.317L101.544 204.267L101.859 204.026L101.925 203.977L102.211 203.752H102.236L102.527 203.519L102.588 203.47L102.862 203.244L102.887 203.224L103.133 203.015L103.174 202.978L103.415 202.77L103.452 202.737L103.673 202.537L103.886 202.344L103.915 202.316L104.324 201.906L104.922 201.857C105.43 202.516 105.63 203.682 105.651 205.02C105.594 208.454 104.554 212.693 104.554 212.693C104.465 214.797 104.099 216.88 103.464 218.888C103.016 218.864 102.576 218.757 102.166 218.573C102.166 218.573 102.142 218.704 102.105 218.925L101.753 218.835L99.9636 218.389C99.9636 218.389 98.4772 210.827 95.4678 207.701Z" fill="url(#paint5_linear)"/>
<path d="M145.31 305.536L148.721 315.033C148.721 315.033 139.381 322.194 133.313 320.713C132.399 320.486 131.468 320.335 130.529 320.263C129.272 320.169 127.11 319.256 128.445 318.09C132.752 314.325 138.493 307.332 138.493 307.332L145.31 305.536Z" fill="#4F4D59"/>
<path d="M88.6095 304.639L90.2227 313.785C90.2227 313.785 81.9682 313.425 67.9731 317.73C67.9731 317.73 62.5888 315.397 67.0764 312.529C67.0764 312.529 72.2805 312.889 75.5111 307.328C78.7417 301.767 80.7152 302.487 80.7152 302.487L88.6095 304.639Z" fill="#4F4D59"/>
<path d="M131.315 238.288L129.735 266.113C129.565 269.079 130.55 271.995 132.482 274.252C133.356 275.288 134.351 276.216 135.446 277.014C139.213 279.703 147.288 308.035 147.288 308.035C147.288 308.035 138.137 308.572 135.627 310.368C135.627 310.368 135.09 303.195 133.653 302.479C132.216 301.762 121.632 280.791 121.632 280.791L111.039 253.53C111.039 253.53 102.604 268.057 95.4267 270.565V276.662C95.4267 276.662 91.4796 294.593 90.0424 296.566C88.6052 298.538 90.0424 306.427 90.0424 306.427C90.0424 306.427 85.9151 311.628 76.4077 306.067C76.4077 306.067 79.4581 302.659 79.2738 298.534C79.0896 294.409 83.4093 271.822 83.4093 271.822C83.4093 271.822 82.8729 263.228 87.1762 257.835C91.4796 252.442 98.6409 231.835 98.6409 231.835L103.579 221.216L131.315 238.288Z" fill="#787C9C"/>
<g opacity="0.1">
<path opacity="0.1" d="M145.581 308.044C145.581 308.044 137.506 279.711 133.739 277.023C132.581 276.176 131.534 275.188 130.623 274.08C128.78 271.854 127.853 269.01 128.031 266.126L129.612 238.3L103.149 221.998L103.509 221.224L131.225 238.296L129.645 266.122C129.467 269.006 130.393 271.85 132.237 274.076C133.148 275.184 134.194 276.172 135.352 277.018C139.119 279.707 147.194 308.04 147.194 308.04C147.194 308.04 138.043 308.576 135.533 310.372C135.533 310.372 135.512 310.094 135.467 309.64C138.997 308.433 145.581 308.044 145.581 308.044Z" fill="black"/>
<path opacity="0.1" d="M88.3434 306.44C88.3434 306.44 86.9062 298.551 88.3434 296.578C89.7806 294.606 93.7277 276.675 93.7277 276.675V270.578C100.905 268.065 109.34 253.543 109.34 253.543L109.967 255.159C107.534 259.014 101.045 268.585 95.345 270.578V276.675C95.345 276.675 91.3979 294.606 89.9607 296.578C88.5236 298.551 89.9607 306.44 89.9607 306.44C89.9607 306.44 87.9585 308.956 83.5364 308.617C86.8325 308.334 88.3434 306.44 88.3434 306.44Z" fill="black"/>
</g>
<path d="M69.5901 207.087L73.1155 207.32L74.9744 207.443V202.941L72.5177 202.5L71.0068 202.225C71.0068 202.225 66.3432 188.419 61.8556 190.927C57.368 193.436 69.5901 207.087 69.5901 207.087Z" fill="#714B4F"/>
<path d="M126.111 170.149C126.111 170.149 128.445 179.114 129.161 184.675C129.878 190.236 112.476 185.751 112.476 185.751C112.476 185.751 119.114 177.682 115.342 173.377L126.111 170.149Z" fill="#714B4F"/>
<path d="M107.272 207.447L106.912 210.856L112.472 210.495L118.033 205.655L123.593 190.052L127.188 184.499L129.878 181.091L128.801 176.966C128.801 176.966 128.31 177.375 127.479 178.03C124.748 180.121 118.336 184.462 113.651 183.263C113.435 183.209 113.221 183.142 113.013 183.063L106.015 195.077L107.272 207.447Z" fill="#E6E6F0"/>
<path opacity="0.1" d="M127.368 175.906C127.368 175.906 130.234 176.442 132.212 180.747C133.731 184.057 138.853 187.47 141.142 188.873C141.579 189.14 141.957 189.491 142.255 189.907C142.553 190.322 142.765 190.793 142.878 191.292C143.341 193.338 143.517 197.143 141.003 202.626C137.056 211.219 134.186 215 134.186 215C134.186 215 133.469 223.594 134.546 226.118C135.623 228.643 134.546 242.437 134.546 242.437C134.546 242.437 115.711 246.022 109.426 242.437C103.141 238.853 104.042 225.009 104.042 225.009C104.042 225.009 98.1212 237.572 95.9797 237.932L97.2081 230.939C97.2081 230.939 104.206 223.405 104.578 213.724C104.578 213.724 106.732 204.938 104.939 202.606C104.939 202.606 74.6146 205.118 72.8212 202.966C72.8212 202.966 92.7369 202.07 95.7873 197.237C95.7873 197.237 104.578 190.244 104.939 185.583C104.991 184.709 105.266 183.862 105.736 183.124C106.207 182.385 106.858 181.778 107.629 181.36C108.849 180.667 110.25 180.355 111.649 180.464L115.703 180.742C115.703 180.742 108.71 193.092 109.082 194.729C109.455 196.366 108.722 209.431 108.722 209.431C108.722 209.431 116.796 192.036 120.383 190.064C123.97 188.092 128.085 179.998 128.085 179.998L127.368 175.906Z" fill="black"/>
<path opacity="0.1" d="M107.272 207.447L106.912 210.856L112.472 210.495L118.033 205.655L123.593 190.052L127.188 184.499L129.878 181.091L128.801 176.966C128.801 176.966 128.31 177.375 127.479 178.03L127.724 179.446C127.724 179.446 123.597 187.544 120.01 189.516C116.423 191.488 108.349 208.883 108.349 208.883C108.349 208.883 109.066 195.789 108.709 194.181C108.464 193.084 111.608 187.04 113.651 183.263C113.435 183.209 113.221 183.142 113.013 183.063L106.015 195.077L107.272 207.447Z" fill="black"/>
<path opacity="0.1" d="M73.1157 207.324L74.9746 207.447V202.946L72.5179 202.504C73.3818 203.649 73.3532 205.638 73.1157 207.324Z" fill="black"/>
<path d="M127.368 175.349C127.368 175.349 130.234 175.885 132.212 180.19C133.731 183.501 138.853 186.913 141.142 188.317C141.579 188.584 141.957 188.935 142.255 189.35C142.553 189.766 142.765 190.237 142.878 190.735C143.341 192.781 143.517 196.587 141.003 202.07C137.056 210.663 134.186 214.444 134.186 214.444C134.186 214.444 133.469 223.037 134.546 225.562C135.623 228.087 134.546 241.881 134.546 241.881C134.546 241.881 115.711 245.465 109.426 241.881C103.141 238.296 104.042 224.486 104.042 224.486C104.042 224.486 98.1212 237.036 95.9797 237.392L97.2081 230.399C97.2081 230.399 104.206 222.865 104.578 213.184C104.578 213.184 106.732 204.398 104.939 202.066C104.939 202.066 97.941 209.599 90.0468 209.431C82.1526 209.264 72.8212 210.328 72.8212 210.328C72.8212 210.328 74.6146 204.599 72.8212 202.438C72.8212 202.438 92.7369 201.542 95.7873 196.709C95.7873 196.709 104.578 189.716 104.939 185.056C104.989 184.178 105.263 183.328 105.734 182.586C106.206 181.844 106.859 181.235 107.633 180.816C108.853 180.123 110.254 179.811 111.654 179.92L115.707 180.198C115.707 180.198 108.71 192.564 109.082 194.177C109.455 195.789 108.722 208.879 108.722 208.879C108.722 208.879 116.796 191.484 120.383 189.512C123.97 187.539 128.097 179.441 128.097 179.441L127.381 175.349" fill="#67647E"/>
<path opacity="0.1" d="M131.315 194.177C131.315 194.177 127.008 208.703 124.498 210.495C121.988 212.288 106.736 221.433 102.248 219.281C102.248 219.281 101.171 224.662 102.785 225.914C102.785 225.914 119.515 225.259 119.65 225.198C119.65 225.198 130.595 223.761 132.388 218.385C134.181 213.008 136.335 203.858 136.335 203.858L131.315 194.177Z" fill="black"/>
<path d="M108.349 210.585C108.695 210.585 108.976 210.184 108.976 209.689C108.976 209.194 108.695 208.793 108.349 208.793C108.003 208.793 107.723 209.194 107.723 209.689C107.723 210.184 108.003 210.585 108.349 210.585Z" fill="#BA7855"/>
<path d="M106.556 216.862C106.902 216.862 107.182 216.461 107.182 215.966C107.182 215.471 106.902 215.07 106.556 215.07C106.21 215.07 105.929 215.471 105.929 215.966C105.929 216.461 106.21 216.862 106.556 216.862Z" fill="#BA7855"/>
<g opacity="0.1">
<path opacity="0.1" d="M133.289 241.697C133.289 241.697 134.366 227.891 133.289 225.378C132.212 222.866 132.929 214.26 132.929 214.26C132.929 214.26 135.795 210.496 139.746 201.886C142.26 196.403 142.08 192.597 141.621 190.551C141.508 190.052 141.295 189.581 140.996 189.166C140.698 188.75 140.318 188.399 139.881 188.133C137.592 186.729 132.47 183.317 130.955 180.006C129.841 177.58 128.445 176.348 127.434 175.738L127.364 175.329C127.364 175.329 130.23 175.865 132.208 180.17C133.727 183.48 138.849 186.893 141.134 188.297C141.571 188.563 141.95 188.914 142.249 189.33C142.548 189.745 142.761 190.216 142.874 190.715C143.337 192.761 143.513 196.566 140.999 202.05C137.052 210.643 134.182 214.424 134.182 214.424C134.182 214.424 133.465 223.017 134.542 225.542C135.619 228.066 134.542 241.861 134.542 241.861C134.542 241.861 121.083 244.422 113.124 243.051C121.165 244.005 133.289 241.697 133.289 241.697Z" fill="black"/>
<path opacity="0.1" d="M109.082 194.177C109.328 195.282 109.082 201.78 108.881 205.757C108.013 207.529 107.469 208.699 107.469 208.699C107.469 208.699 108.185 195.605 107.829 193.997C107.489 192.462 113.791 181.209 114.417 180.084L115.723 180.174C115.723 180.174 108.71 192.565 109.082 194.177Z" fill="black"/>
<path opacity="0.1" d="M88.7898 209.239C96.684 209.419 103.682 201.874 103.682 201.874C103.893 202.167 104.047 202.497 104.136 202.848C102.089 204.775 96.3564 209.55 90.0468 209.395C82.1526 209.215 72.8212 210.291 72.8212 210.291C72.8212 210.291 72.858 210.172 72.9153 209.968C78.1892 209.431 83.4889 209.188 88.7898 209.239Z" fill="black"/>
<path opacity="0.1" d="M102.785 224.302C102.785 224.302 102.711 225.423 102.752 227.105C100.885 230.788 97.4864 237.139 95.9673 237.392L96.2335 235.919C98.8458 232.641 102.785 224.302 102.785 224.302Z" fill="black"/>
</g>
<path d="M104.861 179.049H61.9706V211.351H104.861V179.049Z" fill="url(#paint6_linear)"/>
<path d="M103.751 179.879H63.076V210.516H103.751V179.879Z" fill="white"/>
<path opacity="0.2" d="M80.613 182.531H67.0561V190.191H80.613V182.531Z" fill="#683CF9"/>
<path d="M99.7712 182.531H83.8558V184.298H99.7712V182.531Z" fill="#E6E8EC"/>
<path d="M95.0584 185.477H83.8558V187.245H95.0584V185.477Z" fill="#E6E8EC"/>
<path d="M99.7712 188.423H83.8558V190.191H99.7712V188.423Z" fill="#E6E8EC"/>
<path d="M99.7753 191.369H67.0561V193.137H99.7753V191.369Z" fill="#E6E8EC"/>
<path d="M99.7753 194.315H67.0561V196.083H99.7753V194.315Z" fill="#E6E8EC"/>
<path d="M99.7753 197.258H67.0561V199.026H99.7753V197.258Z" fill="#E6E8EC"/>
<path d="M97.1221 200.204H67.0561V201.972H97.1221V200.204Z" fill="#E6E8EC"/>
<path d="M99.7753 203.15H67.0561V204.918H99.7753V203.15Z" fill="#E6E8EC"/>
<path d="M99.7753 206.096H67.0561V207.864H99.7753V206.096Z" fill="#E6E8EC"/>
<path d="M97.7605 222.509L101.572 223.328L104.578 223.946L102.965 219.445L101.843 219.162L100.094 218.728C100.094 218.728 97.5844 206.187 92.5604 207.087C87.5365 207.987 97.7605 222.509 97.7605 222.509Z" fill="#714B4F"/>
<path opacity="0.1" d="M101.573 223.311L104.578 223.946L102.965 219.444L101.843 219.162C101.592 220.53 101.501 221.922 101.573 223.311Z" fill="black"/>
<path d="M131.315 193.82C131.315 193.82 127.008 208.347 124.498 210.139C121.988 211.931 106.736 221.077 102.248 218.925C102.248 218.925 101.171 224.306 102.785 225.558C102.785 225.558 119.515 224.903 119.65 224.842C119.65 224.842 130.595 223.405 132.388 218.028C134.181 212.652 136.335 203.502 136.335 203.502L131.315 193.82Z" fill="#67647E"/>
<path opacity="0.1" d="M125.931 170.508C125.931 170.508 126.295 171.912 126.783 173.954C125.787 175.833 124.2 177.332 122.267 178.219C120.334 179.107 118.163 179.333 116.088 178.864C116.518 177.023 116.423 175.181 115.162 173.721L125.931 170.508Z" fill="black"/>
<path d="M118.397 178.758C123.747 178.758 128.085 174.423 128.085 169.076C128.085 163.729 123.747 159.395 118.397 159.395C113.047 159.395 108.709 163.729 108.709 169.076C108.709 174.423 113.047 178.758 118.397 178.758Z" fill="#714B4F"/>
<path opacity="0.1" d="M109.983 166.408C109.279 166.603 108.543 166.648 107.821 166.539C106.31 166.228 105.233 164.694 105.196 163.151C105.211 162.378 105.399 161.618 105.744 160.927C106.09 160.235 106.585 159.63 107.194 159.153C108.013 158.47 108.996 157.983 109.745 157.222C110.634 156.318 111.117 155.098 111.792 154.034C112.947 152.267 114.659 150.936 116.657 150.253C118.143 149.75 119.961 149.693 121.103 150.773C121.689 151.325 122.033 152.123 122.688 152.59C123.638 153.265 124.924 153.064 126.082 153.199C127.133 153.361 128.127 153.778 128.977 154.415C129.828 155.051 130.509 155.888 130.959 156.849C131.839 158.798 132.007 160.993 131.434 163.053C131.209 163.933 130.881 164.788 130.64 165.664C130.136 167.489 130.017 169.404 129.436 171.204C128.854 173.005 127.655 174.764 125.841 175.296C125.984 173.278 125.586 171.257 124.686 169.445C124.537 169.05 124.245 168.725 123.867 168.536C123.544 168.453 123.204 168.453 122.88 168.536C120.609 168.873 118.291 168.404 116.329 167.21C115.641 166.801 114.569 165.365 113.832 165.222C112.902 165.054 110.965 166.187 109.983 166.408Z" fill="black"/>
<path d="M109.983 166.048C109.279 166.243 108.543 166.288 107.821 166.179C106.31 165.868 105.233 164.334 105.196 162.791C105.211 162.018 105.399 161.258 105.744 160.567C106.09 159.875 106.585 159.269 107.194 158.793C108.013 158.11 108.996 157.623 109.745 156.862C110.634 155.957 111.117 154.738 111.792 153.674C112.947 151.907 114.659 150.576 116.657 149.893C118.143 149.39 119.961 149.332 121.103 150.413C121.689 150.965 122.033 151.763 122.688 152.23C123.638 152.905 124.924 152.704 126.082 152.839C127.133 153.001 128.127 153.418 128.977 154.055C129.828 154.691 130.509 155.527 130.959 156.489C131.839 158.438 132.007 160.633 131.434 162.693C131.209 163.573 130.881 164.428 130.64 165.303C130.136 167.128 130.017 169.044 129.436 170.844C128.854 172.644 127.655 174.404 125.841 174.936C125.984 172.918 125.586 170.897 124.686 169.084C124.537 168.689 124.245 168.365 123.867 168.176C123.544 168.093 123.204 168.093 122.88 168.176C120.609 168.513 118.291 168.044 116.329 166.85C115.641 166.441 114.569 165.005 113.832 164.862C112.902 164.694 110.965 165.831 109.983 166.048Z" fill="#503F43"/>
<path d="M35.2824 311.109C36.0328 310.497 36.5797 309.673 36.8506 308.744C37.0553 307.803 36.6541 306.677 35.7533 306.334C34.746 305.949 33.6692 306.645 32.8544 307.352C32.0395 308.06 31.1019 308.862 30.0332 308.711C30.5825 308.213 30.9934 307.582 31.2259 306.879C31.4584 306.175 31.5045 305.423 31.3599 304.697C31.3137 304.396 31.1863 304.113 30.9914 303.878C30.4304 303.281 29.4191 303.539 28.7476 304.009C26.6184 305.507 26.0247 308.396 26.0124 310.998C25.7995 310.061 25.9797 309.083 25.9715 308.134C25.9633 307.185 25.7012 306.088 24.8905 305.589C24.3878 305.319 23.8232 305.185 23.2527 305.2C22.2946 305.163 21.23 305.261 20.5749 305.961C19.756 306.829 19.973 308.29 20.6814 309.235C21.3897 310.18 22.4625 310.79 23.4534 311.453C24.2475 311.924 24.9249 312.569 25.4351 313.339C25.4951 313.446 25.5445 313.558 25.5825 313.675H31.5728C32.9196 312.991 34.1675 312.128 35.2824 311.109Z" fill="#683CF9"/>
<path d="M391.096 254.23C391.846 253.619 392.393 252.794 392.664 251.865C392.869 250.924 392.467 249.799 391.567 249.455C390.559 249.07 389.482 249.766 388.668 250.474C387.853 251.182 386.915 251.984 385.846 251.833C386.396 251.335 386.807 250.704 387.039 250C387.272 249.297 387.318 248.545 387.173 247.818C387.127 247.517 387 247.234 386.805 247C386.244 246.403 385.232 246.66 384.561 247.131C382.432 248.629 381.838 251.518 381.826 254.12C381.613 253.183 381.793 252.205 381.785 251.256C381.777 250.306 381.514 249.21 380.704 248.71C380.201 248.44 379.636 248.306 379.066 248.322C378.108 248.285 377.043 248.383 376.388 249.083C375.569 249.95 375.786 251.411 376.495 252.356C377.203 253.302 378.276 253.911 379.267 254.574C380.061 255.046 380.738 255.691 381.248 256.461C381.308 256.567 381.358 256.68 381.396 256.796H387.394C388.738 256.112 389.983 255.249 391.096 254.23Z" fill="#683CF9"/>
<path d="M444.316 131.225C443.469 128.746 442.244 125.603 441.278 124.862C441.219 124.815 441.155 124.775 441.086 124.744H440.967V121.679L438.682 122.043C438.319 120.936 438.045 119.801 437.863 118.651C438.083 118.871 438.364 119.021 438.669 119.082C438.974 119.143 439.291 119.113 439.579 118.994C439.542 118.933 439.509 118.868 439.477 118.802L439.579 118.757C439.219 118.123 439.029 117.407 439.026 116.678C439.044 116.013 439.15 115.352 439.341 114.714C439.751 113.302 440.443 111.985 440.828 110.565C441.073 109.651 441.189 108.708 441.172 107.762C441.184 106.159 440.82 104.575 440.107 103.138C439.927 102.723 439.645 102.36 439.288 102.082C438.967 101.904 438.636 101.743 438.297 101.599C437.729 101.217 437.24 100.73 436.856 100.163C435.233 98.1877 433.06 96.7379 430.612 95.9975C429.974 95.7594 429.282 95.7041 428.614 95.8379C427.078 96.2471 426.522 98.1499 425.277 99.1484C424.179 100.028 422.673 100.118 421.293 100.413C419.913 100.707 418.525 101.293 417.583 102.356C416.934 103.098 416.58 104.052 416.588 105.037C416.55 105.497 416.632 105.959 416.824 106.379C417.016 106.799 417.313 107.162 417.686 107.435C418.111 107.713 418.592 107.894 419.095 107.965C419.599 108.036 420.111 107.994 420.597 107.844C420.217 109.154 420.113 110.528 420.29 111.88C420.467 113.232 420.922 114.533 421.626 115.701C422.33 116.869 423.268 117.879 424.381 118.667C425.494 119.456 426.758 120.006 428.094 120.283L428.36 120.762C429.183 122.293 429.808 123.923 430.219 125.611C428.114 126.802 425.817 127.919 424.429 128.025C424.373 128.568 424.272 129.104 424.126 129.629C423.802 130.947 423.178 132.172 422.304 133.21C420.417 135.33 411.929 151.354 411.929 151.354C411.929 151.354 411.663 151.992 411.224 153.081C405.955 153.727 397.352 154.66 394.953 154.181L385.535 145.228C385.535 145.228 382.489 147.552 382.755 150.376L381.056 148.764C381.056 148.764 372.097 155.597 386.244 160.074L407.769 162.57C405.721 168.753 403.805 175.951 404.399 179.867H404.575C404.986 179.866 405.397 179.835 405.803 179.773L405.766 180.468L403.695 217.566C403.695 217.566 403.224 224.4 409.591 227.46C409.591 227.46 417.37 250.314 414.308 252.908C414.308 252.908 414.672 253.101 415.286 253.367L408.886 259.034C408.886 259.034 404.17 260.213 401.578 259.975C401.122 259.913 400.66 260.02 400.278 260.277C399.897 260.533 399.623 260.921 399.51 261.367C399.51 261.416 399.51 261.465 399.485 261.514V261.575C399.485 261.624 399.485 261.673 399.485 261.727C399.485 261.78 399.485 261.763 399.485 261.784C399.485 261.804 399.485 261.87 399.485 261.915C399.485 261.96 399.485 261.952 399.485 261.968C399.485 261.984 399.485 262.07 399.514 262.119V262.177C399.528 262.231 399.545 262.286 399.567 262.34L399.588 262.389C399.608 262.443 399.633 262.496 399.662 262.549V262.586C399.69 262.639 399.723 262.688 399.756 262.741L399.784 262.786C399.823 262.841 399.865 262.896 399.911 262.95L399.948 262.991C399.997 263.048 400.051 263.102 400.104 263.155L400.128 263.175L400.304 263.327L400.341 263.355C400.407 263.408 400.48 263.458 400.554 263.507L400.603 263.539C400.681 263.588 400.763 263.638 400.849 263.683H400.886L401.152 263.814H401.189L401.5 263.936L401.565 263.961L401.905 264.071H401.963L402.335 264.17H402.364L402.773 264.251H402.855L403.297 264.317H403.383L403.883 264.366C404.853 264.44 406.16 264.468 407.67 264.46C407.67 264.46 407.67 264.497 407.67 264.517C407.67 264.538 407.67 264.603 407.67 264.648V264.701C407.67 264.751 407.67 264.804 407.699 264.853V264.91C407.713 264.965 407.73 265.019 407.752 265.074L407.773 265.123C407.793 265.176 407.818 265.229 407.846 265.283V265.319C407.875 265.373 407.908 265.422 407.941 265.475L407.969 265.52C408.007 265.574 408.05 265.629 408.096 265.684L408.133 265.724C408.182 265.782 408.235 265.835 408.289 265.888L408.313 265.909L408.489 266.06L408.526 266.089C408.592 266.142 408.665 266.191 408.739 266.24L408.792 266.273C408.87 266.322 408.952 266.371 409.038 266.416H409.075L409.341 266.547H409.378L409.689 266.67L409.754 266.694L410.094 266.805H410.152L410.524 266.903H410.553L410.962 266.985H411.044L411.486 267.05H411.572L412.072 267.099C418.214 267.57 437.769 266.158 437.769 266.158V266.105V266.035C437.962 265.123 438.903 259.82 435.562 255.9C435.66 255.797 435.759 255.687 435.849 255.572C435.849 255.572 433.257 251.096 434.67 249.68C436.082 248.264 427.598 223.761 427.598 223.761C427.598 223.761 423.119 216.694 425.711 208.682C428.303 200.67 425.473 191.954 425.473 191.954C425.473 191.954 431.656 190.117 431.783 182.51C431.783 182.281 431.783 182.044 431.783 181.802C431.919 181.822 432.056 181.83 432.192 181.827C432.28 181.833 432.367 181.833 432.454 181.827C432.454 181.827 431.275 177.587 432.692 174.523C434.109 171.458 437.171 174.285 440.001 161.801C442.048 152.765 443.85 142.372 444.689 137.314C445.054 135.284 444.926 133.196 444.316 131.225ZM390.51 157.729L388.361 155.683C389.073 155.978 389.863 156.268 390.748 156.546L398.855 157.488C395.235 157.823 391.874 158.003 390.51 157.733V157.729Z" fill="url(#paint7_linear)"/>
<path d="M411.032 156.53C411.032 156.53 394.355 158.846 390.879 158.167L381.613 149.369C381.613 149.369 372.81 156.084 386.711 160.479L412.653 163.486L411.032 156.53Z" fill="#FDC2CC"/>
<path opacity="0.05" d="M411.032 156.53C411.032 156.53 394.355 158.846 390.879 158.167L381.613 149.369C381.613 149.369 372.81 156.084 386.711 160.479L412.653 163.486L411.032 156.53Z" fill="black"/>
<path d="M417.055 250.515L408.948 257.692C408.948 257.692 404.317 258.85 401.766 258.617C399.215 258.384 398.06 262.554 404.083 263.016C410.106 263.478 429.33 262.091 429.33 262.091C429.33 262.091 431.185 254.685 425.625 250.515H417.055Z" fill="#47465A"/>
<path opacity="0.05" d="M417.055 250.515L408.948 257.692C408.948 257.692 404.317 258.85 401.766 258.617C399.215 258.384 398.06 262.554 404.083 263.016C410.106 263.478 429.33 262.091 429.33 262.091C429.33 262.091 431.185 254.685 425.625 250.515H417.055Z" fill="black"/>
<path opacity="0.3" d="M429.621 258.883C429.607 259.726 429.51 260.567 429.33 261.391C429.33 261.391 410.086 262.778 404.084 262.316C401.189 262.095 399.956 261.015 399.735 259.979C399.473 261.166 400.521 262.737 404.084 263.012C410.107 263.474 429.33 262.087 429.33 262.087C429.556 261.034 429.654 259.959 429.621 258.883Z" fill="white"/>
<path d="M426.55 119.26C426.55 119.26 431.648 126.438 429.793 131.299C427.938 136.16 439.509 126.205 439.509 126.205C439.509 126.205 435.804 119.723 437.655 112.779L426.55 119.26Z" fill="#FDC2CC"/>
<path d="M425.179 253.289L417.071 260.466C417.071 260.466 412.441 261.624 409.89 261.391C407.339 261.158 406.184 265.328 412.207 265.79C418.23 266.252 437.454 264.865 437.454 264.865C437.454 264.865 439.309 257.459 433.748 253.289H425.179Z" fill="#47465A"/>
<path d="M427.48 251.668C426.272 253.158 424.568 253.714 422.787 253.817C418.738 254.009 414.279 251.668 414.279 251.668C417.288 249.123 409.648 226.666 409.648 226.666C403.396 223.659 403.858 216.944 403.858 216.944L405.906 180.497L406.417 171.343L412.903 167.406L418.017 171.327L422.865 175.046C423.18 176.229 423.383 177.439 423.471 178.659C424.032 187.167 417.305 189.168 417.305 189.168C417.305 189.168 420.085 197.732 417.538 205.601C414.991 213.47 419.393 220.414 419.393 220.414C419.393 220.414 427.733 244.487 426.354 245.878C424.974 247.27 427.48 251.668 427.48 251.668Z" fill="#565171"/>
<path opacity="0.05" d="M427.48 251.668C426.272 253.158 424.568 253.714 422.787 253.817C418.738 254.009 414.279 251.668 414.279 251.668C417.288 249.123 409.648 226.666 409.648 226.666C403.396 223.659 403.858 216.944 403.858 216.944L405.906 180.497L406.417 171.343L412.903 167.406L418.017 171.327L422.865 175.046C423.18 176.229 423.383 177.439 423.471 178.659C424.032 187.167 417.305 189.168 417.305 189.168C417.305 189.168 420.085 197.732 417.538 205.601C414.991 213.47 419.393 220.414 419.393 220.414C419.393 220.414 427.733 244.487 426.354 245.878C424.974 247.27 427.48 251.668 427.48 251.668Z" fill="black"/>
<path d="M435.587 254.447C431.648 259.308 422.386 254.447 422.386 254.447C422.575 254.276 422.716 254.059 422.795 253.817C424.495 249.201 417.063 227.133 417.063 227.133C410.811 224.126 410.102 216.948 410.102 216.948L408.465 179.854L408.252 175.05L417.997 171.331L420.99 170.189L430.952 177.829C431.383 179.406 431.598 181.035 431.59 182.67C431.464 190.146 425.391 191.95 425.391 191.95C425.391 191.95 428.171 200.515 425.625 208.384C423.078 216.253 427.48 223.197 427.48 223.197C427.48 223.197 435.82 247.27 434.44 248.661C433.06 250.052 435.587 254.447 435.587 254.447Z" fill="#565171"/>
<path opacity="0.1" d="M431.591 182.665C429.588 182.379 425.535 179.969 423.451 178.659C422.656 178.16 422.149 177.841 422.149 177.841C422.149 177.841 420.064 172.055 414.504 176.454C412.696 177.921 410.655 179.075 408.465 179.867C407.627 180.163 406.763 180.379 405.885 180.513L406.397 171.359L412.883 167.423L417.997 171.343L420.99 170.201L430.952 177.841C431.382 179.413 431.597 181.036 431.591 182.665Z" fill="black"/>
<path d="M444.128 138.259C443.309 143.227 441.532 153.437 439.522 162.316C436.742 174.592 433.732 171.805 432.34 174.817C430.948 177.829 432.107 181.994 432.107 181.994C429.789 182.228 422.145 177.133 422.145 177.133C422.145 177.133 420.06 171.347 414.5 175.746C408.94 180.145 404.538 179.912 404.538 179.912C403.379 172.272 411.949 151.902 411.949 151.902C411.949 151.902 420.29 136.16 422.14 134.077C422.999 133.057 423.611 131.853 423.93 130.558C424.072 130.042 424.171 129.515 424.225 128.983C427.234 128.75 434.649 123.663 434.649 123.663L440.439 122.739V125.746C440.506 125.776 440.569 125.815 440.627 125.861C441.581 126.589 442.781 129.679 443.612 132.113C444.287 134.088 444.465 136.199 444.128 138.259Z" fill="#F68080"/>
<path opacity="0.1" d="M439.509 128.754C439.509 128.754 433.486 123.893 424.454 139.635C415.421 155.376 413.337 152.827 413.337 152.827C413.337 152.827 415.192 159.784 414.262 161.163C414.262 161.163 420.515 160.7 422.832 161.163C425.15 161.625 439.509 143.579 439.509 143.579C439.509 143.579 446.937 133.382 439.509 128.754Z" fill="black"/>
<path opacity="0.1" d="M439.292 127.825C439.292 127.825 433.269 122.964 424.237 138.705C415.204 154.447 413.12 151.898 413.12 151.898C413.12 151.898 420.302 159.767 422.615 160.233C424.929 160.7 439.292 142.638 439.292 142.638C439.292 142.638 446.703 132.457 439.292 127.825Z" fill="black"/>
<path opacity="0.1" d="M414.062 159.656C414.156 157.942 413.509 154.926 413.136 153.363C414.545 153.179 415.434 153.056 415.434 153.056L417.071 160.012L414.062 159.656Z" fill="black"/>
<path opacity="0.1" d="M437.9 113.245L426.784 119.727C427.252 120.411 427.683 121.118 428.077 121.847C428.719 121.977 429.372 122.043 430.026 122.043C432.995 122.043 434.379 118.929 436.168 116.834C436.041 115.152 437.405 115.107 437.9 113.245Z" fill="black"/>
<path d="M429.797 121.577C435.17 121.577 439.526 117.224 439.526 111.854C439.526 106.485 435.17 102.132 429.797 102.132C424.424 102.132 420.069 106.485 420.069 111.854C420.069 117.224 424.424 121.577 429.797 121.577Z" fill="#FDC2CC"/>
<path d="M414.762 122.935H336.414V181.942H414.762V122.935Z" fill="url(#paint8_linear)"/>
<path d="M413.005 124.257H338.17V180.62H413.005V124.257Z" fill="white"/>
<path opacity="0.2" d="M370.435 129.135H345.491V143.223H370.435V129.135Z" fill="#683CF9"/>
<path d="M405.684 129.135H376.4V132.388H405.684V129.135Z" fill="#E6E8EC"/>
<path d="M397.008 134.556H376.4V137.81H397.008V134.556Z" fill="#E6E8EC"/>
<path d="M405.684 139.974H376.4V143.227H405.684V139.974Z" fill="#E6E8EC"/>
<path d="M405.684 145.392H345.491V148.645H405.684V145.392Z" fill="#E6E8EC"/>
<path d="M405.684 150.814H345.491V154.067H405.684V150.814Z" fill="#E6E8EC"/>
<path d="M405.684 156.232H345.491V159.485H405.684V156.232Z" fill="#E6E8EC"/>
<path d="M400.804 161.653H345.491V164.906H400.804V161.653Z" fill="#E6E8EC"/>
<path d="M405.684 167.071H345.491V170.324H405.684V167.071Z" fill="#E6E8EC"/>
<path d="M405.684 172.489H345.491V175.742H405.684V172.489Z" fill="#E6E8EC"/>
<path opacity="0.1" d="M417.489 103.99C418.471 102.984 419.747 102.315 421.133 102.079C422.484 101.788 423.966 101.698 425.047 100.851C426.276 99.8731 426.816 98.0154 428.323 97.6021C428.978 97.4704 429.658 97.5243 430.284 97.7576C432.692 98.4834 434.829 99.9076 436.426 101.85C436.802 102.406 437.282 102.885 437.839 103.261C438.172 103.402 438.497 103.561 438.813 103.736C439.16 104.01 439.433 104.365 439.607 104.771C440.694 106.963 440.944 109.475 440.312 111.838C439.935 113.233 439.255 114.526 438.854 115.93C438.453 117.334 438.35 118.893 439.087 120.133C438.375 120.497 437.474 120.038 437.04 119.375C436.606 118.713 436.459 117.894 436.221 117.129C435.758 115.624 434.89 114.275 433.711 113.229C432.982 112.583 431.664 112.149 431.169 112.984C430.972 113.307 430.984 113.716 430.816 114.052C430.485 114.707 429.527 114.837 428.892 114.461C428.28 114.039 427.85 113.402 427.688 112.677C426.734 109.452 425.109 107.423 421.657 108.802C420.371 109.317 418.856 109.665 417.62 108.781C416.007 107.615 416.322 105.307 417.489 103.99Z" fill="black"/>
<path d="M417.489 103.756C418.471 102.75 419.747 102.081 421.133 101.845C422.484 101.555 423.966 101.465 425.047 100.617C426.276 99.6395 426.816 97.7817 428.323 97.3684C428.978 97.2368 429.658 97.2906 430.284 97.5239C432.692 98.2498 434.829 99.674 436.426 101.616C436.802 102.172 437.282 102.652 437.839 103.028C438.172 103.169 438.497 103.327 438.813 103.502C439.16 103.776 439.433 104.132 439.607 104.538C440.694 106.729 440.944 109.242 440.312 111.604C439.935 113 439.255 114.293 438.854 115.696C438.453 117.1 438.35 118.659 439.087 119.899C438.375 120.263 437.474 119.805 437.04 119.142C436.606 118.479 436.459 117.661 436.221 116.895C435.758 115.39 434.89 114.041 433.711 112.996C432.982 112.349 431.664 111.915 431.169 112.75C430.972 113.073 430.984 113.483 430.816 113.818C430.485 114.473 429.527 114.604 428.892 114.227C428.28 113.805 427.85 113.168 427.688 112.443C426.734 109.219 425.109 107.189 421.657 108.568C420.371 109.084 418.856 109.432 417.62 108.548C416.007 107.382 416.322 105.078 417.489 103.756Z" fill="#B96B6B"/>
<path opacity="0.05" d="M440.639 125.861H435.931C435.931 125.861 426.665 130.489 426.436 130.26C426.28 130.104 424.847 130.37 423.938 130.563C424.08 130.047 424.179 129.52 424.233 128.987C427.242 128.754 434.657 123.668 434.657 123.668L440.447 122.743V125.751C440.515 125.779 440.58 125.816 440.639 125.861Z" fill="black"/>
<path opacity="0.3" d="M437.728 261.661C437.714 262.505 437.617 263.345 437.437 264.17C437.437 264.17 418.193 265.557 412.191 265.094C409.296 264.873 408.063 263.793 407.842 262.758C407.58 263.944 408.629 265.516 412.191 265.79C418.214 266.252 437.437 264.865 437.437 264.865C437.663 263.813 437.761 262.737 437.728 261.661Z" fill="white"/>
<g opacity="0.05">
<path opacity="0.05" d="M412.305 175.497C409.181 177.952 406.417 178.979 404.603 179.388C404.603 179.56 404.636 179.732 404.661 179.895C404.661 179.895 409.062 180.129 414.623 175.73C415.484 174.992 416.502 174.46 417.599 174.175C416.387 173.614 414.656 173.651 412.305 175.497Z" fill="black"/>
<path opacity="0.05" d="M443.743 132.122C442.924 129.666 441.695 126.597 440.758 125.869C440.7 125.823 440.637 125.785 440.569 125.754C440.569 125.754 438.653 125.82 438.715 125.869C439.669 126.597 440.594 129.454 441.425 131.888C442.095 133.862 442.268 135.97 441.929 138.026C441.11 142.994 439.333 153.203 437.323 162.083C434.542 174.359 431.533 171.572 430.141 174.584C429.002 177.039 429.572 180.288 429.817 181.381C430.808 181.79 431.668 182.048 432.225 181.99C432.225 181.99 431.066 177.825 432.458 174.813C433.85 171.801 436.86 174.58 439.64 162.312C441.65 153.437 443.419 143.223 444.246 138.255C444.585 136.2 444.412 134.094 443.743 132.122Z" fill="black"/>
</g>
<path d="M417.055 160.004L414.062 159.657L391.132 156.993C377.236 152.594 386.035 145.883 386.035 145.883L395.301 154.681C397.974 155.217 408.456 153.969 413.153 153.367C414.561 153.183 415.45 153.06 415.45 153.06L417.055 160.004Z" fill="#FDC2CC"/>
<path d="M439.509 128.292C439.509 128.292 433.486 123.43 424.454 139.172C415.421 154.914 413.337 152.365 413.337 152.365C413.337 152.365 415.192 159.321 414.262 160.7C414.262 160.7 420.515 160.238 422.832 160.7C425.15 161.163 439.509 143.105 439.509 143.105C439.509 143.105 446.937 132.92 439.509 128.292Z" fill="#F68080"/>
</g>
<defs>
<linearGradient id="paint0_linear" x1="258.36" y1="244.389" x2="258.36" y2="46.1822" gradientUnits="userSpaceOnUse">
<stop stop-color="#808080" stop-opacity="0.25"/>
<stop offset="0.54" stop-color="#808080" stop-opacity="0.12"/>
<stop offset="1" stop-color="#808080" stop-opacity="0.1"/>
</linearGradient>
<linearGradient id="paint1_linear" x1="48929.3" y1="136322" x2="48929.3" y2="56250.9" gradientUnits="userSpaceOnUse">
<stop stop-color="#808080" stop-opacity="0.25"/>
<stop offset="0.54" stop-color="#808080" stop-opacity="0.12"/>
<stop offset="1" stop-color="#808080" stop-opacity="0.1"/>
</linearGradient>
<linearGradient id="paint2_linear" x1="15039.3" y1="111660" x2="15039.3" y2="62766" gradientUnits="userSpaceOnUse">
<stop stop-color="#808080" stop-opacity="0.25"/>
<stop offset="0.54" stop-color="#808080" stop-opacity="0.12"/>
<stop offset="1" stop-color="#808080" stop-opacity="0.1"/>
</linearGradient>
<linearGradient id="paint3_linear" x1="52344.6" y1="63327.3" x2="52344.6" y2="48069" gradientUnits="userSpaceOnUse">
<stop stop-color="#808080" stop-opacity="0.25"/>
<stop offset="0.54" stop-color="#808080" stop-opacity="0.12"/>
<stop offset="1" stop-color="#808080" stop-opacity="0.1"/>
</linearGradient>
<linearGradient id="paint4_linear" x1="14397.1" y1="17786.1" x2="17781.1" y2="17786.1" gradientUnits="userSpaceOnUse">
<stop stop-color="#808080" stop-opacity="0.25"/>
<stop offset="0.54" stop-color="#808080" stop-opacity="0.12"/>
<stop offset="1" stop-color="#808080" stop-opacity="0.1"/>
</linearGradient>
<linearGradient id="paint5_linear" x1="-45944.6" y1="148398" x2="-45944.6" y2="73090.3" gradientUnits="userSpaceOnUse">
<stop stop-color="#808080" stop-opacity="0.25"/>
<stop offset="0.54" stop-color="#808080" stop-opacity="0.12"/>
<stop offset="1" stop-color="#808080" stop-opacity="0.1"/>
</linearGradient>
<linearGradient id="paint6_linear" x1="8799.53" y1="16863.1" x2="8799.53" y2="14313.1" gradientUnits="userSpaceOnUse">
<stop stop-color="#808080" stop-opacity="0.25"/>
<stop offset="0.54" stop-color="#808080" stop-opacity="0.12"/>
<stop offset="1" stop-color="#808080" stop-opacity="0.1"/>
</linearGradient>
<linearGradient id="paint7_linear" x1="71139.1" y1="121567" x2="71139.1" y2="49664.4" gradientUnits="userSpaceOnUse">
<stop stop-color="#808080" stop-opacity="0.25"/>
<stop offset="0.54" stop-color="#808080" stop-opacity="0.12"/>
<stop offset="1" stop-color="#808080" stop-opacity="0.1"/>
</linearGradient>
<linearGradient id="paint8_linear" x1="72205.5" y1="26358.9" x2="72205.5" y2="17850.2" gradientUnits="userSpaceOnUse">
<stop stop-color="#808080" stop-opacity="0.25"/>
<stop offset="0.54" stop-color="#808080" stop-opacity="0.12"/>
<stop offset="1" stop-color="#808080" stop-opacity="0.1"/>
</linearGradient>
<clipPath id="clip0">
<rect width="445" height="323" fill="white"/>
</clipPath>
</defs>
</svg>
