<svg width="27" height="27" fill="none" xmlns="http://www.w3.org/2000/svg"><path d="M23.046 3.954A13.412 13.412 0 0013.5 0a13.412 13.412 0 00-9.546 3.954A13.411 13.411 0 000 13.5c0 3.606 1.404 6.996 3.954 9.546A13.412 13.412 0 0013.5 27c3.606 0 6.996-1.404 9.546-3.954A13.412 13.412 0 0027 13.5c0-3.606-1.404-6.996-3.954-9.546zm-.113 16.647a16.817 16.817 0 00-2.528-1.412c.387-1.51.617-3.148.674-4.845h4.203a11.748 11.748 0 01-2.349 6.257zM1.718 14.344h4.203a22.69 22.69 0 00.674 4.845c-.876.394-1.721.866-2.529 1.412a11.748 11.748 0 01-2.348-6.257zm2.348-7.945a16.825 16.825 0 002.53 1.413 22.686 22.686 0 00-.675 4.844H1.718A11.748 11.748 0 014.066 6.4zm14.951-2.245a11.4 11.4 0 00-.998-1.567 11.853 11.853 0 013.796 2.53c-.614.404-1.25.759-1.907 1.065-.258-.72-.555-1.4-.89-2.028zm-.683 2.658c-1.54.516-3.166.782-4.834.782a15.19 15.19 0 01-4.834-.782c1.08-3.072 2.862-5.125 4.834-5.125 1.972 0 3.755 2.053 4.834 5.125zM7.61 12.656c.055-1.494.257-2.922.576-4.225a16.85 16.85 0 005.314.85 16.85 16.85 0 005.314-.85c.319 1.303.52 2.73.576 4.225H7.61zm11.78 1.688a21.157 21.157 0 01-.576 4.225 16.864 16.864 0 00-5.314-.85 16.84 16.84 0 00-5.313.85 21.149 21.149 0 01-.577-4.225h11.78zM7.983 4.154a15.175 15.175 0 00-.891 2.028 15.13 15.13 0 01-1.907-1.064 11.851 11.851 0 013.796-2.531c-.355.464-.69.987-.998 1.567zm-.89 16.664c.257.72.554 1.4.89 2.028.309.58.643 1.103.998 1.567a11.853 11.853 0 01-3.795-2.53c.613-.403 1.25-.758 1.906-1.065zm1.573-.63a15.174 15.174 0 014.834-.782c1.668 0 3.293.266 4.834.783-1.08 3.071-2.862 5.123-4.834 5.123-1.972 0-3.755-2.052-4.834-5.123zm10.351 2.658c.336-.628.633-1.308.89-2.028.657.307 1.294.662 1.907 1.064a11.851 11.851 0 01-3.795 2.531c.355-.464.69-.987.998-1.567zm2.062-10.19a22.693 22.693 0 00-.674-4.844 16.823 16.823 0 002.529-1.413 11.748 11.748 0 012.348 6.257h-4.203z" fill="#fff"/></svg>