<svg width="38" height="38" viewBox="0 0 38 38" fill="none" xmlns="http://www.w3.org/2000/svg">
<rect width="38" height="38" rx="19" fill="url(#paint0_linear)"/>
<g clip-path="url(#clip0)">
<path d="M26.3569 15.605C25.9504 14.7734 25.3529 14.069 24.581 13.5113C23.2126 12.5225 21.2827 12 19 12C16.7173 12 14.7874 12.5225 13.419 13.5112C12.6471 14.069 12.0496 14.7734 11.6431 15.6049C11.2164 16.4778 11 17.4939 11 18.625C11 21.0714 12.0089 22.9429 13.9254 24.0686C13.6603 25.0039 13.3163 25.5708 13.3132 25.5758L12.72 26.5296L13.8436 26.5313H13.8469C13.8501 26.5313 13.8534 26.5313 13.8568 26.5313C14.2114 26.5313 15.8383 26.4548 17.1611 25.1278C17.7442 25.209 18.3612 25.25 19 25.25C21.2827 25.25 23.2126 24.7274 24.581 23.7388C25.3529 23.181 25.9504 22.4766 26.3569 21.645C26.7836 20.7721 27 19.756 27 18.625C27 17.4939 26.7836 16.4778 26.3569 15.605ZM23.8489 22.7255C22.6949 23.5593 21.0182 24 19 24C18.3066 24 17.6449 23.9473 17.0333 23.8435L16.6853 23.7844L16.455 24.0518C15.9602 24.6266 15.389 24.9334 14.904 25.0968C15.03 24.7571 15.1575 24.3493 15.2604 23.8848L15.3665 23.406L14.9267 23.1891C13.1506 22.313 12.25 20.7773 12.25 18.625C12.25 16.8155 12.8896 15.4359 14.1511 14.5245C15.3051 13.6907 16.9818 13.25 19 13.25C21.0182 13.25 22.6949 13.6907 23.8489 14.5245C25.1104 15.4359 25.75 16.8155 25.75 18.625C25.75 20.4345 25.1104 21.814 23.8489 22.7255Z" fill="white"/>
<path d="M19.625 21.5H18.375V22.75H19.625V21.5Z" fill="white"/>
<path d="M19.2503 14.5778C18.5316 14.4991 17.8161 14.7262 17.2866 15.2008C16.7668 15.6667 16.4688 16.3338 16.4688 17.0311H17.7188C17.7188 16.6836 17.8616 16.3641 18.121 16.1316C18.3902 15.8902 18.743 15.7797 19.1141 15.8204C19.6866 15.8831 20.1478 16.3391 20.2108 16.9047C20.2615 17.3602 20.058 17.8041 19.6798 18.0632C18.8432 18.6364 18.3438 19.5707 18.3438 20.5624H19.5938C19.5938 19.9832 19.89 19.4344 20.3863 19.0944C21.1463 18.5737 21.555 17.6817 21.4531 16.7664C21.3259 15.6242 20.3995 14.7037 19.2503 14.5778Z" fill="white"/>
</g>
<defs>
<linearGradient id="paint0_linear" x1="0" y1="0" x2="39.3712" y2="2.12311" gradientUnits="userSpaceOnUse">
<stop stop-color="#683CF9"/>
<stop offset="1" stop-color="#009EE7"/>
</linearGradient>
<clipPath id="clip0">
<rect width="16" height="14.5313" fill="white" transform="translate(11 12)"/>
</clipPath>
</defs>
</svg>
