<svg width="38" height="38" viewBox="0 0 38 38" fill="none" xmlns="http://www.w3.org/2000/svg">
<rect width="38" height="38" rx="19" fill="url(#paint0_linear)"/>
<g clip-path="url(#clip0)">
<path d="M25.7162 21.5022C24.7366 21.5022 23.7747 21.349 22.8633 21.0478C22.4167 20.8954 21.8676 21.0352 21.595 21.3151L19.796 22.6732C17.7096 21.5595 16.4245 20.2748 15.326 18.204L16.6441 16.4519C16.9865 16.1099 17.1094 15.6103 16.9622 15.1415C16.6597 14.2253 16.506 13.2639 16.506 12.2839C16.5061 11.576 15.9301 11 15.2222 11H12.2839C11.576 11 11 11.576 11 12.2839C11 20.3985 17.6016 27 25.7162 27C26.4241 27 27 26.424 27 25.7161V22.786C27 22.0781 26.424 21.5022 25.7162 21.5022Z" fill="white"/>
</g>
<defs>
<linearGradient id="paint0_linear" x1="0" y1="0" x2="39.3712" y2="2.12311" gradientUnits="userSpaceOnUse">
<stop stop-color="#683CF9"/>
<stop offset="1" stop-color="#009EE7"/>
</linearGradient>
<clipPath id="clip0">
<rect width="16" height="16" fill="white" transform="translate(11 11)"/>
</clipPath>
</defs>
</svg>
