<svg width="38" height="38" viewBox="0 0 38 38" fill="none" xmlns="http://www.w3.org/2000/svg">
<rect width="38" height="38" rx="19" fill="url(#paint0_linear)"/>
<path d="M18.0855 11.0511C14.4768 11.4537 11.546 14.3188 11.0714 17.9186C10.399 23.0199 14.5695 27.3597 19.6211 26.9764C21.4793 26.8354 23.2187 26.005 24.5816 24.7339L24.6986 24.6248C24.8333 24.4992 24.8406 24.2883 24.7151 24.1537L24.2602 23.666C24.1347 23.5313 23.9238 23.524 23.7891 23.6495L23.5453 23.8769C22.0293 25.2904 19.9483 25.9264 17.8489 25.5688C14.8734 25.0621 12.586 22.536 12.3537 19.5266C12.0465 15.5471 15.2565 12.2216 19.1976 12.3362C22.8316 12.4418 25.6667 15.5429 25.6667 19.1785V19.6666C25.6667 20.4458 24.9952 21.0708 24.2004 20.9935C23.5077 20.9261 23 20.3036 23 19.6076V16.6667C23 16.4826 22.8508 16.3333 22.6667 16.3333H22C21.8662 16.3333 21.7525 16.4133 21.6994 16.5272C21.0287 15.7955 20.0685 15.3333 19 15.3333C16.9782 15.3333 15.3333 16.9782 15.3333 19C15.3333 21.0218 16.9782 22.6667 19 22.6667C20.2736 22.6667 21.3966 22.0133 22.0541 21.0248C22.5492 21.8521 23.469 22.3974 24.516 22.3272C25.9317 22.2324 27 20.9914 27 19.5725V19C27 14.2876 22.9041 10.5136 18.0855 11.0511ZM19 21.3333C17.7135 21.3333 16.6667 20.2865 16.6667 19C16.6667 17.7135 17.7135 16.6666 19 16.6666C20.2865 16.6666 21.3333 17.7135 21.3333 19C21.3333 20.2865 20.2865 21.3333 19 21.3333Z" fill="white"/>
<defs>
<linearGradient id="paint0_linear" x1="0" y1="0" x2="39.3712" y2="2.12311" gradientUnits="userSpaceOnUse">
<stop stop-color="#683CF9"/>
<stop offset="1" stop-color="#009EE7"/>
</linearGradient>
</defs>
</svg>
