<svg width="68" height="69" viewBox="0 0 68 69" fill="none" xmlns="http://www.w3.org/2000/svg">
<circle cx="36" cy="32" r="32" fill="url(#paint0_linear)"/>
<g clip-path="url(#clip0)">
<path d="M32.2334 29.6592C32.5159 29.6592 32.792 29.5442 32.9929 29.3444C33.1927 29.1446 33.3076 28.8675 33.3076 28.585C33.3076 28.3014 33.1927 28.0253 32.9929 27.8255C32.7931 27.6257 32.5159 27.5107 32.2334 27.5107C31.9498 27.5107 31.6737 27.6257 31.4729 27.8255C31.273 28.0253 31.1592 28.3024 31.1592 28.585C31.1592 28.8675 31.273 29.1446 31.4729 29.3444C31.6737 29.5442 31.9498 29.6592 32.2334 29.6592Z" fill="#455CF3"/>
<path d="M50.0586 59.1102C47.7028 59.1102 45.7281 60.7677 45.2362 62.9774H39.5312V55.6679H40.0831C45.5836 55.6679 50.0586 51.1929 50.0586 45.6924C50.0586 43.0523 49.0372 40.5637 47.1827 38.6852C45.9297 37.4161 44.3934 36.5245 42.7151 36.0683H48.125C48.7183 36.0683 49.1992 35.5874 49.1992 34.9941V22.9005C51.1699 22.4172 52.6367 20.6365 52.6367 18.519C52.6367 16.0313 50.6128 14.0073 48.125 14.0073C45.6372 14.0073 43.6133 16.0313 43.6133 18.519C43.6133 20.6367 45.0801 22.4172 47.0508 22.9005V33.9198H40.4474C39.595 32.022 38.2182 30.3711 36.4616 29.1959C35.9684 28.866 35.3012 28.9984 34.9714 29.4914C34.6415 29.9845 34.7739 30.6517 35.2669 30.9816C37.3257 32.3588 38.7406 34.5419 39.149 36.9707C39.2351 37.4824 39.6747 37.8595 40.1936 37.8667C44.4485 37.9256 47.9102 41.4361 47.9102 45.6924C47.9102 50.0083 44.399 53.5195 40.0831 53.5195H12.492C9.51328 53.5194 7.08984 51.096 7.08984 48.1172C7.08984 45.7776 8.5829 43.7152 10.8052 42.9851C11.3071 42.8202 11.6147 42.3149 11.5304 41.7934C11.4688 41.4113 11.4375 41.0219 11.4375 40.636C11.4375 36.6626 14.6702 33.43 18.6436 33.43C19.597 33.43 20.5235 33.6134 21.3974 33.9751C21.8754 34.173 22.4264 34.002 22.7084 33.5686C24.0312 31.5367 26.1459 30.1038 28.5102 29.6373C29.0922 29.5225 29.471 28.9574 29.3561 28.3754C29.2412 27.7934 28.6767 27.4148 28.0943 27.5295C25.4445 28.0523 23.0489 29.5532 21.4039 31.6958C20.5135 31.4205 19.5884 31.2815 18.6437 31.2815C16.1184 31.2815 13.8241 32.2877 12.1394 33.9198H7.94922V23.7737C10.1589 23.2817 11.8164 21.307 11.8164 18.9513C11.8164 16.2267 9.59965 14.0099 6.875 14.0099C4.15035 14.0099 1.93359 16.2267 1.93359 18.9513C1.93359 21.3071 3.59111 23.2817 5.80078 23.7737V34.994C5.80078 35.5873 6.28171 36.0682 6.875 36.0682H10.4828C9.72318 37.42 9.28909 38.9782 9.28909 40.636C9.28909 40.8466 9.29629 41.0578 9.31058 41.2689C6.66477 42.4938 4.94141 45.1455 4.94141 48.1172C4.94141 52.2806 8.32863 55.6678 12.492 55.6678H15.4688V62.9773H9.76379C9.2718 60.7676 7.29706 59.1101 4.94141 59.1101C2.21676 59.1101 0 61.3269 0 64.0515C0 66.7762 2.21676 68.9929 4.94141 68.9929C7.29717 68.9929 9.2719 67.3354 9.76379 65.1257H16.543C17.1363 65.1257 17.6172 64.6448 17.6172 64.0515V55.6678H26.4258V60.0998C24.4551 60.5831 22.9883 62.3637 22.9883 64.4812C22.9883 66.969 25.0122 68.9929 27.5 68.9929C29.9878 68.9929 32.0117 66.969 32.0117 64.4812C32.0117 62.3636 30.5449 60.5831 28.5742 60.0998V55.6678H37.3828V64.0515C37.3828 64.6448 37.8637 65.1257 38.457 65.1257H45.2362C45.7282 67.3354 47.7029 68.9929 50.0586 68.9929C52.7832 68.9929 55 66.7762 55 64.0515C55 61.3269 52.7832 59.1102 50.0586 59.1102ZM45.7617 18.5189C45.7617 17.2158 46.8219 16.1557 48.125 16.1557C49.4281 16.1557 50.4883 17.2158 50.4883 18.5189C50.4883 19.8221 49.4281 20.8822 48.125 20.8822C46.8219 20.8822 45.7617 19.8221 45.7617 18.5189ZM4.08203 18.9513C4.08203 17.4113 5.335 16.1583 6.875 16.1583C8.415 16.1583 9.66797 17.4113 9.66797 18.9513C9.66797 20.4913 8.415 21.7443 6.875 21.7443C5.335 21.7443 4.08203 20.4913 4.08203 18.9513ZM4.94141 66.8446C3.40141 66.8446 2.14844 65.5916 2.14844 64.0516C2.14844 62.5116 3.40141 61.2587 4.94141 61.2587C6.48141 61.2587 7.73438 62.5116 7.73438 64.0516C7.73438 65.5916 6.48141 66.8446 4.94141 66.8446ZM29.8633 64.4813C29.8633 65.7845 28.8031 66.8446 27.5 66.8446C26.1969 66.8446 25.1367 65.7845 25.1367 64.4813C25.1367 63.1782 26.1969 62.118 27.5 62.118C28.8031 62.118 29.8633 63.1782 29.8633 64.4813ZM50.0586 66.8446C48.5186 66.8446 47.2656 65.5916 47.2656 64.0516C47.2656 62.5116 48.5186 61.2587 50.0586 61.2587C51.5986 61.2587 52.8516 62.5116 52.8516 64.0516C52.8516 65.5916 51.5986 66.8446 50.0586 66.8446Z" fill="#455CF3"/>
</g>
<defs>
<linearGradient id="paint0_linear" x1="61" y1="12.5" x2="15.5" y2="55.5" gradientUnits="userSpaceOnUse">
<stop stop-color="#6143F8" stop-opacity="0.32"/>
<stop offset="1" stop-color="#0897E8" stop-opacity="0"/>
</linearGradient>
<clipPath id="clip0">
<rect width="55" height="55" fill="white" transform="translate(0 14)"/>
</clipPath>
</defs>
</svg>
