<svg width="20" height="20" fill="none" xmlns="http://www.w3.org/2000/svg"><path d="M18.413 12.696c-.662-.583-1.466-1.086-2.389-1.496a.781.781 0 10-.634 1.428c.778.346 1.448.763 1.992 1.242a3.115 3.115 0 011.055 2.34v1.446c0 .431-.35.782-.78.782H2.343a.782.782 0 01-.781-.782v-1.445c0-.899.384-1.752 1.055-2.341.79-.694 3.089-2.307 7.382-2.307a5.788 5.788 0 005.781-5.782A5.788 5.788 0 0010 0a5.788 5.788 0 00-5.781 5.781c0 1.864.886 3.524 2.26 4.582-2.513.552-4.076 1.616-4.893 2.333A4.678 4.678 0 000 16.21v1.445A2.346 2.346 0 002.344 20h15.312A2.346 2.346 0 0020 17.656v-1.445c0-1.348-.578-2.63-1.587-3.515zM5.781 5.78A4.224 4.224 0 0110 1.563a4.224 4.224 0 014.219 4.218A4.224 4.224 0 0110 10a4.224 4.224 0 01-4.219-4.219z" fill="#fff"/></svg>