<svg width="26" height="26" fill="none" xmlns="http://www.w3.org/2000/svg"><path d="M17.972 14.593a5.533 5.533 0 00-1.412-.884.461.461 0 10-.375.844c.46.204.856.451 1.177.733.397.349.624.853.624 1.384v.854a.462.462 0 01-.462.462H8.476a.462.462 0 01-.462-.462v-.854c0-.531.227-1.035.624-1.384.466-.41 1.825-1.363 4.362-1.363a3.42 3.42 0 003.416-3.416A3.42 3.42 0 0013 7.091a3.42 3.42 0 00-3.416 3.416c0 1.101.524 2.082 1.335 2.707-1.485.327-2.408.955-2.89 1.379a2.764 2.764 0 00-.938 2.077v.854c0 .764.621 1.385 1.385 1.385h9.048c.764 0 1.385-.621 1.385-1.385v-.854c0-.797-.342-1.554-.937-2.077zm-7.465-4.086A2.496 2.496 0 0113 8.014a2.496 2.496 0 012.493 2.493A2.496 2.496 0 0113 13a2.496 2.496 0 01-2.493-2.493z" fill="#fff"/><circle cx="13" cy="13" r="12.35" stroke="#fff" stroke-width="1.3"/></svg>