<svg width="263" height="73" xmlns="http://www.w3.org/2000/svg">
    <title>Group 10</title>
    <g fill="none" fill-rule="evenodd">
        <path d="M54.718624 12.7244072c.0423342-.0029381.0854596-.0044072.129376-.0044072h3.136c.4266688 0 .7786653.1386653 1.056.416.2773347.2773347.416.6293312.416 1.056v32.576c0 7.5947046-3.6479635 11.392-10.944 11.392h-1.216c-.4266688 0-.7786653-.1386653-1.056-.416-.2773347-.2773347-.416-.6293312-.416-1.056v-2.176c0-.4266688.1386653-.7786653.416-1.056.2773347-.2773347.6293312-.416 1.056-.416h.896c2.0906771 0 3.4773299-.533328 4.16-1.6.6826701-1.066672 1.024-2.6453229 1.024-4.736v-27.52h-5.2551712c-.6669102 0-1.2171029-.1386653-1.6505946-.416-.4334916-.2773347-.6502342-.6293312-.6502342-1.056v-3.456c0-.4266688.2167426-.7893318.6502342-1.088.4334917-.2986682.9836844-.448 1.6505946-.448h6.4023063c.0661472 0 .1313101.0014691.1954889.0044072zM80.408 46.64c-4.0533536 0-7.1893222-1.3119869-9.408-3.936-2.2186778-2.6240131-3.328-6.1119782-3.328-10.464V14.192c0-.4266688.1386653-.7786653.416-1.056.2773347-.2773347.6293312-.416 1.056-.416h3.2c.4266688 0 .7786653.1386653 1.056.416.2773347.2773347.416.6293312.416 1.056V31.92c0 6.3573651 2.7733056 9.536 8.32 9.536 2.6880134 0 4.8213254-.8426582 6.4-2.528 1.5786746-1.6853418 2.368-4.0213184 2.368-7.008V14.192c0-.4266688.1386653-.7786653.416-1.056.2773347-.2773347.6293312-.416 1.056-.416h3.2c.4266688 0 .7679987.1386653 1.024.416s.384.6293312.384 1.056v30.336c0 .4266688-.1279987.7786653-.384 1.056-.2560013.2773347-.5973312.416-1.024.416h-3.008c-.4266688 0-.7786653-.1386653-1.056-.416-.2773347-.2773347-.416-.6293312-.416-1.056v-2.816c-1.1946726 1.6213414-2.6453248 2.8479958-4.352 3.68-1.7066752.8320042-3.8186541 1.248-6.336 1.248zm34.632 0c-2.986682 0-5.493323-.4799952-7.52-1.44-2.026677-.9600048-3.541328-2.0586605-4.544-3.296-1.002672-1.2373395-1.504-2.2613293-1.504-3.072 0-.4266688.159998-.7573322.48-.992.320002-.2346678.650665-.352.992-.352h2.88c.426669 0 .810665.2133312 1.152.64 1.024005 1.1946726 2.133327 2.1333299 3.328 2.816 1.194673.6826701 2.794657 1.024 4.8 1.024 2.218678 0 4.021326-.437329 5.408-1.312 1.386674-.874671 2.08-2.0799923 2.08-3.616 0-1.0240051-.287997-1.8666634-.864-2.528s-1.557326-1.2373309-2.944-1.728c-1.386674-.4906691-3.44532-1.0346637-6.176-1.632-3.712019-.8106707-6.346659-1.9839923-7.904-3.52s-2.336-3.5199878-2.336-5.952c0-1.6213414.479995-3.1679926 1.44-4.64.960005-1.4720074 2.367991-2.6666621 4.224-3.584 1.856009-.9173379 4.08532-1.376 6.688-1.376 2.73068 0 5.05599.4479955 6.976 1.344 1.92001.8960045 3.359995 1.9519939 4.32 3.168.960005 1.2160061 1.44 2.2293293 1.44 3.04 0 .3840019-.138665.7039987-.416.96s-.607998.384-.992.384h-2.688c-.512003 0-.938665-.2133312-1.28-.64-.68267-.8106707-1.269331-1.4399978-1.76-1.888-.490669-.4480022-1.194662-.842665-2.112-1.184-.917338-.341335-2.079993-.512-3.488-.512-2.04801 0-3.626661.437329-4.736 1.312-1.109339.874671-1.664 2.015993-1.664 3.424 0 .8960045.234664 1.6533302.704 2.272.469336.6186698 1.375993 1.1839974 2.72 1.696 1.344007.5120026 3.295987 1.0453306 5.856 1.6 4.053354.8533376 6.922658 2.079992 8.608 3.68 1.685342 1.600008 2.528 3.637321 2.528 6.112 0 1.8346758-.533328 3.4986592-1.6 4.992s-2.634656 2.6666624-4.704 3.52c-2.069344.8533376-4.533319 1.28-7.392 1.28zm34.048-.64c-6.741367 0-10.112-3.7546291-10.112-11.264V17.84h-4.992c-.426669 0-.778665-.1386653-1.056-.416s-.416-.6293312-.416-1.056v-2.176c0-.4266688.138665-.7786653.416-1.056.277335-.2773347.629331-.416 1.056-.416h4.992V2.032c0-.4266688.138665-.77866528.416-1.056.277335-.27733472.629331-.416 1.056-.416h3.008c.426669 0 .778665.13866528 1.056.416s.416.6293312.416 1.056V12.72h7.936c.426669 0 .778665.1386653 1.056.416s.416.6293312.416 1.056v2.176c0 .4266688-.138665.7786653-.416 1.056-.277335.2773347-.629331.416-1.056.416h-7.936v16.448c0 2.133344.362663 3.7439946 1.088 4.832.725337 1.0880054 1.919992 1.632 3.584 1.632h3.904c.426669 0 .778665.1386653 1.056.416s.416.6293312.416 1.056v2.304c0 .4266688-.138665.7786653-.416 1.056-.277335.2773347-.629331.416-1.056.416h-4.416z"
              fill="#0A1E46"/>
        <path d="M173 46c-.640003 0-1.130665-.1386653-1.472-.416-.341335-.2773347-.618666-.6719974-.832-1.184l-11.968-29.696-.128-.576c0-.3840019.138665-.7146653.416-.992.277335-.2773347.607998-.416.992-.416h5.184c.810671 0 1.365332.4053293 1.664 1.216l8.512 22.464 8.512-22.464c.128001-.2986682.330665-.5759987.608-.832s.629331-.384 1.056-.384h5.248c.341335 0 .650665.1386653.928.416s.416.6079981.416.992c0 .2560013-.021333.4479994-.064.576L180.04 44.4c-.213334.5120026-.490665.9066653-.832 1.184-.341335.2773347-.831997.416-1.472.416H173zm25.56 12.16c-.426669 0-.789332-.1386653-1.088-.416-.298668-.2773347-.448-.6506643-.448-1.12V14.256c0-.4693357.149332-.8426653.448-1.12.298668-.2773347.661331-.416 1.088-.416h5.056c.469336 0 .842665.1386653 1.12.416.277335.2773347.416.6506643.416 1.12v2.56c2.389345-3.1573491 5.802644-4.736 10.24-4.736 4.309355 0 7.615988 1.3546531 9.92 4.064s3.541332 6.367977 3.712 10.976c.042667.5120026.064 1.2586618.064 2.24 0 1.0240051-.021333 1.7919974-.064 2.304-.170668 4.4800224-1.407988 8.0959862-3.712 10.848-2.304012 2.7520138-5.610645 4.128-9.92 4.128s-7.594655-1.5146515-9.856-4.544v14.528c0 .4693357-.138665.8426653-.416 1.12-.277335.2773347-.650664.416-1.12.416h-5.44zm14.464-18.368c4.608023 0 7.061332-2.837305 7.36-8.512.042667-.4266688.064-1.0666624.064-1.92 0-.8533376-.021333-1.4933312-.064-1.92-.298668-5.674695-2.751977-8.512-7.36-8.512-2.474679 0-4.309327.7893254-5.504 2.368-1.194673 1.5786746-1.855999 3.5199885-1.984 5.824l-.064 2.432.064 2.496c.085334 2.133344.757327 3.9573258 2.016 5.472 1.258673 1.5146742 3.082655 2.272 5.472 2.272zm34.84 6.848c-3.200016 0-5.887989-.4799952-8.064-1.44-2.176011-.9600048-3.786661-2.0906602-4.832-3.392-1.045339-1.3013398-1.568-2.4213286-1.568-3.36 0-.4266688.149332-.7679987.448-1.024.298668-.2560013.639998-.384 1.024-.384h5.056c.384002 0 .703999.1493318.96.448.170668.1280006.618663.5119968 1.344 1.152.725337.6826701 1.578662 1.2159981 2.56 1.6.981338.3840019 2.069327.576 3.264.576 1.706675 0 3.114661-.3413299 4.224-1.024 1.109339-.6826701 1.664-1.6213274 1.664-2.816 0-.8960045-.245331-1.6213306-.736-2.176-.490669-.5546694-1.375994-1.0559978-2.656-1.504-1.280006-.4480022-3.178654-.9279974-5.696-1.44-3.626685-.7680038-6.303991-1.9413254-8.032-3.52-1.728009-1.5786746-2.592-3.6693203-2.592-6.272 0-1.7066752.511995-3.3173258 1.536-4.832s2.549323-2.7519952 4.576-3.712c2.026677-.9600048 4.447986-1.44 7.264-1.44 2.858681 0 5.333323.4586621 7.424 1.376 2.090677.9173379 3.679995 2.005327 4.768 3.264 1.088005 1.258673 1.632 2.3786618 1.632 3.36 0 .3840019-.138665.7146653-.416.992-.277335.2773347-.607998.416-.992.416h-4.736c-.341335 0-.703998-.1493318-1.088-.448-.298668-.2133344-.767997-.6186637-1.408-1.216-.640003-.5973363-1.386662-1.066665-2.24-1.408-.853338-.341335-1.855994-.512-3.008-.512-1.578675 0-2.805329.3413299-3.68 1.024-.874671.6826701-1.312 1.5786611-1.312 2.688 0 .8106707.213331 1.4719974.64 1.984s1.25866 1.0026643 2.496 1.472 3.093321.9386643 5.568 1.408c4.09602.8106707 7.029324 2.0693248 8.8 3.776 1.770676 1.7066752 2.656 3.797321 2.656 6.272 0 2.9866816-1.30132 5.4186573-3.904 7.296-2.60268 1.8773427-6.250643 2.816-10.944 2.816z"
              fill="#0071FF"/>
        <path d="M34.2389057 33.578048c-.165553-.3520319-.5221012-.5779699-.9148605-.5779699H21.3578454l11.8096405-18.465036c.1969121-.3079694.2089824-.6979702.0313592-1.0169552C33.0211034 13.1980473 32.681714 13 32.3141604 13H16.1573056c-.3827007 0-.7321487.2139848-.9037369.5530089L.10648034 43.5530675c-.15655936.309024-.13940055.6769935.04437623.971955.18484182.2949615.50896584.4749619.8593606.4749619H11.3940196L.07914458 71.6120285c-.1928887.45504-.02118226.9829707.4038829 1.2410181C.64656872 72.9520702.82833378 73 1.00915215 73c.2898064 0 .57558936-.1230471.77356654-.3549616L34.0965467 34.6449251c.2533587-.2978912.3079119-.7139077.142359-1.0668771z"
              fill="#0071FF" fill-rule="nonzero"/>
    </g>
</svg>