<svg width="20" height="15" viewBox="0 0 20 15" fill="none" xmlns="http://www.w3.org/2000/svg">
<path d="M3.67571 15H16.3229C18.3586 15 19.9993 13.4057 19.9993 11.4286V3.57143C20 1.59571 18.3579 0 16.3243 0H3.67571C1.64214 0 0 1.59571 0 3.57214V11.4293C0 13.4057 1.64214 15 3.67571 15ZM18.5293 11.4286C18.5293 12.62 17.5486 13.5714 16.3221 13.5714H3.67571C2.45071 13.5714 1.47 12.62 1.47 11.4286V3.57143C1.47 3.14214 1.61714 2.73786 1.83786 2.38071L8.52929 8.095C8.94571 8.45214 9.46071 8.64286 10 8.64286C10.515 8.64286 11.055 8.47643 11.445 8.11929L18.1371 2.405C18.3579 2.73857 18.5043 3.14286 18.5043 3.59571V11.4293H18.5293V11.4286ZM16.3243 1.42929C16.5457 1.42929 16.765 1.45286 16.9621 1.52429L10.4914 7.02429C10.2214 7.26286 9.805 7.26286 9.51 7.02429L3.03929 1.52429C3.235 1.47714 3.45571 1.42929 3.67643 1.42929H16.3243Z" fill="#2B3E50"/>
</svg>
