<svg width="20" height="15" fill="none" xmlns="http://www.w3.org/2000/svg"><path d="M3.676 15h12.647c2.036 0 3.676-1.594 3.676-3.571V3.57C20 1.596 18.358 0 16.324 0H3.676C1.642 0 0 1.596 0 3.572v7.857C0 13.406 1.642 15 3.676 15zm14.853-3.571c0 1.191-.98 2.142-2.207 2.142H3.676c-1.225 0-2.206-.951-2.206-2.142V3.57c0-.429.147-.833.368-1.19l6.691 5.714c.417.357.932.548 1.471.548.515 0 1.055-.167 1.445-.524l6.692-5.714c.22.334.367.738.367 1.19v7.834h.025zm-2.205-10c.222 0 .441.024.638.095l-6.47 5.5c-.27.239-.687.239-.982 0l-6.47-5.5c.195-.047.416-.095.636-.095h12.648z" fill="#10C9FF"/></svg>