<svg width="95" height="12" viewBox="0 0 95 12" fill="none" xmlns="http://www.w3.org/2000/svg">
<g clip-path="url(#clip0)">
<path d="M93.1436 10.9328V11.1336H93.3307C93.3658 11.1342 93.4005 11.1253 93.431 11.108C93.4432 11.0994 93.453 11.0878 93.4596 11.0744C93.4662 11.061 93.4693 11.0461 93.4686 11.0312C93.4693 11.0165 93.4661 11.002 93.4596 10.9889C93.453 10.9758 93.4431 10.9646 93.431 10.9564C93.4008 10.9382 93.3659 10.9293 93.3307 10.9308H93.1436V10.9328ZM93.3327 10.7907C93.4129 10.7858 93.4923 10.8089 93.5574 10.856C93.5835 10.8774 93.6042 10.9046 93.6179 10.9355C93.6316 10.9663 93.6378 11 93.6362 11.0337C93.6374 11.0627 93.6323 11.0917 93.6214 11.1186C93.6105 11.1455 93.594 11.1698 93.573 11.1898C93.5228 11.2335 93.4598 11.2597 93.3934 11.2646L93.6442 11.5507H93.4511L93.2204 11.2666H93.1456V11.5507H92.9841V10.7912H93.3352L93.3327 10.7907ZM93.2826 11.8127C93.3673 11.8135 93.4512 11.7964 93.5288 11.7626C93.6037 11.7303 93.6718 11.6841 93.7294 11.6265C93.7872 11.569 93.8334 11.5008 93.8654 11.4257C93.9312 11.2666 93.9312 11.0879 93.8654 10.9288C93.8329 10.854 93.7868 10.7859 93.7294 10.728C93.6717 10.6704 93.6037 10.6242 93.5288 10.592C93.4507 10.5599 93.367 10.5439 93.2826 10.5448C93.1967 10.544 93.1115 10.56 93.0318 10.592C92.9552 10.6236 92.8856 10.6698 92.8266 10.728C92.7379 10.8191 92.6779 10.9343 92.6541 11.0592C92.6303 11.1842 92.6437 11.3134 92.6927 11.4307C92.7232 11.5061 92.7688 11.5744 92.8266 11.6315C92.8856 11.6897 92.9553 11.7359 93.0318 11.7676C93.111 11.8014 93.1964 11.8185 93.2826 11.8178V11.8127ZM93.2826 10.3621C93.503 10.3618 93.7147 10.4484 93.8719 10.603C93.9477 10.6772 94.0081 10.7658 94.0495 10.8635C94.0923 10.9639 94.1144 11.0719 94.1144 11.181C94.1144 11.2902 94.0923 11.3982 94.0495 11.4985C94.0071 11.5957 93.9469 11.6841 93.8719 11.759C93.7949 11.8329 93.7054 11.8924 93.6076 11.9347C93.5048 11.9784 93.3942 12.0006 93.2826 12C93.1696 12.0008 93.0576 11.9786 92.9535 11.9347C92.8545 11.8934 92.7642 11.8338 92.6872 11.759C92.6122 11.6813 92.5528 11.59 92.5121 11.49C92.4693 11.3896 92.4472 11.2816 92.4472 11.1725C92.4472 11.0634 92.4693 10.9553 92.5121 10.855C92.5535 10.7573 92.6139 10.6687 92.6897 10.5945C92.7656 10.5185 92.8563 10.4587 92.956 10.4188C93.0601 10.3749 93.1721 10.3527 93.2851 10.3535L93.2826 10.3621ZM16.4817 7.42908C16.4817 5.98091 17.4297 4.79126 18.979 4.79126C20.4597 4.79126 21.4588 5.92971 21.4588 7.42908C21.4588 8.92845 20.4597 10.0669 18.979 10.0669C17.4297 10.0669 16.4817 8.87725 16.4817 7.42908ZM23.1466 7.42908V3.30795H21.3565V4.31188C20.7887 3.56998 19.9275 3.10465 18.7563 3.10465C16.4491 3.10465 14.6384 4.91575 14.6384 7.43109C14.6384 9.94644 16.4481 11.7575 18.7563 11.7575C19.927 11.7575 20.7887 11.2917 21.3565 10.5503V11.5507H23.1446V7.42908H23.1466ZM83.6323 7.42908C83.6323 5.98091 84.5803 4.79126 86.1301 4.79126C87.6123 4.79126 88.6099 5.92971 88.6099 7.42908C88.6099 8.92845 87.6123 10.0669 86.1301 10.0669C84.5808 10.0669 83.6323 8.87725 83.6323 7.42908ZM90.2992 7.42908V0H88.5076V4.31188C87.9398 3.56998 87.0786 3.10465 85.9074 3.10465C83.6002 3.10465 81.7895 4.91575 81.7895 7.43109C81.7895 9.94644 83.5992 11.7575 85.9074 11.7575C87.0786 11.7575 87.9398 11.2917 88.5076 10.5503V11.5507H90.2992V7.42908ZM45.3643 4.70642C46.5179 4.70642 47.2587 5.43026 47.4478 6.70475H43.1764C43.3675 5.51509 44.0893 4.70642 45.3648 4.70642H45.3643ZM45.4004 3.10014C42.9878 3.10014 41.3 4.85702 41.3 7.42658C41.3 10.0463 43.0555 11.753 45.5203 11.753C46.7601 11.753 47.8957 11.4433 48.8948 10.5985L48.0176 9.27079C47.3274 9.82296 46.4487 10.1327 45.6226 10.1327C44.469 10.1327 43.4187 9.59807 43.1604 8.11477H49.273C49.2906 7.8919 49.3086 7.66702 49.3086 7.42607C49.2906 4.85752 47.7036 3.09963 45.3994 3.09963L45.4004 3.10014ZM67.0122 7.42607C67.0122 5.9779 67.9601 4.78825 69.5095 4.78825C70.9901 4.78825 71.9893 5.9267 71.9893 7.42607C71.9893 8.92544 70.9901 10.0639 69.5095 10.0639C67.9601 10.0639 67.0117 8.87424 67.0117 7.42607H67.0122ZM73.6766 7.42607V3.30795H71.8875V4.31188C71.3177 3.56998 70.4585 3.10465 69.2873 3.10465C66.9801 3.10465 65.1694 4.91575 65.1694 7.43109C65.1694 9.94644 66.979 11.7575 69.2873 11.7575C70.4585 11.7575 71.3177 11.2917 71.8875 10.5503V11.5507H73.6771V7.42908L73.6766 7.42607ZM56.903 7.42607C56.903 9.92536 58.6414 11.7525 61.2947 11.7525C62.5346 11.7525 63.3607 11.4764 64.254 10.7702L63.3943 9.322C62.7222 9.80539 62.0165 10.0639 61.2375 10.0639C59.8086 10.0463 58.7578 9.01228 58.7578 7.42607C58.7578 5.83986 59.8086 4.80632 61.2375 4.78825C62.0145 4.78825 62.7202 5.04676 63.3943 5.53015L64.254 4.08198C63.3592 3.37572 62.5331 3.09963 61.2947 3.09963C58.6414 3.09963 56.903 4.92629 56.903 7.42607ZM79.9803 3.09963C78.9476 3.09963 78.275 3.58303 77.81 4.30686V3.30795H76.036V11.5462H77.8281V6.92812C77.8281 5.56479 78.4134 4.80732 79.5836 4.80732C79.9668 4.80178 80.3473 4.87224 80.7031 5.01463L81.2548 3.32602C80.8586 3.16991 80.342 3.10114 79.9793 3.10114L79.9803 3.09963ZM31.9968 3.96302C31.1356 3.39479 29.9489 3.10114 28.6398 3.10114C26.5543 3.10114 25.2116 4.10156 25.2116 5.73847C25.2116 7.08173 26.2112 7.91047 28.052 8.16898L28.8976 8.28945C29.8792 8.42749 30.3427 8.68601 30.3427 9.15133C30.3427 9.78832 29.6906 10.1517 28.4663 10.1517C27.2264 10.1517 26.3316 9.75519 25.7282 9.28987L24.887 10.6868C25.8686 11.4107 27.1085 11.756 28.4512 11.756C30.8287 11.756 32.2065 10.6356 32.2065 9.06699C32.2065 7.61883 31.1221 6.86136 29.3305 6.60285L28.4868 6.48037C27.7119 6.37997 27.091 6.22386 27.091 5.6717C27.091 5.06934 27.6763 4.70693 28.6584 4.70693C29.7092 4.70693 30.7264 5.10348 31.2249 5.41319L31.9999 3.96502L31.9968 3.96302ZM55.0948 3.10265C54.062 3.10265 53.3894 3.58604 52.9265 4.30987V3.30795H51.1524V11.5462H52.9425V6.92812C52.9425 5.56479 53.5279 4.80732 54.698 4.80732C55.0812 4.80178 55.4617 4.87224 55.8176 5.01463L56.3693 3.32602C55.973 3.16991 55.4564 3.10114 55.0938 3.10114L55.0948 3.10265ZM39.8189 3.30795H36.8917V0.808665H35.082V3.30795H33.4123V4.94536H35.082V8.70357C35.082 10.6151 35.8233 11.7535 37.941 11.7535C38.7179 11.7535 39.6127 11.5126 40.1805 11.1165L39.6634 9.58251C39.1292 9.89223 38.5439 10.0483 38.0784 10.0483C37.1836 10.0483 36.8917 9.49618 36.8917 8.66944V4.94687H39.8189V3.30795ZM13.0554 11.5482V6.37797C13.0554 4.43085 11.8156 3.12072 9.81679 3.10315C8.76599 3.08558 7.68209 3.41286 6.92321 4.56889C6.35543 3.65531 5.46063 3.10315 4.20268 3.10315C3.32342 3.10315 2.46423 3.36166 1.79162 4.32644V3.30795H0V11.5462H1.80566V6.97832C1.80566 5.54822 2.59815 4.78825 3.82199 4.78825C5.01071 4.78825 5.6121 5.56378 5.6121 6.96025V11.5452H7.42178V6.97731C7.42178 5.54722 8.24787 4.78724 9.43609 4.78724C10.6584 4.78724 11.2418 5.56278 11.2418 6.95924V11.5442L13.0554 11.5482Z" fill="#A1A5B2"/>
</g>
<defs>
<clipPath id="clip0">
<rect width="94.1144" height="12" fill="white"/>
</clipPath>
</defs>
</svg>
