<svg width="25" height="25" viewBox="0 0 25 25" fill="none" xmlns="http://www.w3.org/2000/svg">
<path d="M2.60415 0H22.3958C23.8341 0 25 1.16592 25 2.60415V22.3958C25 23.8341 23.8341 25 22.3958 25H2.60415C1.16592 25 0 23.8341 0 22.3958V2.60415C0 1.16592 1.16592 0 2.60415 0Z" fill="#2196F3"/>
<path d="M19.2712 7.29165H21.3545C21.6422 7.29165 21.8754 7.05845 21.8754 6.7708V3.6458C21.8753 3.3582 21.6421 3.125 21.3545 3.125H19.2711C16.107 3.125 13.542 5.69004 13.542 8.85415V11.4583H10.9378C10.6502 11.4583 10.417 11.6915 10.417 11.9791V15.1042C10.417 15.3918 10.6502 15.625 10.9378 15.625H13.542V25H17.7086V15.625H20.3128C20.5369 15.6249 20.7358 15.4813 20.8066 15.2688L21.8482 12.1438C21.9392 11.8708 21.7916 11.5759 21.5187 11.485C21.4658 11.4674 21.4103 11.4583 21.3545 11.4583H17.7086V8.85415C17.7087 7.99121 18.4082 7.29165 19.2712 7.29165Z" fill="#FAFAFA"/>
</svg>
