<svg width="60" height="35" viewBox="0 0 60 35" fill="none" xmlns="http://www.w3.org/2000/svg">
<rect width="60" height="35" rx="5" fill="white"/>
<path d="M33.7427 18.0001C33.7427 23.1784 29.5478 27.3742 24.3713 27.3742C19.1949 27.3742 15 23.1774 15 18.0001C15 12.8227 19.1959 8.62598 24.3713 8.62598C29.5467 8.62598 33.7427 12.8227 33.7427 18.0001Z" fill="#E2574C"/>
<path d="M35.6261 8.62598C33.5244 8.62598 31.5896 9.32624 30.026 10.4952L30.0335 10.4962C30.341 10.7933 30.6803 11.0024 30.9418 11.3445L28.992 11.3754C28.6864 11.6838 28.408 12.0194 28.1455 12.3682H31.5839C31.8455 12.6822 32.0873 12.955 32.3067 13.3018H27.5222C27.3469 13.6037 27.1847 13.914 27.0432 14.2364H32.8514C33.0032 14.5579 33.1392 14.8007 33.2545 15.141H26.6991C26.5951 15.4645 26.5061 15.7954 26.4385 16.1328H33.5291C33.5985 16.4572 33.6519 16.7571 33.6885 17.0627H26.2979C26.2669 17.3712 26.251 17.6842 26.251 18.0002H33.7419C33.7419 18.3321 33.7184 18.6395 33.6847 18.9376H26.2979C26.3297 19.2554 26.3766 19.5676 26.4385 19.8751H33.5178C33.4447 20.1788 33.3603 20.4844 33.2544 20.8012H26.6775C26.7769 21.1218 26.8979 21.433 27.03 21.7367H32.8514C32.6902 22.078 32.5074 22.3507 32.3059 22.6704H27.5054C27.6948 22.9985 27.9038 23.3115 28.1306 23.6115L31.584 23.663C31.2897 24.0164 30.9119 24.2292 30.5678 24.5386C30.5865 24.5536 30.0175 24.5367 28.8973 24.519C30.6015 26.2776 32.9835 27.3743 35.626 27.3743C40.8034 27.3743 45.0001 23.1775 45.0001 18.0002C45.0001 12.8229 40.8043 8.62598 35.6261 8.62598Z" fill="#F4B459"/>
</svg>
