<svg width="60" height="35" viewBox="0 0 60 35" fill="none" xmlns="http://www.w3.org/2000/svg">
<rect width="60" height="35" rx="5" fill="white"/>
<path d="M27.2621 13.3057L25.7565 22.6751H28.1631L29.6678 13.3057H27.2621ZM34.5212 17.1222C33.6802 16.7069 33.1647 16.4266 33.1647 16.0019C33.175 15.6157 33.6006 15.22 34.5512 15.22C35.3331 15.2004 35.9078 15.3841 36.3437 15.5669L36.5621 15.6644L36.8893 13.7041C36.414 13.5204 35.6603 13.3179 34.7293 13.3179C32.3528 13.3179 30.6793 14.5535 30.669 16.3207C30.6493 17.6248 31.867 18.3485 32.7784 18.7826C33.7093 19.228 34.0262 19.5167 34.0262 19.9123C34.0159 20.5198 33.2735 20.8001 32.5806 20.8001C31.6207 20.8001 31.105 20.6557 30.3222 20.3173L30.0053 20.1729L29.6688 22.2101C30.2341 22.4614 31.2738 22.6826 32.3529 22.6939C34.8785 22.6939 36.5219 21.477 36.5426 19.5936C36.5508 18.5604 35.9087 17.7691 34.5212 17.1222ZM43.059 13.3347H41.1971C40.6233 13.3347 40.1874 13.4997 39.9389 14.0885L36.3642 22.6751H38.8898L39.5854 20.8161H42.4111L42.772 22.6826H44.9996L43.059 13.3347ZM40.2859 18.9399C40.3346 18.9447 41.2553 15.9052 41.2553 15.9052L41.9884 18.9399C41.9884 18.9399 40.7612 18.9399 40.2859 18.9399ZM23.7456 13.3057L21.3878 19.6713L21.1309 18.416C20.6949 16.9675 19.3281 15.3935 17.8027 14.6116L19.9618 22.6657H22.5081L26.2919 13.3067H23.7456V13.3057Z" fill="#2394BC"/>
<path d="M20.3382 14.5141C20.1544 13.7997 19.5684 13.3179 18.7726 13.3076H15.0385L15 13.481C17.9129 14.1991 20.3578 16.4088 21.151 18.4872L20.3382 14.5141Z" fill="#EFC75E"/>
</svg>
