<svg width="46" height="12" viewBox="0 0 46 12" fill="none" xmlns="http://www.w3.org/2000/svg">
<g clip-path="url(#clip0)">
<path d="M30.9611 3.28125C30.7692 4.53838 29.8069 4.53838 28.8764 4.53838H28.3469L28.7184 2.19119C28.7411 2.0494 28.8633 1.94509 29.0072 1.94509H29.2502C29.8839 1.94509 30.4822 1.94509 30.7909 2.30498C30.9751 2.52037 31.0308 2.84008 30.9611 3.28125ZM30.556 0.00113487H27.0457C26.9294 0.00119209 26.817 0.042592 26.7285 0.117903C26.6401 0.193213 26.5815 0.297503 26.5632 0.412052L25.1448 9.39218C25.1382 9.43381 25.1408 9.47636 25.1523 9.51691C25.1638 9.55745 25.184 9.59503 25.2114 9.62708C25.2388 9.65912 25.2729 9.68486 25.3112 9.70254C25.3496 9.72022 25.3913 9.72941 25.4335 9.72949H27.2348C27.4028 9.72949 27.5458 9.60757 27.572 9.4423L27.9748 6.89552C28.0119 6.65935 28.2165 6.4846 28.4564 6.4846H29.5671C31.8798 6.4846 33.2141 5.3688 33.5626 3.15572C33.7196 2.18848 33.5689 1.42806 33.115 0.89567C32.6157 0.310451 31.7309 0.000682831 30.5564 0.000682831" fill="#A1A5B2"/>
<path d="M5.92341 3.28066C5.73151 4.53779 4.76929 4.53779 3.8383 4.53779H3.30877L3.68035 2.1906C3.70298 2.04881 3.82518 1.9445 3.9691 1.9445H4.21215C4.84578 1.9445 5.44411 1.9445 5.75278 2.30439C5.93744 2.51978 5.99311 2.83949 5.92341 3.28066ZM5.51834 0.000546455H2.00801C1.76813 0.000546455 1.56356 0.174848 1.526 0.411464L0.107111 9.39158C0.100504 9.43322 0.103024 9.4758 0.114497 9.51638C0.12597 9.55696 0.146123 9.59458 0.173568 9.62664C0.201013 9.6587 0.235098 9.68444 0.273474 9.70209C0.311851 9.71975 0.353608 9.72889 0.395867 9.72889H2.07228C2.31215 9.72889 2.51627 9.55459 2.55384 9.31798L2.93719 6.89537C2.9743 6.65876 3.17887 6.48446 3.41875 6.48446H4.52942C6.84218 6.48446 8.17643 5.36821 8.52493 3.15512C8.68198 2.18789 8.53126 1.42747 8.07731 0.895081C7.57809 0.309863 6.69327 9.53674e-05 5.51879 9.53674e-05L5.51834 0.000546455ZM13.6682 6.50478C13.5053 7.46298 12.7436 8.10645 11.7709 8.10645C11.2835 8.10645 10.8929 7.94976 10.6422 7.65354C10.3932 7.36002 10.3 6.94143 10.3788 6.47588C10.5299 5.5258 11.3048 4.86201 12.2625 4.86201C12.7399 4.86201 13.1269 5.02006 13.3831 5.31899C13.6406 5.62017 13.742 6.04103 13.6682 6.50478ZM16.0108 3.24002H14.3299C14.26 3.23993 14.1924 3.26478 14.1393 3.31008C14.0862 3.35538 14.051 3.41814 14.0402 3.48702L13.9669 3.95574L13.8493 3.78595C13.4854 3.25898 12.6739 3.08242 11.8637 3.08242C10.0067 3.08242 8.42038 4.48677 8.11171 6.45556C7.95104 7.4386 8.17914 8.37738 8.73764 9.03259C9.25043 9.63452 9.98228 9.88513 10.8544 9.88513C12.3516 9.88513 13.1817 8.92602 13.1817 8.92602L13.1065 9.39203C13.0999 9.43371 13.1025 9.47633 13.114 9.51694C13.1255 9.55755 13.1457 9.59519 13.1731 9.62726C13.2006 9.65933 13.2348 9.68506 13.2732 9.70269C13.3116 9.72031 13.3535 9.72941 13.3958 9.72934H14.9092C15.1491 9.72934 15.3537 9.5555 15.3912 9.31843L16.3001 3.57778C16.3066 3.53607 16.304 3.49345 16.2924 3.45284C16.2809 3.41223 16.2606 3.3746 16.2331 3.34254C16.2056 3.31048 16.1714 3.28476 16.133 3.26714C16.0945 3.24952 16.0527 3.24042 16.0104 3.24047" fill="#A1A5B2"/>
<path d="M38.7059 6.50478C38.543 7.46298 37.7813 8.10645 36.8086 8.10645C36.3212 8.10645 35.9306 7.94976 35.6799 7.65354C35.4309 7.36003 35.3377 6.94143 35.4164 6.47588C35.5676 5.5258 36.342 4.86201 37.3001 4.86201C37.7776 4.86201 38.1646 5.02006 38.4208 5.31899C38.6783 5.62018 38.7797 6.04103 38.7059 6.50478ZM41.0485 3.24002H39.3676C39.2977 3.23994 39.2301 3.26479 39.177 3.31009C39.1239 3.35538 39.0887 3.41814 39.0779 3.48702L39.0046 3.95574L38.8869 3.78595C38.5231 3.25899 37.7115 3.08243 36.9014 3.08243C35.0449 3.08243 33.4585 4.48677 33.1494 6.45556C32.9887 7.4386 33.2173 8.37738 33.7758 9.03259C34.2886 9.63452 35.0204 9.88513 35.8926 9.88513C37.3902 9.88513 38.2203 8.92603 38.2203 8.92603L38.1451 9.39203C38.1384 9.43366 38.1408 9.47626 38.1522 9.51687C38.1635 9.55749 38.1836 9.59514 38.2111 9.62723C38.2385 9.65932 38.2726 9.68508 38.311 9.70271C38.3494 9.72034 38.3912 9.72943 38.4334 9.72934H39.9465C40.1863 9.72934 40.3909 9.5555 40.4289 9.31843L41.3377 3.57778C41.3443 3.53608 41.3417 3.49345 41.3301 3.45284C41.3186 3.41223 41.2983 3.3746 41.2708 3.34254C41.2433 3.31049 41.2091 3.28476 41.1707 3.26714C41.1322 3.24952 41.0904 3.24042 41.0481 3.24047" fill="#A1A5B2"/>
<path d="M24.9637 3.24159H23.2737C23.1121 3.24159 22.9614 3.32151 22.8709 3.45517L20.54 6.87979L19.552 3.58884C19.5219 3.48846 19.4601 3.40044 19.3759 3.33781C19.2917 3.27519 19.1895 3.24129 19.0845 3.24114H17.4239C17.3773 3.24116 17.3315 3.25226 17.2901 3.27352C17.2487 3.29478 17.2129 3.32558 17.1858 3.36338C17.1588 3.40117 17.1411 3.44486 17.1343 3.49082C17.1276 3.53679 17.1319 3.5837 17.1469 3.62767L19.0071 9.07616L17.2574 11.5394C17.2264 11.5831 17.2081 11.6345 17.2045 11.6879C17.2008 11.7413 17.2119 11.7946 17.2366 11.8421C17.2612 11.8897 17.2985 11.9295 17.3443 11.9574C17.3901 11.9852 17.4427 11.9999 17.4963 12H19.1845C19.3438 12 19.4936 11.9219 19.585 11.7909L25.2036 3.69992C25.2341 3.65618 25.252 3.60495 25.2554 3.55177C25.2587 3.49859 25.2475 3.44551 25.2227 3.39827C25.198 3.35104 25.1608 3.31147 25.1151 3.28384C25.0695 3.25622 25.0171 3.24161 24.9637 3.24159Z" fill="#A1A5B2"/>
<path d="M43.0295 0.247684L41.5885 9.39218C41.5819 9.43385 41.5845 9.47644 41.5961 9.51701C41.6076 9.55759 41.6278 9.5952 41.6553 9.62725C41.6827 9.6593 41.7169 9.68503 41.7553 9.70268C41.7936 9.72033 41.8354 9.72948 41.8777 9.72949H43.3264C43.5663 9.72949 43.7709 9.55519 43.8085 9.31857L45.2292 0.337996C45.2358 0.296313 45.2332 0.253696 45.2217 0.213086C45.2103 0.172475 45.1901 0.134836 45.1626 0.102768C45.1351 0.0706997 45.1009 0.0449657 45.0625 0.0273409C45.0241 0.00971603 44.9823 0.000620842 44.94 0.000682831H43.3188C43.249 0.000505447 43.1814 0.0252762 43.1284 0.0705061C43.0753 0.115736 43.0403 0.178432 43.0295 0.247231" fill="#A1A5B2"/>
</g>
<defs>
<clipPath id="clip0">
<rect width="45.1292" height="12" fill="white" transform="translate(0.103516)"/>
</clipPath>
</defs>
</svg>
