<svg width="455" height="308" viewBox="0 0 455 308" fill="none" xmlns="http://www.w3.org/2000/svg">
<g opacity="0.4">
<path opacity="0.4" d="M366.634 114.766L366.388 114.601L340.948 99.9101L366.634 85.0547L366.88 85.2188L392.32 99.9101L366.634 114.766ZM342.836 99.9922L366.716 113.781L390.597 99.9922L366.716 86.2037L342.836 99.9922Z" fill="#75CDFB"/>
<path opacity="0.4" d="M317.15 114.766L316.904 114.601L291.464 99.9101L317.15 85.0547L317.396 85.2188L342.836 99.9101L317.15 114.766ZM293.269 99.9922L317.15 113.781L341.03 99.9922L317.15 86.2037L293.269 99.9922Z" fill="#75CDFB"/>
<path opacity="0.4" d="M341.933 129.047L341.687 128.883L316.247 114.191L341.933 99.3359L342.179 99.5001L367.619 114.191L341.933 129.047ZM318.053 114.273L341.933 128.062L365.814 114.273L341.933 100.485L318.053 114.273Z" fill="#75CDFB"/>
<path opacity="0.4" d="M366.634 143.409L366.388 143.245L340.948 128.554L366.634 113.698L392.32 128.554L366.634 143.409ZM342.836 128.554L366.716 142.342L390.597 128.554L366.716 114.765L342.836 128.554Z" fill="#75CDFB"/>
<path opacity="0.4" d="M267.583 114.766L267.337 114.601L241.898 99.9101L267.583 85.0547L267.83 85.2188L293.269 99.9101L267.583 114.766ZM243.785 99.9922L267.666 113.781L291.546 99.9922L267.666 86.2037L243.785 99.9922Z" fill="#75CDFB"/>
<path opacity="0.4" d="M292.367 129.047L266.681 114.273L292.367 99.418L292.613 99.5821L318.053 114.273L292.367 129.047ZM268.486 114.273L292.367 128.062L316.247 114.273L292.367 100.485L268.486 114.273Z" fill="#75CDFB"/>
<path opacity="0.4" d="M317.15 143.409L316.904 143.245L291.464 128.554L317.15 113.698L317.396 113.862L342.836 128.554L317.15 143.409ZM293.269 128.554L317.15 142.342L341.03 128.554L317.15 114.765L293.269 128.554Z" fill="#75CDFB"/>
<path opacity="0.4" d="M341.933 157.69L341.687 157.526L316.247 142.835L341.933 127.979L342.179 128.144L367.619 142.835L341.933 157.69ZM318.053 142.835L341.933 156.623L365.814 142.835L341.933 129.046L318.053 142.835Z" fill="#75CDFB"/>
<path opacity="0.4" d="M366.634 171.972L366.388 171.807L340.948 157.116L366.634 142.261L392.32 157.116L366.634 171.972ZM342.836 157.116L366.716 170.905L390.597 157.116L366.716 143.328L342.836 157.116Z" fill="#75CDFB"/>
<path opacity="0.4" d="M218.099 114.766L217.853 114.601L192.413 99.9101L218.099 85.0547L218.345 85.2188L243.785 99.9101L218.099 114.766ZM194.219 99.9922L218.099 113.781L241.98 99.9922L218.099 86.2037L194.219 99.9922Z" fill="#75CDFB"/>
<path opacity="0.4" d="M242.8 129.047L242.554 128.883L217.114 114.191L242.8 99.3359L243.046 99.5001L268.486 114.191L242.8 129.047ZM219.002 114.273L242.882 128.062L266.763 114.273L242.882 100.485L219.002 114.273Z" fill="#75CDFB"/>
<path opacity="0.4" d="M267.583 143.409L267.337 143.245L241.898 128.554L267.583 113.698L293.269 128.554L267.583 143.409ZM243.785 128.554L267.666 142.342L291.546 128.554L267.666 114.765L243.785 128.554Z" fill="#75CDFB"/>
<path opacity="0.4" d="M292.367 157.69L292.121 157.526L266.681 142.835L292.367 127.979L292.613 128.144L318.053 142.835L292.367 157.69ZM268.486 142.835L292.367 156.623L316.247 142.835L292.367 129.046L268.486 142.835Z" fill="#75CDFB"/>
<path opacity="0.4" d="M317.15 171.972L291.464 157.116L317.15 142.261L317.396 142.425L342.836 157.116L317.15 171.972ZM293.269 157.116L317.15 170.905L341.03 157.116L317.15 143.328L293.269 157.116Z" fill="#75CDFB"/>
<path opacity="0.4" d="M341.933 186.252L341.687 186.088L316.247 171.396L341.933 156.541L342.179 156.705L367.619 171.396L341.933 186.252ZM318.053 171.479L341.933 185.267L365.814 171.479L341.933 157.69L318.053 171.479Z" fill="#75CDFB"/>
<path opacity="0.4" d="M366.634 200.615L366.388 200.451L340.948 185.76L366.634 170.904L366.88 171.068L392.32 185.76L366.634 200.615ZM342.836 185.76L366.716 199.548L390.597 185.76L366.716 171.971L342.836 185.76Z" fill="#75CDFB"/>
<path opacity="0.4" d="M168.533 114.766L168.287 114.601L142.847 99.9101L168.533 85.0547L194.219 99.9101L168.533 114.766ZM144.652 99.9922L168.533 113.781L192.413 99.9922L168.533 86.2037L144.652 99.9922Z" fill="#75CDFB"/>
<path opacity="0.4" d="M193.316 129.047L167.63 114.191L193.316 99.3359L193.562 99.5001L219.002 114.191L193.316 129.047ZM169.435 114.273L193.316 128.062L217.196 114.273L193.316 100.485L169.435 114.273Z" fill="#75CDFB"/>
<path opacity="0.4" d="M218.099 143.409L217.853 143.245L192.413 128.554L218.099 113.698L218.345 113.862L243.785 128.554L218.099 143.409ZM194.219 128.554L218.099 142.342L241.98 128.554L218.099 114.765L194.219 128.554Z" fill="#75CDFB"/>
<path opacity="0.4" d="M242.8 157.69L242.554 157.526L217.114 142.835L242.8 127.979L243.046 128.144L268.486 142.835L242.8 157.69ZM219.002 142.835L242.882 156.623L266.763 142.835L242.882 129.046L219.002 142.835Z" fill="#75CDFB"/>
<path opacity="0.4" d="M267.583 171.972L267.337 171.807L241.898 157.116L267.583 142.261L267.83 142.425L293.269 157.116L267.583 171.972ZM243.785 157.116L267.666 170.905L291.546 157.116L267.666 143.328L243.785 157.116Z" fill="#75CDFB"/>
<path opacity="0.4" d="M292.367 186.252L292.121 186.088L266.681 171.396L292.367 156.541L318.053 171.396L292.367 186.252ZM268.486 171.479L292.367 185.267L316.247 171.479L292.367 157.69L268.486 171.479Z" fill="#75CDFB"/>
<path opacity="0.4" d="M317.15 200.615L291.464 185.76L317.15 170.904L317.396 171.068L342.836 185.76L317.15 200.615ZM293.269 185.76L317.15 199.548L341.03 185.76L317.15 171.971L293.269 185.76Z" fill="#75CDFB"/>
<path opacity="0.4" d="M341.933 214.896L341.687 214.732L316.247 200.041L341.933 185.186L342.179 185.35L367.619 200.041L341.933 214.896ZM318.053 200.041L341.933 213.829L365.814 200.041L341.933 186.253L318.053 200.041Z" fill="#75CDFB"/>
<path opacity="0.4" d="M366.634 229.177L340.948 214.321L366.634 199.466L392.32 214.321L366.634 229.177ZM342.836 214.321L366.716 228.11L390.597 214.321L366.716 200.533L342.836 214.321Z" fill="#75CDFB"/>
<path opacity="0.4" d="M119.048 114.766L118.802 114.601L93.3625 99.9101L119.048 85.0547L119.295 85.2188L144.734 99.9101L119.048 114.766ZM95.1679 99.9922L119.048 113.781L142.929 99.9922L119.048 86.2037L95.1679 99.9922Z" fill="#75CDFB"/>
<path opacity="0.4" d="M143.75 129.047L143.503 128.883L118.064 114.191L143.75 99.3359L143.996 99.5001L169.435 114.191L143.75 129.047ZM119.951 114.273L143.832 128.062L167.712 114.273L143.832 100.485L119.951 114.273Z" fill="#75CDFB"/>
<path opacity="0.4" d="M168.533 143.409L142.847 128.554L168.533 113.698L194.219 128.554L168.533 143.409ZM144.652 128.554L168.533 142.342L192.413 128.554L168.533 114.765L144.652 128.554Z" fill="#75CDFB"/>
<path opacity="0.4" d="M193.316 157.69L193.07 157.526L167.63 142.835L193.316 127.979L193.562 128.144L219.002 142.835L193.316 157.69ZM169.435 142.835L193.316 156.623L217.196 142.835L193.316 129.046L169.435 142.835Z" fill="#75CDFB"/>
<path opacity="0.4" d="M218.099 171.972L192.413 157.116L218.099 142.261L218.345 142.425L243.785 157.116L218.099 171.972ZM194.219 157.116L218.099 170.905L241.98 157.116L218.099 143.328L194.219 157.116Z" fill="#75CDFB"/>
<path opacity="0.4" d="M242.8 186.252L242.554 186.088L217.114 171.396L242.8 156.541L243.046 156.705L268.486 171.396L242.8 186.252ZM219.002 171.479L242.882 185.267L266.763 171.479L242.882 157.69L219.002 171.479Z" fill="#75CDFB"/>
<path opacity="0.4" d="M267.583 200.615L267.337 200.451L241.898 185.76L267.583 170.904L267.83 171.068L293.269 185.76L267.583 200.615ZM243.785 185.76L267.666 199.548L291.546 185.76L267.666 171.971L243.785 185.76Z" fill="#75CDFB"/>
<path opacity="0.4" d="M292.367 214.896L292.121 214.732L266.681 200.041L292.367 185.186L318.053 200.041L292.367 214.896ZM268.486 200.041L292.367 213.829L316.247 200.041L292.367 186.253L268.486 200.041Z" fill="#75CDFB"/>
<path opacity="0.4" d="M317.15 229.177L316.904 229.013L291.464 214.321L317.15 199.466L317.396 199.63L342.836 214.321L317.15 229.177ZM293.269 214.321L317.15 228.11L341.03 214.321L317.15 200.533L293.269 214.321Z" fill="#75CDFB"/>
<path opacity="0.4" d="M341.933 243.458L316.247 228.602L341.933 213.747L367.619 228.602L341.933 243.458ZM318.053 228.685L341.933 242.473L365.814 228.685L341.933 214.896L318.053 228.685Z" fill="#75CDFB"/>
<path opacity="0.4" d="M366.634 257.738L366.388 257.574L340.948 242.883L366.634 228.027L366.88 228.192L392.32 242.883L366.634 257.738ZM342.836 242.965L366.716 256.753L390.597 242.965L366.716 229.176L342.836 242.965Z" fill="#75CDFB"/>
<path opacity="0.4" d="M119.048 143.409L118.802 143.245L93.3625 128.554L119.048 113.698L119.295 113.862L144.734 128.554L119.048 143.409ZM95.1679 128.554L119.048 142.342L142.929 128.554L119.048 114.765L95.1679 128.554Z" fill="#75CDFB"/>
<path opacity="0.4" d="M143.75 157.69L118.146 142.835L143.832 127.979L169.517 142.835L143.75 157.69ZM119.951 142.835L143.832 156.623L167.712 142.835L143.832 129.046L119.951 142.835Z" fill="#75CDFB"/>
<path opacity="0.4" d="M168.533 171.972L168.287 171.807L142.847 157.116L168.533 142.261L168.779 142.425L194.219 157.116L168.533 171.972ZM144.652 157.116L168.533 170.905L192.413 157.116L168.533 143.328L144.652 157.116Z" fill="#75CDFB"/>
<path opacity="0.4" d="M193.316 186.252L193.07 186.088L167.63 171.396L193.316 156.541L219.002 171.396L193.316 186.252ZM169.435 171.479L193.316 185.267L217.196 171.479L193.316 157.69L169.435 171.479Z" fill="#75CDFB"/>
<path opacity="0.4" d="M218.099 200.615L192.413 185.76L218.099 170.904L218.345 171.068L243.785 185.76L218.099 200.615ZM194.219 185.76L218.099 199.548L241.98 185.76L218.099 171.971L194.219 185.76Z" fill="#75CDFB"/>
<path opacity="0.4" d="M242.8 214.896L242.554 214.732L217.114 200.041L242.8 185.186L243.046 185.35L268.486 200.041L242.8 214.896ZM219.002 200.041L242.882 213.829L266.763 200.041L242.882 186.253L219.002 200.041Z" fill="#75CDFB"/>
<path opacity="0.4" d="M267.583 229.177L267.337 229.013L241.898 214.321L267.583 199.466L267.83 199.63L293.269 214.321L267.583 229.177ZM243.785 214.321L267.666 228.11L291.546 214.321L267.666 200.533L243.785 214.321Z" fill="#75CDFB"/>
<path opacity="0.4" d="M292.367 243.458L292.121 243.294L266.681 228.602L292.367 213.747L292.613 213.911L318.053 228.602L292.367 243.458ZM268.486 228.685L292.367 242.473L316.247 228.685L292.367 214.896L268.486 228.685Z" fill="#75CDFB"/>
<path opacity="0.4" d="M317.15 257.738L316.904 257.574L291.464 242.883L317.15 228.027L342.836 242.883L317.15 257.738ZM293.269 242.965L317.15 256.753L341.03 242.965L317.15 229.176L293.269 242.965Z" fill="#75CDFB"/>
<path opacity="0.4" d="M341.933 272.101L316.247 257.246L341.933 242.391L342.179 242.555L367.619 257.246L341.933 272.101ZM318.053 257.246L341.933 271.035L365.814 257.246L341.933 243.458L318.053 257.246Z" fill="#75CDFB"/>
<path opacity="0.4" d="M366.634 286.383L366.388 286.219L340.948 271.527L366.634 256.672L366.88 256.836L392.32 271.527L366.634 286.383ZM342.836 271.527L366.716 285.316L390.597 271.527L366.716 257.739L342.836 271.527Z" fill="#75CDFB"/>
<path opacity="0.4" d="M119.048 171.972L93.3625 157.116L119.048 142.261L144.734 157.116L119.048 171.972ZM95.1679 157.116L119.048 170.905L142.929 157.116L119.048 143.328L95.1679 157.116Z" fill="#75CDFB"/>
<path opacity="0.4" d="M143.75 186.252L118.146 171.478L143.832 156.623L144.078 156.787L169.517 171.478L143.75 186.252ZM119.951 171.478L143.832 185.267L167.712 171.478L143.832 157.69L119.951 171.478Z" fill="#75CDFB"/>
<path opacity="0.4" d="M168.533 200.615L168.287 200.451L142.847 185.76L168.533 170.904L168.779 171.068L194.219 185.76L168.533 200.615ZM144.652 185.76L168.533 199.548L192.413 185.76L168.533 171.971L144.652 185.76Z" fill="#75CDFB"/>
<path opacity="0.4" d="M193.316 214.896L193.07 214.732L167.63 200.041L193.316 185.186L219.002 200.041L193.316 214.896ZM169.435 200.041L193.316 213.829L217.196 200.041L193.316 186.253L169.435 200.041Z" fill="#75CDFB"/>
<path opacity="0.4" d="M218.099 229.177L217.853 229.013L192.413 214.321L218.099 199.466L218.345 199.63L243.785 214.321L218.099 229.177ZM194.219 214.321L218.099 228.11L241.98 214.321L218.099 200.533L194.219 214.321Z" fill="#75CDFB"/>
<path opacity="0.4" d="M242.882 243.458L217.196 228.602L242.882 213.747L243.128 213.911L268.568 228.602L242.882 243.458ZM219.002 228.685L242.882 242.391L266.763 228.602L242.882 214.814L219.002 228.685Z" fill="#75CDFB"/>
<path opacity="0.4" d="M267.583 257.738L267.337 257.574L241.898 242.883L267.583 228.027L267.83 228.192L293.269 242.883L267.583 257.738ZM243.785 242.965L267.666 256.753L291.546 242.965L267.666 229.176L243.785 242.965Z" fill="#75CDFB"/>
<path opacity="0.4" d="M292.367 272.101L292.121 271.937L266.681 257.246L292.367 242.391L292.613 242.555L318.053 257.246L292.367 272.101ZM268.486 257.246L292.367 271.035L316.247 257.246L292.367 243.458L268.486 257.246Z" fill="#75CDFB"/>
<path opacity="0.4" d="M317.15 286.383L291.464 271.527L317.15 256.672L342.836 271.527L317.15 286.383ZM293.269 271.527L317.15 285.316L341.03 271.527L317.15 257.739L293.269 271.527Z" fill="#75CDFB"/>
<path opacity="0.4" d="M119.048 200.615L93.3625 185.76L119.048 170.904L144.734 185.76L119.048 200.615ZM95.1679 185.76L119.048 199.548L142.929 185.76L119.048 171.971L95.1679 185.76Z" fill="#75CDFB"/>
<path opacity="0.4" d="M143.75 214.896L118.146 200.041L143.832 185.186L144.078 185.35L169.517 200.041L143.75 214.896ZM119.951 200.041L143.832 213.829L167.712 200.041L143.832 186.253L119.951 200.041Z" fill="#75CDFB"/>
<path opacity="0.4" d="M168.533 229.177L168.287 229.013L142.847 214.321L168.533 199.466L168.779 199.63L194.219 214.321L168.533 229.177ZM144.652 214.321L168.533 228.11L192.413 214.321L168.533 200.533L144.652 214.321Z" fill="#75CDFB"/>
<path opacity="0.4" d="M193.316 243.458L193.07 243.294L167.63 228.602L193.316 213.747L193.562 213.911L219.002 228.602L193.316 243.458ZM169.435 228.685L193.316 242.473L217.196 228.685L193.316 214.896L169.435 228.685Z" fill="#75CDFB"/>
<path opacity="0.4" d="M218.099 257.738L217.853 257.574L192.413 242.883L218.099 228.027L243.785 242.883L218.099 257.738ZM194.219 242.965L218.099 256.753L241.98 242.965L218.099 229.176L194.219 242.965Z" fill="#75CDFB"/>
<path opacity="0.4" d="M242.882 272.101L242.636 271.937L217.196 257.246L242.882 242.391L243.128 242.555L268.568 257.246L242.882 272.101ZM219.002 257.246L242.882 271.035L266.763 257.246L242.882 243.458L219.002 257.246Z" fill="#75CDFB"/>
<path opacity="0.4" d="M267.583 286.383L241.898 271.527L267.583 256.672L267.83 256.836L293.269 271.527L267.583 286.383ZM243.785 271.527L267.666 285.316L291.546 271.527L267.666 257.739L243.785 271.527Z" fill="#75CDFB"/>
<path opacity="0.4" d="M119.048 229.177L118.802 229.013L93.3625 214.321L119.048 199.466L144.734 214.321L119.048 229.177ZM95.1679 214.321L119.048 228.11L142.929 214.321L119.048 200.533L95.1679 214.321Z" fill="#75CDFB"/>
<path opacity="0.4" d="M143.75 243.458L118.146 228.685L143.832 213.829L144.078 213.993L169.517 228.685L143.75 243.458ZM119.951 228.685L143.832 242.473L167.712 228.685L143.832 214.896L119.951 228.685Z" fill="#75CDFB"/>
<path opacity="0.4" d="M168.533 257.738L168.287 257.574L142.847 242.883L168.533 228.027L168.779 228.192L194.219 242.883L168.533 257.738ZM144.652 242.965L168.533 256.753L192.413 242.965L168.533 229.176L144.652 242.965Z" fill="#75CDFB"/>
<path opacity="0.4" d="M193.316 272.101L193.07 271.937L167.63 257.246L193.316 242.391L193.562 242.555L219.002 257.246L193.316 272.101ZM169.435 257.246L193.316 271.035L217.196 257.246L193.316 243.458L169.435 257.246Z" fill="#75CDFB"/>
<path opacity="0.4" d="M218.099 286.383L217.853 286.219L192.413 271.527L218.099 256.672L218.345 256.836L243.785 271.527L218.099 286.383ZM194.219 271.527L218.099 285.316L241.98 271.527L218.099 257.739L194.219 271.527Z" fill="#75CDFB"/>
<path opacity="0.4" d="M119.048 257.738L118.802 257.574L93.3625 242.883L119.048 228.027L144.734 242.883L119.048 257.738ZM95.1679 242.965L119.048 256.753L142.929 242.965L119.048 229.176L95.1679 242.965Z" fill="#75CDFB"/>
<path opacity="0.4" d="M143.75 272.101L143.585 271.937L118.146 257.246L143.832 242.391L144.078 242.555L169.517 257.246L143.75 272.101ZM119.951 257.246L143.832 271.035L167.712 257.246L143.832 243.458L119.951 257.246Z" fill="#75CDFB"/>
<path opacity="0.4" d="M168.533 286.383L142.847 271.527L168.533 256.672L168.779 256.836L194.219 271.527L168.533 286.383ZM144.734 271.527L168.615 285.316L192.495 271.527L168.615 257.739L144.734 271.527Z" fill="#75CDFB"/>
<path opacity="0.4" d="M119.048 286.383L118.802 286.219L93.3625 271.527L119.048 256.672L119.295 256.836L144.734 271.527L119.048 286.383ZM95.1679 271.527L119.048 285.316L142.929 271.527L119.048 257.739L95.1679 271.527Z" fill="#75CDFB"/>
</g>
<path d="M339.061 49.2708C338.651 49.517 338.241 49.8453 337.83 50.1736C337.666 44.5105 333.563 42.2124 328.475 45.167C324.372 47.5472 320.843 52.6358 319.612 57.6423C318.627 57.4782 317.396 57.8065 316.083 58.5451C312.391 60.6791 309.436 65.8497 309.436 70.1176C309.436 74.3854 312.391 76.109 316.083 73.9751L339.061 60.7611C341.769 59.2017 343.985 55.3442 343.985 52.2254C343.985 48.9425 341.769 47.6293 339.061 49.2708Z" fill="#10C9FF"/>
<path d="M348.334 81.4439C348.17 81.4439 348.006 81.4439 347.842 81.2798C347.267 80.9515 347.103 80.2949 347.349 79.8024C348.498 77.5864 350.139 75.7808 351.945 74.7138C353.094 74.0572 354.161 73.7289 355.145 73.811C356.622 73.8931 358.428 72.8261 359.987 70.8564C360.89 69.7894 361.875 68.8866 362.941 68.3121C364.09 67.6555 365.157 67.3272 366.142 67.4092C367.619 67.4913 369.424 66.4244 370.984 64.4546C371.886 63.3876 372.871 62.4848 373.938 61.9103C375.087 61.2537 376.154 60.9254 377.138 61.0075C378.616 61.0895 380.421 60.0226 381.98 58.0528C382.883 56.9858 383.868 56.083 384.934 55.5085C386.576 54.5236 388.217 54.3595 389.53 54.934C390.104 55.1802 390.351 55.8368 390.104 56.4113C389.858 56.9858 389.202 57.2321 388.627 56.9858C387.971 56.6575 387.068 56.8217 386.001 57.4783C385.181 57.9707 384.36 58.6273 383.703 59.5301C381.652 61.9924 379.19 63.3876 377.056 63.2235C376.482 63.2235 375.743 63.3876 375.087 63.798C374.266 64.2904 373.446 64.947 372.789 65.8498C370.737 68.3121 368.276 69.7073 366.142 69.5432C365.567 69.5432 364.829 69.7073 364.172 70.1177C363.352 70.6101 362.531 71.2667 361.875 72.1695C359.823 74.6318 357.361 76.027 355.227 75.8629C354.653 75.8629 353.914 76.027 353.258 76.4374C351.863 77.2581 350.468 78.7355 349.565 80.6232C349.155 81.1977 348.744 81.4439 348.334 81.4439Z" fill="#234A85"/>
<path d="M28.7787 293.359C28.6145 293.359 28.4504 293.359 28.2863 293.195C27.7118 292.866 27.5477 292.21 27.7939 291.717C28.9428 289.501 30.5841 287.696 32.3895 286.629C33.5383 285.972 34.6052 285.644 35.5899 285.726C36.985 285.808 38.8725 284.741 40.4317 282.771C41.3344 281.704 42.3191 280.802 43.386 280.227C44.5349 279.57 45.6017 279.242 46.5864 279.324C48.0636 279.406 49.869 278.339 51.4282 276.37C52.3309 275.303 53.3157 274.4 54.3825 273.825C55.5314 273.169 56.5982 272.84 57.583 272.923C59.0601 273.005 60.8655 271.938 62.4247 269.968C63.3274 268.901 64.3122 267.998 65.379 267.424C67.0203 266.439 68.6616 266.274 69.9746 266.849C70.549 267.095 70.7952 267.752 70.549 268.326C70.3028 268.901 69.6463 269.147 69.0719 268.901C68.4154 268.573 67.5127 268.737 66.4458 269.393C65.6252 269.886 64.8046 270.542 64.1481 271.445C62.0965 273.907 59.6346 275.303 57.5009 275.138C56.9265 275.138 56.1879 275.303 55.5314 275.713C54.7107 276.205 53.8901 276.862 53.2336 277.765C51.182 280.227 48.8022 281.622 46.5864 281.458C46.012 281.458 45.2734 281.622 44.6169 282.033C43.7963 282.525 42.9757 283.182 42.3191 284.085C40.2676 286.547 37.8056 287.942 35.672 287.778C35.0975 287.778 34.359 287.942 33.7025 288.352C32.3074 289.173 30.9123 290.65 30.0096 292.538C29.5993 293.113 29.189 293.359 28.7787 293.359Z" fill="#75CDFB"/>
<path d="M202.425 292.621C202.425 294.016 201.441 295.658 200.292 296.397C199.061 297.053 198.158 296.561 198.158 295.165C198.158 293.77 199.143 292.129 200.292 291.39C201.441 290.651 202.425 291.226 202.425 292.621Z" fill="#75CDFB"/>
<path d="M209.401 288.599C209.401 289.994 208.416 291.635 207.267 292.374C206.036 293.031 205.133 292.538 205.133 291.143C205.133 289.748 206.118 288.106 207.267 287.367C208.498 286.629 209.401 287.203 209.401 288.599Z" fill="#75CDFB"/>
<path d="M216.458 284.495C216.458 285.89 215.473 287.532 214.325 288.271C213.094 288.927 212.191 288.435 212.191 287.039C212.191 285.644 213.176 284.003 214.325 283.264C215.473 282.607 216.458 283.182 216.458 284.495Z" fill="#75CDFB"/>
<path d="M223.434 280.474C223.434 281.869 222.449 283.51 221.3 284.249C220.069 284.906 219.166 284.413 219.166 283.018C219.166 281.623 220.151 279.981 221.3 279.242C222.449 278.504 223.434 279.078 223.434 280.474Z" fill="#75CDFB"/>
<path d="M158.932 108.036C158.932 109.431 157.947 111.073 156.798 111.812C155.649 112.55 154.664 111.976 154.664 110.58C154.664 109.185 155.649 107.544 156.798 106.805C157.947 106.066 158.932 106.641 158.932 108.036Z" fill="#75CDFB"/>
<path d="M164.922 104.589C164.922 105.984 163.937 107.626 162.789 108.364C161.64 109.103 160.655 108.528 160.655 107.133C160.655 105.738 161.64 104.096 162.789 103.358C163.937 102.619 164.922 103.194 164.922 104.589Z" fill="#75CDFB"/>
<path d="M158.932 101.142C158.932 102.537 157.947 104.178 156.798 104.917C155.649 105.656 154.664 105.081 154.664 103.686C154.664 102.291 155.649 100.649 156.798 99.9105C157.947 99.2539 158.932 99.7463 158.932 101.142Z" fill="#FF2C9C"/>
<path d="M164.922 97.6943C164.922 99.0896 163.937 100.731 162.789 101.47C161.64 102.208 160.655 101.634 160.655 100.239C160.655 98.8434 161.64 97.2019 162.789 96.4632C163.937 95.8066 164.922 96.2991 164.922 97.6943Z" fill="#75CDFB"/>
<path d="M351.453 149.237L347.103 151.781V146.775L351.453 144.312V149.237Z" fill="#75CDFB"/>
<path d="M358.428 145.215L354.161 147.759V142.752L358.428 140.208V145.215Z" fill="#10C9FF"/>
<path d="M365.486 141.193L361.136 143.655V138.649L365.486 136.187V141.193Z" fill="#75CDFB"/>
<path d="M372.461 137.172L368.194 139.634V134.627L372.461 132.165V137.172Z" fill="#75CDFB"/>
<path d="M143.257 140.045C142.519 140.455 141.78 141.112 141.124 141.851C141.042 137.665 138.005 136.023 134.313 138.157C133.164 138.814 132.015 139.799 131.03 141.03C129.389 138.157 126.024 137.501 122.085 139.799C116.587 143 112.073 150.797 112.073 157.116C112.073 157.609 112.155 158.101 112.155 158.594C111.335 158.429 110.432 158.594 109.365 159.168C106.739 160.728 104.606 164.421 104.606 167.458C104.606 170.494 106.739 171.726 109.365 170.248L143.175 150.715C145.719 149.237 147.771 145.708 147.771 142.753C147.935 139.799 145.801 138.568 143.257 140.045Z" fill="#10C9FF"/>
<path opacity="0.4" d="M122.659 255.113C121.839 255.605 121.1 256.262 120.443 257C120.361 252.568 117.161 250.845 113.304 253.061C112.073 253.8 110.842 254.867 109.857 256.098C108.134 253.061 104.523 252.322 100.338 254.784C94.5114 258.15 89.7517 266.357 89.7517 273.169C89.7517 273.744 89.8337 274.236 89.8337 274.728C89.0131 274.482 87.9463 274.646 86.8794 275.303C84.0893 276.945 81.7915 280.884 81.7915 284.085C81.7915 287.286 84.0893 288.599 86.8794 287.04L122.741 266.357C125.449 264.798 127.583 261.022 127.583 257.903C127.583 254.867 125.367 253.635 122.659 255.113Z" fill="#10C9FF"/>
<path d="M40.7597 124.533C38.7081 124.533 37.0668 122.892 37.0668 120.84C37.0668 118.788 38.7081 117.146 40.7597 117.146C42.8113 117.146 44.4526 118.788 44.4526 120.84C44.5346 122.81 42.8113 124.533 40.7597 124.533ZM40.7597 119.198C39.857 119.198 39.1184 119.937 39.1184 120.84C39.1184 121.743 39.857 122.481 40.7597 122.481C41.6624 122.481 42.401 121.743 42.401 120.84C42.401 119.855 41.6624 119.198 40.7597 119.198Z" fill="#75CDFB"/>
<path d="M30.5018 124.533C28.4502 124.533 26.8089 122.892 26.8089 120.84C26.8089 118.788 28.4502 117.146 30.5018 117.146C32.5534 117.146 34.1946 118.788 34.1946 120.84C34.2767 122.81 32.5534 124.533 30.5018 124.533ZM30.5018 119.198C29.5991 119.198 28.8605 119.937 28.8605 120.84C28.8605 121.743 29.5991 122.481 30.5018 122.481C31.4045 122.481 32.143 121.743 32.143 120.84C32.143 119.855 31.4045 119.198 30.5018 119.198Z" fill="#75CDFB"/>
<path d="M20.2438 123.466C21.7394 123.466 22.9519 122.253 22.9519 120.757C22.9519 119.261 21.7394 118.049 20.2438 118.049C18.7482 118.049 17.5357 119.261 17.5357 120.757C17.5357 122.253 18.7482 123.466 20.2438 123.466Z" fill="#FF2C9C"/>
<path opacity="0.4" d="M10.0681 123.466C11.5637 123.466 12.7762 122.253 12.7762 120.757C12.7762 119.261 11.5637 118.049 10.0681 118.049C8.57244 118.049 7.35999 119.261 7.35999 120.757C7.35999 122.253 8.57244 123.466 10.0681 123.466Z" fill="#75CDFB"/>
<path d="M230.655 107.379C230.327 107.379 230.163 107.133 230.163 106.887V76.8479C230.163 76.5196 230.409 76.3555 230.655 76.3555C230.901 76.3555 231.147 76.6017 231.147 76.8479V106.805C231.147 107.133 230.901 107.379 230.655 107.379Z" fill="#396CAA"/>
<path d="M233.199 74.96H228.029V86.2041H233.199V74.96Z" fill="#5793CE"/>
<path d="M232.46 87.2709C231.476 87.8454 229.834 87.8454 228.768 87.2709C227.783 86.6964 227.783 85.7115 228.768 85.1369C229.752 84.5624 231.394 84.5624 232.46 85.1369C233.527 85.7115 233.527 86.6964 232.46 87.2709Z" fill="#5793CE"/>
<path d="M234.924 59.2842H226.471V76.9301H234.924V59.2842Z" fill="#5793CE"/>
<path d="M228.029 76.8479V80.6234C229.588 81.362 231.722 81.362 233.199 80.6234V76.8479C231.722 76.1093 229.588 76.1093 228.029 76.8479Z" fill="#396CAA"/>
<path d="M233.609 78.6536C231.968 79.6385 229.26 79.6385 227.619 78.6536C225.977 77.6687 225.977 76.1913 227.619 75.2064C229.26 74.2215 231.968 74.2215 233.609 75.2064C235.251 76.1913 235.251 77.7508 233.609 78.6536Z" fill="#5793CE"/>
<path d="M259.87 123.794C259.541 123.794 259.377 123.547 259.377 123.301V93.344C259.377 93.0157 259.624 92.8516 259.87 92.8516C260.198 92.8516 260.362 93.0978 260.362 93.344V123.301C260.444 123.547 260.198 123.794 259.87 123.794Z" fill="#396CAA"/>
<path d="M262.414 91.4561H257.244V102.7H262.414V91.4561Z" fill="#5793CE"/>
<path d="M261.757 103.767C260.772 104.341 259.131 104.341 258.064 103.767C257.079 103.192 257.079 102.208 258.064 101.633C259.049 101.059 260.69 101.059 261.757 101.633C262.742 102.208 262.742 103.11 261.757 103.767Z" fill="#5793CE"/>
<path d="M264.138 75.7803H255.686V93.4262H264.138V75.7803Z" fill="#5793CE"/>
<path d="M257.244 93.262V97.0374C258.803 97.7761 260.937 97.7761 262.414 97.0374V93.262C260.937 92.6054 258.803 92.6054 257.244 93.262Z" fill="#396CAA"/>
<path d="M262.824 95.1496C261.183 96.1345 258.475 96.1345 256.833 95.1496C255.192 94.1648 255.192 92.6874 256.833 91.7025C258.475 90.7176 261.183 90.7176 262.824 91.7025C264.547 92.6053 264.547 94.1648 262.824 95.1496Z" fill="#5793CE"/>
<path d="M288.264 104.999L299.588 98.3508L288.838 84.8906L285.966 89.4868L288.264 104.999Z" fill="#5793CE"/>
<path d="M206.118 31.2144L224.172 20.791C224.172 20.791 223.516 31.1324 223.516 31.2144L213.176 34.4153L206.118 31.2144Z" fill="#5793CE"/>
<path d="M291.464 71.1844C290.069 70.3637 288.756 69.9533 287.525 69.7071C285.72 60.1044 279.073 50.0093 271.112 45.4131C268.733 44.0179 266.435 43.2792 264.383 43.1151C263.316 31.5426 255.274 18.3287 245.426 12.6656C240.339 9.71089 235.661 9.3826 232.214 11.1882L232.05 11.2703C231.968 11.3524 231.886 11.3524 231.804 11.4345L221.136 17.7542L224.664 20.5447C221.464 21.9399 219.494 25.4691 219.494 30.7219C219.494 40.4066 226.306 52.2253 234.758 57.0677L291.382 97.5302C297.701 101.141 302.789 98.1868 302.789 90.9643C302.789 83.7418 297.783 74.8777 291.464 71.1844Z" fill="#5793CE"/>
<path d="M220.069 26.4542L244.524 12.1733C239.764 9.71108 235.497 9.46486 232.296 11.1884L232.132 11.2705C232.05 11.3526 231.968 11.3526 231.886 11.4346L221.218 17.7543L224.746 20.5449C222.531 21.5298 220.889 23.5816 220.069 26.4542Z" fill="#5793CE"/>
<path d="M265.204 68.4764L283.012 57.9709C279.975 52.7182 275.708 48.04 271.112 45.3315C270.456 45.0032 269.882 44.6749 269.307 44.4287L246.575 57.7247L265.204 68.4764Z" fill="#5793CE"/>
<path d="M226.224 18.9037L234.184 23.4999L248.709 14.9642C247.642 14.1434 246.575 13.4048 245.426 12.7482C243.703 11.7633 241.98 11.0246 240.339 10.6143L226.224 18.9037Z" fill="#D4ECFF"/>
<path d="M281.042 54.9336L266.845 63.3052L271.769 68.8041L284.653 61.1712C283.668 59.0373 282.437 56.9034 281.042 54.9336Z" fill="#D4ECFF"/>
<path d="M280.221 77.751C278.826 76.9302 277.513 76.5199 276.282 76.2736C274.477 66.671 267.83 56.5758 259.87 51.9797C257.49 50.5844 255.192 49.8458 253.14 49.6816C252.074 38.1092 244.031 24.8952 234.184 19.2321C223.68 13.1586 215.145 18.0831 215.145 30.23C215.145 30.6404 215.145 31.0508 215.145 31.4612C207.431 27.8499 201.44 31.9536 201.44 41.0638C201.44 50.7486 208.252 62.5673 216.704 67.4096L280.221 104.097C286.54 107.708 291.628 104.753 291.628 97.5308C291.628 90.3083 286.54 81.4443 280.221 77.751Z" fill="#D4ECFF"/>
<path d="M215.227 31.543C215.227 31.1326 215.227 30.7222 215.227 30.3118C215.227 30.3118 215.227 30.3118 215.227 30.2298C210.96 28.5883 207.349 29.327 205.051 31.9533C207.513 29.9015 211.124 29.6553 215.227 31.543Z" fill="#75CDFB"/>
<path d="M281.206 76.8481C279.811 76.0273 278.498 75.617 277.267 75.3707C275.462 65.7681 268.815 55.673 260.854 51.0768C258.475 49.6815 256.177 48.9429 254.125 48.7787C253.058 37.2063 245.016 24.0744 235.169 18.4113C228.603 14.6359 222.859 15.1283 219.412 18.9858C222.941 16.0311 228.275 15.867 234.266 19.3141C244.031 24.9772 252.156 38.1091 253.223 49.7636C255.274 49.9278 257.572 50.6664 259.952 52.0617C267.912 56.6578 274.559 66.835 276.364 76.3556C277.595 76.5198 278.908 77.0122 280.304 77.833C286.622 81.4442 291.71 90.3082 291.71 97.6128C291.71 100.239 291.054 102.291 289.905 103.686C291.628 102.373 292.695 99.993 292.695 96.71C292.613 89.4054 287.525 80.5414 281.206 76.8481Z" fill="#75CDFB"/>
<path d="M213.914 34.4974L218.674 36.7134L218.428 31.4607C218.428 31.1324 218.428 30.722 218.428 30.3937C218.428 25.7155 219.823 22.2684 222.449 20.791C224.993 19.3137 228.686 19.8061 232.707 22.1042C241.405 27.1107 249.037 39.4219 250.104 50.0915L250.35 52.7999L253.058 53.0462C254.7 53.2103 256.505 53.7848 258.393 54.9339C265.368 58.9555 271.605 68.2299 273.246 77.0939L273.656 79.3099L275.872 79.6382C276.775 79.8023 277.678 80.1306 278.662 80.7052C283.996 83.824 288.51 91.621 288.51 97.7766C288.51 100.075 287.853 101.798 286.787 102.455C285.638 103.111 283.914 102.783 281.863 101.634L218.346 64.9469C210.96 60.6791 204.723 49.8453 204.723 41.3096C204.723 37.9445 205.708 35.4002 207.431 34.3333C208.17 33.8408 208.99 33.6767 209.975 33.6767C211.124 33.4305 212.437 33.7588 213.914 34.4974Z" fill="url(#paint0_radial)"/>
<path d="M245.591 74.3029L247.232 73.4L245.591 72.1689V74.3029Z" fill="#5793CE"/>
<path d="M240.585 51.6508L242.226 50.8301V51.6508H240.585Z" fill="#5793CE"/>
<path d="M250.35 68.9689L252.074 68.1481L248.791 65.0293L250.35 68.9689Z" fill="#5793CE"/>
<path d="M246.822 73.4005L238.861 68.7223C238.451 68.4761 238.123 67.9015 238.123 67.4091V58.2168L247.478 63.7158V72.9081C247.478 73.4005 247.15 73.6467 246.822 73.4005Z" fill="#5793CE"/>
<path d="M242.144 50.83L233.609 56.329C233.281 56.5752 233.527 57.396 234.102 57.7243L242.882 62.8949L251.663 68.0656C252.238 68.3939 252.484 67.9015 252.156 67.2449L243.621 51.6508C243.211 50.9942 242.554 50.5838 242.144 50.83Z" fill="#5793CE"/>
<path d="M245.098 74.2208L237.138 69.5426C236.728 69.2964 236.399 68.7219 236.399 68.2294V59.0371L245.755 64.5361V73.7284C245.837 74.2208 245.508 74.467 245.098 74.2208Z" fill="#D4ECFF"/>
<path d="M240.503 51.6504L231.968 57.1493C231.64 57.3955 231.886 58.2163 232.46 58.5446L241.241 63.7152L250.022 68.8859C250.596 69.2142 250.843 68.7218 250.514 68.0652L241.98 52.4711C241.487 51.8145 240.831 51.4041 240.503 51.6504Z" fill="#D4ECFF"/>
<path d="M229.834 84.234C229.834 84.7265 229.506 84.9727 229.014 84.7265C228.603 84.4803 228.193 83.8237 228.193 83.3312C228.193 82.8388 228.521 82.5926 229.014 82.8388C229.506 83.085 229.834 83.7416 229.834 84.234Z" fill="#D4ECFF"/>
<path d="M259.131 100.977C259.131 101.47 258.803 101.716 258.311 101.47C257.9 101.223 257.49 100.567 257.49 100.074C257.49 99.5819 257.818 99.3357 258.311 99.5819C258.803 99.8282 259.131 100.403 259.131 100.977Z" fill="#D4ECFF"/>
<path d="M189.869 279.079L98.6966 226.469C96.1526 224.992 96.4808 222.365 99.4351 220.642L161.475 184.858C164.429 183.134 168.943 182.97 171.569 184.447L262.742 237.057C265.286 238.534 264.957 241.16 262.003 242.884L199.963 278.668C197.009 280.392 192.495 280.556 189.869 279.079Z" fill="#7DC3EA"/>
<path d="M194.301 271.035C192.495 271.035 190.69 270.625 189.377 269.886L98.2041 217.277C96.727 216.456 95.9064 215.225 95.9064 213.83C95.9064 212.27 96.9732 210.711 98.9427 209.644L160.983 173.86C164.265 171.972 169.189 171.726 172.143 173.449L263.316 225.977C264.793 226.797 265.614 228.029 265.614 229.424C265.614 230.983 264.547 232.543 262.577 233.61L200.537 269.476C198.732 270.543 196.434 271.035 194.301 271.035ZM167.22 174.352C165.414 174.352 163.527 174.762 162.05 175.665L100.01 211.45C98.7786 212.106 98.1221 213.009 98.1221 213.83C98.1221 214.568 98.7786 215.143 99.353 215.389L190.526 267.999C192.741 269.312 196.845 269.066 199.553 267.588L261.593 231.804C262.824 231.147 263.48 230.245 263.48 229.424C263.48 228.685 262.824 228.111 262.249 227.864L171.077 175.255C170.092 174.68 168.697 174.352 167.22 174.352Z" fill="#75CDFB"/>
<path d="M285.309 126.503L194.219 73.8931C193.152 73.3186 192.085 73.1545 191.1 73.4828L190.936 73.5648L187.653 74.7959L190.608 76.2733C190.608 76.3553 190.608 76.3554 190.526 76.4374L174.441 149.648C173.703 153.013 175.18 156.952 177.724 158.429L266.681 209.89L266.352 213.665L269.963 212.27C271.194 211.696 272.179 210.465 272.507 208.577L288.592 135.367C289.412 132.002 287.935 128.062 285.309 126.503Z" fill="#173D7A"/>
<path d="M285.309 126.503L194.219 73.8931C193.152 73.3186 192.085 73.1545 191.1 73.4828L190.936 73.5648L187.653 74.7959L190.608 76.2733C190.608 76.3553 190.608 76.3554 190.526 76.4374L179.529 126.667L224.09 161.384L288.263 130.114C287.607 128.637 286.622 127.241 285.309 126.503Z" fill="#396CAA"/>
<path d="M281.944 136.926L288.92 133.971C289.084 131.263 287.935 128.472 286.13 126.995L275.133 131.591L281.944 136.926Z" fill="#274F89"/>
<path d="M263.234 213.337L172.061 160.728C169.517 159.251 167.958 155.311 168.779 151.946L184.863 78.7358C185.602 75.3707 188.31 73.8113 190.854 75.2887L282.027 127.898C284.571 129.376 286.13 133.315 285.309 136.68L269.225 209.89C268.486 213.255 265.778 214.815 263.234 213.337Z" fill="url(#paint1_radial)"/>
<path d="M282.929 127.488L191.757 74.8782C190.526 74.1395 189.213 74.1395 188.146 74.7141C188.967 74.5499 189.951 74.632 190.854 75.2065L282.027 127.816C284.571 129.293 286.13 133.233 285.309 136.598L269.225 209.808C268.814 211.532 267.912 212.763 266.763 213.419C268.322 213.091 269.553 211.696 270.045 209.48L286.13 136.27C286.95 132.905 285.473 128.965 282.929 127.488Z" fill="#75CDFB"/>
<path d="M261.264 208.249L175.59 158.758C173.21 157.363 171.897 153.752 172.554 150.715L187.407 83.2499C188.064 80.1311 190.526 78.7358 192.905 80.1311L278.58 129.622C280.96 131.017 282.273 134.628 281.616 137.665L266.763 205.13C266.106 208.249 263.644 209.644 261.264 208.249Z" fill="#75CDFB"/>
<path d="M261.264 208.249L175.59 158.758C173.21 157.363 171.897 153.752 172.554 150.715L187.407 83.2499C188.064 80.1311 190.526 78.7358 192.905 80.1311L278.58 129.622C280.96 131.017 282.273 134.628 281.616 137.665L266.763 205.13C266.106 208.249 263.644 209.644 261.264 208.249Z" fill="url(#paint2_radial)"/>
<path d="M262.003 208.003L176.329 158.512C173.949 157.117 172.636 153.505 173.292 150.469L188.146 83.0037C188.474 81.4443 189.295 80.2952 190.279 79.7207C188.884 80.049 187.818 81.3622 187.407 83.2499L172.554 150.715C171.897 153.834 173.21 157.445 175.59 158.758L261.264 208.249C262.413 208.905 263.644 208.905 264.629 208.331C263.808 208.577 262.906 208.495 262.003 208.003Z" fill="#5793CE"/>
<path d="M264.465 215.635L251.991 213.994L171.569 167.54C169.025 166.063 164.512 166.227 161.475 167.95L104.523 200.862L96.9732 199.877V204.145C96.8911 205.13 97.4656 206.115 98.6965 206.771L189.869 259.381C192.413 260.858 196.927 260.694 199.963 258.971L262.003 223.186C263.644 222.201 264.547 220.97 264.465 219.821V215.635Z" fill="#173D7A"/>
<path d="M204.066 186.253L198.322 182.97H135.543L104.605 200.862L97.0552 199.877V204.145C96.9732 205.13 97.5476 206.115 98.7786 206.771L189.951 259.381C191.346 260.201 193.234 260.448 195.121 260.366L204.066 186.253Z" fill="#396CAA"/>
<path d="M100.338 200.287L96.9732 199.877V204.145C96.8911 205.13 97.4656 206.115 98.6966 206.771L100.338 207.674V200.287Z" fill="#5793CE"/>
<path d="M190.854 259.791C193.316 260.694 196.762 260.53 199.388 259.299V249.778H190.854V259.791Z" fill="#274F89"/>
<path d="M189.869 255.113L98.6966 202.503C96.1526 201.026 96.4808 198.4 99.4351 196.676L161.475 160.892C164.429 159.168 168.943 159.004 171.569 160.481L262.742 213.091C265.286 214.568 264.957 217.195 262.003 218.918L199.963 254.702C197.009 256.426 192.495 256.59 189.869 255.113Z" fill="url(#paint3_radial)"/>
<path d="M262.003 217.277L199.963 253.061C197.009 254.785 192.495 254.949 189.869 253.472L98.6965 200.862C97.8759 200.37 97.3014 199.795 97.0552 199.139C96.6449 200.37 97.1373 201.601 98.6965 202.422L189.869 255.031C192.413 256.508 196.927 256.344 199.963 254.621L262.003 218.836C263.973 217.687 264.793 216.128 264.301 214.815C264.055 215.718 263.316 216.538 262.003 217.277Z" fill="#75CDFB"/>
<path d="M137.513 185.022L133.409 182.642C133.081 182.478 133.081 182.149 133.491 181.903L138.333 179.112C138.744 178.866 139.318 178.866 139.646 179.03L143.749 181.411C144.078 181.575 144.078 181.903 143.667 182.149L138.826 184.94C138.415 185.186 137.841 185.268 137.513 185.022Z" fill="#5793CE"/>
<path d="M143.914 188.715L139.81 186.335C139.482 186.171 139.482 185.843 139.892 185.596L144.734 182.806C145.145 182.56 145.719 182.56 146.047 182.724L150.15 185.104C150.479 185.268 150.479 185.596 150.068 185.843L145.227 188.633C144.816 188.879 144.242 188.961 143.914 188.715Z" fill="#5793CE"/>
<path d="M150.232 192.409L146.129 190.028C145.801 189.864 145.801 189.536 146.211 189.29L151.053 186.499C151.463 186.253 152.038 186.253 152.366 186.417L156.469 188.797C156.798 188.961 156.798 189.29 156.387 189.536L151.545 192.326C151.135 192.573 150.561 192.573 150.232 192.409Z" fill="#5793CE"/>
<path d="M159.095 189.371L154.992 186.991C154.664 186.827 154.664 186.499 155.074 186.252L159.177 183.872C159.588 183.626 160.162 183.626 160.49 183.79L164.594 186.17C164.922 186.334 164.922 186.663 164.512 186.909L160.408 189.289C159.998 189.535 159.424 189.535 159.095 189.371Z" fill="#5793CE"/>
<path d="M165.414 193.065L161.311 190.684C160.983 190.52 160.983 190.192 161.393 189.946L165.496 187.566C165.907 187.319 166.481 187.319 166.809 187.484L170.912 189.864C171.241 190.028 171.241 190.356 170.83 190.602L166.727 192.982C166.317 193.229 165.742 193.229 165.414 193.065Z" fill="#5793CE"/>
<path d="M171.815 196.758L167.712 194.378C167.384 194.214 167.384 193.885 167.794 193.639L171.897 191.259C172.308 191.013 172.882 191.013 173.21 191.177L177.313 193.557C177.642 193.721 177.642 194.049 177.231 194.296L173.128 196.676C172.718 196.922 172.143 196.922 171.815 196.758Z" fill="#5793CE"/>
<path d="M178.216 200.369L174.113 197.989C173.785 197.825 173.785 197.497 174.195 197.25L178.298 194.87C178.708 194.624 179.283 194.624 179.611 194.788L183.714 197.168C184.043 197.333 184.043 197.661 183.632 197.907L179.529 200.287C179.119 200.533 178.544 200.616 178.216 200.369Z" fill="#5793CE"/>
<path d="M184.535 204.063L180.432 201.682C180.104 201.518 180.104 201.19 180.514 200.944L184.617 198.564C185.027 198.317 185.602 198.317 185.93 198.482L190.033 200.862C190.362 201.026 190.362 201.354 189.951 201.6L185.848 203.981C185.438 204.227 184.863 204.309 184.535 204.063Z" fill="#5793CE"/>
<path d="M190.936 207.756L186.833 205.376C186.504 205.212 186.504 204.883 186.915 204.637L191.018 202.257C191.428 202.011 192.003 202.011 192.331 202.175L196.434 204.555C196.762 204.719 196.762 205.048 196.352 205.294L192.249 207.674C191.839 207.92 191.264 207.92 190.936 207.756Z" fill="#5793CE"/>
<path d="M197.255 211.449L193.152 209.069C192.823 208.905 192.823 208.577 193.234 208.331L197.337 205.95C197.747 205.704 198.322 205.704 198.65 205.868L202.753 208.248C203.081 208.413 203.081 208.741 202.671 208.987L198.568 211.367C198.158 211.613 197.583 211.613 197.255 211.449Z" fill="#5793CE"/>
<path d="M203.656 215.143L199.553 212.763C199.224 212.598 199.224 212.27 199.635 212.024L203.738 209.644C204.148 209.398 204.723 209.398 205.051 209.562L209.154 211.942C209.482 212.106 209.482 212.434 209.072 212.68L204.969 215.061C204.558 215.307 203.984 215.307 203.656 215.143Z" fill="#5793CE"/>
<path d="M210.057 218.754L205.954 216.374C205.625 216.21 205.625 215.881 206.036 215.635L210.139 213.255C210.549 213.009 211.124 213.009 211.452 213.173L215.555 215.553C215.883 215.717 215.883 216.046 215.473 216.292L211.37 218.672C210.959 218.918 210.385 219 210.057 218.754Z" fill="#5793CE"/>
<path d="M216.376 222.447L212.272 220.067C211.944 219.903 211.944 219.575 212.355 219.329L216.458 216.948C216.868 216.702 217.442 216.702 217.771 216.866L221.874 219.247C222.202 219.411 222.202 219.739 221.792 219.985L217.689 222.365C217.278 222.612 216.704 222.694 216.376 222.447Z" fill="#5793CE"/>
<path d="M168.451 187.648L164.347 185.267C164.019 185.103 164.019 184.775 164.429 184.529L168.533 182.149C168.943 181.902 169.517 181.902 169.846 182.067L173.949 184.447C174.277 184.611 174.277 184.939 173.867 185.185L169.764 187.566C169.353 187.812 168.779 187.812 168.451 187.648Z" fill="#5793CE"/>
<path d="M161.968 183.872L157.864 181.492C157.536 181.328 157.536 181 157.946 180.753L162.05 178.373C162.46 178.127 163.034 178.127 163.363 178.291L167.466 180.671C167.794 180.835 167.794 181.164 167.384 181.41L163.281 183.79C162.87 184.036 162.296 184.118 161.968 183.872Z" fill="#5793CE"/>
<path d="M155.485 180.179L146.622 175.091C146.293 174.927 146.293 174.598 146.704 174.352L150.807 171.972C151.217 171.726 151.792 171.726 152.12 171.89L160.983 176.978C161.311 177.143 161.311 177.471 160.901 177.717L156.798 180.097C156.469 180.343 155.813 180.343 155.485 180.179Z" fill="#5793CE"/>
<path d="M160.08 175.583L152.858 171.397C152.53 171.233 152.53 170.905 152.941 170.659L157.044 168.279C157.454 168.032 158.029 168.032 158.357 168.196L165.578 172.382C165.907 172.546 165.907 172.875 165.496 173.121L161.393 175.501C160.983 175.747 160.408 175.829 160.08 175.583Z" fill="#5793CE"/>
<path d="M174.852 191.341L170.748 188.961C170.42 188.797 170.42 188.468 170.83 188.222L174.934 185.842C175.344 185.596 175.918 185.596 176.247 185.76L180.35 188.14C180.678 188.304 180.678 188.633 180.268 188.879L176.165 191.259C175.754 191.505 175.18 191.505 174.852 191.341Z" fill="#5793CE"/>
<path d="M181.17 194.952L177.067 192.572C176.739 192.408 176.739 192.08 177.149 191.833L181.252 189.453C181.663 189.207 182.237 189.207 182.565 189.371L186.669 191.751C186.997 191.916 186.997 192.244 186.587 192.49L182.483 194.87C182.073 195.116 181.499 195.199 181.17 194.952Z" fill="#5793CE"/>
<path d="M187.571 198.646L183.468 196.265C183.14 196.101 183.14 195.773 183.55 195.527L187.653 193.147C188.064 192.9 188.638 192.9 188.966 193.065L193.07 195.445C193.398 195.609 193.398 195.937 192.988 196.183L188.884 198.564C188.474 198.81 187.9 198.892 187.571 198.646Z" fill="#5793CE"/>
<path d="M193.89 202.339L189.787 199.959C189.459 199.795 189.459 199.466 189.869 199.22L193.972 196.84C194.383 196.594 194.957 196.594 195.285 196.758L199.389 199.138C199.717 199.302 199.717 199.631 199.306 199.877L195.203 202.257C194.875 202.503 194.301 202.503 193.89 202.339Z" fill="#5793CE"/>
<path d="M200.291 206.032L196.188 203.652C195.86 203.488 195.86 203.16 196.27 202.914L200.373 200.533C200.784 200.287 201.358 200.287 201.686 200.451L205.79 202.831C206.118 202.996 206.118 203.324 205.707 203.57L201.604 205.95C201.194 206.197 200.62 206.197 200.291 206.032Z" fill="#5793CE"/>
<path d="M206.692 209.726L202.589 207.346C202.261 207.181 202.261 206.853 202.671 206.607L206.774 204.227C207.185 203.981 207.759 203.981 208.087 204.145L212.19 206.525C212.519 206.689 212.519 207.017 212.108 207.263L208.005 209.644C207.595 209.89 207.02 209.89 206.692 209.726Z" fill="#5793CE"/>
<path d="M213.011 213.337L208.908 210.957C208.58 210.793 208.58 210.464 208.99 210.218L213.093 207.838C213.503 207.592 214.078 207.592 214.406 207.756L218.509 210.136C218.838 210.3 218.838 210.629 218.427 210.875L214.324 213.255C213.914 213.501 213.339 213.583 213.011 213.337Z" fill="#5793CE"/>
<path d="M219.412 217.03L215.309 214.65C214.981 214.486 214.981 214.158 215.391 213.912L219.494 211.531C219.904 211.285 220.479 211.285 220.807 211.449L224.91 213.829C225.239 213.994 225.239 214.322 224.828 214.568L220.725 216.948C220.315 217.195 219.74 217.277 219.412 217.03Z" fill="#5793CE"/>
<path d="M225.731 220.724L221.628 218.344C221.299 218.179 221.299 217.851 221.71 217.605L225.813 215.225C226.223 214.979 226.798 214.979 227.126 215.143L231.229 217.523C231.557 217.687 231.557 218.015 231.147 218.262L227.044 220.642C226.716 220.888 226.141 220.888 225.731 220.724Z" fill="#5793CE"/>
<path d="M237.056 227.29L228.029 222.119C227.7 221.955 227.7 221.627 228.111 221.38L232.214 219C232.624 218.754 233.199 218.754 233.527 218.918L242.554 224.089C242.882 224.253 242.882 224.581 242.472 224.827L238.369 227.208C238.04 227.454 237.384 227.454 237.056 227.29Z" fill="#5793CE"/>
<path d="M249.529 220.068L241.897 215.718C241.569 215.553 241.569 215.225 241.979 214.979L246.083 212.599C246.493 212.353 247.067 212.353 247.396 212.517L255.028 216.867C255.356 217.031 255.356 217.359 254.946 217.605L250.842 219.986C250.432 220.232 249.858 220.314 249.529 220.068Z" fill="#5793CE"/>
<path d="M186.012 190.603L181.909 188.223C181.581 188.058 181.581 187.73 181.991 187.484L186.094 185.104C186.504 184.857 187.079 184.857 187.407 185.022L191.51 187.402C191.839 187.566 191.839 187.894 191.428 188.14L187.325 190.521C186.915 190.767 186.34 190.767 186.012 190.603Z" fill="#5793CE"/>
<path d="M179.447 186.827L175.344 184.447C175.016 184.283 175.016 183.955 175.426 183.708L179.529 181.328C179.939 181.082 180.514 181.082 180.842 181.246L184.945 183.626C185.274 183.791 185.274 184.119 184.863 184.365L180.76 186.745C180.35 186.991 179.775 186.991 179.447 186.827Z" fill="#5793CE"/>
<path d="M172.964 183.052L168.861 180.672C168.533 180.508 168.533 180.179 168.943 179.933L173.046 177.553C173.456 177.307 174.031 177.307 174.359 177.471L178.462 179.851C178.791 180.015 178.79 180.343 178.38 180.59L174.277 182.97C173.867 183.216 173.292 183.216 172.964 183.052Z" fill="#5793CE"/>
<path d="M166.399 179.277L162.296 176.896C161.967 176.732 161.967 176.404 162.378 176.158L166.481 173.778C166.891 173.531 167.466 173.531 167.794 173.695L171.897 176.076C172.225 176.24 172.225 176.568 171.815 176.814L167.712 179.194C167.302 179.441 166.727 179.441 166.399 179.277Z" fill="#5793CE"/>
<path d="M192.331 194.296L188.228 191.916C187.9 191.752 187.9 191.423 188.31 191.177L192.413 188.797C192.823 188.551 193.398 188.551 193.726 188.715L197.829 191.095C198.158 191.259 198.158 191.588 197.747 191.834L193.644 194.214C193.234 194.46 192.659 194.46 192.331 194.296Z" fill="#5793CE"/>
<path d="M198.732 197.907L194.629 195.527C194.301 195.363 194.301 195.035 194.711 194.789L198.814 192.408C199.224 192.162 199.799 192.162 200.127 192.326L204.23 194.706C204.559 194.871 204.559 195.199 204.148 195.445L200.045 197.825C199.635 198.072 199.06 198.154 198.732 197.907Z" fill="#5793CE"/>
<path d="M205.051 201.601L200.948 199.221C200.619 199.056 200.619 198.728 201.03 198.482L205.133 196.102C205.543 195.856 206.118 195.856 206.446 196.02L210.549 198.4C210.877 198.564 210.877 198.892 210.467 199.138L206.364 201.519C205.954 201.765 205.379 201.847 205.051 201.601Z" fill="#5793CE"/>
<path d="M211.452 205.294L207.349 202.914C207.02 202.75 207.02 202.421 207.431 202.175L211.534 199.795C211.944 199.549 212.519 199.549 212.847 199.713L216.95 202.093C217.278 202.257 217.278 202.586 216.868 202.832L212.765 205.212C212.354 205.458 211.78 205.458 211.452 205.294Z" fill="#5793CE"/>
<path d="M217.853 208.987L213.75 206.607C213.421 206.443 213.421 206.115 213.832 205.869L217.935 203.488C218.345 203.242 218.92 203.242 219.248 203.406L223.351 205.787C223.679 205.951 223.679 206.279 223.269 206.525L219.166 208.905C218.755 209.152 218.181 209.152 217.853 208.987Z" fill="#5793CE"/>
<path d="M224.172 212.681L220.069 210.301C219.74 210.136 219.74 209.808 220.151 209.562L224.254 207.182C224.664 206.936 225.239 206.936 225.567 207.1L229.67 209.48C229.998 209.644 229.998 209.972 229.588 210.219L225.485 212.599C225.074 212.845 224.5 212.845 224.172 212.681Z" fill="#5793CE"/>
<path d="M230.573 216.292L226.469 213.912C226.141 213.748 226.141 213.42 226.552 213.173L230.655 210.793C231.065 210.547 231.639 210.547 231.968 210.711L236.071 213.091C236.399 213.255 236.399 213.584 235.989 213.83L231.886 216.21C231.475 216.456 230.901 216.538 230.573 216.292Z" fill="#5793CE"/>
<path d="M236.892 219.985L232.788 217.605C232.46 217.441 232.46 217.113 232.87 216.867L236.974 214.487C237.384 214.24 237.958 214.24 238.287 214.404L242.39 216.785C242.718 216.949 242.718 217.277 242.308 217.523L238.205 219.903C237.794 220.15 237.22 220.232 236.892 219.985Z" fill="#5793CE"/>
<path d="M243.292 223.679L239.189 221.299C238.861 221.135 238.861 220.806 239.271 220.56L243.375 218.18C243.785 217.934 244.359 217.934 244.688 218.098L248.791 220.478C249.119 220.642 249.119 220.97 248.709 221.217L244.605 223.597C244.195 223.843 243.621 223.843 243.292 223.679Z" fill="#5793CE"/>
<path d="M182.648 181.492L178.544 179.112C178.216 178.948 178.216 178.62 178.626 178.374L182.73 175.993C183.14 175.747 183.714 175.747 184.043 175.911L188.146 178.291C188.474 178.456 188.474 178.784 188.064 179.03L183.961 181.41C183.55 181.656 182.976 181.656 182.648 181.492Z" fill="#5793CE"/>
<path d="M176.247 177.799L172.143 175.419C171.815 175.255 171.815 174.926 172.225 174.68L176.329 172.3C176.739 172.054 177.313 172.054 177.642 172.218L181.745 174.598C182.073 174.762 182.073 175.091 181.663 175.337L177.56 177.717C177.231 177.963 176.657 178.045 176.247 177.799Z" fill="#5793CE"/>
<path d="M169.928 174.188L165.824 171.807C165.496 171.643 165.496 171.315 165.906 171.069L170.01 168.689C170.42 168.442 170.994 168.442 171.323 168.607L175.426 170.987C175.754 171.151 175.754 171.479 175.344 171.725L171.241 174.106C170.83 174.352 170.256 174.352 169.928 174.188Z" fill="#5793CE"/>
<path d="M163.609 170.494L159.506 168.114C159.177 167.95 159.177 167.622 159.588 167.375L163.691 164.995C164.101 164.749 164.676 164.749 165.004 164.913L169.107 167.293C169.435 167.458 169.435 167.786 169.025 168.032L164.922 170.412C164.511 170.658 163.937 170.741 163.609 170.494Z" fill="#5793CE"/>
<path d="M170.092 166.719L165.989 164.339C165.66 164.175 165.66 163.846 166.071 163.6L167.384 162.779C167.794 162.533 168.368 162.533 168.697 162.697L172.8 165.078C173.128 165.242 173.128 165.57 172.718 165.816L171.405 166.637C171.077 166.883 170.42 166.965 170.092 166.719Z" fill="#5793CE"/>
<path d="M178.38 171.562L174.277 169.182C173.949 169.018 173.949 168.689 174.359 168.443L175.672 167.622C176.082 167.376 176.657 167.376 176.985 167.54L181.088 169.92C181.417 170.085 181.417 170.413 181.006 170.659L179.693 171.48C179.283 171.726 178.709 171.726 178.38 171.562Z" fill="#5793CE"/>
<path d="M184.699 175.173L180.596 172.793C180.268 172.629 180.268 172.301 180.678 172.054L181.991 171.234C182.401 170.987 182.976 170.987 183.304 171.152L187.407 173.532C187.735 173.696 187.735 174.024 187.325 174.27L186.012 175.091C185.602 175.337 185.027 175.337 184.699 175.173Z" fill="#5793CE"/>
<path d="M191.018 178.784L186.915 176.403C186.587 176.239 186.587 175.911 186.997 175.665L188.31 174.844C188.72 174.598 189.295 174.598 189.623 174.762L193.726 177.142C194.054 177.306 194.054 177.634 193.644 177.881L192.331 178.701C191.921 178.948 191.346 179.03 191.018 178.784Z" fill="#5793CE"/>
<path d="M197.337 182.478L193.234 180.098C192.905 179.934 192.905 179.605 193.316 179.359L194.629 178.538C195.039 178.292 195.614 178.292 195.942 178.456L200.045 180.836C200.373 181 200.373 181.329 199.963 181.575L198.65 182.396C198.24 182.642 197.665 182.642 197.337 182.478Z" fill="#5793CE"/>
<path d="M232.542 202.831L228.439 200.451C228.111 200.287 228.111 199.959 228.521 199.713L229.834 198.892C230.244 198.646 230.819 198.646 231.147 198.81L235.25 201.19C235.579 201.354 235.579 201.682 235.168 201.929L233.855 202.749C233.445 202.995 232.871 202.996 232.542 202.831Z" fill="#5793CE"/>
<path d="M238.861 206.443L234.758 204.063C234.43 203.898 234.43 203.57 234.84 203.324L236.153 202.503C236.563 202.257 237.138 202.257 237.466 202.421L241.569 204.801C241.897 204.965 241.897 205.294 241.487 205.54L240.174 206.361C239.764 206.607 239.189 206.607 238.861 206.443Z" fill="#5793CE"/>
<path d="M245.18 210.054L241.077 207.674C240.748 207.51 240.749 207.181 241.159 206.935L242.472 206.114C242.882 205.868 243.457 205.868 243.785 206.032L247.888 208.413C248.216 208.577 248.216 208.905 247.806 209.151L246.493 209.972C246.083 210.218 245.508 210.3 245.18 210.054Z" fill="#5793CE"/>
<path d="M251.499 213.747L247.396 211.367C247.067 211.203 247.067 210.875 247.478 210.629L248.791 209.808C249.201 209.562 249.776 209.562 250.104 209.726L254.207 212.106C254.535 212.27 254.535 212.598 254.125 212.845L252.812 213.665C252.402 213.911 251.827 213.911 251.499 213.747Z" fill="#5793CE"/>
<path d="M188.966 185.186L184.863 182.806C184.535 182.641 184.535 182.313 184.945 182.067L189.048 179.687C189.459 179.44 190.033 179.44 190.362 179.605L194.465 181.985C194.793 182.149 194.793 182.477 194.383 182.723L190.279 185.104C189.869 185.35 189.295 185.35 188.966 185.186Z" fill="#5793CE"/>
<path d="M195.367 188.879L191.264 186.499C190.936 186.335 190.936 186.006 191.346 185.76L195.449 183.38C195.86 183.134 196.434 183.134 196.763 183.298L200.866 185.678C201.194 185.842 201.194 186.171 200.784 186.417L196.68 188.797C196.27 189.043 195.696 189.043 195.367 188.879Z" fill="#5793CE"/>
<path d="M201.768 192.49L197.665 190.11C197.337 189.946 197.337 189.618 197.747 189.372L201.85 186.991C202.261 186.745 202.835 186.745 203.163 186.909L207.267 189.289C207.595 189.454 207.595 189.782 207.185 190.028L203.081 192.408C202.671 192.655 202.097 192.737 201.768 192.49Z" fill="#5793CE"/>
<path d="M208.087 196.184L203.984 193.804C203.656 193.639 203.656 193.311 204.066 193.065L208.169 190.685C208.58 190.439 209.154 190.439 209.482 190.603L213.586 192.983C213.914 193.147 213.914 193.475 213.503 193.722L209.4 196.102C208.99 196.348 208.416 196.43 208.087 196.184Z" fill="#5793CE"/>
<path d="M214.488 199.877L210.385 197.497C210.057 197.333 210.057 197.004 210.467 196.758L214.57 194.378C214.981 194.132 215.555 194.132 215.883 194.296L219.986 196.676C220.315 196.84 220.315 197.169 219.904 197.415L215.801 199.795C215.391 200.041 214.816 200.041 214.488 199.877Z" fill="#5793CE"/>
<path d="M220.807 203.57L216.704 201.19C216.376 201.026 216.376 200.698 216.786 200.452L220.889 198.071C221.3 197.825 221.874 197.825 222.202 197.989L226.305 200.37C226.634 200.534 226.634 200.862 226.223 201.108L222.12 203.488C221.71 203.735 221.135 203.735 220.807 203.57Z" fill="#5793CE"/>
<path d="M227.208 207.264L223.105 204.884C222.777 204.72 222.777 204.391 223.187 204.145L227.29 201.765C227.701 201.519 228.275 201.519 228.603 201.683L232.706 204.063C233.035 204.227 233.035 204.555 232.624 204.802L228.521 207.182C228.111 207.428 227.536 207.428 227.208 207.264Z" fill="#5793CE"/>
<path d="M233.609 210.875L229.506 208.495C229.178 208.331 229.178 208.003 229.588 207.756L233.691 205.376C234.101 205.13 234.676 205.13 235.004 205.294L239.107 207.674C239.436 207.838 239.436 208.167 239.025 208.413L234.922 210.793C234.512 211.039 233.937 211.121 233.609 210.875Z" fill="#5793CE"/>
<path d="M239.928 214.568L235.825 212.188C235.496 212.024 235.496 211.696 235.907 211.45L240.01 209.07C240.42 208.823 240.995 208.823 241.323 208.987L245.426 211.368C245.754 211.532 245.754 211.86 245.344 212.106L241.241 214.486C240.831 214.733 240.256 214.815 239.928 214.568Z" fill="#5793CE"/>
<path d="M152.612 185.596L140.467 178.62C140.139 178.456 140.139 178.128 140.549 177.881L144.652 175.501C145.062 175.255 145.637 175.255 145.965 175.419L158.111 182.395C158.439 182.56 158.439 182.888 158.029 183.134L153.925 185.514C153.515 185.76 152.941 185.843 152.612 185.596Z" fill="#5793CE"/>
<path d="M230.819 230.819L218.673 223.843C218.345 223.678 218.345 223.35 218.756 223.104L222.859 220.724C223.269 220.478 223.843 220.478 224.172 220.642L236.317 227.618C236.645 227.782 236.645 228.11 236.235 228.357L232.132 230.737C231.722 230.983 231.147 230.983 230.819 230.819Z" fill="#5793CE"/>
<path d="M205.379 224.253L201.276 221.873C200.948 221.709 200.948 221.381 201.358 221.134L206.2 218.344C206.61 218.098 207.185 218.098 207.513 218.262L211.616 220.642C211.944 220.806 211.944 221.134 211.534 221.381L206.692 224.171C206.282 224.417 205.707 224.417 205.379 224.253Z" fill="#5793CE"/>
<path d="M159.095 197.497L152.53 193.722C152.202 193.558 152.202 193.229 152.612 192.983L157.454 190.193C157.864 189.946 158.439 189.946 158.767 190.11L165.332 193.886C165.66 194.05 165.66 194.378 165.25 194.625L160.408 197.415C159.998 197.661 159.424 197.743 159.095 197.497Z" fill="#5793CE"/>
<path d="M199.224 220.642L192.659 216.866C192.331 216.702 192.331 216.374 192.741 216.128L197.583 213.337C197.993 213.091 198.568 213.091 198.896 213.255L205.461 217.03C205.789 217.195 205.789 217.523 205.379 217.769L200.537 220.56C200.127 220.806 199.553 220.888 199.224 220.642Z" fill="#5793CE"/>
<path d="M168.286 202.832L161.721 199.057C161.393 198.893 161.393 198.564 161.803 198.318L166.645 195.528C167.055 195.281 167.63 195.281 167.958 195.445L174.523 199.221C174.851 199.385 174.851 199.713 174.441 199.96L169.599 202.75C169.189 202.996 168.615 202.996 168.286 202.832Z" fill="#5793CE"/>
<path d="M167.958 195.445L196.598 212.024C196.927 212.271 196.927 212.599 196.598 212.763L191.675 215.636C191.346 215.882 190.772 215.882 190.362 215.636L161.721 199.057L167.958 195.445Z" fill="#5793CE"/>
<path d="M223.187 230.902L227.782 233.528C228.029 233.692 228.029 233.938 227.7 234.102L225.731 235.251C225.403 235.416 224.91 235.416 224.664 235.334L220.069 232.707C219.822 232.543 219.822 232.297 220.151 232.133L222.12 230.984C222.366 230.737 222.859 230.737 223.187 230.902Z" fill="#5793CE"/>
<path d="M216.704 227.208L221.3 229.835C221.546 229.999 221.546 230.245 221.217 230.409L219.248 231.558C218.92 231.722 218.427 231.722 218.181 231.64L213.586 229.014C213.339 228.85 213.339 228.603 213.668 228.439L215.637 227.29C215.965 227.044 216.458 227.044 216.704 227.208Z" fill="#5793CE"/>
<path d="M210.385 223.515L214.981 226.141C215.227 226.305 215.227 226.552 214.898 226.716L212.929 227.865C212.601 228.029 212.108 228.029 211.862 227.947L207.267 225.32C207.02 225.156 207.02 224.91 207.349 224.746L209.318 223.597C209.646 223.351 210.057 223.351 210.385 223.515Z" fill="#5793CE"/>
<path d="M220.233 225.155L224.828 227.782C225.074 227.946 225.074 228.192 224.746 228.356L222.777 229.505C222.448 229.669 221.956 229.669 221.71 229.587L217.114 226.961C216.868 226.797 216.868 226.551 217.196 226.387L219.166 225.237C219.494 224.991 219.986 224.991 220.233 225.155Z" fill="#5793CE"/>
<path d="M207.431 114.11L197.091 108.118L197.501 105.902L207.923 111.894L207.431 114.11Z" fill="#D4ECFF"/>
<path d="M206.282 119.281L195.942 113.371L196.434 111.073L206.774 117.065L206.282 119.281Z" fill="#75CDFB"/>
<path d="M257.161 191.177L246.821 185.186L247.232 182.97L257.572 188.961L257.161 191.177Z" fill="#D4ECFF"/>
<path d="M204.066 129.703L193.726 123.712L194.137 121.496L204.477 127.487L204.066 129.703Z" fill="#D4ECFF"/>
<path d="M248.216 158.84L209.893 136.68L210.385 134.218L248.709 156.378L248.216 158.84Z" fill="#D4ECFF"/>
<path d="M234.512 163.026L207.759 147.596L208.251 145.134L235.004 160.564L234.512 163.026Z" fill="#D4ECFF"/>
<path d="M231.968 155.475L208.826 142.179L209.318 139.635L232.46 153.013L231.968 155.475Z" fill="#75CDFB"/>
<path d="M227.044 134.136C226.716 134.956 225.731 135.203 224.992 134.792C224.172 134.382 223.843 133.315 224.254 132.494C224.582 131.673 225.567 131.427 226.305 131.838C227.044 132.33 227.454 133.315 227.044 134.136Z" fill="#FF2C9C"/>
<path d="M232.05 137.009C231.722 137.829 230.737 138.076 229.998 137.665C229.178 137.255 228.849 136.188 229.26 135.367C229.588 134.546 230.573 134.3 231.311 134.711C232.05 135.203 232.378 136.188 232.05 137.009Z" fill="#75CDFB"/>
<path d="M236.974 139.881C236.645 140.701 235.661 140.948 234.922 140.537C234.101 140.127 233.773 139.06 234.183 138.239C234.512 137.418 235.496 137.172 236.235 137.583C237.056 138.075 237.384 139.06 236.974 139.881Z" fill="#D4ECFF"/>
<path d="M241.98 142.754C241.651 143.574 240.666 143.821 239.928 143.41C239.107 143 238.779 141.933 239.189 141.112C239.518 140.292 240.502 140.045 241.241 140.456C242.062 140.948 242.39 141.933 241.98 142.754Z" fill="#FF2C9C"/>
<path d="M247.15 164.257L235.578 157.609L236.071 155.064L247.642 161.795L247.15 164.257Z" fill="#FF2C9C"/>
<path d="M288.51 300.993L250.76 279.161C249.365 278.34 249.529 276.945 251.171 276.042L291.218 252.897C292.777 251.994 295.239 251.912 296.634 252.651L334.383 274.483C335.778 275.303 335.614 276.699 333.973 277.602L293.926 300.746C292.285 301.649 289.905 301.731 288.51 300.993Z" fill="#7DC3EA"/>
<path d="M290.89 293.77C289.823 293.77 288.756 293.524 288.017 293.113L250.268 271.282C249.283 270.707 248.791 269.886 248.791 268.984C248.791 267.917 249.447 266.932 250.678 266.275L290.725 243.13C292.695 241.981 295.485 241.899 297.208 242.884L334.958 264.716C335.942 265.29 336.435 266.111 336.435 267.014C336.435 268.081 335.778 269.066 334.547 269.722L294.5 292.867C293.433 293.524 292.12 293.77 290.89 293.77ZM294.254 244.443C293.351 244.443 292.449 244.69 291.71 245.018L251.663 268.163C251.089 268.491 250.925 268.819 250.925 268.984C250.925 269.066 251.007 269.23 251.335 269.394L289.084 291.226C290.151 291.8 292.12 291.718 293.351 290.979L333.398 267.835C333.973 267.506 334.137 267.178 334.137 267.014C334.137 266.932 334.055 266.768 333.727 266.603L295.977 244.772C295.567 244.525 294.911 244.443 294.254 244.443Z" fill="#75CDFB"/>
<path d="M291.218 186.253C291.218 186.253 270.456 188.222 257.982 189.207L291.054 283.51L334.876 258.232L334.958 258.149C335.532 257.821 335.86 257.083 335.86 256.016V163.764C335.86 162.779 335.532 161.712 335.122 160.81L291.218 186.253Z" fill="url(#paint4_radial)"/>
<path d="M333.234 158.594L294.746 136.352C294.09 135.941 293.433 135.941 293.023 136.188L249.037 161.548L251.089 169.181L262.085 200.616L264.137 201.847L335.204 160.81C334.711 159.907 333.973 159.086 333.234 158.594Z" fill="url(#paint5_linear)"/>
<path opacity="0.5" d="M287.361 170.659L320.761 151.453L294.746 136.434C294.09 136.023 293.433 136.023 293.023 136.27L260.444 155.065L287.361 170.659Z" fill="#173D7A"/>
<path d="M289.248 283.346L250.76 261.104C249.283 260.201 248.052 257.903 248.052 255.933V163.764C248.052 161.794 249.283 160.81 250.76 161.712L289.248 183.954C290.725 184.857 291.956 187.155 291.956 189.125V281.294C291.956 283.346 290.807 284.249 289.248 283.346Z" fill="#5793CE"/>
<path d="M290.069 183.462L251.581 161.22C250.678 160.727 249.94 160.809 249.447 161.384C249.858 161.302 250.268 161.384 250.76 161.712L289.248 183.954C290.725 184.857 291.956 187.155 291.956 189.125V281.294C291.956 282.115 291.71 282.772 291.382 283.182C292.202 283.018 292.777 282.197 292.777 280.802V188.715C292.777 186.663 291.628 184.365 290.069 183.462Z" fill="#75CDFB"/>
<path d="M286.868 277.848L253.222 258.396C251.909 257.657 250.843 255.606 250.843 253.882V168.279C250.843 166.555 251.909 165.734 253.222 166.473L286.868 185.925C288.181 186.663 289.248 188.715 289.248 190.439V276.042C289.248 277.766 288.181 278.586 286.868 277.848Z" fill="url(#paint6_linear)"/>
<path d="M286.868 277.848L253.222 258.396C251.909 257.657 250.843 255.606 250.843 253.882V168.279C250.843 166.555 251.909 165.734 253.222 166.473L286.868 185.925C288.181 186.663 289.248 188.715 289.248 190.439V276.042C289.248 277.766 288.181 278.586 286.868 277.848Z" fill="url(#paint7_linear)"/>
<path d="M286.868 277.848L253.222 258.396C251.909 257.657 250.843 255.606 250.843 253.882V168.279C250.843 166.555 251.909 165.734 253.222 166.473L286.868 185.925C288.181 186.663 289.248 188.715 289.248 190.439V276.042C289.248 277.766 288.181 278.586 286.868 277.848Z" fill="#173D7A"/>
<path d="M287.935 277.191L254.289 257.739C252.976 257.001 251.909 254.949 251.909 253.225V167.622C251.909 167.047 252.073 166.555 252.238 166.227C251.417 166.227 250.76 166.965 250.76 168.278V253.882C250.76 255.605 251.827 257.657 253.14 258.396L286.786 277.847C287.689 278.34 288.428 278.176 288.838 277.519C288.592 277.437 288.263 277.355 287.935 277.191Z" fill="#396CAA"/>
<path d="M286.868 238.534L274.313 231.312L254.371 242.802L289.248 262.91V243.048C289.248 241.325 288.181 239.273 286.868 238.534Z" fill="#173D7A"/>
<path d="M286.868 220.971L274.313 213.748L254.371 225.238L289.248 245.347V225.485C289.248 223.761 288.181 221.709 286.868 220.971Z" fill="#173D7A"/>
<path d="M286.868 203.406L274.313 196.184L254.371 207.674L289.248 227.782V207.92C289.248 206.197 288.181 204.227 286.868 203.406Z" fill="#173D7A"/>
<path d="M286.868 185.925L274.313 178.702L254.371 190.193L289.248 210.301V190.439C289.248 188.715 288.181 186.663 286.868 185.925Z" fill="#173D7A"/>
<path d="M286.868 185.924L259.131 169.92L254.371 172.628L289.248 192.737V190.356C289.248 188.715 288.181 186.663 286.868 185.924Z" fill="#173D7A"/>
<path d="M289.248 192.737L254.371 172.629V183.709L289.248 203.899V192.737Z" fill="#5793CE"/>
<path d="M289.248 210.301L254.371 190.192V201.272L289.248 221.381V210.301Z" fill="#5793CE"/>
<path d="M289.248 227.864L254.371 207.756V218.836L289.248 238.944V227.864Z" fill="#5793CE"/>
<path d="M289.248 245.428L254.371 225.32V236.4L289.248 256.508V245.428Z" fill="#5793CE"/>
<path d="M289.248 262.91L254.371 242.802V253.882L289.248 274.072V262.91Z" fill="#5793CE"/>
<path d="M286.13 199.877L259.869 184.694C259.131 184.283 258.556 183.134 258.556 182.149V179.195C258.556 178.21 259.131 177.717 259.869 178.21L286.13 193.393C286.868 193.804 287.443 194.953 287.443 195.938V198.892C287.525 199.877 286.868 200.37 286.13 199.877Z" fill="#173D7A"/>
<path opacity="0.3" d="M261.265 184.201C260.526 183.791 259.952 182.642 259.952 181.657V178.702C259.952 178.538 259.952 178.374 260.034 178.292C259.295 177.881 258.721 178.292 258.721 179.277V182.231C258.721 183.216 259.295 184.365 260.034 184.776L286.294 199.959C286.951 200.288 287.443 200.041 287.607 199.385L261.265 184.201Z" fill="#06033E"/>
<path d="M277.923 191.752L262.167 182.642C261.921 182.478 261.675 182.068 261.675 181.739C261.675 181.411 261.921 181.247 262.167 181.411L277.923 190.521C278.17 190.685 278.416 191.096 278.416 191.424C278.416 191.752 278.17 191.917 277.923 191.752Z" fill="#75CDFB"/>
<path d="M286.13 217.359L259.869 202.175C259.131 201.765 258.556 200.616 258.556 199.631V196.676C258.556 195.691 259.131 195.199 259.869 195.691L286.13 210.875C286.868 211.285 287.443 212.434 287.443 213.419V216.374C287.525 217.359 286.868 217.769 286.13 217.359Z" fill="#173D7A"/>
<path opacity="0.3" d="M261.265 201.601C260.526 201.19 259.952 200.041 259.952 199.056V196.102C259.952 195.937 259.952 195.773 260.034 195.691C259.295 195.281 258.721 195.691 258.721 196.676V199.631C258.721 200.616 259.295 201.765 260.034 202.175L286.294 217.359C286.951 217.687 287.443 217.441 287.607 216.784L261.265 201.601Z" fill="#06033E"/>
<path d="M277.923 209.234L262.167 200.124C261.921 199.959 261.675 199.549 261.675 199.221C261.675 198.893 261.921 198.728 262.167 198.893L277.923 208.003C278.17 208.167 278.416 208.577 278.416 208.906C278.416 209.234 278.17 209.398 277.923 209.234Z" fill="#75CDFB"/>
<path d="M286.13 234.922L259.869 219.739C259.131 219.328 258.556 218.179 258.556 217.194V214.24C258.556 213.255 259.131 212.762 259.869 213.255L286.13 228.438C286.868 228.849 287.443 229.998 287.443 230.983V233.937C287.525 234.922 286.868 235.333 286.13 234.922Z" fill="#173D7A"/>
<path opacity="0.3" d="M261.265 219.246C260.526 218.836 259.952 217.687 259.952 216.702V213.665C259.952 213.501 259.952 213.337 260.034 213.255C259.295 212.844 258.721 213.255 258.721 214.24V217.194C258.721 218.179 259.295 219.328 260.034 219.739L286.294 234.922C286.951 235.251 287.443 235.004 287.607 234.348L261.265 219.246Z" fill="#06033E"/>
<path d="M277.923 226.797L262.167 217.687C261.921 217.523 261.675 217.113 261.675 216.784C261.675 216.456 261.921 216.292 262.167 216.456L277.923 225.566C278.17 225.73 278.416 226.141 278.416 226.469C278.416 226.797 278.17 226.962 277.923 226.797Z" fill="#D4ECFF"/>
<path d="M286.13 252.733L259.869 237.549C259.131 237.139 258.556 235.99 258.556 235.005V232.05C258.556 231.065 259.131 230.573 259.869 231.065L286.13 246.249C286.868 246.659 287.443 247.808 287.443 248.793V251.748C287.525 252.651 286.868 253.143 286.13 252.733Z" fill="#173D7A"/>
<path opacity="0.3" d="M261.265 236.975C260.526 236.564 259.952 235.415 259.952 234.43V231.476C259.952 231.311 259.952 231.147 260.034 231.065C259.295 230.655 258.721 231.065 258.721 232.05V235.005C258.721 235.99 259.295 237.139 260.034 237.549L286.294 252.733C286.951 253.061 287.443 252.815 287.607 252.158L261.265 236.975Z" fill="#06033E"/>
<path d="M277.923 244.526L262.167 235.416C261.921 235.251 261.675 234.841 261.675 234.513C261.675 234.185 261.921 234.02 262.167 234.185L277.923 243.295C278.17 243.459 278.416 243.869 278.416 244.198C278.416 244.526 278.17 244.69 277.923 244.526Z" fill="#FF2C9C"/>
<path d="M286.13 270.132L259.869 254.949C259.131 254.538 258.556 253.389 258.556 252.404V249.45C258.556 248.465 259.131 247.972 259.869 248.465L286.13 263.648C286.868 264.059 287.443 265.208 287.443 266.193V269.147C287.525 270.05 286.868 270.543 286.13 270.132Z" fill="#173D7A"/>
<path opacity="0.3" d="M261.265 254.374C260.526 253.964 259.952 252.815 259.952 251.83V248.875C259.952 248.711 259.952 248.547 260.034 248.465C259.295 248.054 258.721 248.465 258.721 249.45V252.404C258.721 253.389 259.295 254.538 260.034 254.948L286.294 270.132C286.951 270.46 287.443 270.214 287.607 269.558L261.265 254.374Z" fill="#06033E"/>
<path d="M277.923 262.007L262.167 252.897C261.921 252.733 261.675 252.323 261.675 251.994C261.675 251.666 261.921 251.502 262.167 251.666L277.923 260.776C278.17 260.94 278.416 261.351 278.416 261.679C278.416 261.925 278.17 262.089 277.923 262.007Z" fill="#D4ECFF"/>
<path opacity="0.5" d="M254.371 172.629L257.161 174.27V185.35L254.371 183.709V172.629Z" fill="#173D7A"/>
<path opacity="0.5" d="M254.371 190.192L257.161 191.752V202.832L254.371 201.272V190.192Z" fill="#173D7A"/>
<path opacity="0.5" d="M254.371 207.756L257.161 209.315V220.395L254.371 218.836V207.756Z" fill="#173D7A"/>
<path opacity="0.5" d="M254.371 225.32L257.161 226.88V237.96L254.371 236.4V225.32Z" fill="#173D7A"/>
<path opacity="0.5" d="M254.371 242.802L257.161 244.443V255.523L254.371 253.882V242.802Z" fill="#173D7A"/>
<path d="M281.042 192.901C281.042 193.229 280.796 193.393 280.467 193.229C280.139 193.065 279.893 192.655 279.893 192.244C279.893 191.916 280.139 191.752 280.467 191.916C280.796 192.08 281.042 192.49 281.042 192.901Z" fill="#D4ECFF"/>
<path d="M283.422 194.214C283.422 194.543 283.175 194.707 282.847 194.543C282.519 194.378 282.273 193.968 282.273 193.558C282.273 193.229 282.519 193.065 282.847 193.229C283.175 193.476 283.422 193.886 283.422 194.214Z" fill="#FF2C9C"/>
<path d="M285.719 195.609C285.719 195.937 285.473 196.101 285.145 195.937C284.817 195.773 284.571 195.363 284.571 194.952C284.571 194.624 284.817 194.46 285.145 194.624C285.473 194.788 285.719 195.198 285.719 195.609Z" fill="#D4ECFF"/>
<path d="M281.042 210.382C281.042 210.711 280.796 210.875 280.467 210.711C280.139 210.546 279.893 210.136 279.893 209.726C279.893 209.397 280.139 209.233 280.467 209.397C280.796 209.644 281.042 210.054 281.042 210.382Z" fill="#FF2C9C"/>
<path d="M283.422 211.778C283.422 212.106 283.175 212.27 282.847 212.106C282.519 211.942 282.273 211.532 282.273 211.121C282.273 210.793 282.519 210.629 282.847 210.793C283.175 210.957 283.422 211.367 283.422 211.778Z" fill="#D4ECFF"/>
<path d="M285.719 213.091C285.719 213.419 285.473 213.583 285.145 213.419C284.817 213.255 284.571 212.844 284.571 212.434C284.571 212.024 284.817 211.941 285.145 212.106C285.473 212.352 285.719 212.762 285.719 213.091Z" fill="#75CDFB"/>
<path d="M281.042 228.029C281.042 228.357 280.796 228.521 280.467 228.357C280.139 228.193 279.893 227.783 279.893 227.372C279.893 227.044 280.139 226.88 280.467 227.044C280.796 227.29 281.042 227.7 281.042 228.029Z" fill="#75CDFB"/>
<path d="M283.422 229.424C283.422 229.752 283.175 229.916 282.847 229.752C282.519 229.588 282.273 229.177 282.273 228.767C282.273 228.357 282.519 228.274 282.847 228.439C283.175 228.603 283.422 229.095 283.422 229.424Z" fill="#FF2C9C"/>
<path d="M285.719 230.819C285.719 231.147 285.473 231.311 285.145 231.147C284.817 230.983 284.571 230.573 284.571 230.162C284.571 229.834 284.817 229.67 285.145 229.834C285.473 229.998 285.719 230.408 285.719 230.819Z" fill="#75CDFB"/>
<path d="M281.042 245.51C281.042 245.838 280.796 246.003 280.467 245.839C280.139 245.674 279.893 245.264 279.893 244.854C279.893 244.525 280.139 244.361 280.467 244.525C280.796 244.689 281.042 245.1 281.042 245.51Z" fill="#75CDFB"/>
<path d="M283.422 246.824C283.422 247.152 283.175 247.316 282.847 247.152C282.519 246.988 282.273 246.578 282.273 246.167C282.273 245.757 282.519 245.675 282.847 245.839C283.175 246.085 283.422 246.496 283.422 246.824Z" fill="#D4ECFF"/>
<path d="M285.719 248.218C285.719 248.547 285.473 248.711 285.145 248.547C284.817 248.382 284.571 247.972 284.571 247.562C284.571 247.233 284.817 247.069 285.145 247.233C285.473 247.397 285.719 247.808 285.719 248.218Z" fill="#D4ECFF"/>
<path d="M281.042 263.157C281.042 263.485 280.796 263.649 280.467 263.485C280.139 263.321 279.893 262.91 279.893 262.5C279.893 262.172 280.139 262.008 280.467 262.172C280.796 262.336 281.042 262.746 281.042 263.157Z" fill="#75CDFB"/>
<path d="M283.422 264.469C283.422 264.797 283.175 264.962 282.847 264.797C282.519 264.633 282.273 264.223 282.273 263.813C282.273 263.484 282.519 263.32 282.847 263.484C283.175 263.731 283.422 264.141 283.422 264.469Z" fill="#FF2C9C"/>
<path d="M285.719 265.865C285.719 266.193 285.473 266.357 285.145 266.193C284.817 266.029 284.571 265.619 284.571 265.208C284.571 264.798 284.817 264.716 285.145 264.88C285.473 265.044 285.719 265.455 285.719 265.865Z" fill="#D4ECFF"/>
<path d="M297.783 270.953V192.49L297.947 192.408L330.772 173.449V251.912L330.608 251.994L297.783 270.953ZM298.439 192.819V269.804L330.116 251.502V174.516L298.439 192.819Z" fill="#173D7A"/>
<path d="M322.238 208.742L307.548 217.195C306.564 217.77 305.743 217.195 305.743 215.882V207.757C305.743 206.444 306.564 204.884 307.548 204.31L322.238 195.856C323.223 195.282 324.043 195.856 324.043 197.169V205.295C324.043 206.608 323.223 208.167 322.238 208.742Z" fill="#173D7A"/>
<path d="M322.567 195.609C322.649 195.855 322.731 196.102 322.731 196.43V204.555C322.731 205.868 321.91 207.428 320.925 208.002L306.236 216.456C306.154 216.538 305.99 216.538 305.908 216.62C306.154 217.359 306.81 217.605 307.549 217.195L322.238 208.741C323.223 208.166 324.044 206.607 324.044 205.294V197.168C324.044 196.019 323.387 195.363 322.567 195.609Z" fill="#5793CE"/>
<path d="M319.53 203.816C319.776 203.652 320.022 203.816 320.022 204.062V205.95C320.022 206.278 319.776 206.607 319.53 206.771C319.284 206.935 319.037 206.771 319.037 206.525V204.637C319.037 204.309 319.284 203.98 319.53 203.816Z" fill="#75CDFB"/>
<path d="M317.478 205.212C317.724 205.047 317.97 205.212 317.97 205.458V207.099C317.97 207.428 317.724 207.756 317.478 207.92C317.232 208.084 316.986 207.92 316.986 207.674V206.032C316.986 205.786 317.15 205.376 317.478 205.212Z" fill="#D4ECFF"/>
<path d="M315.344 204.636C315.591 204.472 315.837 204.636 315.837 204.883V208.33C315.837 208.658 315.591 208.986 315.344 209.15C315.098 209.315 314.852 209.15 314.852 208.904V205.457C314.852 205.211 315.098 204.801 315.344 204.636Z" fill="#FF2C9C"/>
<path d="M313.211 203.898C313.457 203.734 313.703 203.898 313.703 204.144V209.561C313.703 209.889 313.457 210.218 313.211 210.382C312.965 210.546 312.719 210.382 312.719 210.136V204.719C312.719 204.391 312.965 204.062 313.211 203.898Z" fill="#D4ECFF"/>
<path d="M311.077 205.704C311.323 205.54 311.57 205.704 311.57 205.95V210.792C311.57 211.121 311.323 211.449 311.077 211.613C310.831 211.777 310.585 211.613 310.585 211.367V206.525C310.585 206.196 310.831 205.868 311.077 205.704Z" fill="#D4ECFF"/>
<path d="M309.026 209.151C309.272 208.987 309.518 209.151 309.518 209.397V212.024C309.518 212.352 309.272 212.68 309.026 212.844C308.779 213.009 308.533 212.844 308.533 212.598V209.972C308.533 209.643 308.697 209.233 309.026 209.151Z" fill="#75CDFB"/>
<path d="M319.037 202.832C319.037 203.16 319.284 203.242 319.53 203.078C319.776 202.914 320.022 202.585 320.022 202.257C320.022 201.929 319.776 201.847 319.53 202.011C319.284 202.175 319.037 202.585 319.037 202.832Z" fill="#FF2C9C"/>
<path d="M319.037 201.108C319.037 201.436 319.284 201.518 319.53 201.354C319.776 201.19 320.022 200.862 320.022 200.533C320.022 200.205 319.776 200.123 319.53 200.287C319.284 200.451 319.037 200.78 319.037 201.108Z" fill="#75CDFB"/>
<path d="M331.675 123.794L325.028 119.936L349.565 105.82C350.714 105.163 350.714 104.096 349.565 103.357L324.536 88.9123C323.387 88.2557 321.499 88.2557 320.35 88.9123L295.813 103.029L289.166 99.1716L313.703 85.0548C318.545 82.2643 326.341 82.2643 331.183 85.0548L356.212 99.4999C361.054 102.29 361.054 106.804 356.212 109.595L331.675 123.794Z" fill="url(#paint8_radial)"/>
<path d="M342.425 125.435C342.425 121.906 340.292 117.721 337.584 116.243L293.187 90.636C291.956 89.9794 290.889 89.8974 290.069 90.3898L237.056 121.168L288.263 159.825L340.456 129.539C340.62 129.457 340.784 129.375 340.948 129.293C341.851 128.554 342.425 127.241 342.425 125.435Z" fill="url(#paint9_linear)"/>
<path d="M288.346 159.742L340.538 129.457C340.702 129.375 340.866 129.293 341.03 129.211C341.933 128.554 342.425 127.241 342.425 125.517C342.425 123.794 341.933 121.988 341.112 120.347L281.616 154.736L288.346 159.742Z" fill="#396CAA"/>
<path d="M284.981 159.66L240.585 134.053C237.959 132.494 235.743 128.39 235.743 124.861C235.743 121.332 237.876 119.69 240.585 121.25L284.981 146.857C287.607 148.416 289.823 152.52 289.823 156.049C289.823 159.496 287.689 161.138 284.981 159.66Z" fill="url(#paint10_radial)"/>
<path d="M285.555 146.529L241.159 120.921C239.928 120.183 238.779 120.183 237.958 120.675C238.697 120.429 239.6 120.593 240.585 121.168L284.981 146.775C287.607 148.334 289.823 152.438 289.823 155.967C289.823 157.855 289.166 159.25 288.181 159.825C289.494 159.414 290.315 157.937 290.315 155.721C290.315 152.192 288.181 148.088 285.555 146.529Z" fill="#75CDFB"/>
<path d="M278.334 150.96L273 147.841C272.507 147.513 272.015 146.692 272.015 146.036C272.015 145.297 272.425 144.969 273 145.297L278.334 148.416C278.826 148.744 279.319 149.565 279.319 150.222C279.319 150.96 278.908 151.289 278.334 150.96Z" fill="#FF2C9C"/>
<path d="M285.145 115.012C286.54 114.191 286.54 112.878 285.145 112.057C283.75 111.237 281.452 111.319 280.057 112.14C278.662 112.96 278.662 114.274 280.057 115.094C281.452 115.833 283.75 115.833 285.145 115.012Z" fill="#5793CE"/>
<path d="M292.941 119.362C294.336 118.541 294.336 117.228 292.941 116.407C291.546 115.586 289.248 115.668 287.853 116.489C286.458 117.31 286.458 118.623 287.853 119.444C289.248 120.265 291.546 120.183 292.941 119.362Z" fill="#75CDFB"/>
<path d="M300.655 123.712C302.05 122.892 302.05 121.578 300.655 120.758C299.26 119.937 296.962 120.019 295.567 120.84C294.172 121.661 294.172 122.974 295.567 123.794C296.962 124.533 299.26 124.533 300.655 123.712Z" fill="#75CDFB"/>
<path d="M64.3944 251.091C63.5737 251.091 62.7531 250.845 62.0145 250.434C60.3732 249.449 59.3885 247.48 59.3885 244.935C59.3885 240.011 62.7531 234.184 67.0204 231.721C69.2361 230.408 71.4518 230.244 73.0931 231.229C74.7344 232.214 75.7192 234.184 75.7192 236.728C75.7192 241.652 72.3545 247.48 68.0872 249.942C66.8563 250.762 65.5433 251.091 64.3944 251.091ZM70.7133 232.788C69.8926 232.788 68.9899 233.034 68.0872 233.609C64.4764 235.743 61.5221 240.832 61.5221 245.017C61.5221 246.823 62.0966 248.136 63.0814 248.711C64.0661 249.285 65.4612 249.121 67.0204 248.218C70.6312 246.084 73.5855 240.996 73.5855 236.81C73.5855 235.004 73.0111 233.691 72.0263 233.117C71.698 232.87 71.2056 232.788 70.7133 232.788Z" fill="#254D87"/>
<path d="M353.997 198.481C353.832 198.481 353.668 198.399 353.504 198.317C353.176 198.153 353.012 197.825 353.012 197.414V184.036C353.012 183.626 353.176 183.298 353.504 183.133L365.075 176.403C365.403 176.239 365.814 176.239 366.142 176.403C366.47 176.568 366.634 176.896 366.634 177.306V190.684C366.634 191.095 366.47 191.423 366.142 191.587L354.571 198.317C354.325 198.399 354.161 198.481 353.997 198.481ZM355.063 184.611V195.609L364.583 190.11V179.112L355.063 184.611Z" fill="#10C9FF"/>
<path d="M167.04 231.886L136.841 214.486C136.102 214.076 136.184 213.337 137.087 212.844L153.007 203.652C153.828 203.16 155.141 203.078 155.88 203.57L186.079 220.97C186.818 221.38 186.735 222.119 185.833 222.611L169.912 231.804C169.092 232.296 167.779 232.296 167.04 231.886Z" fill="#5793CE"/>
<defs>
<radialGradient id="paint0_radial" cx="0" cy="0" r="1" gradientUnits="userSpaceOnUse" gradientTransform="translate(288.682 94.9092) scale(90.2701 90.2816)">
<stop stop-color="#173D7A"/>
<stop offset="1" stop-color="#274F89"/>
</radialGradient>
<radialGradient id="paint1_radial" cx="0" cy="0" r="1" gradientUnits="userSpaceOnUse" gradientTransform="translate(281.692 206.083) scale(147.95 147.969)">
<stop stop-color="#86B8E0"/>
<stop offset="0.1163" stop-color="#98C4E7"/>
<stop offset="0.3255" stop-color="#B2D6F2"/>
<stop offset="0.5401" stop-color="#C5E2F9"/>
<stop offset="0.7615" stop-color="#D0EAFE"/>
<stop offset="1" stop-color="#D4ECFF"/>
</radialGradient>
<radialGradient id="paint2_radial" cx="0" cy="0" r="1" gradientUnits="userSpaceOnUse" gradientTransform="translate(269.977 172.643) scale(101.809 101.822)">
<stop stop-color="#173D7A"/>
<stop offset="1" stop-color="#274F89"/>
</radialGradient>
<radialGradient id="paint3_radial" cx="0" cy="0" r="1" gradientUnits="userSpaceOnUse" gradientTransform="translate(285.721 217.473) scale(200.784 200.81)">
<stop stop-color="#86B8E0"/>
<stop offset="0.1163" stop-color="#98C4E7"/>
<stop offset="0.3255" stop-color="#B2D6F2"/>
<stop offset="0.5401" stop-color="#C5E2F9"/>
<stop offset="0.7615" stop-color="#D0EAFE"/>
<stop offset="1" stop-color="#D4ECFF"/>
</radialGradient>
<radialGradient id="paint4_radial" cx="0" cy="0" r="1" gradientUnits="userSpaceOnUse" gradientTransform="translate(276.294 207.509) scale(78.9456 78.9559)">
<stop stop-color="#396CAA"/>
<stop offset="1" stop-color="#274F89"/>
</radialGradient>
<linearGradient id="paint5_linear" x1="251.461" y1="151.496" x2="325.08" y2="196.345" gradientUnits="userSpaceOnUse">
<stop stop-color="#D4ECFF"/>
<stop offset="0.2385" stop-color="#D0EAFE"/>
<stop offset="0.4599" stop-color="#C5E2F9"/>
<stop offset="0.6745" stop-color="#B2D6F2"/>
<stop offset="0.8837" stop-color="#98C4E7"/>
<stop offset="1" stop-color="#86B8E0"/>
</linearGradient>
<linearGradient id="paint6_linear" x1="249.329" y1="216.449" x2="284.358" y2="211.029" gradientUnits="userSpaceOnUse">
<stop stop-color="#3919BB"/>
<stop offset="1" stop-color="#6507FA"/>
</linearGradient>
<linearGradient id="paint7_linear" x1="249.329" y1="216.449" x2="284.358" y2="211.029" gradientUnits="userSpaceOnUse">
<stop stop-color="#3919BB"/>
<stop offset="1" stop-color="#6507FA"/>
</linearGradient>
<radialGradient id="paint8_radial" cx="0" cy="0" r="1" gradientUnits="userSpaceOnUse" gradientTransform="translate(358.983 109.751) scale(71.1985 71.2077)">
<stop stop-color="#173D7A"/>
<stop offset="1" stop-color="#274F89"/>
</radialGradient>
<linearGradient id="paint9_linear" x1="247.753" y1="124.894" x2="353.078" y2="124.894" gradientUnits="userSpaceOnUse">
<stop stop-color="#D4ECFF"/>
<stop offset="0.2385" stop-color="#D0EAFE"/>
<stop offset="0.4599" stop-color="#C5E2F9"/>
<stop offset="0.6745" stop-color="#B2D6F2"/>
<stop offset="0.8837" stop-color="#98C4E7"/>
<stop offset="1" stop-color="#86B8E0"/>
</linearGradient>
<radialGradient id="paint10_radial" cx="0" cy="0" r="1" gradientUnits="userSpaceOnUse" gradientTransform="translate(285.664 151.426) scale(48.6586 48.6648)">
<stop stop-color="#173D7A"/>
<stop offset="1" stop-color="#274F89"/>
</radialGradient>
</defs>
</svg>
