<svg width="40" height="40" viewBox="0 0 40 40" fill="none" xmlns="http://www.w3.org/2000/svg">
<g clip-path="url(#clip0)">
<path d="M19.9689 0C13.4811 0 8.20312 5.27801 8.20312 11.7657V28.2343C8.20312 34.722 13.4811 40 19.9689 40C26.4566 40 31.7346 34.722 31.7346 28.2343V11.7657C31.7346 5.27801 26.4566 0 19.9689 0ZM29.3347 28.2343C29.3347 33.3984 25.1331 37.6001 19.9689 37.6001C14.8047 37.6001 10.603 33.3984 10.603 28.2343V11.7657C10.603 6.60156 14.8047 2.3999 19.9689 2.3999C25.1331 2.3999 29.3347 6.60156 29.3347 11.7657V28.2343Z" fill="url(#paint0_linear)"/>
<path d="M19.9692 7.95703C19.3064 7.95703 18.7693 8.49414 18.7693 9.15698V14.6801C18.7693 15.3426 19.3064 15.88 19.9692 15.88C20.6318 15.88 21.1692 15.3426 21.1692 14.6801V9.15698C21.1692 8.49414 20.6321 7.95703 19.9692 7.95703Z" fill="url(#paint1_linear)"/>
</g>
<defs>
<linearGradient id="paint0_linear" x1="8.20313" y1="0" x2="32.63" y2="0.774913" gradientUnits="userSpaceOnUse">
<stop stop-color="#683CF9"/>
<stop offset="1" stop-color="#009EE7"/>
</linearGradient>
<linearGradient id="paint1_linear" x1="18.7693" y1="7.95703" x2="21.2624" y2="7.99775" gradientUnits="userSpaceOnUse">
<stop stop-color="#683CF9"/>
<stop offset="1" stop-color="#009EE7"/>
</linearGradient>
<clipPath id="clip0">
<rect width="40" height="40" fill="white"/>
</clipPath>
</defs>
</svg>
