<svg width="18" height="18" viewBox="0 0 18 18" fill="none" xmlns="http://www.w3.org/2000/svg">
<g clip-path="url(#clip0)">
<path d="M14.2547 12.5575L12.5576 14.2545L16.3032 18.0002L18.0002 16.303L14.2547 12.5575Z" fill="white"/>
<path d="M8.4 0C6.73865 0 5.11459 0.492652 3.73321 1.41566C2.35184 2.33866 1.27519 3.65057 0.639416 5.18545C0.00363988 6.72036 -0.162709 8.40932 0.161408 10.0388C0.485524 11.6682 1.28555 13.1649 2.46031 14.3396C3.63507 15.5145 5.1318 16.3145 6.76124 16.6386C8.39069 16.9626 10.0796 16.7964 11.6145 16.1605C13.1494 15.5249 14.4613 14.4482 15.3843 13.0668C16.3073 11.6854 16.8 10.0614 16.8 8.4C16.8 6.17219 15.915 4.03561 14.3396 2.46031C12.7644 0.884998 10.6278 0 8.4 0ZM8.4 14.4C7.21332 14.4 6.05328 14.0482 5.06659 13.3888C4.07989 12.7295 3.31085 11.7925 2.85672 10.6961C2.4026 9.59975 2.28378 8.39334 2.51529 7.22947C2.7468 6.06557 3.31825 4.99647 4.15736 4.15736C4.99648 3.31824 6.06557 2.7468 7.22947 2.51529C8.39334 2.28377 9.59975 2.4026 10.6961 2.85672C11.7925 3.31085 12.7295 4.07988 13.3888 5.06658C14.0482 6.05328 14.4 7.21331 14.4 8.4C14.4 9.18793 14.2448 9.96815 13.9432 10.6961C13.6418 11.4241 13.1998 12.0855 12.6426 12.6426C12.0855 13.1998 11.4241 13.6417 10.6961 13.9432C9.96815 14.2448 9.18793 14.4 8.4 14.4Z" fill="white"/>
</g>
<defs>
<clipPath id="clip0">
<rect width="18" height="18" fill="white"/>
</clipPath>
</defs>
</svg>
