<svg width="20" height="20" viewBox="0 0 20 20" fill="none" xmlns="http://www.w3.org/2000/svg">
<g clip-path="url(#clip0)">
<path d="M20 3.7992C19.2639 4.12537 18.474 4.34658 17.6442 4.44534C18.4915 3.93792 19.1401 3.13309 19.4476 2.17701C18.6527 2.64691 17.7754 2.98812 16.8405 3.17309C16.0919 2.37449 15.0271 1.87708 13.8461 1.87708C11.5803 1.87708 9.74311 3.71423 9.74311 5.9788C9.74311 6.29998 9.77935 6.61367 9.84935 6.91364C6.44 6.7424 3.41683 5.10897 1.39346 2.62691C1.03977 3.23181 0.838562 3.93665 0.838562 4.68903C0.838562 6.11253 1.56343 7.36854 2.66324 8.10338C1.99085 8.08089 1.35846 7.89593 0.804837 7.58848V7.63972C0.804837 9.62684 2.21958 11.2853 4.09546 11.6627C3.75177 11.7552 3.38935 11.8064 3.01441 11.8064C2.74948 11.8064 2.49327 11.7802 2.24206 11.7302C2.76445 13.3612 4.27918 14.5472 6.07386 14.5797C4.67036 15.6795 2.90069 16.3331 0.978562 16.3331C0.647386 16.3331 0.321177 16.3131 0 16.2769C1.81592 17.4429 3.97177 18.1228 6.28882 18.1228C13.8361 18.1228 17.9616 11.8714 17.9616 6.44998L17.9479 5.91884C18.754 5.3439 19.4513 4.62155 20 3.7992Z" fill="#10C9FF"/>
</g>
<defs>
<clipPath id="clip0">
<rect width="20" height="20" fill="white"/>
</clipPath>
</defs>
</svg>
