<svg width="26" height="26" viewBox="0 0 26 26" fill="none" xmlns="http://www.w3.org/2000/svg">
<path d="M17.9716 14.593C17.5799 14.2488 17.1049 13.9514 16.5596 13.7092C16.3266 13.6056 16.0538 13.7106 15.9503 13.9436C15.8468 14.1766 15.9518 14.4493 16.1847 14.5529C16.6445 14.7572 17.0407 15.004 17.3621 15.2865C17.7584 15.6347 17.9857 16.1389 17.9857 16.6701V17.5242C17.9857 17.7787 17.7786 17.9858 17.5241 17.9858H8.47576C8.22123 17.9858 8.01412 17.7787 8.01412 17.5242V16.6701C8.01412 16.1389 8.24142 15.6347 8.6377 15.2865C9.10413 14.8766 10.4631 13.9233 12.9999 13.9233C14.8836 13.9233 16.4161 12.3908 16.4161 10.5071C16.4161 8.62346 14.8836 7.09091 12.9999 7.09091C11.1163 7.09091 9.58372 8.62346 9.58372 10.5071C9.58372 11.6083 10.1076 12.5893 10.9191 13.2144C9.43422 13.5408 8.51057 14.1691 8.02827 14.593C7.43255 15.1164 7.09082 15.8734 7.09082 16.6701V17.5242C7.09082 18.2879 7.71206 18.9091 8.47576 18.9091H17.5241C18.2878 18.9091 18.909 18.2879 18.909 17.5242V16.6701C18.909 15.8734 18.5673 15.1164 17.9716 14.593ZM10.507 10.5071C10.507 9.13253 11.6253 8.01421 12.9999 8.01421C14.3745 8.01421 15.4928 9.13253 15.4928 10.5071C15.4928 11.8817 14.3745 13 12.9999 13C11.6253 13 10.507 11.8817 10.507 10.5071Z" fill="#2B3E50"/>
<circle cx="13" cy="13" r="12.35" stroke="#2B3E50" stroke-width="1.3"/>
</svg>
