<svg width="38" height="12" viewBox="0 0 38 12" fill="none" xmlns="http://www.w3.org/2000/svg">
<g clip-path="url(#clip0)">
<path d="M16.1502 11.8H13.132L15.0183 0.207148H18.0368L16.1502 11.8ZM10.5929 0.207148L7.71547 8.18079L7.37498 6.46376L7.37529 6.46438L6.35971 1.25095C6.35971 1.25095 6.23691 0.207148 4.92798 0.207148H0.171052L0.115234 0.403442C0.115234 0.403442 1.56991 0.7061 3.27236 1.72851L5.89456 11.8003H9.03928L13.8412 0.207148H10.5929ZM34.3326 11.8H37.1039L34.6876 0.206838H32.2614C31.141 0.206838 30.8681 1.07078 30.8681 1.07078L26.3667 11.8H29.513L30.1422 10.078H33.979L34.3326 11.8ZM31.0114 7.6992L32.5972 3.36088L33.4894 7.6992H31.0114ZM26.6027 2.99496L27.0334 0.505465C27.0334 0.505465 25.7043 0 24.3188 0C22.821 0 19.2642 0.654624 19.2642 3.83782C19.2642 6.83278 23.4388 6.86999 23.4388 8.44314C23.4388 10.0163 19.6943 9.7344 18.4586 8.74238L18.0098 11.3454C18.0098 11.3454 19.3575 12 21.4166 12C23.4763 12 26.5835 10.9336 26.5835 8.03101C26.5835 5.01682 22.3714 4.73618 22.3714 3.42569C22.3717 2.11489 25.3111 2.28328 26.6027 2.99496Z" fill="#A1A5B2"/>
<path d="M7.37529 6.46465L6.35972 1.2512C6.35972 1.2512 6.23692 0.207397 4.92799 0.207397H0.171052L0.115234 0.403692C0.115234 0.403692 2.4016 0.877528 4.59463 2.65287C6.69152 4.34975 7.37529 6.46465 7.37529 6.46465Z" fill="#A1A5B2"/>
</g>
<defs>
<clipPath id="clip0">
<rect width="36.9887" height="12" fill="white" transform="translate(0.115234)"/>
</clipPath>
</defs>
</svg>
