<svg width="175" height="114" viewBox="0 0 175 114" fill="none" xmlns="http://www.w3.org/2000/svg">
<g clip-path="url(#clip0)">
<path d="M173.993 119.8L57.1244 135.5L42.1129 79.6002L134.197 26.2002L173.993 119.8Z" fill="url(#paint0_linear)" fill-opacity="0.2"/>
<path d="M42.0032 79.7L41.3069 26.3L87.6659 0V53L42.0032 79.7Z" fill="url(#paint1_linear)"/>
<path d="M134.499 79.7L134.099 26.3L87.6654 0V53L134.499 79.7Z" fill="url(#paint2_linear)"/>
<path d="M42.0121 79.7L88.2556 53L134.499 79.7L88.2556 106.2L42.0121 79.7Z" fill="url(#paint3_linear)"/>
<g opacity="0.4">
<path opacity="0.4" d="M112.169 68.2078H101.897L90.4886 61.6585C89.0024 60.8344 86.4672 60.9212 84.7625 61.8754L73.7475 68.2078H63.4756V75.0174C63.4319 75.5812 63.7378 76.1451 64.4809 76.5354L85.1559 88.3762C86.642 89.2003 89.1772 89.1136 90.8819 88.1594L110.726 76.7957C111.601 76.2752 112.081 75.668 112.125 75.0174V68.2078H112.169Z" fill="url(#paint4_linear)"/>
<path opacity="0.4" d="M64.1312 75.4945V68.6415H74.4032L85.4182 62.3525C87.1229 61.3983 89.7018 61.2681 91.1442 62.1356L102.553 68.6849H112.169V68.2078H101.897L90.4886 61.6585C89.0024 60.8344 86.4672 60.9212 84.7625 61.8754L73.7475 68.2078H63.4756V75.0174C63.4319 75.5812 63.7378 76.1451 64.4809 76.5354L64.612 76.6222C64.2624 76.2752 64.0875 75.8848 64.1312 75.4945Z" fill="white"/>
<path opacity="0.4" d="M85.1561 81.5672L64.4811 69.7263C62.995 68.9023 63.2135 67.4276 64.8745 66.43L84.719 55.0663C86.4237 54.1121 89.0026 53.982 90.4451 54.8494L111.12 66.6902C112.606 67.5143 112.388 68.989 110.727 69.9866L90.8822 81.3503C89.1775 82.3045 86.6423 82.3912 85.1561 81.5672Z" fill="url(#paint5_linear)"/>
<path opacity="0.4" d="M111.163 66.6465L90.4881 54.8057C89.745 54.3719 88.6523 54.1984 87.6032 54.2418C88.39 54.2852 89.1331 54.4587 89.7013 54.8057L110.376 66.6465C111.862 67.4706 111.644 68.9452 109.983 69.9428L90.1384 81.3065C89.3079 81.7836 88.3026 82.0439 87.2972 82.0873C88.5211 82.174 89.9199 81.9138 90.9689 81.3065L110.813 69.9428C112.431 68.9886 112.649 67.5139 111.163 66.6465Z" fill="white"/>
<path opacity="0.4" d="M87.6915 78.7475C86.9484 78.7475 86.249 78.6174 85.7682 78.3137L70.3822 69.509C69.8576 69.2054 69.5517 68.7717 69.5517 68.2946C69.5517 67.7307 69.9451 67.1669 70.6881 66.7765L85.4622 58.3188C86.7735 57.5815 88.7842 57.4947 89.9207 58.1453L105.307 66.95C105.831 67.2536 106.137 67.6874 106.137 68.1645C106.137 68.7283 105.744 69.2922 105.001 69.6825L90.2267 78.1402C89.4836 78.5306 88.5657 78.7475 87.6915 78.7475ZM87.9537 57.9718C87.1669 57.9718 86.2927 58.1887 85.6371 58.5357L70.8193 67.0368C70.2073 67.3838 69.8576 67.8175 69.8576 68.2512C69.8576 68.5982 70.0762 68.9018 70.5133 69.1621L85.8993 77.9668C86.9484 78.574 88.7842 78.4872 90.0081 77.7933L104.782 69.3355C105.394 68.9886 105.744 68.5548 105.744 68.1211C105.744 67.7741 105.525 67.4705 105.088 67.2103L89.7021 58.3622C89.2213 58.102 88.6094 57.9718 87.9537 57.9718Z" fill="#480689"/>
<path opacity="0.4" d="M86.0737 81.5674L65.3988 69.7266C63.9126 68.9025 64.1312 67.4278 65.7922 66.4302L85.6804 55.0665C86.4671 54.5894 87.4725 54.3292 88.4778 54.2858C87.2102 54.1991 85.8115 54.4593 84.7624 55.0665L64.8742 66.4302C63.1695 67.3844 62.9947 68.8591 64.4808 69.7266L85.1558 81.5674C85.9426 82.0011 86.9917 82.1746 88.0844 82.1312C87.3413 82.0445 86.642 81.871 86.0737 81.5674Z" fill="white"/>
</g>
<g opacity="0.5">
<path opacity="0.5" d="M112.169 58.7962H101.897L90.4886 52.2469C89.0024 51.4228 86.4672 51.5095 84.7625 52.4637L73.7475 58.7962H63.4756V65.6491C63.4319 66.213 63.7378 66.7768 64.4809 67.1672L85.1559 79.008C86.642 79.8321 89.1772 79.7453 90.8819 78.7911L110.726 67.4274C111.601 66.9069 112.081 66.2997 112.125 65.6491V58.7962H112.169Z" fill="url(#paint6_linear)"/>
<path opacity="0.5" d="M64.1312 66.0828V59.2299H74.4032L85.4182 52.9408C87.1229 51.9866 89.7018 51.8565 91.1442 52.724L102.553 59.2733H112.169V58.7962H101.897L90.4886 52.2469C89.0024 51.4228 86.4672 51.5095 84.7625 52.4637L73.7475 58.7962H63.4756V65.6491C63.4319 66.213 63.7378 66.7768 64.4809 67.1672L64.5683 67.2105C64.2624 66.8636 64.0875 66.4732 64.1312 66.0828Z" fill="white"/>
<path opacity="0.5" d="M85.1561 72.1555L64.4811 60.3147C62.995 59.4906 63.2135 58.016 64.8745 57.0184L84.719 45.6547C86.4237 44.7005 89.0026 44.5703 90.4451 45.4378L111.164 57.2352C112.65 58.0593 112.431 59.534 110.77 60.5316L90.9259 71.8953C89.1775 72.8929 86.6423 72.9796 85.1561 72.1555Z" fill="url(#paint7_linear)"/>
<path opacity="0.5" d="M111.164 57.2349L90.4886 45.394C89.7455 44.9603 88.6527 44.7868 87.6037 44.8302C88.3905 44.8736 89.1335 45.0471 89.7018 45.394L110.333 57.2349C111.819 58.0589 111.601 59.5336 109.94 60.5312L90.0952 71.8949C89.2647 72.372 88.2593 72.6322 87.254 72.6756C88.4779 72.7624 89.8766 72.5021 90.9257 71.8949L110.77 60.5312C112.431 59.577 112.65 58.1023 111.164 57.2349Z" fill="white"/>
<path opacity="0.5" d="M87.6912 69.3358C86.9481 69.3358 86.2488 69.2057 85.768 68.902L70.3382 60.054C69.8137 59.7503 69.5077 59.3166 69.5077 58.8395C69.5077 58.2757 69.9011 57.7118 70.6442 57.3215L85.4183 48.8637C86.7296 48.1264 88.7403 48.0397 89.8767 48.6902L105.263 57.495C105.787 57.7986 106.093 58.2323 106.093 58.7094C106.093 59.2732 105.7 59.8371 104.957 60.2275L90.1827 68.7285C89.4833 69.1189 88.5654 69.3358 87.6912 69.3358ZM85.9428 68.5984C86.9919 69.2056 88.8277 69.1189 90.0516 68.4249L104.826 59.9672C105.438 59.6202 105.787 59.1865 105.787 58.7528C105.787 58.4058 105.569 58.1022 105.132 57.8419L89.7019 48.9505C88.6528 48.3433 86.817 48.43 85.5931 49.124L70.819 57.6251C70.2071 57.9721 69.8574 58.4058 69.8574 58.8395C69.8574 59.1865 70.076 59.4901 70.5131 59.7504L85.9428 68.5984Z" fill="#480689"/>
<path opacity="0.5" d="M86.0737 72.1558L65.3988 60.3149C63.9126 59.4909 64.1312 58.0162 65.7922 57.0186L85.6366 45.6549C86.4234 45.1778 87.4288 44.9175 88.4341 44.8742C87.1665 44.7874 85.7678 45.0477 84.7187 45.6549L64.8742 57.0186C63.1695 57.9728 62.9947 59.4475 64.4808 60.3149L85.1558 72.1558C85.9426 72.5895 86.9917 72.763 88.0844 72.7196C87.3413 72.6329 86.642 72.4594 86.0737 72.1558Z" fill="white"/>
</g>
<g opacity="0.7">
<path opacity="0.7" d="M112.169 49.3841H101.897L90.4886 42.8348C89.0024 42.0107 86.4672 42.0974 84.7625 43.0516L73.7475 49.3841H63.4756V56.237C63.4319 56.8009 63.7378 57.3647 64.4809 57.7551L85.1559 69.5959C86.642 70.42 89.1772 70.3332 90.8819 69.379L110.726 58.0153C111.601 57.4948 112.081 56.8876 112.125 56.237V49.3841H112.169Z" fill="url(#paint8_linear)"/>
<path opacity="0.7" d="M64.1312 56.6707V49.8178H74.4032L85.4182 43.5287C87.1229 42.5745 89.7018 42.4444 91.1442 43.3119L102.553 49.8612H112.169V49.3841H101.897L90.4886 42.8348C89.0024 42.0107 86.4672 42.0974 84.7625 43.0516L73.7475 49.3841H63.4756V56.237C63.4319 56.8009 63.7378 57.3647 64.4809 57.7551L64.612 57.8418C64.2624 57.4514 64.0875 57.0611 64.1312 56.6707Z" fill="white"/>
<path opacity="0.7" d="M85.1564 62.7444L64.4814 50.9036C62.9952 50.0795 63.2138 48.6048 64.8748 47.6072L84.7192 36.2435C86.424 35.2893 89.0029 35.1592 90.4453 36.0267L111.12 47.8675C112.606 48.6916 112.388 50.1663 110.727 51.1638L90.8824 62.4842C89.1777 63.4817 86.6425 63.5685 85.1564 62.7444Z" fill="url(#paint9_linear)"/>
<path opacity="0.7" d="M111.164 47.8227L90.4886 35.9819C89.7455 35.5482 88.6527 35.3747 87.6037 35.4181C88.3905 35.4615 89.1335 35.6349 89.7018 35.9819L110.377 47.8227C111.863 48.6468 111.644 50.1215 109.983 51.1191L90.0952 62.4828C89.2647 62.9599 88.2593 63.2201 87.254 63.2635C88.4779 63.3503 89.8766 63.09 90.9257 62.4828L110.77 51.1191C112.431 50.1649 112.65 48.6902 111.164 47.8227Z" fill="white"/>
<path opacity="0.7" d="M87.6912 59.9237C86.9481 59.9237 86.2488 59.7935 85.768 59.4899L70.3382 50.6419C69.8137 50.3382 69.5077 49.9045 69.5077 49.4274C69.5077 48.8636 69.9011 48.2997 70.6442 47.9094L85.4183 39.4516C86.7296 38.7143 88.7403 38.6275 89.8767 39.2781L105.263 48.0828C105.787 48.3865 106.093 48.8202 106.093 49.2973C106.093 49.8611 105.7 50.425 104.957 50.8153L90.1827 59.3164C89.4833 59.7068 88.5654 59.9237 87.6912 59.9237ZM85.9428 59.1863C86.9919 59.7935 88.8277 59.7068 90.0516 59.0128L104.826 50.5551C105.438 50.2081 105.787 49.7744 105.787 49.3407C105.787 48.9937 105.569 48.6901 105.132 48.4298L89.7019 39.5384C88.6528 38.9312 86.817 39.0179 85.5931 39.7119L70.819 48.213C70.2071 48.5599 69.8574 48.9937 69.8574 49.4274C69.8574 49.7744 70.076 50.078 70.5131 50.3382L85.9428 59.1863Z" fill="#480689"/>
<path opacity="0.7" d="M86.0737 62.7441L65.3988 50.9033C63.9126 50.0359 64.1312 48.5612 65.7922 47.607L85.6366 36.2433C86.4234 35.7662 87.4288 35.5059 88.4341 35.4626C87.1665 35.3758 85.7678 35.636 84.7187 36.2433L64.8742 47.607C63.1695 48.5612 62.9947 50.0359 64.4808 50.9033L85.1558 62.7441C85.9426 63.1779 86.9917 63.3514 88.0844 63.308C87.3413 63.2212 86.642 63.0477 86.0737 62.7441Z" fill="white"/>
</g>
<path d="M112.169 39.9291H101.897L90.4886 33.4231C89.0024 32.5991 86.4672 32.6858 84.7625 33.64L73.7475 39.9291H63.4756V46.782C63.4319 47.3459 63.7378 47.9097 64.4809 48.3001L85.1559 60.1409C86.642 60.965 89.1772 60.8782 90.8819 59.924L110.77 48.5603C111.644 48.0398 112.125 47.4326 112.169 46.782V39.9291Z" fill="url(#paint10_linear)"/>
<path d="M64.1312 47.2591V40.4062H74.4032L85.4182 34.1171C87.1229 33.1629 89.7018 33.0328 91.1442 33.9002L102.553 40.4496H112.169V39.9725H101.897L90.4886 33.4231C89.0024 32.5991 86.4672 32.6858 84.7625 33.64L73.7475 39.9291H63.4756V46.782C63.4319 47.3459 63.7378 47.9097 64.4809 48.3001L64.612 48.3868C64.2624 48.0398 64.0875 47.6495 64.1312 47.2591Z" fill="white"/>
<path d="M85.1561 53.3318L64.4811 41.491C62.995 40.6669 63.2135 39.1922 64.8745 38.1946L84.719 26.8309C86.4237 25.8767 89.0026 25.7466 90.4451 26.6141L111.12 38.4549C112.606 39.279 112.388 40.7536 110.727 41.7512L90.8822 53.0716C89.1775 54.0691 86.6423 54.1559 85.1561 53.3318Z" fill="url(#paint11_linear)"/>
<path d="M111.164 38.4111L90.4886 26.5703C89.7455 26.1366 88.6527 25.9631 87.6037 26.0065C88.3905 26.0498 89.1335 26.2233 89.7018 26.5703L110.377 38.4111C111.863 39.2352 111.644 40.7099 109.983 41.7075L90.0952 53.0712C89.2647 53.5483 88.2593 53.8085 87.254 53.8519C88.4779 53.9386 89.8766 53.6784 90.9257 53.0712L110.77 41.7075C112.431 40.7533 112.65 39.2786 111.164 38.4111Z" fill="white"/>
<path d="M87.6912 50.5124C86.9481 50.5124 86.2488 50.3823 85.768 50.0787L70.3382 41.2306C69.8137 40.927 69.5077 40.4933 69.5077 40.0162C69.5077 39.4523 69.9011 38.8885 70.6442 38.4981L85.4183 29.997C86.7296 29.2597 88.7403 29.173 89.8767 29.8235L105.263 38.6283C105.787 38.9319 106.093 39.3656 106.093 39.8427C106.093 40.4065 105.7 40.9704 104.957 41.3608L90.1827 49.9052C89.4833 50.2956 88.5654 50.5124 87.6912 50.5124ZM85.9428 49.7751C86.9919 50.3823 88.8277 50.2956 90.0516 49.6016L104.826 41.1439C105.438 40.7969 105.787 40.3632 105.787 39.9294C105.787 39.5825 105.569 39.2789 105.132 39.0186L89.7019 30.1272C88.6528 29.5199 86.817 29.6067 85.5931 30.3007L70.819 38.8017C70.2071 39.1487 69.8574 39.5825 69.8574 40.0162C69.8574 40.3632 70.076 40.6668 70.5131 40.927L85.9428 49.7751Z" fill="url(#paint12_linear)"/>
<path d="M86.0737 53.332L65.3988 41.4912C63.9126 40.6671 64.1312 39.1924 65.7922 38.1949L85.6804 26.8312C86.4671 26.3541 87.4725 26.0938 88.4778 26.0504C87.2102 25.9637 85.8115 26.2239 84.7624 26.8312L64.8742 38.1949C63.1695 39.1491 62.9947 40.6238 64.4808 41.4912L85.1558 53.332C85.9426 53.7658 86.9917 53.9392 88.0844 53.8959C87.3413 53.8091 86.642 53.6356 86.0737 53.332Z" fill="#25BFEC"/>
<path d="M91.4938 57.1483L108.978 47.0858C109.153 46.999 109.284 46.7388 109.284 46.5219V45.6979C109.284 45.481 109.153 45.3942 108.978 45.481L91.4938 55.5435C91.319 55.6303 91.1879 55.8905 91.1879 56.1074V56.9315C91.1879 57.105 91.319 57.2351 91.4938 57.1483Z" fill="#FBFAFF"/>
<path d="M108.585 46.8689C108.759 46.7822 108.891 46.5219 108.891 46.3051V45.5244L108.978 45.481C109.153 45.3942 109.284 45.481 109.284 45.6979V46.5219C109.284 46.7388 109.153 46.999 108.978 47.0858L91.4938 57.1483C91.319 57.2351 91.1879 57.1483 91.1879 56.9315V56.8881L108.585 46.8689Z" fill="#267FE5"/>
<path d="M85.1561 53.3318L64.4811 41.491C62.995 40.6669 63.2135 39.1922 64.8745 38.1946L84.719 26.8309C86.4237 25.8767 89.0026 25.7466 90.445 26.6141L111.12 38.4549C112.606 39.279 112.388 40.7537 110.727 41.7512L90.8822 53.0716C89.1775 54.0691 86.6423 54.1559 85.1561 53.3318Z" fill="#E6E7F4"/>
</g>
<defs>
<linearGradient id="paint0_linear" x1="57.4259" y1="-21.5" x2="115.628" y2="113.317" gradientUnits="userSpaceOnUse">
<stop stop-color="#1187EA"/>
<stop offset="1" stop-color="#1187EA" stop-opacity="0"/>
</linearGradient>
<linearGradient id="paint1_linear" x1="88.0639" y1="-5.02631e-06" x2="108.99" y2="55.6868" gradientUnits="userSpaceOnUse">
<stop stop-color="#491BDF"/>
<stop offset="1" stop-color="#34BFFF"/>
</linearGradient>
<linearGradient id="paint2_linear" x1="88.0652" y1="2.5" x2="146.044" y2="12.9082" gradientUnits="userSpaceOnUse">
<stop stop-color="#462FE3"/>
<stop offset="1" stop-color="#34BFFF"/>
</linearGradient>
<linearGradient id="paint3_linear" x1="88.6584" y1="57.5" x2="103.461" y2="104.875" gradientUnits="userSpaceOnUse">
<stop stop-color="#2052D1"/>
<stop offset="1" stop-color="#34BFFF"/>
</linearGradient>
<linearGradient id="paint4_linear" x1="63.0633" y1="75.0078" x2="108.734" y2="86.42" gradientUnits="userSpaceOnUse">
<stop stop-color="white"/>
<stop offset="0.1651" stop-color="white"/>
<stop offset="0.4284" stop-color="white"/>
<stop offset="0.7551" stop-color="#AFB8FF"/>
<stop offset="1" stop-color="white"/>
</linearGradient>
<linearGradient id="paint5_linear" x1="63.0789" y1="68.1899" x2="108.695" y2="79.5653" gradientUnits="userSpaceOnUse">
<stop stop-color="white"/>
<stop offset="0.1651" stop-color="white"/>
<stop offset="0.4284" stop-color="white"/>
<stop offset="0.7551" stop-color="#AFB8FF"/>
<stop offset="1" stop-color="white"/>
</linearGradient>
<linearGradient id="paint6_linear" x1="63.0633" y1="65.6178" x2="108.742" y2="77.0144" gradientUnits="userSpaceOnUse">
<stop stop-color="white"/>
<stop offset="0.1651" stop-color="white"/>
<stop offset="0.4284" stop-color="white"/>
<stop offset="0.7551" stop-color="#AFB8FF"/>
<stop offset="1" stop-color="white"/>
</linearGradient>
<linearGradient id="paint7_linear" x1="63.0785" y1="58.7762" x2="108.73" y2="70.1723" gradientUnits="userSpaceOnUse">
<stop stop-color="white"/>
<stop offset="0.1651" stop-color="white"/>
<stop offset="0.4284" stop-color="white"/>
<stop offset="0.7551" stop-color="#AFB8FF"/>
<stop offset="1" stop-color="white"/>
</linearGradient>
<linearGradient id="paint8_linear" x1="63.0633" y1="56.2057" x2="108.742" y2="67.6023" gradientUnits="userSpaceOnUse">
<stop stop-color="white"/>
<stop offset="0.1651" stop-color="white"/>
<stop offset="0.4284" stop-color="white"/>
<stop offset="0.7551" stop-color="#AFB8FF"/>
<stop offset="1" stop-color="white"/>
</linearGradient>
<linearGradient id="paint9_linear" x1="63.0791" y1="49.3651" x2="108.695" y2="60.7419" gradientUnits="userSpaceOnUse">
<stop stop-color="white"/>
<stop offset="0.1651" stop-color="white"/>
<stop offset="0.4284" stop-color="white"/>
<stop offset="0.7551" stop-color="#AFB8FF"/>
<stop offset="1" stop-color="white"/>
</linearGradient>
<linearGradient id="paint10_linear" x1="63.0633" y1="46.7724" x2="108.734" y2="58.1846" gradientUnits="userSpaceOnUse">
<stop stop-color="white"/>
<stop offset="0.1651" stop-color="white"/>
<stop offset="0.4284" stop-color="white"/>
<stop offset="0.7551" stop-color="#AFB8FF"/>
<stop offset="1" stop-color="white"/>
</linearGradient>
<linearGradient id="paint11_linear" x1="63.0789" y1="39.9517" x2="108.695" y2="51.327" gradientUnits="userSpaceOnUse">
<stop stop-color="#267FE5"/>
<stop offset="0.1699" stop-color="#2C87E7"/>
<stop offset="0.441" stop-color="#3D9FEB"/>
<stop offset="0.7773" stop-color="#59C4F2"/>
<stop offset="1" stop-color="#6EE1F8"/>
</linearGradient>
<linearGradient id="paint12_linear" x1="69.5178" y1="39.951" x2="106.114" y2="39.951" gradientUnits="userSpaceOnUse">
<stop stop-color="#6DE0F6"/>
<stop offset="0.1595" stop-color="#68D8F5"/>
<stop offset="0.4138" stop-color="#5AC0F1"/>
<stop offset="0.7294" stop-color="#439BEA"/>
<stop offset="1" stop-color="#2C75E4"/>
</linearGradient>
<clipPath id="clip0">
<rect width="175" height="114" fill="white"/>
</clipPath>
</defs>
</svg>
