<svg width="175" height="114" viewBox="0 0 175 114" fill="none" xmlns="http://www.w3.org/2000/svg">
<g clip-path="url(#clip0)">
<path d="M173.993 119.8L57.1245 135.5L42.1129 79.6002L134.197 26.2002L173.993 119.8Z" fill="url(#paint0_linear)" fill-opacity="0.2"/>
<path d="M42.0032 79.7L41.3068 26.3L87.6659 0V53L42.0032 79.7Z" fill="url(#paint1_linear)"/>
<path d="M134.499 79.7L134.099 26.3L87.6654 0V53L134.499 79.7Z" fill="url(#paint2_linear)"/>
<path d="M42.012 79.7L88.2556 53L134.499 79.7L88.2556 106.2L42.012 79.7Z" fill="url(#paint3_linear)"/>
<path d="M72.8018 30.2002C74.2018 29.3002 76.1018 29.2002 78.2018 30.3002L84.0018 26.9002C86.3018 25.5002 89.3018 25.6002 92.6018 27.5002C98.4018 30.8002 103.302 38.8002 104.902 46.7002C106.002 46.7002 107.202 47.0002 108.502 47.7002C113.302 50.5002 117.202 57.9002 117.202 64.2002C117.202 67.8002 116.002 70.3002 114.002 71.3002L103.202 77.6002C101.702 78.6002 99.6017 78.6002 97.4017 77.3002L67.6018 60.1002C62.8018 57.3002 59.0018 49.9002 59.0018 43.6002C59.0018 40.0002 60.2018 37.5002 62.2018 36.5002L72.8018 30.2002Z" fill="url(#paint4_linear)"/>
<path d="M67.5019 37.0003C68.1019 37.4003 68.8018 37.8003 69.4018 38.4003C71.2018 32.8003 75.9019 30.8003 81.5019 34.0003C87.3019 37.3003 92.2018 45.3003 93.8018 53.2003C94.9018 53.2003 96.1018 53.5003 97.4018 54.2003C102.202 57.0003 106.102 64.4003 106.102 70.7003C106.102 77.1003 102.202 80.0003 97.4018 77.2003L67.6019 60.0003C62.8019 57.2003 59.0019 49.8003 59.0019 43.5003C58.9019 37.2003 62.8019 34.3003 67.5019 37.0003Z" fill="white"/>
</g>
<defs>
<linearGradient id="paint0_linear" x1="57.4259" y1="-21.5" x2="115.628" y2="113.317" gradientUnits="userSpaceOnUse">
<stop stop-color="#1187EA"/>
<stop offset="1" stop-color="#1187EA" stop-opacity="0"/>
</linearGradient>
<linearGradient id="paint1_linear" x1="88.0638" y1="-5.02631e-06" x2="108.99" y2="55.6868" gradientUnits="userSpaceOnUse">
<stop stop-color="#491BDF"/>
<stop offset="1" stop-color="#34BFFF"/>
</linearGradient>
<linearGradient id="paint2_linear" x1="88.0652" y1="2.5" x2="146.044" y2="12.9082" gradientUnits="userSpaceOnUse">
<stop stop-color="#462FE3"/>
<stop offset="1" stop-color="#34BFFF"/>
</linearGradient>
<linearGradient id="paint3_linear" x1="88.6583" y1="57.5" x2="103.461" y2="104.875" gradientUnits="userSpaceOnUse">
<stop stop-color="#2052D1"/>
<stop offset="1" stop-color="#34BFFF"/>
</linearGradient>
<linearGradient id="paint4_linear" x1="58.8808" y1="52.1522" x2="117.122" y2="52.1522" gradientUnits="userSpaceOnUse">
<stop stop-color="#F5F5F5"/>
<stop offset="1" stop-color="#B2B3CB"/>
</linearGradient>
<clipPath id="clip0">
<rect width="175" height="114" fill="white"/>
</clipPath>
</defs>
</svg>
