<svg width="175" height="114" viewBox="0 0 175 114" fill="none" xmlns="http://www.w3.org/2000/svg">
<g clip-path="url(#clip0)">
<path d="M173.993 119.8L57.1245 135.5L42.1129 79.6002L134.197 26.2002L173.993 119.8Z" fill="url(#paint0_linear)" fill-opacity="0.2"/>
<path d="M42.0032 79.7L41.3069 26.3L87.6659 0V53L42.0032 79.7Z" fill="url(#paint1_linear)"/>
<path d="M134.499 79.7L134.099 26.3L87.6654 0V53L134.499 79.7Z" fill="url(#paint2_linear)"/>
<path d="M42.0121 79.7L88.2556 53L134.499 79.7L88.2556 106.2L42.0121 79.7Z" fill="url(#paint3_linear)"/>
<path d="M84.7382 50.7873C84.5285 50.7873 84.3189 50.7034 84.1092 50.5777L79.7064 48.0205L79.7903 47.8948L84.1931 50.4519C84.5285 50.6615 84.8221 50.6615 85.0736 50.5358C85.3252 50.41 85.451 50.1165 85.451 49.7393V48.6912C85.451 48.272 85.6188 47.9367 85.8703 47.769C86.1639 47.6013 86.4993 47.6432 86.8767 47.8528L87.7992 48.3978L87.7153 48.5236L86.7928 47.9786C86.4574 47.769 86.1639 47.769 85.9123 47.8948C85.6607 48.0205 85.5349 48.314 85.5349 48.6912V49.7812C85.5349 50.2004 85.3672 50.5357 85.1156 50.7034C84.9898 50.7454 84.864 50.7873 84.7382 50.7873Z" fill="white"/>
<path d="M83.0193 51.7936C82.8097 51.7936 82.6 51.7098 82.3903 51.584L77.9875 49.0269L78.0714 48.9011L82.4742 51.4583C82.8097 51.6679 83.1032 51.6679 83.3548 51.5421C83.6064 51.4163 83.7321 51.1229 83.7321 50.7456V49.6976C83.7321 49.2784 83.8999 48.943 84.1515 48.7753C84.445 48.6077 84.7804 48.6496 85.1578 48.8592L86.0803 49.4042L85.9964 49.5299L85.074 48.9849C84.7385 48.7753 84.445 48.7753 84.1934 48.9011C83.9418 49.0269 83.816 49.3203 83.816 49.6976V50.7456C83.816 51.1648 83.6483 51.5002 83.3967 51.6679C83.2709 51.7517 83.1451 51.7936 83.0193 51.7936Z" fill="white"/>
<path d="M81.2996 52.7575C81.0899 52.7575 80.8803 52.6736 80.6706 52.5479L76.2678 49.9907L76.3517 49.865L80.7545 52.4221C81.0899 52.6317 81.3835 52.6317 81.635 52.506C81.8866 52.3802 82.0124 52.0868 82.0124 51.7095V50.6615C82.0124 50.2423 82.1801 49.9069 82.4317 49.7392C82.7253 49.5715 83.0607 49.6134 83.4381 49.823L84.3606 50.368L84.2767 50.4938L83.3542 49.9488C83.0188 49.7392 82.7253 49.7392 82.4737 49.865C82.2221 49.9907 82.0963 50.2842 82.0963 50.6615V51.7095C82.0963 52.1287 81.9286 52.464 81.677 52.6317C81.5931 52.7156 81.4254 52.7575 81.2996 52.7575Z" fill="white"/>
<path d="M79.5806 53.7633C79.3709 53.7633 79.1613 53.6795 78.9516 53.5537L74.5488 50.9966L74.6327 50.8708L79.0355 53.428C79.3709 53.6376 79.6645 53.6376 79.916 53.5118C80.1676 53.3861 80.2934 53.0926 80.2934 52.7153V51.6673C80.2934 51.2481 80.4612 50.9128 80.7127 50.7451C81.0063 50.5774 81.3417 50.6193 81.7191 50.8289L82.6416 51.3739L82.5577 51.4996L81.6352 50.9547C81.2998 50.7451 81.0063 50.7451 80.7547 50.8708C80.5031 50.9966 80.3773 51.29 80.3773 51.6673V52.7153C80.3773 53.1345 80.2096 53.4699 79.958 53.6376C79.8741 53.7214 79.7483 53.7633 79.5806 53.7633Z" fill="white"/>
<path d="M77.8616 54.7278C77.6519 54.7278 77.4423 54.6439 77.2326 54.5182L72.8298 52.0029L72.9137 51.8772L77.3165 54.4343C77.6519 54.6439 77.9455 54.6439 78.1971 54.5182C78.4486 54.3924 78.5744 54.099 78.5744 53.7217V52.6737C78.5744 52.2545 78.7422 51.9191 78.9938 51.7514C79.2873 51.5837 79.6227 51.6257 80.0001 51.8353L80.9226 52.3802L80.8387 52.506L79.9162 51.961C79.5808 51.7514 79.2873 51.7514 79.0357 51.8772C78.7841 52.0029 78.6583 52.2964 78.6583 52.6737V53.7217C78.6583 54.1409 78.4906 54.4762 78.239 54.6439C78.1551 54.6858 78.0293 54.7278 77.8616 54.7278Z" fill="white"/>
<path d="M76.1419 55.734C75.9322 55.734 75.7226 55.6502 75.5129 55.5244L71.1101 52.9673L71.194 52.8415L75.5968 55.3987C75.9322 55.6083 76.2257 55.6083 76.4773 55.4825C76.7289 55.3568 76.8547 55.0633 76.8547 54.686V53.638C76.8547 53.2188 77.0224 52.8835 77.274 52.7158C77.5675 52.5481 77.903 52.59 78.2804 52.7996L79.2029 53.3446L79.119 53.4703L78.1965 52.9254C77.8611 52.7158 77.5675 52.7158 77.316 52.8415C77.0644 52.9673 76.9386 53.2607 76.9386 53.638V54.686C76.9386 55.1052 76.7708 55.4406 76.5193 55.6083C76.4354 55.6921 76.3096 55.734 76.1419 55.734Z" fill="white"/>
<path d="M74.4648 56.698C74.2552 56.698 74.0455 56.6141 73.8358 56.4884L69.3911 53.9732L69.475 53.8474L73.8778 56.4045C74.2132 56.6141 74.5067 56.6141 74.7583 56.4884C75.0099 56.3626 75.1357 56.0692 75.1357 55.6919V54.6439C75.1357 54.2247 75.3034 53.8893 75.555 53.7216C75.8485 53.5539 76.184 53.5959 76.5614 53.8055L77.4839 54.3504L77.4 54.4762L76.4775 53.9312C76.1421 53.7216 75.8485 53.7216 75.597 53.8474C75.3454 53.9732 75.2196 54.2666 75.2196 54.6439V55.6919C75.2196 56.1111 75.0518 56.4465 74.8003 56.6141C74.7164 56.6561 74.5906 56.698 74.4648 56.698Z" fill="white"/>
<path d="M72.7456 57.7043C72.536 57.7043 72.3263 57.6204 72.1167 57.4947L67.7139 54.9375L67.7977 54.8117L72.2005 57.3689C72.536 57.5785 72.8295 57.5785 73.0811 57.4527C73.3327 57.327 73.4585 57.0335 73.4585 56.6563V55.6082C73.4585 55.189 73.6262 54.8537 73.8778 54.686C74.1713 54.5183 74.5068 54.5602 74.8841 54.7698L75.8066 55.3148L75.7228 55.4406L74.8003 54.8956C74.4648 54.686 74.1713 54.686 73.9197 54.8117C73.6681 54.9375 73.5423 55.231 73.5423 55.6082V56.6563C73.5423 57.0755 73.3746 57.4108 73.123 57.5785C72.9972 57.6623 72.8714 57.7043 72.7456 57.7043Z" fill="white"/>
<path d="M71.0266 58.6686C70.817 58.6686 70.6073 58.5848 70.3977 58.459L65.9949 55.9019L66.0787 55.7761L70.4815 58.3333C70.817 58.5429 71.1105 58.5429 71.3621 58.4171C71.6137 58.2913 71.7395 57.9979 71.7395 57.6206V56.5726C71.7395 56.1534 71.9072 55.818 72.1588 55.6503C72.4523 55.4827 72.7878 55.5246 73.1651 55.7342L74.0876 56.2792L74.0038 56.4049L73.0813 55.8599C72.7458 55.6503 72.4523 55.6503 72.2007 55.7761C71.9491 55.9019 71.8233 56.1953 71.8233 56.5726V57.6206C71.8233 58.0398 71.6556 58.3752 71.404 58.5429C71.2782 58.6686 71.1524 58.6686 71.0266 58.6686Z" fill="white"/>
<path d="M69.3069 59.6745C69.0973 59.6745 68.8876 59.5906 68.6779 59.4649L64.2751 56.9077L64.359 56.782L68.7618 59.3391C69.0973 59.5487 69.3908 59.5487 69.6424 59.423C69.894 59.2972 70.0198 59.0038 70.0198 58.6265V57.5785C70.0198 57.1592 70.1875 56.8239 70.4391 56.6562C70.7326 56.4885 71.068 56.5304 71.4454 56.74L72.3679 57.285L72.284 57.4108L71.3616 56.8658C71.0261 56.6562 70.7326 56.6562 70.481 56.782C70.2294 56.9077 70.1036 57.2012 70.1036 57.5785V58.6265C70.1036 59.0457 69.9359 59.381 69.6843 59.5487C69.5585 59.6326 69.4327 59.6745 69.3069 59.6745Z" fill="white"/>
<path d="M67.588 60.6389C67.3784 60.6389 67.1687 60.5551 66.9591 60.4293L62.5563 57.8722L62.6401 57.7464L67.0429 60.3035C67.3784 60.5131 67.6719 60.5131 67.9235 60.3874C68.1751 60.2616 68.3009 59.9682 68.3009 59.5909V58.5848C68.3009 58.1656 68.4686 57.8302 68.7202 57.6625C69.0137 57.4949 69.3492 57.5368 69.7265 57.7464L70.649 58.2914L70.5652 58.4171L69.6427 57.8722C69.3072 57.6625 69.0137 57.6625 68.7621 57.7883C68.5105 57.9141 68.3847 58.2075 68.3847 58.5848V59.6328C68.3847 60.052 68.217 60.3874 67.9654 60.5551C67.8396 60.6389 67.7138 60.6389 67.588 60.6389Z" fill="white"/>
<path d="M65.8691 61.6447C65.6594 61.6447 65.4497 61.5609 65.2401 61.4351L60.8373 58.8779L60.9211 58.7522L65.3239 61.3093C65.6594 61.5189 65.9529 61.5189 66.2045 61.3932C66.4561 61.2674 66.5819 60.974 66.5819 60.5967V59.5487C66.5819 59.1295 66.7496 58.7941 67.0012 58.6264C67.2947 58.4587 67.6302 58.5007 68.0076 58.7103L68.93 59.2552L68.8462 59.381L67.9237 58.836C67.5882 58.6264 67.2947 58.6264 67.0431 58.7522C66.7915 58.8779 66.6657 59.1714 66.6657 59.5487V60.5967C66.6657 61.0159 66.498 61.3513 66.2464 61.5189C66.1626 61.6028 66.0368 61.6447 65.8691 61.6447Z" fill="white"/>
<path d="M64.1501 62.6091C63.9404 62.6091 63.7307 62.5253 63.5211 62.3995L59.1183 59.8424L59.2021 59.7166L63.6049 62.3157C63.9404 62.5253 64.2339 62.5253 64.4855 62.3995C64.7371 62.2738 64.8629 61.9803 64.8629 61.603V60.555C64.8629 60.1358 65.0306 59.8004 65.2822 59.6328C65.5757 59.4651 65.9112 59.507 66.2886 59.7166L67.211 60.2616L67.1272 60.3873L66.2047 59.8424C65.8692 59.6328 65.5757 59.6328 65.3241 59.7585C65.0725 59.8843 64.9467 60.1777 64.9467 60.555V61.603C64.9467 62.0222 64.779 62.3576 64.5274 62.5253C64.4436 62.6091 64.3178 62.6091 64.1501 62.6091Z" fill="white"/>
<path d="M62.4303 63.6149C62.2207 63.6149 62.011 63.5311 61.8014 63.4053L57.3986 60.8482L57.4824 60.7224L61.8852 63.2795C62.2207 63.4891 62.5142 63.4891 62.7658 63.3634C63.0174 63.2376 63.1432 62.9442 63.1432 62.5669V61.5189C63.1432 61.0997 63.3109 60.7643 63.5625 60.5966C63.856 60.4289 64.1915 60.4709 64.5688 60.6805L65.4913 61.2254L65.4075 61.3512L64.485 60.8062C64.1495 60.5966 63.856 60.5966 63.6044 60.7224C63.3528 60.8482 63.227 61.1416 63.227 61.5189V62.5669C63.227 62.9861 63.0593 63.3215 62.8077 63.4891C62.7239 63.573 62.5981 63.6149 62.4303 63.6149Z" fill="white"/>
<path d="M60.7531 64.5793C60.5434 64.5793 60.3338 64.4954 60.1241 64.3697L55.7213 61.8125L55.8052 61.6867L60.208 64.2439C60.5434 64.4535 60.8369 64.4535 61.0885 64.3277C61.3401 64.202 61.4659 63.9085 61.4659 63.5313V62.4832C61.4659 62.064 61.6336 61.7287 61.8852 61.561C62.1788 61.3933 62.5142 61.4352 62.8916 61.6448L63.8141 62.1898L63.7302 62.3156L62.7658 61.8125C62.4303 61.6029 62.1368 61.6029 61.8852 61.7287C61.6336 61.8544 61.5079 62.1479 61.5079 62.5252V63.5732C61.5079 63.9924 61.3401 64.3277 61.0885 64.4954C61.0047 64.5793 60.8789 64.5793 60.7531 64.5793Z" fill="white"/>
<path d="M59.0341 65.5856C58.8244 65.5856 58.6148 65.5018 58.4051 65.376L54.0023 62.8189L54.0862 62.6931L58.489 65.2502C58.8244 65.4599 59.118 65.4598 59.3695 65.3341C59.6211 65.2083 59.7469 64.9149 59.7469 64.5376V63.4896C59.7469 63.0704 59.9147 62.735 60.1662 62.5673C60.4598 62.3997 60.7952 62.4416 61.1726 62.6512L62.0951 63.1961L62.0112 63.3219L61.0468 62.7769C60.7113 62.5673 60.4178 62.5673 60.1662 62.6931C59.9147 62.8189 59.7889 63.1123 59.7889 63.4896V64.5376C59.7889 64.9568 59.6211 65.2922 59.3695 65.4599C59.2857 65.5437 59.1599 65.5856 59.0341 65.5856Z" fill="white"/>
<path d="M57.3152 66.5491C57.1056 66.5491 56.8959 66.4652 56.6862 66.3395L52.2834 63.8242L52.3673 63.6985L56.7701 66.2556C57.1056 66.4652 57.3991 66.4652 57.6507 66.3395C57.9023 66.2137 58.028 65.9203 58.028 65.543V64.495C58.028 64.0758 58.1958 63.7404 58.4474 63.5727C58.7409 63.405 59.0763 63.4469 59.4537 63.6565L60.3762 64.2015L60.2923 64.3273L59.3699 63.7823C59.0344 63.5727 58.7409 63.5727 58.4893 63.6985C58.2377 63.8242 58.1119 64.1177 58.1119 64.495V65.543C58.1119 65.9622 57.9442 66.2975 57.6926 66.4652C57.5668 66.5491 57.441 66.5491 57.3152 66.5491Z" fill="white"/>
<path d="M55.5955 67.5553C55.3858 67.5553 55.1762 67.4715 54.9665 67.3457L50.5637 64.7886L50.6476 64.6628L55.0504 67.22C55.3858 67.4296 55.6794 67.4296 55.9309 67.3038C56.1825 67.1781 56.3083 66.8846 56.3083 66.5073V65.4593C56.3083 65.0401 56.476 64.7047 56.7276 64.5371C57.0212 64.3694 57.3566 64.4113 57.734 64.6209L58.6565 65.1659L58.5726 65.2916L57.6501 64.7467C57.3147 64.5371 57.0212 64.5371 56.7696 64.6628C56.518 64.7886 56.3922 65.082 56.3922 65.4593V66.5073C56.3922 66.9265 56.2245 67.2619 55.9729 67.4296C55.8471 67.5134 55.7213 67.5553 55.5955 67.5553Z" fill="white"/>
<path d="M53.8765 68.5197C53.6668 68.5197 53.4572 68.4359 53.2475 68.3101L48.8447 65.7529L48.9286 65.6272L53.3314 68.1843C53.6668 68.3939 53.9604 68.3939 54.2119 68.2682C54.4635 68.1424 54.5893 67.849 54.5893 67.4717V66.4237C54.5893 66.0045 54.7571 65.6691 55.0086 65.5014C55.3022 65.3337 55.6376 65.3757 56.015 65.5853L56.9375 66.1302L56.8536 66.256L55.9311 65.711C55.5957 65.5014 55.3022 65.5014 55.0506 65.6272C54.799 65.7529 54.6732 66.0464 54.6732 66.4237V67.4717C54.6732 67.8909 54.5055 68.2263 54.2539 68.3939C54.1281 68.5197 54.0023 68.5197 53.8765 68.5197Z" fill="white"/>
<path d="M52.1575 69.5256C51.9478 69.5256 51.7382 69.4417 51.5285 69.3159L47.1257 66.7588L47.2096 66.633L51.6124 69.1902C51.9478 69.3998 52.2414 69.3998 52.493 69.274C52.7445 69.1483 52.8703 68.8548 52.8703 68.4775V67.4295C52.8703 67.0103 53.0381 66.675 53.2897 66.5073C53.5832 66.3396 53.9186 66.3815 54.296 66.5911L55.2185 67.1361L55.1346 67.2618L54.2121 66.7169C53.8767 66.5073 53.5832 66.5073 53.3316 66.633C53.08 66.7588 52.9542 67.0522 52.9542 67.4295V68.4775C52.9542 68.8967 52.7865 69.2321 52.5349 69.3998C52.451 69.4836 52.2833 69.5256 52.1575 69.5256Z" fill="white"/>
<path d="M91.7408 50.8713C91.615 50.8713 91.4892 50.8294 91.3634 50.7875C91.0699 50.6198 90.9441 50.2844 90.9441 49.8652V48.8172C90.9441 48.4399 90.8183 48.1465 90.5667 48.0207C90.3151 47.895 90.0216 47.9369 89.6862 48.1046L88.7637 48.6495L88.6798 48.5238L89.6023 47.9788C89.9797 47.7692 90.3571 47.7273 90.6087 47.895C90.9022 48.0627 91.028 48.398 91.028 48.8172V49.8652C91.028 50.2425 91.1538 50.536 91.4054 50.6617C91.6569 50.7875 91.9505 50.7456 92.2859 50.5779L96.6887 48.0207L96.7726 48.1465L92.3698 50.7036C92.1601 50.8294 91.9505 50.8713 91.7408 50.8713Z" fill="white"/>
<path d="M93.4599 51.8771C93.3341 51.8771 93.2083 51.8352 93.0825 51.7933C92.789 51.6256 92.6632 51.2902 92.6632 50.871V49.7811C92.6632 49.4038 92.5374 49.1104 92.2858 48.9846C92.0343 48.8588 91.7407 48.9008 91.4053 49.0684L90.4828 49.6134L90.3989 49.4876L91.3214 48.9427C91.6988 48.7331 92.0762 48.6912 92.3278 48.8588C92.6213 49.0265 92.7471 49.3619 92.7471 49.7811V50.8291C92.7471 51.2064 92.8729 51.4998 93.1245 51.6256C93.3761 51.7514 93.6696 51.7094 94.005 51.5418L98.4078 48.9846L98.4917 49.1104L94.0889 51.6675C93.8792 51.7933 93.6696 51.8771 93.4599 51.8771Z" fill="white"/>
<path d="M95.1789 52.8415C95.0531 52.8415 94.9273 52.7996 94.8015 52.7577C94.508 52.59 94.3822 52.2547 94.3822 51.8355V50.7874C94.3822 50.4102 94.2564 50.1167 94.0048 49.9909C93.7532 49.8652 93.4597 49.9071 93.1243 50.0748L92.2018 50.6198L92.1179 50.494L93.0404 49.949C93.4178 49.7394 93.7952 49.6975 94.0468 49.8652C94.3403 50.0329 94.4661 50.3682 94.4661 50.7874V51.8355C94.4661 52.2127 94.5919 52.5062 94.8435 52.6319C95.095 52.7577 95.3886 52.7158 95.724 52.5481L100.127 49.9909L100.211 50.1167L95.8079 52.6739C95.5982 52.7996 95.3886 52.8415 95.1789 52.8415Z" fill="white"/>
<path d="M96.8986 53.8474C96.7728 53.8474 96.647 53.8055 96.5213 53.7636C96.2277 53.5959 96.1019 53.2605 96.1019 52.8413V51.7933C96.1019 51.416 95.9761 51.1226 95.7246 50.9968C95.473 50.871 95.1794 50.913 94.844 51.0806L93.9215 51.6256L93.8376 51.4999L94.7601 50.9549C95.1375 50.7453 95.5149 50.7034 95.7665 50.871C96.06 51.0387 96.1858 51.3741 96.1858 51.7933V52.8413C96.1858 53.2186 96.3116 53.512 96.5632 53.6378C96.8148 53.7636 97.1083 53.7216 97.4437 53.554L101.847 50.9968L101.93 51.1226L97.5276 53.6797C97.3179 53.7636 97.1083 53.8474 96.8986 53.8474Z" fill="white"/>
<path d="M98.6175 54.8117C98.4917 54.8117 98.3659 54.7698 98.2401 54.7278C97.9466 54.5602 97.8208 54.2248 97.8208 53.8056V52.7157C97.8208 52.3384 97.695 52.0449 97.4434 51.9192C97.1918 51.7934 96.8983 51.8353 96.5629 52.003L95.6404 52.548L95.5565 52.4222L96.479 51.8772C96.8564 51.6676 97.2338 51.6257 97.4854 51.7934C97.7789 51.9611 97.9047 52.2965 97.9047 52.7157V53.7637C97.9047 54.141 98.0305 54.4344 98.2821 54.5602C98.5337 54.6859 98.8272 54.644 99.1626 54.4763L103.565 51.9192L103.649 52.0449L99.2465 54.644C99.0368 54.7698 98.8272 54.8117 98.6175 54.8117Z" fill="white"/>
<path d="M100.337 55.8181C100.211 55.8181 100.085 55.7762 99.9591 55.7343C99.6656 55.5666 99.5398 55.2312 99.5398 54.812V53.764C99.5398 53.3867 99.414 53.0933 99.1624 52.9675C98.9108 52.8417 98.6173 52.8837 98.2819 53.0514L97.3594 53.5963L97.2755 53.4706L98.198 52.9256C98.5754 52.716 98.9528 52.6741 99.2044 52.8417C99.4979 53.0094 99.6237 53.3448 99.6237 53.764V54.812C99.6237 55.1893 99.7495 55.4827 100.001 55.6085C100.253 55.7343 100.546 55.6923 100.882 55.5247L105.284 52.9675L105.368 53.0933L100.965 55.6504C100.756 55.7343 100.504 55.8181 100.337 55.8181Z" fill="white"/>
<path d="M102.056 56.782C101.93 56.782 101.805 56.7401 101.679 56.6981C101.385 56.5304 101.26 56.1951 101.26 55.7759V54.7279C101.26 54.3506 101.134 54.0571 100.882 53.9314C100.631 53.8056 100.337 53.8475 100.002 54.0152L99.0791 54.5602L98.9952 54.4344L99.9177 53.8895C100.295 53.6799 100.672 53.6379 100.924 53.8056C101.218 53.9733 101.343 54.3087 101.343 54.7279V55.7759C101.343 56.1532 101.469 56.4466 101.721 56.5724C101.972 56.6981 102.266 56.6562 102.601 56.4885L107.004 53.9314L107.088 54.0571L102.685 56.6143C102.434 56.7401 102.224 56.782 102.056 56.782Z" fill="white"/>
<path d="M103.775 57.7878C103.649 57.7878 103.524 57.7459 103.398 57.704C103.104 57.5363 102.979 57.2009 102.979 56.7817V55.7337C102.979 55.3564 102.853 55.063 102.601 54.9372C102.35 54.8115 102.056 54.8534 101.721 55.0211L100.798 55.566L100.714 55.4403L101.637 54.8953C102.014 54.6857 102.391 54.6438 102.643 54.8115C102.937 54.9792 103.062 55.3145 103.062 55.7337V56.7817C103.062 57.159 103.188 57.4525 103.44 57.5782C103.691 57.704 103.985 57.6621 104.32 57.4944L108.723 54.9372L108.807 55.063L104.404 57.6201C104.153 57.704 103.943 57.7878 103.775 57.7878Z" fill="white"/>
<path d="M105.452 58.7527C105.327 58.7527 105.201 58.7108 105.075 58.6688C104.782 58.5012 104.656 58.1658 104.656 57.7466V56.6986C104.656 56.3213 104.53 56.0278 104.278 55.9021C104.027 55.7763 103.733 55.8182 103.398 55.9859L102.475 56.5309L102.391 56.4051L103.314 55.8602C103.691 55.6506 104.069 55.6086 104.32 55.7763C104.614 55.944 104.74 56.2794 104.74 56.6986V57.7466C104.74 58.1239 104.865 58.4173 105.117 58.5431C105.369 58.6688 105.662 58.6269 105.998 58.4592L110.4 55.9021L110.484 56.0278L106.123 58.585C105.872 58.7108 105.662 58.7527 105.452 58.7527Z" fill="white"/>
<path d="M107.171 59.7585C107.046 59.7585 106.92 59.7166 106.794 59.6747C106.501 59.507 106.375 59.1717 106.375 58.7524V57.7044C106.375 57.3271 106.249 57.0337 105.997 56.9079C105.746 56.7822 105.452 56.8241 105.117 56.9918L104.194 57.5367L104.11 57.411L105.033 56.866C105.41 56.6564 105.788 56.6145 106.039 56.7822C106.333 56.9499 106.459 57.2852 106.459 57.7044V58.7524C106.459 59.1297 106.584 59.4232 106.836 59.5489C107.088 59.6747 107.381 59.6328 107.717 59.4651L112.119 56.9079L112.203 57.0337L107.8 59.5909C107.591 59.6747 107.381 59.7585 107.171 59.7585Z" fill="white"/>
<path d="M108.89 60.7224C108.765 60.7224 108.639 60.6805 108.513 60.6386C108.22 60.4709 108.094 60.1355 108.094 59.7163V58.6683C108.094 58.291 107.968 57.9976 107.716 57.8718C107.465 57.746 107.171 57.788 106.836 57.9556L105.913 58.5006L105.829 58.3749L106.752 57.8299C107.129 57.6203 107.507 57.5784 107.758 57.746C108.052 57.9137 108.178 58.2491 108.178 58.6683V59.7163C108.178 60.0936 108.303 60.387 108.555 60.5128C108.807 60.6386 109.1 60.5966 109.436 60.429L113.838 57.8718L113.922 57.9976L109.519 60.5547C109.31 60.6805 109.1 60.7224 108.89 60.7224Z" fill="white"/>
<path d="M110.61 61.7287C110.484 61.7287 110.359 61.6868 110.233 61.6449C109.939 61.4772 109.813 61.1419 109.813 60.7227V59.6746C109.813 59.2974 109.688 59.0039 109.436 58.8782C109.185 58.7524 108.891 58.7943 108.556 58.962L107.633 59.507L107.549 59.3812L108.472 58.8362C108.849 58.6266 109.226 58.5847 109.478 58.7524C109.772 58.9201 109.897 59.2554 109.897 59.6746V60.6807C109.897 61.058 110.023 61.3515 110.275 61.4772C110.526 61.603 110.82 61.5611 111.155 61.3934L115.558 58.8362L115.642 58.962L111.239 61.5191C111.03 61.6449 110.82 61.7287 110.61 61.7287Z" fill="white"/>
<path d="M112.329 62.6926C112.203 62.6926 112.077 62.6507 111.952 62.6088C111.658 62.4411 111.532 62.1057 111.532 61.6865V60.6385C111.532 60.2612 111.407 59.9678 111.155 59.842C110.903 59.7163 110.61 59.7582 110.274 59.9259L109.352 60.4708L109.268 60.3451L110.191 59.8001C110.568 59.5905 110.945 59.5486 111.197 59.7163C111.49 59.8839 111.616 60.2193 111.616 60.6385V61.6865C111.616 62.0638 111.742 62.3572 111.994 62.483C112.245 62.6088 112.539 62.5668 112.874 62.3992L117.277 59.842L117.361 59.9678L112.958 62.5249C112.748 62.6507 112.539 62.6926 112.329 62.6926Z" fill="white"/>
<path d="M114.048 63.699C113.922 63.699 113.796 63.657 113.671 63.6151C113.377 63.4474 113.251 63.1121 113.251 62.6929V61.6449C113.251 61.2676 113.126 60.9741 112.874 60.8484C112.622 60.7226 112.329 60.7645 111.993 60.9322L111.071 61.4772L110.987 61.3514L111.91 60.8064C112.287 60.5968 112.664 60.5549 112.916 60.7226C113.209 60.8903 113.335 61.2257 113.335 61.6449V62.6929C113.335 63.0702 113.461 63.3636 113.713 63.4894C113.964 63.6151 114.258 63.5732 114.593 63.4055L118.996 60.8484L119.08 60.9741L114.677 63.5313C114.467 63.6151 114.258 63.699 114.048 63.699Z" fill="white"/>
<path d="M115.768 64.6633C115.642 64.6633 115.516 64.6214 115.39 64.5795C115.097 64.4118 114.971 64.0764 114.971 63.6572V62.6092C114.971 62.2319 114.845 61.9385 114.594 61.8127C114.342 61.687 114.049 61.7289 113.713 61.8966L112.791 62.4415L112.707 62.3158L113.629 61.7708C114.007 61.5612 114.384 61.5193 114.636 61.687C114.929 61.8546 115.055 62.19 115.055 62.6092V63.6572C115.055 64.0345 115.181 64.328 115.432 64.4537C115.684 64.5795 115.977 64.5376 116.313 64.3699L120.716 61.8127L120.8 61.9385L116.397 64.4956C116.187 64.6214 115.936 64.6633 115.768 64.6633Z" fill="white"/>
<path d="M117.487 65.6692C117.361 65.6692 117.235 65.6273 117.109 65.5853C116.816 65.4177 116.69 65.0823 116.69 64.6631V63.6151C116.69 63.2378 116.564 62.9443 116.313 62.8186C116.061 62.6928 115.768 62.7347 115.432 62.9024L114.51 63.4474L114.426 63.3216L115.348 62.7767C115.726 62.5671 116.103 62.5251 116.355 62.6928C116.648 62.8605 116.774 63.1959 116.774 63.6151V64.6631C116.774 65.0404 116.9 65.3338 117.151 65.4596C117.403 65.5853 117.696 65.5434 118.032 65.3757L122.435 62.8186L122.519 62.9443L118.116 65.5015C117.864 65.5853 117.655 65.6692 117.487 65.6692Z" fill="white"/>
<path d="M119.206 66.6335C119.08 66.6335 118.954 66.5916 118.828 66.5497C118.535 66.382 118.409 66.0466 118.409 65.6274V64.5794C118.409 64.2021 118.283 63.9087 118.032 63.7829C117.78 63.6572 117.487 63.6991 117.151 63.8668L116.229 64.4117L116.145 64.286L117.067 63.741C117.445 63.5314 117.822 63.4895 118.074 63.6572C118.367 63.8249 118.493 64.1602 118.493 64.5794V65.6274C118.493 66.0047 118.619 66.2982 118.87 66.4239C119.122 66.5497 119.415 66.5078 119.751 66.3401L124.154 63.7829L124.238 63.9087L119.835 66.4659C119.583 66.5916 119.373 66.6335 119.206 66.6335Z" fill="white"/>
<path d="M120.883 67.6394C120.757 67.6394 120.631 67.5975 120.506 67.5556C120.212 67.3879 120.086 67.0525 120.086 66.6333V65.5853C120.086 65.208 119.961 64.9146 119.709 64.7888C119.457 64.663 119.164 64.705 118.828 64.8726L117.906 65.4176L117.822 65.2918L118.745 64.7469C119.122 64.5373 119.499 64.4954 119.751 64.663C120.044 64.8307 120.17 65.1661 120.17 65.5853V66.6333C120.17 67.0106 120.296 67.304 120.548 67.4298C120.799 67.5556 121.093 67.5136 121.428 67.346L125.831 64.7888L125.915 64.9146L121.512 67.4717C121.302 67.5556 121.093 67.6394 120.883 67.6394Z" fill="white"/>
<path d="M122.603 68.6037C122.477 68.6037 122.351 68.5618 122.225 68.5199C121.932 68.3522 121.806 68.0169 121.806 67.5977V66.5496C121.806 66.1724 121.68 65.8789 121.429 65.7532C121.177 65.6274 120.884 65.6693 120.548 65.837L119.626 66.382L119.542 66.2562L120.464 65.7112C120.842 65.5016 121.219 65.4597 121.471 65.6274C121.764 65.7951 121.89 66.1304 121.89 66.5496V67.5977C121.89 67.9749 122.016 68.2684 122.267 68.3941C122.519 68.5199 122.812 68.478 123.148 68.3103L127.551 65.7532L127.635 65.8789L123.232 68.4361C123.022 68.5618 122.812 68.6037 122.603 68.6037Z" fill="white"/>
<path d="M124.322 69.6096C124.196 69.6096 124.07 69.5677 123.944 69.5258C123.651 69.3581 123.525 69.0227 123.525 68.6035V67.5555C123.525 67.1782 123.399 66.8848 123.148 66.759C122.896 66.6333 122.602 66.6752 122.267 66.8429L121.344 67.3878L121.261 67.2621L122.183 66.7171C122.56 66.5075 122.938 66.4656 123.189 66.6333C123.483 66.8009 123.609 67.1363 123.609 67.5555V68.6035C123.609 68.9808 123.735 69.2742 123.986 69.4C124.238 69.5258 124.531 69.4838 124.867 69.3162L129.27 66.759L129.353 66.8848L124.951 69.4419C124.741 69.5258 124.531 69.6096 124.322 69.6096Z" fill="white"/>
<path d="M122.141 67.6392V71.5797L88.2605 91.1146L54.3799 71.5797V67.6392H122.141Z" fill="url(#paint4_linear)"/>
<path d="M88.26 87.2158L54.3794 67.639L88.26 48.104L122.141 67.639L88.26 87.2158Z" fill="#BCBEFF"/>
<path d="M88.2605 86.755L54.7992 67.4297L54.3799 67.6393L88.2605 87.2162L122.141 67.6393L121.722 67.4297L88.2605 86.755Z" fill="white"/>
<path d="M88.2601 82.6888L62.2207 67.6813L88.2601 52.6318L114.3 67.6813L88.2601 82.6888Z" fill="#0F054C"/>
<path opacity="0.5" d="M88.2601 82.6888L62.2207 67.6813L88.2601 52.6318L114.3 67.6813L88.2601 82.6888Z" fill="white"/>
<path opacity="0.5" d="M88.26 48.8169L114.299 63.8664V67.6811L88.26 52.6317V48.8169Z" fill="white"/>
<path opacity="0.5" d="M88.2604 52.6317L62.2209 67.6811V63.8664L88.2604 48.8169V52.6317Z" fill="#A1A5B2"/>
<path opacity="0.5" d="M88.2604 78.9158L62.2209 63.8664L88.2604 48.8169L114.3 63.8664L88.2604 78.9158Z" fill="white"/>
<path opacity="0.5" d="M88.2602 69.8609L77.8612 63.8662L88.2602 57.8716L98.6592 63.8662L88.2602 69.8609Z" fill="white"/>
<path opacity="0.5" d="M88.2602 58.4165L98.1979 64.1597L98.6592 63.8662L88.2602 57.8716L77.8612 63.8662L78.3225 64.1597L88.2602 58.4165Z" fill="white"/>
<path opacity="0.5" d="M88.26 78.9157V82.6885L114.299 67.681V63.8662L88.26 78.9157Z" fill="white"/>
<path opacity="0.5" d="M62.2207 63.8662V67.681L88.2601 82.6885V78.9157L62.2207 63.8662Z" fill="white"/>
<path opacity="0.8" d="M88.2601 78.4966L62.5562 63.6567L62.2207 63.8663L88.2601 78.9158L114.3 63.8663L113.964 63.6567L88.2601 78.4966Z" fill="white"/>
<path d="M96.7302 95.7264L92.3274 93.1693C91.5727 92.7501 90.9437 91.6601 90.9437 90.7798V89.7318C90.9437 88.8934 90.3566 87.8873 89.6438 87.4681L88.7213 86.9231L88.8052 86.7974L89.7277 87.3423C90.4824 87.7615 91.1114 88.8515 91.1114 89.7318V90.7798C91.1114 91.6182 91.6984 92.6243 92.4113 93.0435L96.8141 95.6007L96.7302 95.7264Z" fill="white"/>
<path d="M98.4492 94.7206L94.0464 92.1635C93.2916 91.7443 92.6627 90.6544 92.6627 89.774V88.7679C92.6627 87.9295 92.0756 86.9234 91.3628 86.5042L90.4403 85.9593L90.5242 85.8335L91.4467 86.3785C92.2014 86.7977 92.8304 87.8876 92.8304 88.7679V89.8159C92.8304 90.6544 93.4174 91.6604 94.1303 92.0797L98.5331 94.6368L98.4492 94.7206Z" fill="white"/>
<path d="M100.169 93.7562L95.7661 91.1991C95.0114 90.7799 94.3824 89.6899 94.3824 88.8096V87.7616C94.3824 86.9232 93.7954 85.9171 93.0825 85.4979L92.16 84.9529L92.2439 84.8271L93.1664 85.3721C93.9212 85.7913 94.5501 86.8813 94.5501 87.7616V88.8096C94.5501 89.648 95.1372 90.6541 95.85 91.0733L100.253 93.6305L100.169 93.7562Z" fill="white"/>
<path d="M101.888 92.7499L97.4851 90.1927C96.7304 89.7735 96.1014 88.6836 96.1014 87.8032V86.7552C96.1014 85.9168 95.5144 84.9107 94.8015 84.4915L93.879 83.9466L93.9629 83.8208L94.8854 84.3658C95.6402 84.785 96.2691 85.8749 96.2691 86.7552V87.8032C96.2691 88.6417 96.8562 89.6478 97.569 90.067L101.972 92.6241L101.888 92.7499Z" fill="white"/>
<path d="M103.607 91.786L99.204 89.2289C98.4492 88.8097 97.8203 87.7197 97.8203 86.8394V85.7914C97.8203 84.953 97.2332 83.9469 96.5204 83.5277L95.5979 82.9827L95.6818 82.8569L96.6043 83.4019C97.359 83.8211 97.988 84.911 97.988 85.7914V86.8394C97.988 87.6778 98.575 88.6839 99.2879 89.1031L103.691 91.6602L103.607 91.786Z" fill="white"/>
<path d="M105.284 90.7797L100.881 88.2225C100.126 87.8033 99.4975 86.7134 99.4975 85.833V84.785C99.4975 83.9466 98.9105 82.9405 98.1976 82.5213L97.2751 81.9763L97.359 81.8506L98.2815 82.3956C99.0363 82.8148 99.6652 83.9047 99.6652 84.785V85.833C99.6652 86.6714 100.252 87.6775 100.965 88.0967L105.368 90.6539L105.284 90.7797Z" fill="white"/>
<path d="M107.003 89.7738L102.6 87.2166C101.845 86.7974 101.217 85.7075 101.217 84.8272V83.7792C101.217 82.9408 100.629 81.9347 99.9166 81.5155L98.9941 80.9705L99.078 80.8447L100 81.3897C100.755 81.8089 101.384 82.8988 101.384 83.7792V84.8272C101.384 85.6656 101.971 86.6717 102.684 87.0909L107.087 89.648L107.003 89.7738Z" fill="white"/>
<path d="M108.723 88.8099L104.32 86.2528C103.565 85.8336 102.936 84.7436 102.936 83.8633V82.8153C102.936 81.9769 102.349 80.9708 101.636 80.5516L100.714 80.0066L100.798 79.8809L101.72 80.4258C102.475 80.845 103.104 81.935 103.104 82.8153V83.8633C103.104 84.7017 103.691 85.7078 104.404 86.127L108.807 88.6842L108.723 88.8099Z" fill="white"/>
<path d="M110.442 87.8036L106.039 85.2464C105.284 84.8272 104.655 83.7373 104.655 82.857V81.8089C104.655 80.9705 104.068 79.9644 103.355 79.5452L102.433 79.0003L102.517 78.8745L103.439 79.4195C104.194 79.8387 104.823 80.9286 104.823 81.8089V82.857C104.823 83.6954 105.41 84.7015 106.123 85.1207L110.526 87.6778L110.442 87.8036Z" fill="white"/>
<path d="M112.161 86.8397L107.758 84.2826C107.003 83.8634 106.374 82.7734 106.374 81.8931V80.8451C106.374 80.0067 105.787 79.0006 105.074 78.5814L104.152 78.0364L104.236 77.9106L105.158 78.4556C105.913 78.8748 106.542 79.9647 106.542 80.8451V81.8931C106.542 82.7315 107.129 83.7376 107.842 84.1568L112.245 86.714L112.161 86.8397Z" fill="white"/>
<path d="M113.88 85.8334L109.477 83.2762C108.722 82.857 108.093 81.7671 108.093 80.8867V79.8387C108.093 79.0003 107.506 77.9942 106.793 77.575L105.871 77.0301L105.955 76.9043L106.877 77.4493C107.632 77.8685 108.261 78.9584 108.261 79.8387V80.8867C108.261 81.7252 108.848 82.7313 109.561 83.1505L113.964 85.7076L113.88 85.8334Z" fill="white"/>
<path d="M115.599 84.869L111.197 82.3119C110.442 81.8927 109.813 80.8027 109.813 79.9224V78.8744C109.813 78.036 109.226 77.0299 108.513 76.6107L107.59 76.0657L107.674 75.9399L108.597 76.4849C109.352 76.9041 109.981 77.994 109.981 78.8744V79.9224C109.981 80.7608 110.568 81.7669 111.28 82.1861L115.683 84.7432L115.599 84.869Z" fill="white"/>
<path d="M117.318 83.8632L112.916 81.306C112.161 80.8868 111.532 79.7969 111.532 78.9165V77.8685C111.532 77.0301 110.945 76.024 110.232 75.6048L109.309 75.0598L109.393 74.9341L110.316 75.479C111.071 75.8983 111.7 76.9882 111.7 77.8685V78.9165C111.7 79.7549 112.287 80.761 112.999 81.1802L117.402 83.7374L117.318 83.8632Z" fill="white"/>
<path d="M118.996 82.8988L114.593 80.3416C113.838 79.9224 113.209 78.8325 113.209 77.9522V76.9042C113.209 76.0658 112.622 75.0597 111.909 74.6405L110.987 74.0955L111.071 73.9697L111.993 74.5147C112.748 74.9339 113.377 76.0238 113.377 76.9042V77.9522C113.377 78.7906 113.964 79.7967 114.677 80.2159L119.079 82.773L118.996 82.8988Z" fill="white"/>
<path d="M120.715 81.8929L116.312 79.3358C115.557 78.9166 114.928 77.8266 114.928 76.9463V75.8983C114.928 75.0599 114.341 74.0538 113.628 73.6346L112.706 73.0896L112.79 72.9639L113.712 73.5088C114.467 73.928 115.096 75.018 115.096 75.8983V76.9463C115.096 77.7847 115.683 78.7908 116.396 79.21L120.798 81.7672L120.715 81.8929Z" fill="white"/>
<path d="M122.434 80.8867L118.032 78.3295C117.277 77.9103 116.648 76.8204 116.648 75.94V74.9339C116.648 74.0955 116.061 73.0894 115.348 72.6702L114.425 72.1253L114.509 71.9995L115.432 72.5445C116.187 72.9637 116.816 74.0536 116.816 74.9339V75.982C116.816 76.8204 117.403 77.8265 118.115 78.2457L122.518 80.8028L122.434 80.8867Z" fill="white"/>
<path d="M124.153 79.9222L119.751 77.3651C118.996 76.9459 118.367 75.8559 118.367 74.9756V73.9276C118.367 73.0892 117.78 72.0831 117.067 71.6639L116.144 71.1189L116.228 70.9932L117.151 71.5381C117.906 71.9573 118.535 73.0473 118.535 73.9276V74.9756C118.535 75.814 119.122 76.8201 119.834 77.2393L124.237 79.7965L124.153 79.9222Z" fill="white"/>
<path d="M125.872 78.9164L121.47 76.3592C120.715 75.94 120.086 74.8501 120.086 73.9698V72.9217C120.086 72.0833 119.499 71.0772 118.786 70.658L117.863 70.1131L117.947 69.9873L118.87 70.5323C119.625 70.9515 120.254 72.0414 120.254 72.9217V73.9698C120.254 74.8082 120.841 75.8143 121.553 76.2335L125.956 78.7906L125.872 78.9164Z" fill="white"/>
<path d="M127.592 77.9525L123.189 75.3954C122.434 74.9762 121.805 73.8862 121.805 73.0059V71.9579C121.805 71.1195 121.218 70.1134 120.506 69.6942L119.583 69.1492L119.667 69.0234L120.589 69.5684C121.344 69.9876 121.973 71.0775 121.973 71.9579V73.0059C121.973 73.8443 122.56 74.8504 123.273 75.2696L127.676 77.8267L127.592 77.9525Z" fill="white"/>
<path d="M129.311 76.9462L124.908 74.389C124.153 73.9698 123.524 72.8799 123.524 71.9995V70.9515C123.524 70.1131 122.937 69.107 122.224 68.6878L121.302 68.1429L121.386 68.0171L122.308 68.5621C123.063 68.9813 123.692 70.0712 123.692 70.9515V71.9995C123.692 72.8379 124.279 73.844 124.992 74.2632L129.395 76.8204L129.311 76.9462Z" fill="white"/>
<path d="M79.6646 95.7264L79.5807 95.6007L83.9835 93.0435C84.6963 92.6243 85.2834 91.6182 85.2834 90.7798V89.7318C85.2834 88.8515 85.9123 87.8035 86.6671 87.3423L87.5896 86.7974L87.6735 86.9231L86.751 87.4681C86.0381 87.8873 85.4511 88.8934 85.4511 89.7318V90.7798C85.4511 91.6601 84.8221 92.7081 84.0674 93.1693L79.6646 95.7264Z" fill="white"/>
<path d="M77.9448 94.7202L77.861 94.5944L82.2638 92.0372C82.9766 91.618 83.5636 90.6119 83.5636 89.7735V88.7674C83.5636 87.8871 84.1926 86.8391 84.9474 86.378L85.8699 85.833L85.9537 85.9588L85.0312 86.5037C84.3184 86.9229 83.7314 87.929 83.7314 88.7674V89.8155C83.7314 90.6958 83.1024 91.7438 82.3476 92.2049L77.9448 94.7202Z" fill="white"/>
<path d="M76.226 93.7562L76.1421 93.6305L80.5449 91.0733C81.2577 90.6541 81.8448 89.648 81.8448 88.8096V87.7616C81.8448 86.8813 82.4737 85.8332 83.2285 85.3721L84.151 84.8271L84.2348 84.9529L83.3123 85.4979C82.5995 85.9171 82.0125 86.9232 82.0125 87.7616V88.8096C82.0125 89.6899 81.3835 90.7379 80.6287 91.1991L76.226 93.7562Z" fill="white"/>
<path d="M74.507 92.7499L74.4231 92.6241L78.8259 90.067C79.5387 89.6478 80.1258 88.6417 80.1258 87.8032V86.7552C80.1258 85.8749 80.7547 84.8269 81.5095 84.3658L82.432 83.8208L82.5159 83.9466L81.5934 84.4915C80.8805 84.9107 80.2935 85.9168 80.2935 86.7552V87.8032C80.2935 88.6836 79.6645 89.7316 78.9098 90.1927L74.507 92.7499Z" fill="white"/>
<path d="M72.8297 91.7855L72.7458 91.6598L77.1486 89.1026C77.8615 88.6834 78.4485 87.6773 78.4485 86.8389V85.7909C78.4485 84.9106 79.0775 83.8625 79.8322 83.4014L80.7547 82.8564L80.8386 82.9822L79.9161 83.5272C79.2033 83.9464 78.6162 84.9525 78.6162 85.7909V86.8389C78.6162 87.7192 77.9873 88.7672 77.2325 89.2284L72.8297 91.7855Z" fill="white"/>
<path d="M71.11 90.7797L71.0261 90.6539L75.4289 88.0967C76.1418 87.6775 76.7288 86.6714 76.7288 85.833V84.785C76.7288 83.9047 77.3578 82.8567 78.1125 82.3956L79.035 81.8506L79.1189 81.9763L78.1964 82.5213C77.4836 82.9405 76.8965 83.9466 76.8965 84.785V85.833C76.8965 86.7134 76.2676 87.7614 75.5128 88.2225L71.11 90.7797Z" fill="white"/>
<path d="M69.391 89.7738L69.3071 89.648L73.7099 87.0909C74.4228 86.6717 75.0098 85.6656 75.0098 84.8272V83.7792C75.0098 82.8988 75.6388 81.8508 76.3935 81.3897L77.316 80.8447L77.3999 80.9705L76.4774 81.5155C75.7646 81.9347 75.1775 82.9408 75.1775 83.7792V84.8272C75.1775 85.7075 74.5486 86.7555 73.7938 87.2166L69.391 89.7738Z" fill="white"/>
<path d="M67.672 88.8094L67.5881 88.6837L71.9909 86.1265C72.7038 85.7073 73.2908 84.7012 73.2908 83.8628V82.8148C73.2908 81.9345 73.9198 80.8865 74.6745 80.4253L75.597 79.8804L75.6809 80.0061L74.7584 80.5511C74.0456 80.9703 73.4585 81.9764 73.4585 82.8148V83.8628C73.4585 84.7431 72.8296 85.7912 72.0748 86.2523L67.672 88.8094Z" fill="white"/>
<path d="M64.2333 86.8392L64.1494 86.7135L68.5522 84.1563C69.265 83.7371 69.8521 82.731 69.8521 81.8926V80.8446C69.8521 79.9643 70.4811 78.9162 71.2358 78.4551L72.1583 77.9102L72.2422 78.0359L71.3197 78.5809C70.6069 79.0001 70.0198 80.0062 70.0198 80.8446V81.8926C70.0198 82.7729 69.3908 83.8209 68.6361 84.2821L64.2333 86.8392Z" fill="white"/>
<path d="M62.5144 85.8329L62.4305 85.7071L66.8333 83.15C67.5462 82.7308 68.1332 81.7247 68.1332 80.8863V79.8382C68.1332 78.9579 68.7622 77.9099 69.517 77.4488L70.4394 76.9038L70.5233 77.0296L69.6008 77.5745C68.888 77.9937 68.3009 78.9998 68.3009 79.8382V80.8863C68.3009 81.7666 67.672 82.8146 66.9172 83.2757L62.5144 85.8329Z" fill="white"/>
<path d="M60.7954 84.869L60.7115 84.7432L65.1143 82.1861C65.8272 81.7669 66.4142 80.7608 66.4142 79.9224V78.8744C66.4142 77.994 67.0432 76.946 67.798 76.4849L68.7204 75.9399L68.8043 76.0657L67.8818 76.6107C67.169 77.0299 66.5819 78.036 66.5819 78.8744V79.9224C66.5819 80.8027 65.953 81.8507 65.1982 82.3119L60.7954 84.869Z" fill="white"/>
<path d="M59.1182 83.8627L59.0343 83.7369L63.4371 81.1797C64.1499 80.7605 64.737 79.7545 64.737 78.916V77.868C64.737 76.9877 65.3659 75.9397 66.1207 75.4786L67.0432 74.9336L67.1271 75.0594L66.2046 75.6043C65.4917 76.0235 64.9047 77.0296 64.9047 77.868V78.916C64.9047 79.7964 64.2757 80.8444 63.521 81.3055L59.1182 83.8627Z" fill="white"/>
<path d="M57.3984 82.8983L57.3146 82.7725L61.7174 80.2154C62.4302 79.7962 63.0172 78.7901 63.0172 77.9517V76.9037C63.0172 76.0233 63.6462 74.9753 64.401 74.5142L65.3235 73.9692L65.4073 74.095L64.4848 74.64C63.772 75.0592 63.185 76.0653 63.185 76.9037V77.9517C63.185 78.832 62.556 79.88 61.8012 80.3411L57.3984 82.8983Z" fill="white"/>
<path d="M55.6794 81.8924L55.5956 81.7667L59.9984 79.2095C60.7112 78.7903 61.2983 77.7842 61.2983 76.9458V75.8978C61.2983 75.0175 61.9272 73.9695 62.682 73.5083L63.6045 72.9634L63.6883 73.0891L62.7659 73.6341C62.053 74.0533 61.466 75.0594 61.466 75.8978V76.9458C61.466 77.8262 60.837 78.8742 60.0822 79.3353L55.6794 81.8924Z" fill="white"/>
<path d="M53.9604 80.8862L53.8766 80.7604L58.2794 78.2033C58.9922 77.7841 59.5793 76.778 59.5793 75.9396V74.9335C59.5793 74.0531 60.2082 73.0051 60.963 72.544L61.8855 71.999L61.9693 72.1248L61.0469 72.6698C60.334 73.089 59.747 74.095 59.747 74.9335V75.9815C59.747 76.8618 59.118 77.9098 58.3632 78.3709L53.9604 80.8862Z" fill="white"/>
<path d="M52.2416 79.9218L52.1577 79.796L56.5605 77.2388C57.2733 76.8196 57.8604 75.8135 57.8604 74.9751V73.9271C57.8604 73.0468 58.4894 71.9988 59.2441 71.5376L60.1666 70.9927L60.2505 71.1604L59.328 71.7053C58.6152 72.1245 58.0281 73.1306 58.0281 73.969V75.017C58.0281 75.8974 57.3991 76.9454 56.6444 77.4065L52.2416 79.9218Z" fill="white"/>
<path d="M50.5219 78.9164L50.438 78.7906L54.8408 76.2335C55.5536 75.8143 56.1407 74.8082 56.1407 73.9698V72.9217C56.1407 72.0414 56.7696 70.9934 57.5244 70.5323L58.4469 69.9873L58.5308 70.1131L57.6083 70.658C56.8954 71.0772 56.3084 72.0833 56.3084 72.9217V73.9698C56.3084 74.8501 55.6794 75.8981 54.9247 76.3592L50.5219 78.9164Z" fill="white"/>
<path d="M48.8029 77.952L48.719 77.8263L53.1218 75.2691C53.8346 74.8499 54.4217 73.8438 54.4217 73.0054V71.9574C54.4217 71.0771 55.0506 70.029 55.8054 69.5679L56.7279 69.0229L56.8118 69.1487L55.8893 69.6937C55.1764 70.1129 54.5894 71.119 54.5894 71.9574V73.0054C54.5894 73.8857 53.9604 74.9337 53.2057 75.3949L48.8029 77.952Z" fill="white"/>
<path d="M47.0839 76.9457L47 76.8199L51.4028 74.2628C52.1156 73.8436 52.7027 72.8375 52.7027 71.9991V70.951C52.7027 70.0707 53.3316 69.0227 54.0864 68.5616L55.0089 68.0166L55.0928 68.1424L54.1703 68.6873C53.4574 69.1065 52.8704 70.1126 52.8704 70.951V71.9991C52.8704 72.8794 52.2414 73.9274 51.4867 74.3885L47.0839 76.9457Z" fill="white"/>
<path d="M88.2613 50.6612L81.9297 47.0142V54.3083L88.2613 57.9554L94.593 54.3083V47.0142L88.2613 50.6612Z" fill="white"/>
<path d="M88.2613 57.9554L81.9297 54.3083V47.0142L88.2613 50.6612V57.9554Z" fill="white"/>
<path d="M94.5927 54.3083L88.2611 57.9554V50.6612L94.5927 47.0142V54.3083Z" fill="#CBD6E0"/>
<path d="M88.261 50.6614L81.9293 47.0143L88.261 43.3672L94.5926 47.0143L88.261 50.6614Z" fill="white"/>
<path d="M88.2613 50.6615L82.2232 47.1401L81.9297 47.3078L88.2613 50.9549L94.593 47.3078L94.2994 47.1821L88.2613 50.6615Z" fill="white"/>
<path d="M96.4801 55.3146L90.1484 51.6675V58.9616L96.4801 62.6087L102.77 58.9616V51.6675L96.4801 55.3146Z" fill="white"/>
<path d="M96.4801 62.6087L90.1484 58.9616V51.6675L96.4801 55.3146V62.6087Z" fill="white"/>
<path d="M102.77 58.9616L96.4799 62.6087V55.3146L102.77 51.6675V58.9616Z" fill="#CBD6E0"/>
<path d="M96.4798 55.3147L90.1482 51.6676L96.4798 48.0205L102.77 51.6676L96.4798 55.3147Z" fill="white"/>
<path d="M96.4801 55.3144L90.442 51.835L90.1484 52.0026L96.4801 55.6497L102.77 52.0026L102.518 51.835L96.4801 55.3144Z" fill="white"/>
<path d="M104.657 60.0094L98.3671 56.3623V63.6565L104.657 67.3036L110.988 63.6565V56.3623L104.657 60.0094Z" fill="white"/>
<path d="M104.657 67.3036L98.3671 63.6565V56.3623L104.657 60.0094V67.3036Z" fill="white"/>
<path d="M110.988 63.6565L104.657 67.3036V60.0094L110.988 56.3623V63.6565Z" fill="#CBD6E0"/>
<path d="M104.657 60.0095L98.3674 56.3624L104.657 52.7153L110.989 56.3624L104.657 60.0095Z" fill="white"/>
<path d="M104.657 60.0094L98.6187 56.53L98.3671 56.6977L104.657 60.3448L110.988 56.6977V56.3623L104.657 60.0094Z" fill="white"/>
<path d="M80.0426 55.65L73.7529 52.0029V59.2971L80.0426 62.9442L86.3743 59.2971V52.0029L80.0426 55.65Z" fill="white"/>
<path d="M80.0426 62.9442L73.7529 59.2971V52.0029L80.0426 55.65V62.9442Z" fill="white"/>
<path d="M86.3742 59.2971L80.0426 62.9442V55.65L86.3742 52.0029V59.2971Z" fill="#CBD6E0"/>
<path d="M80.0434 55.6501L73.7537 52.003L80.0434 48.356L86.375 52.003L80.0434 55.6501Z" fill="white"/>
<path d="M80.0426 55.6503L74.0045 52.1709L73.7529 52.2967L80.0426 55.9437L86.3743 52.2967L86.0808 52.1709L80.0426 55.6503Z" fill="white"/>
<path d="M88.2613 60.3448L81.9297 56.6978V63.9919L88.2613 67.639L94.593 63.9919V56.6978L88.2613 60.3448Z" fill="white"/>
<path d="M88.2613 67.639L81.9297 63.9919V56.6978L88.2613 60.3448V67.639Z" fill="white"/>
<path d="M94.5927 63.9919L88.2611 67.639V60.3448L94.5927 56.6978V63.9919Z" fill="#CBD6E0"/>
<path d="M88.261 60.3454L81.9293 56.6984L88.261 53.0513L94.5926 56.6984L88.261 60.3454Z" fill="white"/>
<path d="M88.2613 60.3451L82.2232 56.8237L81.9297 56.9914L88.2613 60.6385L94.593 56.9914L94.2994 56.8237L88.2613 60.3451Z" fill="white"/>
<path d="M96.4801 64.9982L90.1484 61.3511V68.6452L96.4801 72.2923L102.77 68.6452V61.3511L96.4801 64.9982Z" fill="white"/>
<path d="M96.4801 72.2923L90.1484 68.6452V61.3511L96.4801 64.9982V72.2923Z" fill="white"/>
<path d="M102.77 68.6452L96.4799 72.2923V64.9982L102.77 61.3511V68.6452Z" fill="#CBD6E0"/>
<path d="M96.4798 64.9983L90.1482 61.3512L96.4798 57.7041L102.77 61.3512L96.4798 64.9983Z" fill="white"/>
<path d="M96.4801 64.9982L90.442 61.5188L90.1484 61.6864L96.4801 65.3335L102.77 61.6864V61.3511L96.4801 64.9982Z" fill="white"/>
<path d="M71.8658 60.6383L65.5342 56.9912V64.2854L71.8658 67.9325L78.1555 64.2854V56.9912L71.8658 60.6383Z" fill="white"/>
<path d="M71.8658 67.9325L65.5342 64.2854V56.9912L71.8658 60.6383V67.9325Z" fill="white"/>
<path d="M78.1553 64.2854L71.8656 67.9325V60.6383L78.1553 56.9912V64.2854Z" fill="#CBD6E0"/>
<path d="M71.8659 60.6389L65.5343 56.9918L71.8659 53.3447L78.1557 56.9918L71.8659 60.6389Z" fill="white"/>
<path d="M71.8658 60.6383L65.5342 56.9912V57.3266L71.8658 60.9737L78.1555 57.3266L77.9039 57.1589L71.8658 60.6383Z" fill="white"/>
<path d="M80.0426 65.3331L73.7529 61.686V68.9802L80.0426 72.6273L86.3743 68.9802V61.686L80.0426 65.3331Z" fill="white"/>
<path d="M80.0426 72.6273L73.7529 68.9802V61.686L80.0426 65.3331V72.6273Z" fill="white"/>
<path d="M86.3742 68.9802L80.0426 72.6273V65.3331L86.3742 61.686V68.9802Z" fill="#CBD6E0"/>
<path d="M80.0434 65.3332L73.7537 61.6861L80.0434 58.0391L86.375 61.6861L80.0434 65.3332Z" fill="white"/>
<path d="M80.0426 65.3331L73.7529 61.686V61.9795L80.0426 65.6266L86.3743 61.9795L86.0808 61.8537L80.0426 65.3331Z" fill="white"/>
<path d="M88.2613 70.0284L81.9297 66.3813V73.6336L88.2613 77.2807L94.593 73.6336V66.3813L88.2613 70.0284Z" fill="white"/>
<path d="M88.2613 77.2807L81.9297 73.6336V66.3813L88.2613 70.0284V77.2807Z" fill="white"/>
<path d="M94.5927 73.6336L88.2611 77.2807V70.0284L94.5927 66.3813V73.6336Z" fill="#CBD6E0"/>
<path d="M88.261 70.029L81.9293 66.3819L88.261 62.7349L94.5926 66.3819L88.261 70.029Z" fill="white"/>
<path d="M88.2613 70.0284L81.9297 66.3813V66.6748L88.2613 70.3219L94.593 66.6748V66.3813L88.2613 70.0284Z" fill="white"/>
<path d="M88.2613 40.9777L81.9297 37.3306V44.6247L88.2613 48.2718L94.593 44.6247V37.3306L88.2613 40.9777Z" fill="white"/>
<path d="M88.2613 48.2718L81.9297 44.6247V37.3306L88.2613 40.9777V48.2718Z" fill="white"/>
<path d="M94.5927 44.6247L88.2611 48.2718V40.9777L94.5927 37.3306V44.6247Z" fill="#CBD6E0"/>
<path d="M88.261 40.9778L81.9293 37.3307L88.261 33.6836L94.5926 37.3307L88.261 40.9778Z" fill="white"/>
<path d="M88.2613 40.9779L82.2232 37.4985L81.9297 37.6243L88.2613 41.2714L94.593 37.6243L94.2994 37.4985L88.2613 40.9779Z" fill="white"/>
<path opacity="0.7" d="M88.2602 68.8132L83.9413 66.3399L88.2602 63.8247L92.5792 66.3399L88.2602 68.8132Z" fill="#91A4B6"/>
<path opacity="0.7" d="M80.042 64.1185L75.765 61.6452L80.042 59.1719L84.361 61.6452L80.042 64.1185Z" fill="#91A4B6"/>
<path opacity="0.7" d="M96.479 63.825L92.16 61.3517L96.479 58.8364L100.798 61.3517L96.479 63.825Z" fill="#91A4B6"/>
<path opacity="0.7" d="M104.698 58.8782L100.379 56.4049L104.698 53.8896L109.017 56.4049L104.698 58.8782Z" fill="#91A4B6"/>
<path opacity="0.7" d="M71.8652 59.4651L67.5463 56.9499L71.8652 54.4766L76.1422 56.9499L71.8652 59.4651Z" fill="#91A4B6"/>
<path d="M96.4801 45.673L90.1484 42.0259V49.2781L96.4801 52.9252L102.77 49.2781V42.0259L96.4801 45.673Z" fill="white"/>
<path d="M96.4801 52.9252L90.1484 49.2781V42.0259L96.4801 45.673V52.9252Z" fill="white"/>
<path d="M102.77 49.2781L96.4799 52.9252V45.673L102.77 42.0259V49.2781Z" fill="#CBD6E0"/>
<path d="M96.4798 45.6731L90.1482 42.026L96.4798 38.3789L102.77 42.026L96.4798 45.6731Z" fill="white"/>
<path d="M96.4801 45.6727L90.442 42.1514L90.1484 42.319L96.4801 45.9661L102.77 42.319L102.518 42.1514L96.4801 45.6727Z" fill="white"/>
<path d="M104.657 50.3258L98.3671 46.6787V53.9729L104.657 57.62L110.988 53.9729V46.6787L104.657 50.3258Z" fill="white"/>
<path d="M104.657 57.62L98.3671 53.9729V46.6787L104.657 50.3258V57.62Z" fill="white"/>
<path d="M110.988 53.9729L104.657 57.62V50.3258L110.988 46.6787V53.9729Z" fill="#CBD6E0"/>
<path d="M104.657 50.3259L98.3674 46.6788L104.657 43.0317L110.989 46.6788L104.657 50.3259Z" fill="white"/>
<path d="M104.657 50.3258L98.6187 46.8464L98.3671 47.0141L104.657 50.6612L110.988 47.0141V46.6787L104.657 50.3258Z" fill="white"/>
<path d="M80.0426 45.9659L73.7529 42.3188V49.613L80.0426 53.2601L86.3743 49.613V42.3188L80.0426 45.9659Z" fill="white"/>
<path d="M80.0426 53.2601L73.7529 49.613V42.3188L80.0426 45.9659V53.2601Z" fill="white"/>
<path d="M86.3742 49.613L80.0426 53.2601V45.9659L86.3742 42.3188V49.613Z" fill="#CBD6E0"/>
<path d="M80.0434 45.9665L73.7537 42.3194L80.0434 38.6724L86.375 42.3194L80.0434 45.9665Z" fill="white"/>
<path d="M80.0426 45.9662L74.0045 42.4868L73.7529 42.6545L80.0426 46.3016L86.3743 42.6545L86.0808 42.4868L80.0426 45.9662Z" fill="white"/>
<path d="M88.2613 50.6612L81.9297 47.0142V54.3083L88.2613 57.9554L94.593 54.3083V47.0142L88.2613 50.6612Z" fill="white"/>
<path d="M88.2613 57.9554L81.9297 54.3083V47.0142L88.2613 50.6612V57.9554Z" fill="white"/>
<path d="M94.5927 54.3083L88.2611 57.9554V50.6612L94.5927 47.0142V54.3083Z" fill="#CBD6E0"/>
<path d="M88.261 50.6614L81.9293 47.0143L88.261 43.3672L94.5926 47.0143L88.261 50.6614Z" fill="white"/>
<path d="M88.2613 50.6615L82.2232 47.1821L81.9297 47.3079L88.2613 50.955L94.593 47.3079L94.2994 47.1821L88.2613 50.6615Z" fill="white"/>
<path d="M96.4801 55.3146L90.1484 51.6675V58.9616L96.4801 62.6087L102.77 58.9616V51.6675L96.4801 55.3146Z" fill="white"/>
<path d="M96.4801 62.6087L90.1484 58.9616V51.6675L96.4801 55.3146V62.6087Z" fill="white"/>
<path d="M102.77 58.9616L96.4799 62.6087V55.3146L102.77 51.6675V58.9616Z" fill="#CBD6E0"/>
<path d="M96.4798 55.3147L90.1482 51.6676L96.4798 48.0205L102.77 51.6676L96.4798 55.3147Z" fill="white"/>
<path d="M96.4801 55.3146L90.442 51.8352L90.1484 52.0028L96.4801 55.6499L102.77 52.0028V51.6675L96.4801 55.3146Z" fill="white"/>
<path d="M71.8658 50.9547L65.5342 47.3076V54.6018L71.8658 58.2489L78.1555 54.6018V47.3076L71.8658 50.9547Z" fill="white"/>
<path d="M71.8658 58.2489L65.5342 54.6018V47.3076L71.8658 50.9547V58.2489Z" fill="white"/>
<path d="M78.1553 54.6018L71.8656 58.2489V50.9547L78.1553 47.3076V54.6018Z" fill="#CBD6E0"/>
<path d="M71.8659 50.9548L65.5343 47.3077L71.8659 43.6606L78.1557 47.3077L71.8659 50.9548Z" fill="white"/>
<path d="M71.8658 50.955L65.7858 47.4756L65.5342 47.6433L71.8658 51.2904L78.1555 47.6433L77.9039 47.4756L71.8658 50.955Z" fill="white"/>
<path d="M80.0426 55.65L73.7529 52.0029V59.2971L80.0426 62.9442L86.3743 59.2971V52.0029L80.0426 55.65Z" fill="white"/>
<path d="M80.0426 62.9442L73.7529 59.2971V52.0029L80.0426 55.65V62.9442Z" fill="white"/>
<path d="M86.3742 59.2971L80.0426 62.9442V55.65L86.3742 52.0029V59.2971Z" fill="#CBD6E0"/>
<path d="M80.0434 55.6501L73.7537 52.003L80.0434 48.356L86.375 52.003L80.0434 55.6501Z" fill="white"/>
<path d="M80.0426 55.65L73.7529 52.0029V52.2964L80.0426 55.9435L86.3743 52.2964L86.0808 52.1706L80.0426 55.65Z" fill="white"/>
<path d="M88.2613 60.3448L81.9297 56.6978V63.9919L88.2613 67.639L94.593 63.9919V56.6978L88.2613 60.3448Z" fill="white"/>
<path d="M88.2613 67.639L81.9297 63.9919V56.6978L88.2613 60.3448V67.639Z" fill="white"/>
<path d="M94.5927 63.9919L88.2611 67.639V60.3448L94.5927 56.6978V63.9919Z" fill="#CBD6E0"/>
<path d="M88.261 60.3454L81.9293 56.6984L88.261 53.0513L94.5926 56.6984L88.261 60.3454Z" fill="white"/>
<path d="M88.2613 60.3448L81.9297 56.6978V56.9912L88.2613 60.6383L94.593 56.9912V56.6978L88.2613 60.3448Z" fill="white"/>
<path opacity="0.7" d="M104.698 49.2357L100.379 46.7624L104.698 44.2891L109.017 46.7624L104.698 49.2357Z" fill="#91A4B6"/>
<path opacity="0.7" d="M71.8652 49.823L67.5463 47.3497L71.8652 44.8345L76.1422 47.3497L71.8652 49.823Z" fill="#91A4B6"/>
<path d="M88.2613 31.2941L81.9297 27.647V34.9411L88.2613 38.5882L94.593 34.9411V27.647L88.2613 31.2941Z" fill="white"/>
<path d="M88.2613 38.5882L81.9297 34.9411V27.647L88.2613 31.2941V38.5882Z" fill="white"/>
<path d="M94.5927 34.9411L88.2611 38.5882V31.2941L94.5927 27.647V34.9411Z" fill="#CBD6E0"/>
<path d="M88.261 31.2942L81.9293 27.6471L88.261 24L94.5926 27.6471L88.261 31.2942Z" fill="white"/>
<path d="M88.2613 31.2941L81.9297 27.647V27.9404L88.2613 31.5875L94.593 27.9404V27.647L88.2613 31.2941Z" fill="white"/>
<path d="M96.4801 35.9889L90.1484 32.3418V39.636L96.4801 43.2831L102.77 39.636V32.3418L96.4801 35.9889Z" fill="white"/>
<path d="M96.4801 43.2831L90.1484 39.636V32.3418L96.4801 35.9889V43.2831Z" fill="white"/>
<path d="M102.77 39.636L96.4799 43.2831V35.9889L102.77 32.3418V39.636Z" fill="#CBD6E0"/>
<path d="M96.4798 35.9895L90.1482 32.3424L96.4798 28.6953L102.77 32.3424L96.4798 35.9895Z" fill="white"/>
<path d="M96.4801 35.9889L90.1484 32.3418V32.6352L96.4801 36.2823L102.77 32.6352V32.3418L96.4801 35.9889Z" fill="white"/>
<path d="M104.657 40.6422L98.3671 36.9951V44.2893L104.657 47.9364L110.988 44.2893V36.9951L104.657 40.6422Z" fill="white"/>
<path d="M104.657 47.9364L98.3671 44.2893V36.9951L104.657 40.6422V47.9364Z" fill="white"/>
<path d="M110.988 44.2893L104.657 47.9364V40.6422L110.988 36.9951V44.2893Z" fill="#CBD6E0"/>
<path d="M104.657 40.6423L98.3674 36.9952L104.657 33.3481L110.989 36.9952L104.657 40.6423Z" fill="white"/>
<path d="M104.657 40.6422L98.3671 36.9951V37.3305L104.657 40.9776L110.988 37.3305V36.9951L104.657 40.6422Z" fill="white"/>
<path d="M80.0426 36.2823L73.7529 32.6353V39.9294L80.0426 43.5765L86.3743 39.9294V32.6353L80.0426 36.2823Z" fill="white"/>
<path d="M80.0426 43.5765L73.7529 39.9294V32.6353L80.0426 36.2823V43.5765Z" fill="white"/>
<path d="M86.3742 39.9294L80.0426 43.5765V36.2823L86.3742 32.6353V39.9294Z" fill="#CBD6E0"/>
<path d="M80.0434 36.2829L73.7537 32.6359L80.0434 28.9888L86.375 32.6359L80.0434 36.2829Z" fill="white"/>
<path d="M80.0426 36.2823L73.7529 32.6353V32.9706L80.0426 36.6177L86.3743 32.9706V32.6353L80.0426 36.2823Z" fill="white"/>
<path d="M71.8658 41.2711L65.5342 37.624V44.9182L71.8658 48.5653L78.1555 44.9182V37.624L71.8658 41.2711Z" fill="white"/>
<path d="M71.8658 48.5653L65.5342 44.9182V37.624L71.8658 41.2711V48.5653Z" fill="white"/>
<path d="M78.1553 44.9182L71.8656 48.5653V41.2711L78.1553 37.624V44.9182Z" fill="#CBD6E0"/>
<path d="M71.8659 41.2712L65.5343 37.6241L71.8659 33.9771L78.1557 37.6241L71.8659 41.2712Z" fill="white"/>
<path d="M71.8658 41.2711L65.5342 37.624V37.9594L71.8658 41.6065L78.1555 37.9594V37.624L71.8658 41.2711Z" fill="white"/>
</g>
<defs>
<linearGradient id="paint0_linear" x1="57.4259" y1="-21.5" x2="115.628" y2="113.317" gradientUnits="userSpaceOnUse">
<stop stop-color="#1187EA"/>
<stop offset="1" stop-color="#1187EA" stop-opacity="0"/>
</linearGradient>
<linearGradient id="paint1_linear" x1="88.0639" y1="-5.02631e-06" x2="108.99" y2="55.6868" gradientUnits="userSpaceOnUse">
<stop stop-color="#491BDF"/>
<stop offset="1" stop-color="#34BFFF"/>
</linearGradient>
<linearGradient id="paint2_linear" x1="88.0652" y1="2.5" x2="146.044" y2="12.9082" gradientUnits="userSpaceOnUse">
<stop stop-color="#462FE3"/>
<stop offset="1" stop-color="#34BFFF"/>
</linearGradient>
<linearGradient id="paint3_linear" x1="88.6584" y1="57.5" x2="103.461" y2="104.875" gradientUnits="userSpaceOnUse">
<stop stop-color="#2052D1"/>
<stop offset="1" stop-color="#34BFFF"/>
</linearGradient>
<linearGradient id="paint4_linear" x1="37.6483" y1="79.3897" x2="124.445" y2="79.3897" gradientUnits="userSpaceOnUse">
<stop stop-color="#4B4B4B"/>
<stop offset="0.1645" stop-color="#5E67DA"/>
<stop offset="0.4051" stop-color="#727AE2"/>
<stop offset="0.6924" stop-color="#9297EE"/>
<stop offset="1" stop-color="#BCBEFF"/>
</linearGradient>
<clipPath id="clip0">
<rect width="175" height="114" fill="white"/>
</clipPath>
</defs>
</svg>
