<svg width="552" height="337" viewBox="0 0 552 337" fill="none" xmlns="http://www.w3.org/2000/svg">
<g clip-path="url(#clip0)">
<path opacity="0.3" d="M132.437 213.028C126.271 213.028 120.105 212.212 114.171 210.464C102.305 206.968 94.2772 200.442 91.9504 192.517C90.3217 186.924 91.8341 181.213 96.1386 176.319L96.604 175.736C106.958 163.966 130.808 159.421 150.818 165.248C162.685 168.744 170.712 175.27 173.039 183.195C174.668 188.788 173.156 194.499 168.851 199.393L168.386 199.976C161.056 208.366 147.095 213.028 132.437 213.028ZM100.327 179.932C97.302 183.428 96.1386 187.273 97.302 191.002C99.0471 196.946 105.911 202.306 115.8 205.22C133.6 210.464 155.356 206.502 164.314 196.363L164.779 195.78C167.804 192.284 168.967 188.439 167.804 184.71C166.059 178.766 159.195 173.406 149.306 170.492C131.506 165.248 109.75 169.21 100.792 179.349L100.327 179.932Z" fill="#6EE8FC"/>
<path d="M132.204 210.58C126.387 210.58 120.454 209.764 114.869 208.133C103.817 204.87 96.3713 198.927 94.2771 191.818C92.8811 187.04 94.1608 182.145 98 177.834L98.4654 177.251C108.122 166.296 131.273 161.985 150.237 167.462C161.289 170.725 168.735 176.668 170.829 183.777C172.225 188.555 170.945 193.449 167.106 197.761L166.641 198.344C159.776 206.152 146.281 210.58 132.204 210.58ZM98.5817 178.416C94.9752 182.612 93.6954 187.156 94.9752 191.701C96.953 198.46 104.399 204.404 115.102 207.55C133.716 213.027 156.635 208.716 166.059 197.994L166.524 197.412C170.131 193.216 171.41 188.671 170.131 184.126C168.153 177.367 160.707 171.424 150.004 168.278C131.39 162.8 108.471 167.112 99.0471 177.834L98.5817 178.416Z" fill="#6EE8FC"/>
<path d="M132.553 206.268C123.711 206.268 114.869 204.287 108.122 200.442C101.607 196.596 98 191.585 98 186.224C98 180.864 101.607 175.853 108.122 172.007C121.617 164.199 143.489 164.199 156.868 172.007C163.383 175.853 166.99 180.864 166.99 186.224C166.99 191.585 163.383 196.596 156.868 200.442C150.237 204.287 141.395 206.268 132.553 206.268ZM132.553 166.53C123.827 166.53 114.986 168.511 108.354 172.356C101.956 176.086 98.349 180.98 98.349 186.224C98.349 191.468 101.839 196.363 108.354 200.092C121.733 207.783 143.373 207.783 156.752 200.092C163.15 196.363 166.757 191.468 166.757 186.224C166.757 180.98 163.267 176.086 156.752 172.356C150.12 168.511 141.278 166.53 132.553 166.53Z" fill="url(#paint0_linear)"/>
<path opacity="0.6" d="M132.553 203.005C148.552 203.005 161.521 195.492 161.521 186.224C161.521 176.956 148.552 169.443 132.553 169.443C116.554 169.443 103.584 176.956 103.584 186.224C103.584 195.492 116.554 203.005 132.553 203.005Z" fill="#0C0F38"/>
<path d="M166.873 177.601V166.413H160.824C159.66 165.481 158.38 164.548 156.868 163.616C143.489 155.808 121.733 155.808 108.238 163.616C106.725 164.432 105.446 165.481 104.282 166.413H98.2327V177.717C98.2327 182.845 101.607 187.856 108.238 191.818C121.617 199.626 143.373 199.626 156.868 191.818C163.616 187.739 166.873 182.728 166.873 177.601Z" fill="url(#paint1_linear)"/>
<path d="M98.5817 177.367V166.413H98.2327V177.717C98.2327 182.262 100.908 186.807 106.26 190.536C101.141 186.574 98.5817 181.912 98.5817 177.367Z" fill="#D4088C"/>
<path d="M166.408 166.413V177.251C166.408 182.379 163.034 187.39 156.403 191.352C143.024 199.16 121.268 199.16 107.773 191.352C107.075 191.002 106.493 190.536 105.911 190.07C106.726 190.653 107.54 191.119 108.354 191.701C121.733 199.509 143.489 199.509 156.984 191.701C163.732 187.856 167.106 182.728 166.99 177.601V166.413H166.408V166.413Z" fill="#6EE8FC"/>
<path d="M132.553 186.224C151.507 186.224 166.873 177.355 166.873 166.413C166.873 155.472 151.507 146.602 132.553 146.602C113.598 146.602 98.2324 155.472 98.2324 166.413C98.2324 177.355 113.598 186.224 132.553 186.224Z" fill="url(#paint2_linear)"/>
<path d="M109.169 152.545C116.033 148.583 124.874 146.602 133.833 146.602C124.642 146.369 115.335 148.35 108.238 152.429C97.7672 158.489 95.4404 167.578 101.374 174.804C96.2548 167.229 98.8143 158.489 109.169 152.545Z" fill="#D4088C"/>
<path d="M156.868 152.312C153.261 150.214 149.189 148.699 144.768 147.767C148.724 148.699 152.447 150.098 155.704 151.962C169.083 159.77 169.083 172.24 155.704 180.048C145.816 185.758 131.506 187.273 119.29 184.592C131.738 187.622 146.746 186.224 156.868 180.397C170.247 172.706 170.247 160.12 156.868 152.312Z" fill="#6EE8FC"/>
<path d="M132.436 179.115C144.58 179.115 154.425 173.428 154.425 166.412C154.425 159.397 144.58 153.71 132.436 153.71C120.293 153.71 110.448 159.397 110.448 166.412C110.448 173.428 120.293 179.115 132.436 179.115Z" fill="#6DE0F6"/>
<path d="M116.847 164.199C125.456 159.187 139.301 159.187 147.91 164.199C150.702 165.83 152.563 167.695 153.494 169.792C155.588 165.48 153.727 160.819 147.91 157.439C139.301 152.428 125.456 152.428 116.847 157.439C111.03 160.819 109.169 165.597 111.263 169.792C112.193 167.695 114.055 165.83 116.847 164.199Z" fill="#18D0F7"/>
<path d="M116.847 161.752C125.456 156.741 139.301 156.741 147.91 161.752C151.167 163.616 153.261 166.063 153.959 168.511C155.123 164.548 153.145 160.353 147.91 157.323C139.301 152.312 125.456 152.312 116.847 157.323C111.612 160.353 109.518 164.548 110.797 168.511C111.495 166.063 113.589 163.733 116.847 161.752Z" fill="#25BFEC"/>
<path d="M116.847 159.654C125.456 154.643 139.301 154.643 147.91 159.654C151.749 161.868 153.843 164.665 154.192 167.462C154.774 163.849 152.68 160.12 147.91 157.323C139.301 152.312 125.456 152.312 116.847 157.323C112.077 160.12 109.983 163.849 110.565 167.462C111.03 164.665 113.124 161.868 116.847 159.654Z" fill="#267FE5"/>
<path d="M150.353 151.03C149.655 150.797 148.724 150.914 148.375 151.264C147.91 151.613 148.142 152.196 148.841 152.429C149.539 152.662 150.469 152.545 150.818 152.196C151.284 151.846 151.051 151.264 150.353 151.03Z" fill="#6EE8FC"/>
<path opacity="0.8" d="M155.123 153.361C154.541 153.012 153.61 153.012 153.029 153.361C152.447 153.711 152.563 154.177 153.145 154.527C153.727 154.876 154.657 154.876 155.239 154.527C155.821 154.177 155.821 153.711 155.123 153.361Z" fill="#6EE8FC"/>
<path opacity="0.6" d="M159.195 156.275C158.729 155.925 157.799 155.809 157.217 156.042C156.635 156.275 156.403 156.857 156.868 157.207C157.333 157.557 158.264 157.673 158.846 157.44C159.427 157.091 159.66 156.624 159.195 156.275Z" fill="#6EE8FC"/>
<path opacity="0.4" d="M162.103 159.421C161.754 158.955 160.94 158.838 160.242 158.955C159.544 159.188 159.195 159.654 159.544 160.12C159.893 160.586 160.707 160.703 161.405 160.586C162.103 160.353 162.452 159.887 162.103 159.421Z" fill="#6EE8FC"/>
<path opacity="0.2" d="M163.848 163.034C163.616 162.568 162.918 162.335 162.103 162.451C161.289 162.568 160.824 163.034 161.056 163.5C161.289 163.966 161.987 164.199 162.801 164.083C163.616 163.85 164.081 163.383 163.848 163.034Z" fill="#6EE8FC"/>
<path opacity="0.1" d="M164.314 166.996C164.663 166.53 164.314 166.064 163.616 165.831C162.918 165.598 161.987 165.831 161.638 166.18C161.289 166.646 161.638 167.113 162.336 167.346C163.15 167.579 163.965 167.462 164.314 166.996Z" fill="#6EE8FC"/>
<path d="M166.873 153.361V142.174H160.824C159.66 141.242 158.38 140.309 156.868 139.377C143.489 131.569 121.733 131.569 108.238 139.377C106.725 140.193 105.446 141.242 104.282 142.174H98.2327V153.478C98.2327 158.605 101.607 163.616 108.238 167.579C121.617 175.387 143.373 175.387 156.868 167.579C163.616 163.616 166.873 158.489 166.873 153.361Z" fill="url(#paint3_linear)"/>
<path d="M98.5817 153.128V142.174H98.2327V153.478C98.2327 158.023 100.908 162.568 106.26 166.297C101.141 162.335 98.5817 157.79 98.5817 153.128Z" fill="#D4088C"/>
<path d="M166.408 142.174V153.012C166.408 158.139 163.034 163.15 156.403 167.113C143.024 174.92 121.268 174.92 107.773 167.113C107.075 166.763 106.493 166.297 105.911 165.831C106.726 166.413 107.54 166.879 108.354 167.462C121.733 175.27 143.489 175.27 156.984 167.462C163.732 163.616 167.106 158.489 166.99 153.361V142.174H166.408Z" fill="#6EE8FC"/>
<path d="M132.553 161.985C151.507 161.985 166.873 153.115 166.873 142.174C166.873 131.233 151.507 122.363 132.553 122.363C113.598 122.363 98.2324 131.233 98.2324 142.174C98.2324 153.115 113.598 161.985 132.553 161.985Z" fill="url(#paint4_linear)"/>
<path d="M109.169 128.306C116.033 124.344 124.874 122.363 133.833 122.363C124.642 122.13 115.335 124.111 108.238 128.189C97.7672 134.249 95.4404 143.339 101.374 150.564C96.2548 143.106 98.8143 134.366 109.169 128.306Z" fill="#D4088C"/>
<path d="M156.868 128.073C153.261 125.975 149.189 124.46 144.768 123.528C148.724 124.46 152.447 125.859 155.704 127.723C169.083 135.531 169.083 148 155.704 155.808C145.816 161.519 131.506 163.034 119.29 160.353C131.738 163.383 146.746 161.985 156.868 156.158C170.247 148.467 170.247 135.881 156.868 128.073Z" fill="#6EE8FC"/>
<path d="M147.91 151.147C139.301 156.158 125.456 156.158 116.847 151.147C108.238 146.136 108.238 138.095 116.847 133.2C125.456 128.189 139.301 128.189 147.91 133.2C156.519 138.095 156.519 146.136 147.91 151.147Z" fill="#6DE0F6"/>
<path d="M116.847 139.959C125.456 134.948 139.301 134.948 147.91 139.959C150.702 141.591 152.563 143.455 153.494 145.553C155.588 141.241 153.727 136.58 147.91 133.2C139.301 128.189 125.456 128.189 116.847 133.2C111.03 136.58 109.169 141.358 111.263 145.553C112.193 143.572 114.055 141.591 116.847 139.959Z" fill="#18D0F7"/>
<path d="M116.847 137.629C125.456 132.617 139.301 132.617 147.91 137.629C151.167 139.493 153.261 141.94 153.959 144.388C155.123 140.425 153.145 136.23 147.91 133.2C139.301 128.189 125.456 128.189 116.847 133.2C111.612 136.23 109.518 140.425 110.797 144.388C111.495 141.94 113.589 139.493 116.847 137.629Z" fill="#25BFEC"/>
<path d="M116.847 135.415C125.456 130.404 139.301 130.404 147.91 135.415C151.749 137.629 153.843 140.426 154.192 143.223C154.774 139.61 152.68 135.881 147.91 133.084C139.301 128.073 125.456 128.073 116.847 133.084C112.077 135.881 109.983 139.61 110.565 143.223C111.03 140.426 113.124 137.629 116.847 135.415Z" fill="#267FE5"/>
<path d="M150.353 126.791C149.655 126.558 148.724 126.675 148.375 127.024C147.91 127.374 148.142 127.957 148.841 128.19C149.539 128.423 150.469 128.306 150.818 127.957C151.284 127.607 151.051 127.024 150.353 126.791Z" fill="#6EE8FC"/>
<path opacity="0.8" d="M155.123 129.238C154.541 128.889 153.61 128.889 153.029 129.238C152.447 129.588 152.563 130.054 153.145 130.404C153.727 130.753 154.657 130.753 155.239 130.404C155.821 130.054 155.821 129.471 155.123 129.238Z" fill="#6EE8FC"/>
<path opacity="0.6" d="M159.195 132.035C158.73 131.686 157.799 131.569 157.217 131.802C156.519 132.035 156.403 132.618 156.868 132.968C157.333 133.317 158.264 133.434 158.846 133.201C159.428 132.968 159.66 132.385 159.195 132.035Z" fill="#6EE8FC"/>
<path opacity="0.4" d="M162.103 135.298C161.754 134.832 160.94 134.716 160.242 134.832C159.544 135.065 159.195 135.531 159.544 135.997C159.893 136.464 160.707 136.58 161.405 136.464C162.103 136.23 162.452 135.648 162.103 135.298Z" fill="#6EE8FC"/>
<path opacity="0.2" d="M163.848 138.795C163.616 138.328 162.918 138.095 162.103 138.212C161.289 138.328 160.824 138.795 161.056 139.261C161.289 139.727 161.987 139.96 162.801 139.843C163.616 139.727 164.081 139.261 163.848 138.795Z" fill="#6EE8FC"/>
<path opacity="0.1" d="M164.314 142.873C164.663 142.407 164.314 141.941 163.616 141.708C162.918 141.475 161.987 141.708 161.638 142.057C161.289 142.523 161.638 142.989 162.336 143.223C163.15 143.456 163.965 143.223 164.314 142.873Z" fill="#6EE8FC"/>
<path opacity="0.5" d="M166.873 127.956L156.286 127.84C143.373 120.731 123.129 120.498 109.867 127.257L98.2327 127.14V141.591C98 146.835 101.374 152.196 108.238 156.158C121.617 163.966 143.373 163.966 156.868 156.158C163.848 152.196 167.106 146.835 166.873 141.591V127.956Z" fill="#6EE8FC"/>
<path d="M166.873 129.238V118.051H160.824C159.66 117.118 158.38 116.186 156.868 115.254C143.489 107.446 121.733 107.446 108.238 115.254C106.725 116.07 105.446 117.118 104.282 118.051H98.2327V129.355C98.2327 134.482 101.607 139.493 108.238 143.456C121.617 151.264 143.373 151.264 156.868 143.456C163.616 139.377 166.873 134.249 166.873 129.238Z" fill="url(#paint5_linear)"/>
<path d="M98.5817 128.888V117.934H98.2327V129.238C98.2327 133.783 100.908 138.328 106.26 142.057C101.141 138.211 98.5817 133.55 98.5817 128.888Z" fill="#D4088C"/>
<path d="M166.408 117.934V128.772C166.408 133.9 163.034 138.911 156.403 142.873C143.024 150.681 121.268 150.681 107.773 142.873C107.075 142.523 106.493 142.057 105.911 141.591C106.726 142.174 107.54 142.64 108.354 143.222C121.733 151.03 143.489 151.03 156.984 143.222C163.732 139.377 167.106 134.249 166.99 129.122V117.934H166.408V117.934Z" fill="#6EE8FC"/>
<path d="M132.553 137.745C151.507 137.745 166.873 128.876 166.873 117.934C166.873 106.993 151.507 98.123 132.553 98.123C113.598 98.123 98.2324 106.993 98.2324 117.934C98.2324 128.876 113.598 137.745 132.553 137.745Z" fill="url(#paint6_linear)"/>
<path d="M109.169 104.182C116.033 100.22 124.874 98.2391 133.833 98.2391C124.642 98.006 115.335 99.9872 108.238 104.066C97.7672 110.126 95.4404 119.216 101.374 126.441C96.2548 118.866 98.8143 110.126 109.169 104.182Z" fill="#D4088C"/>
<path d="M156.868 103.95C153.261 101.852 149.189 100.337 144.768 99.4048C148.724 100.337 152.447 101.736 155.704 103.6C169.083 111.408 169.083 123.877 155.704 131.685C145.816 137.396 131.506 138.91 119.29 136.23C131.738 139.26 146.746 137.862 156.868 132.035C170.247 124.227 170.247 111.641 156.868 103.95Z" fill="#6EE8FC"/>
<path d="M132.436 130.637C144.58 130.637 154.425 124.95 154.425 117.934C154.425 110.919 144.58 105.232 132.436 105.232C120.293 105.232 110.448 110.919 110.448 117.934C110.448 124.95 120.293 130.637 132.436 130.637Z" fill="#6DE0F6"/>
<path d="M116.847 115.836C125.456 110.825 139.301 110.825 147.91 115.836C150.702 117.468 152.563 119.332 153.494 121.43C155.588 117.118 153.727 112.457 147.91 109.077C139.301 104.066 125.456 104.066 116.847 109.077C111.03 112.457 109.169 117.235 111.263 121.43C112.193 119.332 114.055 117.351 116.847 115.836Z" fill="#18D0F7"/>
<path d="M116.847 113.389C125.456 108.378 139.301 108.378 147.91 113.389C151.167 115.254 153.261 117.701 153.959 120.148C155.123 116.186 153.145 111.991 147.91 108.961C139.301 103.95 125.456 103.95 116.847 108.961C111.612 111.991 109.518 116.186 110.797 120.148C111.495 117.701 113.589 115.254 116.847 113.389Z" fill="#25BFEC"/>
<path d="M116.847 111.292C125.456 106.281 139.301 106.281 147.91 111.292C151.749 113.506 153.843 116.303 154.192 119.1C154.774 115.487 152.68 111.758 147.91 108.961C139.301 103.95 125.456 103.95 116.847 108.961C112.077 111.758 109.983 115.487 110.565 119.1C111.03 116.186 113.124 113.389 116.847 111.292Z" fill="#267FE5"/>
<path d="M150.353 102.668C149.655 102.435 148.724 102.552 148.375 102.901C147.91 103.251 148.142 103.833 148.841 104.067C149.539 104.3 150.469 104.183 150.818 103.833C151.284 103.367 151.051 102.901 150.353 102.668Z" fill="#6EE8FC"/>
<path opacity="0.8" d="M155.123 104.999C154.541 104.649 153.61 104.649 153.029 104.999C152.447 105.349 152.563 105.815 153.145 106.164C153.727 106.514 154.657 106.514 155.239 106.164C155.821 105.815 155.821 105.349 155.123 104.999Z" fill="#6EE8FC"/>
<path opacity="0.6" d="M159.195 107.796C158.729 107.446 157.799 107.33 157.217 107.563C156.635 107.796 156.403 108.378 156.868 108.728C157.333 109.078 158.264 109.194 158.846 108.961C159.427 108.728 159.66 108.262 159.195 107.796Z" fill="#6EE8FC"/>
<path opacity="0.4" d="M162.103 111.059C161.754 110.593 160.94 110.476 160.242 110.593C159.544 110.826 159.195 111.292 159.544 111.758C159.893 112.224 160.707 112.341 161.405 112.224C162.103 111.991 162.452 111.525 162.103 111.059Z" fill="#6EE8FC"/>
<path opacity="0.2" d="M163.848 114.555C163.616 114.089 162.918 113.856 162.103 113.972C161.289 114.089 160.824 114.555 161.056 115.021C161.289 115.487 161.987 115.72 162.801 115.604C163.616 115.487 164.081 115.021 163.848 114.555Z" fill="#6EE8FC"/>
<path opacity="0.1" d="M164.314 118.634C164.663 118.168 164.314 117.701 163.616 117.468C162.918 117.235 161.987 117.468 161.638 117.818C161.289 118.284 161.638 118.75 162.336 118.983C163.15 119.216 163.965 119.1 164.314 118.634Z" fill="#6EE8FC"/>
<path d="M166.873 104.998V93.811H160.824C159.66 92.8787 158.38 91.9464 156.868 91.0141C143.489 83.2062 121.733 83.2062 108.238 91.0141C106.725 91.8299 105.446 92.8787 104.282 93.811H98.2327V105.115C98.2327 110.243 101.607 115.254 108.238 119.216C121.617 127.024 143.373 127.024 156.868 119.216C163.616 115.137 166.873 110.126 166.873 104.998Z" fill="url(#paint7_linear)"/>
<path d="M98.5817 104.765V93.811H98.2327V105.115C98.2327 109.66 100.908 114.205 106.26 117.934C101.141 113.972 98.5817 109.31 98.5817 104.765Z" fill="#D4088C"/>
<path d="M166.408 93.811V104.649C166.408 109.776 163.034 114.788 156.403 118.75C143.024 126.558 121.268 126.558 107.773 118.75C107.075 118.4 106.493 117.934 105.911 117.468C106.726 118.051 107.54 118.517 108.354 119.099C121.733 126.907 143.489 126.907 156.984 119.099C163.732 115.254 167.106 110.126 166.99 104.998V93.811H166.408V93.811Z" fill="#6EE8FC"/>
<path d="M132.553 113.622C151.507 113.622 166.873 104.752 166.873 93.8111C166.873 82.8697 151.507 74 132.553 74C113.598 74 98.2324 82.8697 98.2324 93.8111C98.2324 104.752 113.598 113.622 132.553 113.622Z" fill="url(#paint8_linear)"/>
<path d="M109.169 79.9432C116.033 75.981 124.874 73.9999 133.833 73.9999C124.642 73.7668 115.335 75.7479 108.238 79.8267C97.7672 85.8865 95.4404 94.9763 101.374 102.202C96.2548 94.6267 98.8143 85.8865 109.169 79.9432Z" fill="#D4088C"/>
<path d="M156.868 79.7099C153.261 77.6123 149.189 76.0973 144.768 75.165C148.724 76.0973 152.447 77.4958 155.704 79.3603C169.083 87.1682 169.083 99.6376 155.704 107.446C145.816 113.156 131.506 114.671 119.29 111.99C131.738 115.02 146.746 113.622 156.868 107.795C170.247 100.104 170.247 87.5179 156.868 79.7099Z" fill="#6EE8FC"/>
<path d="M147.91 102.784C139.301 107.795 125.456 107.795 116.847 102.784C108.238 97.7729 108.238 89.7319 116.847 84.8374C125.456 79.8263 139.301 79.8263 147.91 84.8374C156.519 89.7319 156.519 97.7729 147.91 102.784Z" fill="#6DE0F6"/>
<path d="M116.847 91.5965C125.456 86.5854 139.301 86.5854 147.91 91.5965C150.702 93.228 152.563 95.0926 153.494 97.1902C155.588 92.8784 153.727 88.2169 147.91 84.8374C139.301 79.8263 125.456 79.8263 116.847 84.8374C111.03 88.2169 109.169 92.9949 111.263 97.1902C112.193 95.0926 114.055 93.228 116.847 91.5965Z" fill="#18D0F7"/>
<path d="M116.846 89.1495C125.456 84.1385 139.3 84.1385 147.909 89.1495C151.167 91.0141 153.261 93.4614 153.959 95.9086C155.122 91.9464 153.145 87.7511 147.909 84.7212C139.3 79.7101 125.456 79.7101 116.846 84.7212C111.611 87.7511 109.517 91.9464 110.797 95.9086C111.495 93.4614 113.589 91.1307 116.846 89.1495Z" fill="#25BFEC"/>
<path d="M116.847 87.0519C125.456 82.0408 139.301 82.0408 147.91 87.0519C151.749 89.2661 153.843 92.0629 154.192 94.8598C154.774 91.2472 152.68 87.518 147.91 84.7212C139.301 79.7101 125.456 79.7101 116.847 84.7212C112.077 87.518 109.983 91.2472 110.565 94.8598C111.03 92.0629 113.124 89.2661 116.847 87.0519Z" fill="#267FE5"/>
<path d="M150.353 78.4284C149.655 78.1953 148.724 78.3118 148.375 78.6615C147.91 79.0111 148.142 79.5937 148.841 79.8268C149.539 80.0599 150.469 79.9434 150.818 79.5938C151.284 79.2441 151.051 78.6615 150.353 78.4284Z" fill="#6EE8FC"/>
<path opacity="0.8" d="M155.123 80.7593C154.541 80.4097 153.61 80.4097 153.029 80.7593C152.447 81.1089 152.563 81.575 153.145 81.9246C153.727 82.2742 154.657 82.2742 155.239 81.9246C155.821 81.575 155.821 81.1089 155.123 80.7593Z" fill="#6EE8FC"/>
<path opacity="0.6" d="M159.195 83.6727C158.73 83.3231 157.799 83.2065 157.217 83.4396C156.519 83.6727 156.403 84.2554 156.868 84.605C157.333 84.9546 158.264 85.0711 158.846 84.838C159.428 84.605 159.66 84.0223 159.195 83.6727Z" fill="#6EE8FC"/>
<path opacity="0.4" d="M162.103 86.8192C161.754 86.3531 160.94 86.2365 160.242 86.3531C159.544 86.5861 159.195 87.0523 159.544 87.5184C159.893 87.9846 160.707 88.1011 161.405 87.9846C162.103 87.7515 162.452 87.2854 162.103 86.8192Z" fill="#6EE8FC"/>
<path opacity="0.2" d="M163.848 90.4317C163.616 89.9656 162.918 89.7325 162.103 89.849C161.289 89.9656 160.824 90.4317 161.056 90.8979C161.289 91.364 161.987 91.5971 162.801 91.4805C163.616 91.2475 164.081 90.7813 163.848 90.4317Z" fill="#6EE8FC"/>
<path opacity="0.1" d="M164.314 94.3939C164.663 93.9278 164.314 93.4617 163.616 93.2286C162.918 92.9955 161.987 93.2286 161.638 93.5782C161.289 94.0443 161.638 94.5105 162.336 94.7435C163.15 94.9766 163.965 94.8601 164.314 94.3939Z" fill="#6EE8FC"/>
<path opacity="0.5" d="M166.873 79.477L156.286 79.3605C143.373 72.2518 123.129 72.0187 109.867 78.7778L98.2327 78.6613V93.2283C98 98.4724 101.374 103.833 108.238 107.795C121.617 115.603 143.373 115.603 156.868 107.795C163.848 103.833 167.106 98.4724 166.873 93.2283V79.477Z" fill="#6EE8FC"/>
<path d="M166.873 80.7592V69.5717H160.824C159.66 68.6395 158.38 67.7072 156.868 66.7749C143.489 58.967 121.733 58.967 108.238 66.7749C106.725 67.5906 105.446 68.6395 104.282 69.5717H98.2327V80.8757C98.2327 86.0033 101.607 91.0144 108.238 94.9766C121.617 102.784 143.373 102.784 156.868 94.9766C163.616 91.0144 166.873 85.8868 166.873 80.7592Z" fill="url(#paint9_linear)"/>
<path d="M98.5817 80.5262V69.5718H98.2327V80.8758C98.2327 85.4207 100.908 89.9656 106.26 93.6947C101.141 89.7325 98.5817 85.1876 98.5817 80.5262Z" fill="#D4088C"/>
<path d="M166.408 69.5718V80.4096C166.408 85.5372 163.034 90.5483 156.403 94.5105C143.024 102.318 121.268 102.318 107.773 94.5105C107.075 94.1609 106.493 93.6947 105.911 93.2286C106.726 93.8113 107.54 94.2774 108.354 94.8601C121.733 102.668 143.489 102.668 156.984 94.8601C163.732 91.0144 167.106 85.8868 166.99 80.7592V69.5718H166.408V69.5718Z" fill="#6EE8FC"/>
<path d="M156.868 83.6725C143.489 91.4805 121.733 91.4805 108.238 83.6725C94.7422 75.8646 94.8586 63.3953 108.238 55.5874C121.617 47.7795 143.372 47.7795 156.868 55.5874C170.363 63.3953 170.247 75.8646 156.868 83.6725Z" fill="url(#paint10_linear)"/>
<path d="M109.168 55.703C116.032 51.7407 124.874 49.7596 133.832 49.7596C124.641 49.5266 115.334 51.5077 108.238 55.5864C97.767 61.6463 95.4402 70.7361 101.374 77.9613C96.2546 70.503 98.814 61.7628 109.168 55.703Z" fill="#D4088C"/>
<path d="M156.868 55.4707C153.262 53.373 149.19 51.8581 144.769 50.9258C148.724 51.8581 152.447 53.2565 155.705 55.1211C169.084 62.929 169.084 75.3983 155.705 83.2063C145.816 88.9165 131.506 90.4315 119.29 87.7512C131.739 90.7811 146.746 89.3827 156.868 83.5559C170.247 75.8645 170.247 63.2786 156.868 55.4707Z" fill="#6EE8FC"/>
<path d="M132.437 82.2735C144.58 82.2735 154.425 76.5864 154.425 69.5711C154.425 62.5557 144.58 56.8687 132.437 56.8687C120.293 56.8687 110.448 62.5557 110.448 69.5711C110.448 76.5864 120.293 82.2735 132.437 82.2735Z" fill="#6DE0F6"/>
<path d="M116.847 67.3572C125.456 62.3462 139.301 62.3462 147.91 67.3572C150.702 68.9887 152.564 70.8533 153.494 72.9509C155.588 68.6391 153.727 63.9777 147.91 60.5981C139.301 55.5871 125.456 55.5871 116.847 60.5981C111.03 63.9777 109.169 68.7556 111.263 72.9509C112.194 70.9698 114.055 68.9887 116.847 67.3572Z" fill="#18D0F7"/>
<path d="M116.847 65.0265C125.456 60.0154 139.301 60.0154 147.91 65.0265C151.167 66.8911 153.262 69.3383 153.96 71.7856C155.123 67.8234 153.145 63.6281 147.91 60.5981C139.301 55.5871 125.456 55.5871 116.847 60.5981C111.612 63.6281 109.518 67.8234 110.798 71.7856C111.496 69.3383 113.59 66.8911 116.847 65.0265Z" fill="#25BFEC"/>
<path d="M116.847 62.8126C125.456 57.8016 139.301 57.8016 147.91 62.8126C151.749 65.0268 153.843 67.8237 154.192 70.6205C154.774 67.0079 152.68 63.2788 147.91 60.4819C139.301 55.4709 125.456 55.4709 116.847 60.4819C112.077 63.2788 109.983 67.0079 110.565 70.6205C111.03 67.8237 113.124 65.0268 116.847 62.8126Z" fill="#267FE5"/>
<path d="M150.353 54.1891C149.655 53.9561 148.724 54.0726 148.375 54.4222C147.91 54.7718 148.142 55.3545 148.841 55.5876C149.539 55.8206 150.469 55.7041 150.818 55.3545C151.284 55.0049 151.051 54.4222 150.353 54.1891Z" fill="#6EE8FC"/>
<path opacity="0.8" d="M155.123 56.6362C154.541 56.2866 153.61 56.2866 153.029 56.6362C152.447 56.9858 152.563 57.452 153.145 57.8016C153.727 58.1512 154.657 58.1512 155.239 57.8016C155.821 57.452 155.821 56.8693 155.123 56.6362Z" fill="#6EE8FC"/>
<path opacity="0.6" d="M159.195 59.4334C158.73 59.0838 157.799 58.9673 157.217 59.2004C156.519 59.4334 156.403 60.0161 156.868 60.3657C157.333 60.7153 158.264 60.8319 158.846 60.5988C159.428 60.3657 159.66 59.783 159.195 59.4334Z" fill="#6EE8FC"/>
<path opacity="0.4" d="M162.103 62.6962C161.754 62.23 160.94 62.1135 160.242 62.23C159.544 62.4631 159.195 62.9292 159.544 63.3954C159.893 63.8615 160.707 63.9781 161.405 63.8615C162.103 63.6285 162.452 63.0458 162.103 62.6962Z" fill="#6EE8FC"/>
<path opacity="0.2" d="M163.848 66.1925C163.616 65.7263 162.918 65.4932 162.103 65.6098C161.289 65.7263 160.824 66.1925 161.056 66.6586C161.289 67.1247 161.987 67.3578 162.801 67.2413C163.616 67.1247 164.081 66.6586 163.848 66.1925Z" fill="#6EE8FC"/>
<path opacity="0.1" d="M164.314 70.2709C164.663 69.8048 164.314 69.3386 163.616 69.1055C162.918 68.8725 161.987 69.1055 161.638 69.4551C161.289 69.9213 161.638 70.3874 162.336 70.6205C163.15 70.8536 163.965 70.6205 164.314 70.2709Z" fill="#6EE8FC"/>
<path d="M133.018 97.0744C134.239 97.0744 135.229 96.083 135.229 94.8602C135.229 93.6373 134.239 92.646 133.018 92.646C131.798 92.646 130.808 93.6373 130.808 94.8602C130.808 96.083 131.798 97.0744 133.018 97.0744Z" fill="#6DE0F6"/>
<path d="M133.018 96.2588C131.971 96.2588 131.041 95.5596 130.924 94.5107C130.924 94.6273 130.924 94.7438 130.924 94.8604C130.924 96.0257 131.855 97.0745 133.135 97.0745C134.298 97.0745 135.345 96.1422 135.345 94.8604C135.345 94.7438 135.345 94.6273 135.345 94.5107C134.996 95.443 134.065 96.2588 133.018 96.2588Z" fill="#267FE5"/>
<path d="M133.018 121.314C134.239 121.314 135.229 120.322 135.229 119.099C135.229 117.877 134.239 116.885 133.018 116.885C131.798 116.885 130.808 117.877 130.808 119.099C130.808 120.322 131.798 121.314 133.018 121.314Z" fill="#6DE0F6"/>
<path d="M133.018 120.498C131.971 120.498 131.041 119.799 130.924 118.75C130.924 118.867 130.924 118.983 130.924 119.1C130.924 120.265 131.855 121.314 133.135 121.314C134.298 121.314 135.345 120.381 135.345 119.1C135.345 118.983 135.345 118.867 135.345 118.75C134.996 119.682 134.065 120.498 133.018 120.498Z" fill="#267FE5"/>
<path d="M133.018 145.553C134.239 145.553 135.229 144.562 135.229 143.339C135.229 142.116 134.239 141.125 133.018 141.125C131.798 141.125 130.808 142.116 130.808 143.339C130.808 144.562 131.798 145.553 133.018 145.553Z" fill="#6DE0F6"/>
<path d="M133.018 144.621C131.971 144.621 131.041 143.922 130.924 142.873C130.924 142.99 130.924 143.106 130.924 143.223C130.924 144.388 131.855 145.437 133.135 145.437C134.298 145.437 135.345 144.505 135.345 143.223C135.345 143.106 135.345 142.99 135.345 142.873C134.996 143.922 134.065 144.621 133.018 144.621Z" fill="#267FE5"/>
<path d="M133.018 169.676C134.239 169.676 135.229 168.685 135.229 167.462C135.229 166.239 134.239 165.248 133.018 165.248C131.798 165.248 130.808 166.239 130.808 167.462C130.808 168.685 131.798 169.676 133.018 169.676Z" fill="#6DE0F6"/>
<path d="M133.018 168.86C131.971 168.86 131.041 168.161 130.924 167.112C130.924 167.229 130.924 167.345 130.924 167.462C130.924 168.627 131.855 169.676 133.135 169.676C134.298 169.676 135.345 168.744 135.345 167.462C135.345 167.345 135.345 167.229 135.345 167.112C134.996 168.045 134.065 168.86 133.018 168.86Z" fill="#267FE5"/>
<path d="M133.018 193.916C134.239 193.916 135.229 192.924 135.229 191.701C135.229 190.479 134.239 189.487 133.018 189.487C131.798 189.487 130.808 190.479 130.808 191.701C130.808 192.924 131.798 193.916 133.018 193.916Z" fill="#6DE0F6"/>
<path d="M133.018 193.1C131.971 193.1 131.041 192.401 130.924 191.352C130.924 191.469 130.924 191.585 130.924 191.702C130.924 192.867 131.855 193.916 133.135 193.916C134.298 193.916 135.345 192.984 135.345 191.702C135.345 191.585 135.345 191.469 135.345 191.352C134.996 192.284 134.065 193.1 133.018 193.1Z" fill="#267FE5"/>
<path opacity="0.3" d="M317.417 312.899C315.439 312.899 313.578 312.433 311.949 311.617L257.269 279.919C256.571 279.453 256.222 278.521 256.687 277.822C257.153 277.123 258.084 276.773 258.782 277.239L313.461 308.937C315.555 310.102 319.046 310.102 321.14 308.937L494.137 209.648C494.835 209.182 495.301 208.716 495.301 208.366C495.301 207.9 494.835 207.434 494.137 207.085L439.457 175.387C438.759 174.921 438.41 173.988 438.876 173.289C439.341 172.59 440.272 172.24 440.97 172.706L495.65 204.404C497.395 205.453 498.325 206.851 498.325 208.483C498.325 209.998 497.395 211.513 495.65 212.562L322.769 311.85C321.256 312.55 319.278 312.899 317.417 312.899Z" fill="#6EE8FC"/>
<path d="M317.417 311.734C315.672 311.734 313.927 311.384 312.647 310.568L257.967 278.871L258.316 278.288L312.996 309.986C315.439 311.384 319.511 311.384 321.954 309.986L494.835 210.697C495.999 209.998 496.58 209.182 496.58 208.25C496.58 207.317 495.999 206.502 494.835 205.802L440.156 174.105L440.505 173.522L495.184 205.22C496.464 206.036 497.278 207.084 497.278 208.133C497.278 209.299 496.58 210.347 495.184 211.047L322.303 310.335C320.791 311.268 319.162 311.734 317.417 311.734Z" fill="#6EE8FC"/>
<path d="M447.485 178.184C447.136 178.883 446.205 179.116 445.623 178.65C444.925 178.3 444.693 177.368 445.158 176.785C445.507 176.086 446.438 175.853 447.02 176.319C447.718 176.669 447.95 177.485 447.485 178.184Z" fill="white"/>
<path d="M454.814 182.379C454.465 183.078 453.535 183.311 452.953 182.845C452.255 182.496 452.022 181.563 452.487 180.981C452.836 180.281 453.767 180.048 454.349 180.514C454.931 180.864 455.163 181.68 454.814 182.379Z" fill="white"/>
<path d="M462.027 186.574C461.678 187.274 460.748 187.507 460.166 187.041C459.468 186.691 459.235 185.759 459.701 185.176C460.05 184.477 460.98 184.244 461.562 184.71C462.26 185.059 462.493 185.875 462.027 186.574Z" fill="white"/>
<path d="M469.357 190.77C469.008 191.469 468.077 191.702 467.495 191.236C466.797 190.886 466.565 189.954 467.03 189.371C467.379 188.672 468.31 188.439 468.891 188.905C469.473 189.255 469.706 190.187 469.357 190.77Z" fill="white"/>
<path d="M476.686 195.082C476.337 195.781 475.407 196.014 474.825 195.548C474.127 195.198 473.894 194.266 474.36 193.683C474.709 192.984 475.639 192.751 476.221 193.217C476.803 193.45 477.035 194.382 476.686 195.082Z" fill="white"/>
<path d="M483.899 199.277C483.55 199.976 482.619 200.209 482.038 199.743C481.34 199.394 481.107 198.461 481.572 197.879C481.921 197.179 482.852 196.946 483.434 197.412C484.132 197.762 484.365 198.578 483.899 199.277Z" fill="white"/>
<path d="M491.229 203.472C490.88 204.171 489.949 204.404 489.367 203.938C488.669 203.588 488.436 202.656 488.902 202.073C489.251 201.374 490.182 201.141 490.763 201.607C491.345 201.957 491.578 202.773 491.229 203.472Z" fill="white"/>
<path d="M496.697 208.949C496.348 208.833 495.999 208.6 495.766 208.366C495.533 208.133 495.417 208.133 495.301 207.9C495.184 207.667 495.417 206.851 495.882 206.269C496.115 206.036 496.58 205.803 496.929 205.919C497.278 206.036 497.744 206.385 497.976 206.968C498.209 207.551 497.976 208.133 497.744 208.483C497.511 209.066 497.046 209.066 496.697 208.949Z" fill="white"/>
<path d="M489.949 213.844C489.6 213.145 489.833 212.329 490.414 211.979C491.112 211.63 491.927 211.863 492.276 212.445C492.625 213.145 492.392 213.96 491.81 214.31C491.229 214.66 490.414 214.426 489.949 213.844Z" fill="white"/>
<path d="M482.736 218.039C482.387 217.34 482.619 216.524 483.201 216.175C483.899 215.825 484.714 216.058 485.063 216.641C485.412 217.34 485.179 218.156 484.597 218.505C483.899 218.855 483.085 218.622 482.736 218.039Z" fill="white"/>
<path d="M475.406 222.234C475.057 221.535 475.29 220.719 475.872 220.37C476.57 220.02 477.384 220.253 477.733 220.836C478.082 221.535 477.85 222.351 477.268 222.701C476.686 223.05 475.755 222.817 475.406 222.234Z" fill="white"/>
<path d="M468.077 226.313C467.728 225.614 467.961 224.798 468.542 224.448C469.24 224.099 470.055 224.332 470.404 224.915C470.753 225.614 470.52 226.43 469.939 226.779C469.357 227.245 468.426 227.012 468.077 226.313Z" fill="white"/>
<path d="M460.748 230.508C460.399 229.809 460.631 228.993 461.213 228.644C461.911 228.294 462.725 228.527 463.075 229.11C463.424 229.809 463.191 230.625 462.609 230.974C462.027 231.441 461.213 231.208 460.748 230.508Z" fill="white"/>
<path d="M453.535 234.704C453.186 234.004 453.418 233.189 454 232.839C454.698 232.489 455.512 232.723 455.861 233.305C456.21 234.004 455.978 234.82 455.396 235.17C454.698 235.636 453.884 235.403 453.535 234.704Z" fill="white"/>
<path d="M446.205 238.899C445.856 238.2 446.089 237.384 446.671 237.034C447.369 236.685 448.183 236.918 448.532 237.501C448.881 238.2 448.648 239.015 448.067 239.365C447.485 239.831 446.554 239.598 446.205 238.899Z" fill="white"/>
<path d="M438.876 243.094C438.527 242.395 438.76 241.579 439.341 241.23C440.039 240.88 440.854 241.113 441.203 241.696C441.552 242.395 441.319 243.211 440.737 243.56C440.156 244.027 439.225 243.794 438.876 243.094Z" fill="white"/>
<path d="M431.546 247.29C431.197 246.59 431.43 245.775 432.012 245.425C432.71 245.075 433.524 245.308 433.873 245.891C434.222 246.59 433.989 247.406 433.408 247.756C432.826 248.222 432.012 247.989 431.546 247.29Z" fill="white"/>
<path d="M424.333 251.485C423.984 250.786 424.217 249.97 424.799 249.62C425.497 249.271 426.311 249.504 426.66 250.086C427.009 250.786 426.776 251.601 426.195 251.951C425.497 252.417 424.682 252.184 424.333 251.485Z" fill="white"/>
<path d="M417.004 255.68C416.655 254.981 416.887 254.165 417.469 253.816C418.167 253.466 418.982 253.699 419.331 254.282C419.68 254.981 419.447 255.797 418.865 256.146C418.284 256.612 417.353 256.379 417.004 255.68Z" fill="white"/>
<path d="M409.674 259.876C409.325 259.176 409.558 258.361 410.14 258.011C410.838 257.661 411.652 257.894 412.001 258.477C412.35 259.176 412.118 259.992 411.536 260.342C410.954 260.808 410.14 260.575 409.674 259.876Z" fill="white"/>
<path d="M402.345 264.071C401.996 263.372 402.229 262.556 402.81 262.206C403.509 261.857 404.323 262.09 404.672 262.672C405.021 263.372 404.788 264.187 404.207 264.537C403.625 265.003 402.811 264.77 402.345 264.071Z" fill="white"/>
<path d="M395.132 268.266C394.783 267.567 395.016 266.751 395.597 266.402C396.295 266.052 397.11 266.285 397.459 266.868C397.808 267.567 397.575 268.383 396.993 268.732C396.295 269.198 395.481 268.965 395.132 268.266Z" fill="white"/>
<path d="M387.803 272.461C387.454 271.762 387.686 270.946 388.268 270.597C388.966 270.247 389.78 270.48 390.129 271.063C390.478 271.762 390.246 272.578 389.664 272.928C389.082 273.394 388.152 273.161 387.803 272.461Z" fill="white"/>
<path d="M380.473 276.657C380.124 275.958 380.357 275.142 380.938 274.792C381.636 274.443 382.451 274.676 382.8 275.258C383.149 275.958 382.916 276.773 382.334 277.123C381.753 277.589 380.938 277.356 380.473 276.657Z" fill="white"/>
<path d="M373.26 280.852C372.911 280.153 373.144 279.337 373.726 278.988C374.424 278.638 375.238 278.871 375.587 279.454C375.936 280.153 375.703 280.969 375.122 281.318C374.424 281.784 373.609 281.551 373.26 280.852Z" fill="white"/>
<path d="M365.931 285.047C365.582 284.348 365.814 283.532 366.396 283.183C367.094 282.833 367.908 283.066 368.257 283.649C368.606 284.348 368.374 285.164 367.792 285.514C367.094 285.98 366.28 285.747 365.931 285.047Z" fill="white"/>
<path d="M358.601 289.243C358.252 288.543 358.485 287.728 359.067 287.378C359.765 287.029 360.579 287.262 360.928 287.844C361.277 288.543 361.044 289.359 360.463 289.709C359.881 290.175 358.95 289.942 358.601 289.243Z" fill="white"/>
<path d="M351.272 293.438C350.923 292.739 351.156 291.923 351.737 291.573C352.435 291.224 353.25 291.457 353.599 292.04C353.948 292.739 353.715 293.555 353.133 293.904C352.552 294.37 351.737 294.137 351.272 293.438Z" fill="white"/>
<path d="M344.059 297.633C343.71 296.934 343.942 296.118 344.524 295.769C345.222 295.419 346.037 295.652 346.386 296.235C346.735 296.934 346.502 297.75 345.92 298.099C345.222 298.566 344.408 298.333 344.059 297.633Z" fill="white"/>
<path d="M336.729 301.829C336.38 301.129 336.613 300.314 337.195 299.964C337.893 299.614 338.707 299.848 339.056 300.43C339.405 301.129 339.172 301.945 338.591 302.295C338.009 302.761 337.078 302.528 336.729 301.829Z" fill="white"/>
<path d="M329.4 306.024C329.051 305.325 329.283 304.509 329.865 304.159C330.563 303.81 331.378 304.043 331.727 304.626C332.076 305.325 331.843 306.14 331.261 306.49C330.68 306.956 329.749 306.723 329.4 306.024Z" fill="white"/>
<path d="M322.07 310.219C321.721 309.52 321.954 308.704 322.536 308.355C323.234 308.005 324.048 308.238 324.397 308.821C324.746 309.52 324.514 310.336 323.932 310.685C323.35 311.152 322.536 310.918 322.07 310.219Z" fill="white"/>
<path d="M313.927 310.802C314.159 310.102 314.857 309.636 315.555 309.753C316.137 309.869 316.719 310.568 316.719 311.268C316.719 312.083 315.905 312.666 315.09 312.433C314.159 312.433 313.694 311.501 313.927 310.802Z" fill="white"/>
<path d="M306.597 306.723C306.946 306.024 307.877 305.791 308.459 306.257C309.157 306.606 309.389 307.539 308.924 308.121C308.575 308.82 307.644 309.054 307.063 308.587C306.481 308.238 306.248 307.422 306.597 306.723Z" fill="white"/>
<path d="M299.384 302.527C299.733 301.828 300.664 301.595 301.246 302.061C301.944 302.411 302.176 303.343 301.711 303.926C301.362 304.625 300.431 304.858 299.85 304.392C299.152 304.042 298.919 303.227 299.384 302.527Z" fill="white"/>
<path d="M292.055 298.332C292.404 297.633 293.335 297.4 293.916 297.866C294.614 298.216 294.847 299.148 294.382 299.731C294.033 300.43 293.102 300.663 292.52 300.197C291.939 299.847 291.706 298.915 292.055 298.332Z" fill="white"/>
<path d="M284.726 294.021C285.075 293.321 286.005 293.088 286.587 293.555C287.285 293.904 287.518 294.836 287.052 295.419C286.703 296.118 285.773 296.351 285.191 295.885C284.609 295.536 284.376 294.72 284.726 294.021Z" fill="white"/>
<path d="M277.512 289.825C277.861 289.126 278.792 288.893 279.374 289.359C280.072 289.709 280.305 290.641 279.839 291.224C279.49 291.923 278.559 292.156 277.978 291.69C277.28 291.34 277.047 290.525 277.512 289.825Z" fill="white"/>
<path d="M270.183 285.63C270.532 284.931 271.463 284.698 272.044 285.164C272.743 285.514 272.975 286.446 272.51 287.028C272.161 287.728 271.23 287.961 270.648 287.495C270.067 287.145 269.834 286.329 270.183 285.63Z" fill="white"/>
<path d="M262.97 281.435C263.319 280.736 264.25 280.502 264.831 280.969C265.529 281.318 265.762 282.25 265.297 282.833C264.948 283.532 264.017 283.765 263.435 283.299C262.737 282.95 262.505 282.134 262.97 281.435Z" fill="white"/>
<path opacity="0.6" d="M224.927 325.835L99.1633 253C96.1385 251.252 96.4875 248.222 99.9777 246.241L355.809 98.24C359.299 96.2589 364.535 96.0258 367.559 97.7738L493.323 170.492C496.348 172.24 495.999 175.27 492.508 177.251L236.677 325.252C233.187 327.35 227.952 327.583 224.927 325.835Z" fill="#0C0F38"/>
<path d="M495.301 143.922L488.902 147.767L367.443 77.6127C364.418 75.8646 359.183 76.0977 355.693 78.0788L104.05 223.749L97.1855 220.719V230.158C97.1855 231.207 97.8836 232.139 99.1633 232.955L224.927 305.674C227.952 307.422 233.187 307.189 236.677 305.207L492.508 157.207C494.486 156.041 495.417 154.643 495.417 153.245V143.922H495.301Z" fill="url(#paint11_linear)"/>
<path d="M104.05 223.749L97.1855 220.719V230.159C97.1855 231.207 97.8836 232.14 99.1633 232.956L99.396 233.072C99.047 232.606 98.8143 232.023 98.8143 231.441V222.001L105.678 225.031L115.451 219.437C114.986 218.855 114.52 218.389 114.055 217.922L104.05 223.749Z" fill="#D4088C"/>
<path d="M488.902 147.884L429.336 113.39C428.754 113.739 428.172 114.205 427.474 114.555L487.273 149.166L493.672 145.321V154.527C493.672 155.343 493.323 156.275 492.508 157.091C494.37 155.925 495.301 154.527 495.184 153.245V144.039L488.902 147.884Z" fill="#6EE8FC"/>
<path d="M224.927 296.234L99.1633 223.516C96.1385 221.768 96.4875 218.738 99.9777 216.757L355.809 68.7561C359.299 66.775 364.535 66.5419 367.559 68.2899L493.323 141.008C496.348 142.756 495.999 145.786 492.508 147.767L236.677 295.768C233.187 297.749 227.952 297.982 224.927 296.234Z" fill="url(#paint12_linear)"/>
<path d="M226.672 296.234L100.908 223.515C97.8836 221.767 98.2326 218.738 101.723 216.756L357.554 68.7557C359.183 67.8234 361.277 67.2407 363.371 67.1242C360.812 67.0077 358.02 67.4738 355.809 68.7557L99.9777 216.756C96.4875 218.738 96.1385 221.767 99.1633 223.515L224.927 296.234C226.439 297.166 228.65 297.516 230.86 297.399C229.231 297.283 227.835 296.933 226.672 296.234Z" fill="#D4088C"/>
<path d="M493.323 141.125L367.443 68.29C365.931 67.3577 363.72 67.0081 361.51 67.1247C363.138 67.2412 364.535 67.5908 365.698 68.29L491.461 141.008C494.486 142.757 494.137 145.786 490.647 147.768L234.816 295.768C233.187 296.701 231.093 297.283 228.999 297.4C231.558 297.516 234.35 297.05 236.444 295.768L492.276 147.768C495.882 145.786 496.348 142.757 493.323 141.125Z" fill="#6EE8FC"/>
<path d="M239.237 291.806L106.842 215.242L351.621 73.6509L484.016 150.215L239.237 291.806Z" fill="url(#paint13_radial)"/>
<path d="M252.848 265.469L152.331 207.434L338.009 99.9878L438.643 158.139L252.848 265.469Z" fill="url(#paint14_linear)"/>
<path d="M430.15 113.156L415.84 104.882C415.259 104.533 415.375 104.067 415.957 103.717C416.538 103.367 417.469 103.367 418.051 103.6L432.361 111.874C432.942 112.224 432.826 112.69 432.244 113.04C431.546 113.389 430.616 113.389 430.15 113.156Z" fill="url(#paint15_radial)"/>
<path opacity="0.8" d="M218.063 124.111C218.063 124.111 224.229 56.1703 237.375 63.7451C250.522 71.32 244.123 110.826 257.851 118.634C271.23 126.441 264.017 6.05979 284.26 17.8299C298.803 26.2205 294.149 117.585 307.179 125.16C321.722 133.55 317.533 99.1721 330.563 100.687C338.009 101.619 341.848 123.878 352.435 129.005C362.906 134.016 357.903 37.1749 374.54 46.8474C391.409 56.6364 396.295 227.129 396.295 227.129L218.063 124.111Z" fill="#6EE1F8"/>
<path d="M237.957 63.1626C237.957 64.6776 236.677 65.9595 235.165 65.9595C233.652 65.9595 232.373 64.6776 232.373 63.1626C232.373 61.6476 233.652 60.3657 235.165 60.3657C236.677 60.3657 237.957 61.5311 237.957 63.1626Z" fill="white"/>
<path d="M284.26 17.1308C284.26 18.6458 282.98 19.9277 281.468 19.9277C279.956 19.9277 278.676 18.6458 278.676 17.1308C278.676 15.6159 279.956 14.334 281.468 14.334C282.98 14.334 284.26 15.4993 284.26 17.1308Z" fill="white"/>
<path d="M332.89 100.571C332.89 102.086 331.61 103.368 330.098 103.368C328.586 103.368 327.306 102.086 327.306 100.571C327.306 99.0558 328.586 97.7739 330.098 97.7739C331.61 97.7739 332.89 99.0558 332.89 100.571Z" fill="white"/>
<path d="M375.005 45.915C375.005 47.43 373.725 48.7119 372.213 48.7119C370.701 48.7119 369.421 47.43 369.421 45.915C369.421 44.4001 370.701 43.1182 372.213 43.1182C373.725 43.1182 375.005 44.4001 375.005 45.915Z" fill="white"/>
<path opacity="0.8" d="M177.227 144.272C177.227 144.272 181.765 76.7972 191.653 82.5075C201.426 88.2177 196.772 127.723 206.894 133.667C216.899 139.494 211.431 35.66 226.555 44.4002C237.375 50.6931 234.001 85.4209 243.657 91.0146C254.593 97.3075 252.616 80.0602 261.108 84.9547C269.485 89.8492 269.601 111.758 277.396 115.371C285.307 118.867 281.468 40.2049 293.916 47.4301C306.481 54.6554 310.087 221.302 310.087 221.302L177.227 144.272Z" fill="#D4088C"/>
<path d="M193.631 82.1577C193.631 83.6727 192.351 84.9546 190.839 84.9546C189.327 84.9546 188.047 83.6727 188.047 82.1577C188.047 80.6427 189.327 79.3608 190.839 79.3608C192.351 79.3608 193.631 80.6427 193.631 82.1577Z" fill="white"/>
<path d="M227.719 43.8174C227.719 45.3323 226.439 46.6142 224.927 46.6142C223.414 46.6142 222.135 45.3323 222.135 43.8174C222.135 42.3024 223.414 41.0205 224.927 41.0205C226.439 41.0205 227.719 42.3024 227.719 43.8174Z" fill="white"/>
<path d="M261.225 84.1391C261.225 85.6541 259.945 86.936 258.433 86.936C256.92 86.936 255.64 85.6541 255.64 84.1391C255.64 82.6242 256.92 81.3423 258.433 81.3423C259.945 81.3423 261.225 82.6242 261.225 84.1391Z" fill="white"/>
<path d="M294.963 47.0806C294.963 48.5955 293.684 49.8774 292.171 49.8774C290.659 49.8774 289.379 48.5955 289.379 47.0806C289.379 45.5656 290.659 44.2837 292.171 44.2837C293.8 44.2837 294.963 45.5656 294.963 47.0806Z" fill="white"/>
<path opacity="0.8" d="M231.209 226.43L211.082 214.776L218.179 210.697L238.189 222.351L231.209 226.43Z" fill="#6EE1F8"/>
<path opacity="0.8" d="M243.774 219.321L223.647 207.667L230.627 203.588L250.754 215.242L243.774 219.321Z" fill="#D4088C"/>
<path opacity="0.4" d="M190.723 152.778C190.374 152.778 190.141 152.545 190.141 152.196V82.2741C190.141 81.9245 190.374 81.6914 190.723 81.6914C191.072 81.6914 191.305 81.9245 191.305 82.2741V152.196C191.305 152.429 191.072 152.778 190.723 152.778Z" fill="white"/>
<path opacity="0.4" d="M224.927 172.473C224.578 172.473 224.345 172.24 224.345 171.891V43.8175C224.345 43.4679 224.578 43.2349 224.927 43.2349C225.276 43.2349 225.509 43.4679 225.509 43.8175V171.891C225.509 172.24 225.276 172.473 224.927 172.473Z" fill="white"/>
<path opacity="0.4" d="M258.433 191.935C258.084 191.935 257.851 191.702 257.851 191.352V84.1393C257.851 83.7897 258.084 83.5566 258.433 83.5566C258.782 83.5566 259.014 83.7897 259.014 84.1393V191.236C259.014 191.586 258.665 191.935 258.433 191.935Z" fill="white"/>
<path opacity="0.4" d="M292.171 211.28C291.822 211.28 291.59 211.047 291.59 210.697V47.3136C291.59 46.964 291.822 46.731 292.171 46.731C292.52 46.731 292.753 46.964 292.753 47.3136V210.697C292.753 211.047 292.52 211.28 292.171 211.28Z" fill="white"/>
<path d="M149.538 111.991C149.306 111.991 149.189 111.874 149.073 111.758C148.84 111.525 148.957 111.175 149.189 110.942L190.374 81.6916L224.461 43.3513C224.578 43.2347 224.694 43.1182 224.927 43.1182C225.043 43.1182 225.276 43.2347 225.392 43.3513L258.433 83.2066L291.822 46.6143L331.494 0.116423C331.727 -0.116649 332.076 -0.116649 332.308 -0.000112995C332.541 0.232959 332.541 0.582567 332.425 0.815639L292.753 47.3135L258.898 84.3719C258.782 84.4885 258.665 84.605 258.433 84.605C258.316 84.605 258.084 84.4885 257.967 84.3719L224.927 44.5166L191.304 82.3908L191.188 82.5074L149.887 111.874C149.771 111.991 149.655 111.991 149.538 111.991Z" fill="white"/>
<path opacity="0.6" d="M462.493 236.685L448.183 228.41C446.438 227.362 446.671 225.614 448.648 224.448L462.376 216.524C464.354 215.358 467.379 215.242 469.124 216.291L483.434 224.565C485.179 225.614 484.946 227.362 482.969 228.527L469.24 236.451C467.263 237.5 464.238 237.617 462.493 236.685Z" fill="#0C0F38"/>
<path d="M465.401 239.714C464.005 239.714 462.725 239.481 461.795 238.899L444.809 229.11C443.762 228.527 443.297 227.711 443.297 226.779C443.297 225.73 444.111 224.681 445.391 223.866L461.678 214.426C464.121 213.028 467.844 212.795 470.055 214.077L487.04 223.866C488.088 224.448 488.553 225.264 488.553 226.196C488.553 227.245 487.738 228.294 486.459 229.11L470.171 238.549C468.775 239.248 467.03 239.714 465.401 239.714ZM466.332 213.843C464.82 213.843 463.191 214.193 461.911 214.892L445.623 224.332C444.46 225.031 443.878 225.847 443.878 226.662C443.878 227.362 444.344 227.944 445.042 228.41L462.027 238.199C464.005 239.365 467.379 239.132 469.706 237.85L485.993 228.41C487.157 227.711 487.738 226.895 487.738 226.08C487.738 225.381 487.273 224.798 486.575 224.332L469.589 214.543C468.775 214.077 467.612 213.843 466.332 213.843Z" fill="url(#paint16_linear)"/>
<path d="M484.714 210.348H472.614L469.24 208.366C467.495 207.318 464.471 207.434 462.493 208.599L459.119 210.581H447.02V218.738C447.02 219.437 447.369 220.02 448.183 220.603L462.493 228.877C464.238 229.926 467.263 229.809 469.24 228.644L482.969 220.719C484.016 220.137 484.597 219.321 484.597 218.622V210.348H484.714Z" fill="url(#paint17_linear)"/>
<path d="M483.085 220.02L469.357 227.944C467.379 229.11 464.354 229.226 462.609 228.178L448.299 219.903C447.485 219.437 447.136 218.738 447.136 218.039V218.622C447.136 219.321 447.485 219.903 448.299 220.486L462.609 228.76C464.354 229.809 467.379 229.693 469.357 228.527L483.085 220.603C484.132 220.02 484.714 219.204 484.714 218.505V217.922C484.597 218.622 484.015 219.437 483.085 220.02Z" fill="url(#paint18_linear)"/>
<path d="M447.834 219.321V211.163H459.933L463.307 209.182C465.285 208.017 468.31 207.9 470.055 208.949L473.429 210.93H484.714V210.348H472.614L469.24 208.366C467.495 207.318 464.471 207.434 462.493 208.599L459.119 210.581H447.02V218.738C447.02 219.437 447.369 220.02 448.183 220.603L448.299 220.719C447.95 220.253 447.834 219.787 447.834 219.321Z" fill="#D4088C"/>
<path d="M462.493 220.719L448.183 212.445C446.438 211.396 446.671 209.648 448.648 208.483L462.376 200.558C464.354 199.393 467.379 199.277 469.124 200.325L483.434 208.599C485.179 209.648 484.946 211.396 482.969 212.562L469.24 220.486C467.263 221.535 464.238 221.651 462.493 220.719Z" fill="url(#paint19_linear)"/>
<path d="M483.55 208.599L469.24 200.325C468.31 199.859 467.146 199.626 465.867 199.626C466.797 199.626 467.612 199.859 468.31 200.325L482.62 208.599C484.365 209.648 484.132 211.396 482.154 212.561L468.426 220.486C467.495 221.069 466.216 221.302 465.052 221.418C466.565 221.535 468.077 221.185 469.357 220.486L483.085 212.561C485.063 211.28 485.295 209.532 483.55 208.599Z" fill="#6EE8FC"/>
<path d="M463.656 220.719L449.346 212.445C447.601 211.396 447.834 209.648 449.812 208.483L463.54 200.558C464.47 199.976 465.634 199.743 466.797 199.626C465.285 199.51 463.656 199.859 462.376 200.558L448.765 208.599C446.787 209.765 446.554 211.513 448.299 212.562L462.609 220.836C463.54 221.418 464.819 221.535 466.099 221.535C465.052 221.302 464.238 221.069 463.656 220.719Z" fill="#D4088C"/>
<path d="M472.847 214.542C469.008 216.757 462.725 216.757 458.886 214.542C455.047 212.328 455.047 208.716 458.886 206.501C462.725 204.287 469.008 204.287 472.847 206.501C476.686 208.716 476.686 212.328 472.847 214.542Z" fill="#6EE8FC"/>
<path d="M458.886 208.599C462.726 206.385 469.008 206.385 472.847 208.599C474.36 209.415 475.174 210.464 475.523 211.629C476.105 209.881 475.174 207.9 472.847 206.501C469.008 204.287 462.726 204.287 458.886 206.501C456.443 207.9 455.629 209.764 456.21 211.629C456.56 210.464 457.49 209.415 458.886 208.599Z" fill="#267FE5"/>
<path opacity="0.6" d="M407.231 269.431L392.921 261.157C391.176 260.108 391.409 258.36 393.387 257.195L407.115 249.27C409.093 248.105 412.118 247.988 413.863 249.037L428.172 257.311C429.918 258.36 429.685 260.108 427.707 261.274L413.979 269.198C412.001 270.363 408.976 270.48 407.231 269.431Z" fill="#0C0F38"/>
<path d="M410.024 272.461C408.627 272.461 407.348 272.228 406.417 271.645L389.431 261.856C388.384 261.274 387.919 260.458 387.919 259.526C387.919 258.477 388.733 257.428 390.013 256.612L406.301 247.173C408.744 245.774 412.467 245.541 414.677 246.823L431.663 256.612C432.71 257.195 433.175 258.011 433.175 258.943C433.175 259.992 432.361 261.04 431.081 261.856L414.793 271.296C413.397 272.111 411.769 272.461 410.024 272.461ZM411.071 246.707C409.558 246.707 407.929 247.056 406.65 247.755L390.362 257.195C389.199 257.894 388.617 258.71 388.617 259.526C388.617 260.225 389.082 260.807 389.78 261.274L406.766 271.063C408.744 272.228 412.118 271.995 414.444 270.713L430.732 261.274C431.895 260.574 432.477 259.759 432.477 258.943C432.477 258.244 432.012 257.661 431.314 257.195L414.328 247.406C413.514 246.94 412.35 246.707 411.071 246.707Z" fill="url(#paint20_linear)"/>
<path d="M429.336 243.21H417.353L413.979 241.229C412.234 240.18 409.209 240.297 407.231 241.462L403.857 243.443H391.758V251.601C391.758 252.3 392.107 252.883 392.921 253.465L407.231 261.74C408.976 262.788 412.001 262.672 413.979 261.506L427.707 253.582C428.754 252.999 429.336 252.184 429.336 251.484V243.21Z" fill="url(#paint21_linear)"/>
<path d="M427.707 252.883L413.979 260.807C412.001 261.973 408.976 262.089 407.231 261.04L392.921 252.883C392.107 252.417 391.758 251.718 391.758 251.018V251.601C391.758 252.3 392.107 252.883 392.921 253.466L407.231 261.74C408.976 262.789 412.001 262.672 413.979 261.507L427.707 253.582C428.754 253 429.336 252.184 429.336 251.485V250.902C429.336 251.485 428.754 252.184 427.707 252.883Z" fill="url(#paint22_linear)"/>
<path d="M392.572 252.184V244.026H404.672L408.046 242.045C410.023 240.88 413.048 240.763 414.793 241.812L418.167 243.793H429.452V243.21H417.353L413.979 241.229C412.234 240.18 409.209 240.297 407.231 241.462L403.857 243.443H391.758V251.601C391.758 252.3 392.107 252.883 392.921 253.465L393.038 253.582C392.689 253.116 392.456 252.65 392.572 252.184Z" fill="#D4088C"/>
<path d="M407.231 253.466L392.921 245.192C391.176 244.143 391.409 242.395 393.387 241.229L407.115 233.305C409.093 232.14 412.118 232.023 413.863 233.072L428.172 241.346C429.918 242.395 429.685 244.143 427.707 245.308L413.979 253.233C412.001 254.398 408.976 254.515 407.231 253.466Z" fill="url(#paint23_linear)"/>
<path d="M428.172 241.346L413.863 233.072C412.932 232.606 411.768 232.373 410.489 232.373C411.419 232.373 412.234 232.606 412.932 233.072L427.242 241.346C428.987 242.395 428.754 244.143 426.776 245.308L413.048 253.233C412.117 253.815 410.838 254.048 409.674 254.165C411.187 254.281 412.699 253.932 413.979 253.233L427.707 245.308C429.685 244.143 429.917 242.395 428.172 241.346Z" fill="#6EE8FC"/>
<path d="M408.278 253.466L393.969 245.192C392.224 244.143 392.456 242.395 394.434 241.229L408.162 233.305C409.093 232.722 410.256 232.489 411.42 232.373C409.907 232.256 408.278 232.606 406.999 233.305L393.271 241.229C391.293 242.395 391.06 244.143 392.805 245.192L407.115 253.466C408.046 254.048 409.326 254.165 410.605 254.165C409.791 254.048 408.977 253.932 408.278 253.466Z" fill="#D4088C"/>
<path d="M417.586 247.29C413.746 249.504 407.464 249.504 403.625 247.29C399.786 245.075 399.786 241.463 403.625 239.249C407.464 237.034 413.746 237.034 417.586 239.249C421.425 241.463 421.425 245.075 417.586 247.29Z" fill="#6EE8FC"/>
<path d="M403.625 241.346C407.464 239.132 413.746 239.132 417.586 241.346C419.098 242.162 419.912 243.211 420.261 244.376C420.843 242.628 419.912 240.647 417.586 239.249C413.746 237.034 407.464 237.034 403.625 239.249C401.182 240.647 400.367 242.512 400.949 244.376C401.298 243.327 402.112 242.278 403.625 241.346Z" fill="#267FE5"/>
<path opacity="0.6" d="M351.97 302.294L337.66 294.02C335.915 292.972 336.148 291.223 338.125 290.058L351.853 282.134C353.831 280.968 356.856 280.852 358.601 281.901L372.911 290.175C374.656 291.223 374.423 292.972 372.446 294.137L358.718 302.061C356.623 303.11 353.599 303.227 351.97 302.294Z" fill="#0C0F38"/>
<path d="M354.762 305.324C353.366 305.324 352.086 305.091 351.156 304.509L334.17 294.72C333.123 294.137 332.657 293.321 332.657 292.389C332.657 291.34 333.472 290.291 334.752 289.475L351.039 280.036C353.482 278.638 357.205 278.404 359.416 279.686L376.401 289.475C377.448 290.058 377.914 290.874 377.914 291.806C377.914 292.855 377.099 293.904 375.82 294.72L359.532 304.159C358.136 304.858 356.391 305.324 354.762 305.324ZM355.809 279.453C354.297 279.453 352.668 279.803 351.388 280.502L335.101 289.942C333.937 290.641 333.355 291.457 333.355 292.272C333.355 292.971 333.821 293.554 334.519 294.02L351.505 303.809C353.482 304.975 356.856 304.742 359.183 303.46L375.471 294.02C376.634 293.321 377.216 292.505 377.216 291.69C377.216 290.99 376.75 290.408 376.052 289.942L359.067 280.153C358.252 279.803 356.973 279.453 355.809 279.453Z" fill="url(#paint24_linear)"/>
<path d="M374.074 275.957H361.975L358.601 273.976C356.856 272.927 353.831 273.044 351.854 274.209L348.48 276.19H336.38V284.348C336.38 285.047 336.729 285.63 337.544 286.213L351.854 294.487C353.599 295.535 356.624 295.419 358.601 294.254L372.329 286.329C373.376 285.746 373.958 284.931 373.958 284.231V275.957H374.074Z" fill="url(#paint25_linear)"/>
<path d="M372.446 285.63L358.718 293.554C356.74 294.72 353.715 294.836 351.97 293.787L337.66 285.513C336.846 285.047 336.497 284.348 336.497 283.649V284.231C336.497 284.931 336.846 285.513 337.66 286.096L351.97 294.37C353.715 295.419 356.74 295.302 358.718 294.137L372.446 286.213C373.493 285.63 374.074 284.814 374.074 284.115V283.532C374.074 284.231 373.493 285.047 372.446 285.63Z" fill="url(#paint26_linear)"/>
<path d="M337.195 284.931V276.773H349.294L352.668 274.792C354.646 273.627 357.671 273.51 359.416 274.559L362.79 276.54H374.074V275.957H361.975L358.601 273.976C356.856 272.927 353.831 273.044 351.854 274.209L348.48 276.19H336.38V284.348C336.38 285.047 336.729 285.63 337.544 286.213L337.66 286.329C337.427 285.863 337.195 285.397 337.195 284.931Z" fill="#D4088C"/>
<path d="M351.97 286.329L337.66 278.055C335.915 277.006 336.148 275.258 338.125 274.093L351.853 266.168C353.831 265.003 356.856 264.886 358.601 265.935L372.911 274.209C374.656 275.258 374.423 277.006 372.446 278.172L358.718 286.096C356.623 287.145 353.599 287.378 351.97 286.329Z" fill="url(#paint27_linear)"/>
<path d="M372.911 274.209L358.601 265.935C357.671 265.469 356.507 265.236 355.227 265.236C356.158 265.236 356.973 265.469 357.671 265.935L371.98 274.209C373.726 275.258 373.493 277.006 371.515 278.171L357.787 286.096C356.856 286.678 355.576 286.912 354.413 287.028C355.926 287.145 357.438 286.795 358.718 286.096L372.446 278.171C374.424 276.889 374.656 275.141 372.911 274.209Z" fill="#6EE8FC"/>
<path d="M353.017 286.329L338.707 278.055C336.962 277.006 337.195 275.258 339.173 274.093L352.901 266.168C353.831 265.586 354.995 265.352 356.158 265.236C354.646 265.119 353.017 265.469 351.737 266.168L338.009 274.093C336.031 275.258 335.799 277.006 337.544 278.055L351.854 286.329C352.784 286.912 354.064 287.028 355.344 287.028C354.529 286.912 353.715 286.679 353.017 286.329Z" fill="#D4088C"/>
<path d="M362.208 280.153C358.369 282.367 352.086 282.367 348.247 280.153C344.408 277.939 344.408 274.326 348.247 272.112C352.086 269.898 358.369 269.898 362.208 272.112C366.163 274.326 366.163 277.939 362.208 280.153Z" fill="#6EE8FC"/>
<path d="M348.247 274.209C352.086 271.995 358.369 271.995 362.208 274.209C363.72 275.025 364.535 276.074 364.884 277.239C365.465 275.491 364.535 273.51 362.208 272.112C358.369 269.898 352.086 269.898 348.247 272.112C345.804 273.51 344.99 275.375 345.571 277.239C345.92 276.074 346.851 275.025 348.247 274.209Z" fill="#267FE5"/>
</g>
<defs>
<linearGradient id="paint0_linear" x1="98.0233" y1="186.23" x2="167.093" y2="186.23" gradientUnits="userSpaceOnUse">
<stop stop-color="#D4088C"/>
<stop offset="0.2258" stop-color="#D4088C"/>
<stop offset="0.5108" stop-color="#6EE1F8"/>
<stop offset="0.7796" stop-color="#6EE8FC"/>
<stop offset="1" stop-color="#6EE8FC"/>
</linearGradient>
<linearGradient id="paint1_linear" x1="98.2111" y1="177.628" x2="166.903" y2="177.628" gradientUnits="userSpaceOnUse">
<stop stop-color="#A31FA9"/>
<stop offset="0.0667915" stop-color="#8B17A0"/>
<stop offset="0.1494" stop-color="#740F98"/>
<stop offset="0.2393" stop-color="#640A92"/>
<stop offset="0.3408" stop-color="#5B078F"/>
<stop offset="0.4785" stop-color="#58068E"/>
<stop offset="0.6264" stop-color="#4D22A3"/>
<stop offset="0.9436" stop-color="#3168DA"/>
<stop offset="1" stop-color="#2C75E4"/>
</linearGradient>
<linearGradient id="paint2_linear" x1="108.271" y1="152.321" x2="132.62" y2="194.423" gradientUnits="userSpaceOnUse">
<stop stop-color="#8D139B"/>
<stop offset="0.1651" stop-color="#851BA1"/>
<stop offset="0.4284" stop-color="#6E33B2"/>
<stop offset="0.7551" stop-color="#4958CD"/>
<stop offset="1" stop-color="#2979E4"/>
</linearGradient>
<linearGradient id="paint3_linear" x1="98.2111" y1="153.43" x2="166.903" y2="153.43" gradientUnits="userSpaceOnUse">
<stop stop-color="#A31FA9"/>
<stop offset="0.0667915" stop-color="#8B17A0"/>
<stop offset="0.1494" stop-color="#740F98"/>
<stop offset="0.2393" stop-color="#640A92"/>
<stop offset="0.3408" stop-color="#5B078F"/>
<stop offset="0.4785" stop-color="#58068E"/>
<stop offset="0.6264" stop-color="#4D22A3"/>
<stop offset="0.9436" stop-color="#3168DA"/>
<stop offset="1" stop-color="#2C75E4"/>
</linearGradient>
<linearGradient id="paint4_linear" x1="108.271" y1="128.122" x2="132.62" y2="170.224" gradientUnits="userSpaceOnUse">
<stop stop-color="#8D139B"/>
<stop offset="0.1651" stop-color="#851BA1"/>
<stop offset="0.4284" stop-color="#6E33B2"/>
<stop offset="0.7551" stop-color="#4958CD"/>
<stop offset="1" stop-color="#2979E4"/>
</linearGradient>
<linearGradient id="paint5_linear" x1="98.2111" y1="129.23" x2="166.903" y2="129.23" gradientUnits="userSpaceOnUse">
<stop stop-color="#A31FA9"/>
<stop offset="0.0667915" stop-color="#8B17A0"/>
<stop offset="0.1494" stop-color="#740F98"/>
<stop offset="0.2393" stop-color="#640A92"/>
<stop offset="0.3408" stop-color="#5B078F"/>
<stop offset="0.4785" stop-color="#58068E"/>
<stop offset="0.6264" stop-color="#4D22A3"/>
<stop offset="0.9436" stop-color="#3168DA"/>
<stop offset="1" stop-color="#2C75E4"/>
</linearGradient>
<linearGradient id="paint6_linear" x1="108.271" y1="103.923" x2="132.62" y2="146.025" gradientUnits="userSpaceOnUse">
<stop stop-color="#8D139B"/>
<stop offset="0.1651" stop-color="#851BA1"/>
<stop offset="0.4284" stop-color="#6E33B2"/>
<stop offset="0.7551" stop-color="#4958CD"/>
<stop offset="1" stop-color="#2979E4"/>
</linearGradient>
<linearGradient id="paint7_linear" x1="98.2111" y1="105.031" x2="166.903" y2="105.031" gradientUnits="userSpaceOnUse">
<stop stop-color="#A31FA9"/>
<stop offset="0.0667915" stop-color="#8B17A0"/>
<stop offset="0.1494" stop-color="#740F98"/>
<stop offset="0.2393" stop-color="#640A92"/>
<stop offset="0.3408" stop-color="#5B078F"/>
<stop offset="0.4785" stop-color="#58068E"/>
<stop offset="0.6264" stop-color="#4D22A3"/>
<stop offset="0.9436" stop-color="#3168DA"/>
<stop offset="1" stop-color="#2C75E4"/>
</linearGradient>
<linearGradient id="paint8_linear" x1="108.271" y1="79.724" x2="132.62" y2="121.826" gradientUnits="userSpaceOnUse">
<stop stop-color="#8D139B"/>
<stop offset="0.1651" stop-color="#851BA1"/>
<stop offset="0.4284" stop-color="#6E33B2"/>
<stop offset="0.7551" stop-color="#4958CD"/>
<stop offset="1" stop-color="#2979E4"/>
</linearGradient>
<linearGradient id="paint9_linear" x1="98.2111" y1="80.8324" x2="166.903" y2="80.8324" gradientUnits="userSpaceOnUse">
<stop stop-color="#A31FA9"/>
<stop offset="0.0667915" stop-color="#8B17A0"/>
<stop offset="0.1494" stop-color="#740F98"/>
<stop offset="0.2393" stop-color="#640A92"/>
<stop offset="0.3408" stop-color="#5B078F"/>
<stop offset="0.4785" stop-color="#58068E"/>
<stop offset="0.6264" stop-color="#4D22A3"/>
<stop offset="0.9436" stop-color="#3168DA"/>
<stop offset="1" stop-color="#2C75E4"/>
</linearGradient>
<linearGradient id="paint10_linear" x1="108.271" y1="55.5251" x2="132.62" y2="97.627" gradientUnits="userSpaceOnUse">
<stop stop-color="#8D139B"/>
<stop offset="0.1651" stop-color="#851BA1"/>
<stop offset="0.4284" stop-color="#6E33B2"/>
<stop offset="0.7551" stop-color="#4958CD"/>
<stop offset="1" stop-color="#2979E4"/>
</linearGradient>
<linearGradient id="paint11_linear" x1="17.281" y1="191.586" x2="593.793" y2="191.586" gradientUnits="userSpaceOnUse">
<stop stop-color="#8D139B"/>
<stop offset="0.1651" stop-color="#851BA1"/>
<stop offset="0.4284" stop-color="#6E33B2"/>
<stop offset="0.7551" stop-color="#4958CD"/>
<stop offset="1" stop-color="#2979E4"/>
</linearGradient>
<linearGradient id="paint12_linear" x1="227.874" y1="142.764" x2="296.396" y2="261.236" gradientUnits="userSpaceOnUse">
<stop stop-color="#8D139B"/>
<stop offset="0.1651" stop-color="#851BA1"/>
<stop offset="0.4284" stop-color="#6E33B2"/>
<stop offset="0.7551" stop-color="#4958CD"/>
<stop offset="1" stop-color="#2979E4"/>
</linearGradient>
<radialGradient id="paint13_radial" cx="0" cy="0" r="1" gradientUnits="userSpaceOnUse" gradientTransform="translate(163.059 93.4174) rotate(30.0405) scale(305.026 336.801)">
<stop offset="0.0107527" stop-color="#2C35A2"/>
<stop offset="0.1635" stop-color="#252C88"/>
<stop offset="0.3975" stop-color="#1B2167"/>
<stop offset="0.621" stop-color="#15194F"/>
<stop offset="0.8273" stop-color="#101540"/>
<stop offset="1" stop-color="#0F133B"/>
</radialGradient>
<linearGradient id="paint14_linear" x1="152.292" y1="182.736" x2="438.593" y2="182.736" gradientUnits="userSpaceOnUse">
<stop stop-color="#A31FA9"/>
<stop offset="0.0667915" stop-color="#8B17A0"/>
<stop offset="0.1494" stop-color="#740F98"/>
<stop offset="0.2393" stop-color="#640A92"/>
<stop offset="0.3408" stop-color="#5B078F"/>
<stop offset="0.4785" stop-color="#58068E"/>
<stop offset="0.6264" stop-color="#4D22A3"/>
<stop offset="0.9436" stop-color="#3168DA"/>
<stop offset="1" stop-color="#2C75E4"/>
</linearGradient>
<radialGradient id="paint15_radial" cx="0" cy="0" r="1" gradientUnits="userSpaceOnUse" gradientTransform="translate(419.164 105.571) rotate(30.0425) scale(14.9318 12.9424)">
<stop offset="0.0107527" stop-color="#2C35A2"/>
<stop offset="0.1635" stop-color="#252C88"/>
<stop offset="0.3975" stop-color="#1B2167"/>
<stop offset="0.621" stop-color="#15194F"/>
<stop offset="0.8273" stop-color="#101540"/>
<stop offset="1" stop-color="#0F133B"/>
</radialGradient>
<linearGradient id="paint16_linear" x1="443.232" y1="226.442" x2="488.534" y2="226.442" gradientUnits="userSpaceOnUse">
<stop stop-color="#D4088C"/>
<stop offset="0.2258" stop-color="#D4088C"/>
<stop offset="0.5108" stop-color="#6EE1F8"/>
<stop offset="0.7796" stop-color="#6EE8FC"/>
<stop offset="1" stop-color="#6EE8FC"/>
</linearGradient>
<linearGradient id="paint17_linear" x1="443.524" y1="218.63" x2="489.344" y2="218.63" gradientUnits="userSpaceOnUse">
<stop stop-color="#A31FA9"/>
<stop offset="0.0667915" stop-color="#8B17A0"/>
<stop offset="0.1494" stop-color="#740F98"/>
<stop offset="0.2393" stop-color="#640A92"/>
<stop offset="0.3408" stop-color="#5B078F"/>
<stop offset="0.4785" stop-color="#58068E"/>
<stop offset="0.6264" stop-color="#4D22A3"/>
<stop offset="0.9436" stop-color="#3168DA"/>
<stop offset="1" stop-color="#2C75E4"/>
</linearGradient>
<linearGradient id="paint18_linear" x1="443.524" y1="223.717" x2="489.343" y2="223.717" gradientUnits="userSpaceOnUse">
<stop stop-color="#D4088C"/>
<stop offset="0.2258" stop-color="#D4088C"/>
<stop offset="0.5108" stop-color="#6EE1F8"/>
<stop offset="0.7796" stop-color="#6EE8FC"/>
<stop offset="1" stop-color="#6EE8FC"/>
</linearGradient>
<linearGradient id="paint19_linear" x1="446.8" y1="210.502" x2="482.03" y2="219.205" gradientUnits="userSpaceOnUse">
<stop stop-color="#8D139B"/>
<stop offset="0.1651" stop-color="#851BA1"/>
<stop offset="0.4284" stop-color="#6E33B2"/>
<stop offset="0.7551" stop-color="#4958CD"/>
<stop offset="1" stop-color="#2979E4"/>
</linearGradient>
<linearGradient id="paint20_linear" x1="387.93" y1="259.252" x2="433.232" y2="259.252" gradientUnits="userSpaceOnUse">
<stop stop-color="#D4088C"/>
<stop offset="0.2258" stop-color="#D4088C"/>
<stop offset="0.5108" stop-color="#6EE1F8"/>
<stop offset="0.7796" stop-color="#6EE8FC"/>
<stop offset="1" stop-color="#6EE8FC"/>
</linearGradient>
<linearGradient id="paint21_linear" x1="388.221" y1="251.439" x2="434.041" y2="251.439" gradientUnits="userSpaceOnUse">
<stop stop-color="#A31FA9"/>
<stop offset="0.0667915" stop-color="#8B17A0"/>
<stop offset="0.1494" stop-color="#740F98"/>
<stop offset="0.2393" stop-color="#640A92"/>
<stop offset="0.3408" stop-color="#5B078F"/>
<stop offset="0.4785" stop-color="#58068E"/>
<stop offset="0.6264" stop-color="#4D22A3"/>
<stop offset="0.9436" stop-color="#3168DA"/>
<stop offset="1" stop-color="#2C75E4"/>
</linearGradient>
<linearGradient id="paint22_linear" x1="388.221" y1="256.527" x2="434.041" y2="256.527" gradientUnits="userSpaceOnUse">
<stop stop-color="#D4088C"/>
<stop offset="0.2258" stop-color="#D4088C"/>
<stop offset="0.5108" stop-color="#6EE1F8"/>
<stop offset="0.7796" stop-color="#6EE8FC"/>
<stop offset="1" stop-color="#6EE8FC"/>
</linearGradient>
<linearGradient id="paint23_linear" x1="391.497" y1="243.312" x2="426.728" y2="252.015" gradientUnits="userSpaceOnUse">
<stop stop-color="#8D139B"/>
<stop offset="0.1651" stop-color="#851BA1"/>
<stop offset="0.4284" stop-color="#6E33B2"/>
<stop offset="0.7551" stop-color="#4958CD"/>
<stop offset="1" stop-color="#2979E4"/>
</linearGradient>
<linearGradient id="paint24_linear" x1="332.628" y1="292.062" x2="377.93" y2="292.062" gradientUnits="userSpaceOnUse">
<stop stop-color="#D4088C"/>
<stop offset="0.2258" stop-color="#D4088C"/>
<stop offset="0.5108" stop-color="#6EE1F8"/>
<stop offset="0.7796" stop-color="#6EE8FC"/>
<stop offset="1" stop-color="#6EE8FC"/>
</linearGradient>
<linearGradient id="paint25_linear" x1="332.919" y1="284.25" x2="378.739" y2="284.25" gradientUnits="userSpaceOnUse">
<stop stop-color="#A31FA9"/>
<stop offset="0.0667915" stop-color="#8B17A0"/>
<stop offset="0.1494" stop-color="#740F98"/>
<stop offset="0.2393" stop-color="#640A92"/>
<stop offset="0.3408" stop-color="#5B078F"/>
<stop offset="0.4785" stop-color="#58068E"/>
<stop offset="0.6264" stop-color="#4D22A3"/>
<stop offset="0.9436" stop-color="#3168DA"/>
<stop offset="1" stop-color="#2C75E4"/>
</linearGradient>
<linearGradient id="paint26_linear" x1="332.919" y1="289.337" x2="378.739" y2="289.337" gradientUnits="userSpaceOnUse">
<stop stop-color="#D4088C"/>
<stop offset="0.2258" stop-color="#D4088C"/>
<stop offset="0.5108" stop-color="#6EE1F8"/>
<stop offset="0.7796" stop-color="#6EE8FC"/>
<stop offset="1" stop-color="#6EE8FC"/>
</linearGradient>
<linearGradient id="paint27_linear" x1="336.195" y1="276.122" x2="371.426" y2="284.825" gradientUnits="userSpaceOnUse">
<stop stop-color="#8D139B"/>
<stop offset="0.1651" stop-color="#851BA1"/>
<stop offset="0.4284" stop-color="#6E33B2"/>
<stop offset="0.7551" stop-color="#4958CD"/>
<stop offset="1" stop-color="#2979E4"/>
</linearGradient>
<clipPath id="clip0">
<rect width="552" height="337" fill="white"/>
</clipPath>
</defs>
</svg>
